<?xml version="1.0" encoding="UTF-8" standalone="no"?>
<!-- Created with Inkscape (http://www.inkscape.org/) -->

<svg
   version="1.1"
   id="svg389"
   width="442.98734"
   height="140.48332"
   viewBox="0 0 442.98733 140.48332"
   sodipodi:docname="bauherrenKI LOGO.svg"
   inkscape:version="1.2 (dc2aedaf03, 2022-05-15)"
   xmlns:inkscape="http://www.inkscape.org/namespaces/inkscape"
   xmlns:sodipodi="http://sodipodi.sourceforge.net/DTD/sodipodi-0.dtd"
   xmlns="http://www.w3.org/2000/svg"
   xmlns:svg="http://www.w3.org/2000/svg">
  <defs
     id="defs393" />
  <sodipodi:namedview
     id="namedview391"
     pagecolor="#ffffff"
     bordercolor="#999999"
     borderopacity="1"
     inkscape:showpageshadow="0"
     inkscape:pageopacity="0"
     inkscape:pagecheckerboard="0"
     inkscape:deskcolor="#d1d1d1"
     showgrid="false"
     inkscape:zoom="2.1128559"
     inkscape:cx="174.88178"
     inkscape:cy="156.18671"
     inkscape:window-width="1920"
     inkscape:window-height="1129"
     inkscape:window-x="-8"
     inkscape:window-y="-8"
     inkscape:window-maximized="1"
     inkscape:current-layer="g395" />
  <g
     inkscape:groupmode="layer"
     inkscape:label="Image"
     id="g395"
     transform="translate(-18.390208,-9.8996907)">
    <path
       style="fill:#000000;stroke-width:0.290909"
       d="m 403.82053,150.26507 c -0.0667,-0.0662 -0.0769,-0.91706 -0.0227,-1.89091 l 0.0986,-1.77063 h 28.02106 28.02107 l 0.0986,1.77063 c 0.0542,0.97385 0.044,1.82476 -0.0227,1.89091 -0.15848,0.15726 -56.03543,0.15726 -56.19392,0 z M 300.47507,137.10049 c -0.10667,-0.10666 -0.19394,-6.19393 -0.19394,-13.52727 v -13.33333 h 2.47272 c 2.44364,0 2.47273,0.009 2.47273,0.72727 0,0.88044 0.11311,0.89349 1.17711,0.13586 0.45681,-0.32528 1.45885,-0.78205 2.22673,-1.01504 5.29245,-1.6058 10.19127,2.06871 11.17408,8.38144 0.73263,4.70586 -1.29734,9.64986 -4.79965,11.68949 -2.344,1.3651 -6.52713,1.21834 -8.51616,-0.29877 -0.51282,-0.39114 -1.00658,-0.71116 -1.09725,-0.71116 -0.0907,0 -0.16486,1.75327 -0.16486,3.89615 0,3.28442 -0.0723,3.92387 -0.46016,4.07273 -0.62275,0.23897 -4.04887,0.22511 -4.29135,-0.0174 z m 10.82011,-10.75068 c 1.99133,-0.39827 3.28852,-2.645 3.33876,-5.78265 0.0623,-3.88989 -1.73463,-6.25454 -4.75281,-6.25454 -2.326,0 -3.80544,1.38316 -4.55675,4.26014 -0.34024,1.30299 -0.35543,1.9194 -0.0801,3.25541 0.79313,3.84887 2.61347,5.20913 6.05091,4.52164 z m 35.44558,10.76185 c -0.11278,-0.11281 -0.20509,-6.2051 -0.20509,-13.53844 v -13.33333 h 2.47273 c 2.20387,0 2.47273,0.058 2.47273,0.53333 0,0.86983 0.20468,0.86475 2.05207,-0.0509 3.5998,-1.78422 6.7518,-1.2845 9.60084,1.52211 2.36957,2.33424 3.01397,4.11605 3.01004,8.32273 -0.003,2.9508 -0.0717,3.34726 -0.88564,5.09091 -0.96722,2.07216 -2.52099,3.77572 -4.32277,4.73948 -0.93382,0.49949 -1.66126,0.6218 -3.68311,0.61928 -2.3266,-0.003 -2.63433,-0.0745 -4.01935,-0.93549 -0.8249,-0.5128 -1.5529,-0.93236 -1.61774,-0.93236 -0.0649,0 -0.15436,1.8 -0.19887,4 l -0.0809,4 -2.19491,0.0839 c -1.20718,0.0461 -2.28718,-0.008 -2.4,-0.12121 z m 12.22205,-11.39525 c 1.42383,-1.01384 1.95491,-2.45398 1.95253,-5.2947 -0.003,-1.99011 -0.12844,-2.71328 -0.64934,-3.70518 -1.65731,-3.15575 -6.11628,-3.17488 -7.91444,-0.0339 -0.6181,1.07972 -0.72425,1.63088 -0.72006,3.73912 0.004,2.08987 0.11677,2.67093 0.72727,3.75288 0.96113,1.70332 2.30426,2.42598 4.23991,2.28127 0.90525,-0.0677 1.82453,-0.35521 2.36413,-0.73945 z m -79.97273,9.0991 c -0.0986,-0.0986 0.13522,-0.95309 0.51954,-1.89892 0.38433,-0.94582 0.69878,-1.89508 0.69878,-2.10945 0,-0.21437 -0.91637,-2.84945 -2.03637,-5.85573 -1.12,-3.00628 -2.03636,-5.51713 -2.03636,-5.57965 0,-0.29364 1.7392,-0.0703 1.94647,0.24995 0.12944,0.2 0.91588,2.26182 1.74764,4.58182 1.08268,3.01988 1.56594,4.05289 1.70117,3.63636 0.10388,-0.32 0.7979,-2.34909 1.54225,-4.50909 1.18512,-3.43901 1.43893,-3.93938 2.04148,-4.02463 0.37845,-0.0536 0.79777,0.0123 0.93182,0.14637 0.13405,0.13405 -0.97316,3.64695 -2.46048,7.80645 -2.66372,7.44947 -2.71704,7.56401 -3.56047,7.64923 -0.47093,0.0476 -0.9369,0.006 -1.03547,-0.0927 z m 130.46836,-3.78162 c -3.33123,-0.75026 -5.58578,-3.2057 -6.67218,-7.26673 -1.05771,-3.95366 0.12213,-9.02065 2.70089,-11.5994 2.6231,-2.62312 7.25943,-2.99675 9.98697,-0.80484 l 1.13233,0.90995 0.0919,-0.79831 0.0919,-0.79831 2.83636,-0.0833 2.83637,-0.0833 v 7.8069 c 0,8.37267 0.0233,8.50508 1.48689,8.50508 0.7607,0 0.7922,0.063 0.88727,1.77473 0.1164,2.09557 -0.0768,2.27674 -2.67895,2.5127 -1.97463,0.17905 -3.99753,-0.613 -4.64221,-1.81761 -0.48416,-0.90462 -0.60369,-0.90215 -1.47503,0.0305 -1.4834,1.58785 -4.10536,2.26971 -6.58248,1.71182 z m 5.34365,-4.70691 c 0.98059,-0.64251 1.5159,-1.64179 2.00177,-3.73683 1.05618,-4.55415 -1.34851,-8.92431 -4.63755,-8.42812 -2.62723,0.39635 -3.99893,2.53377 -4.01318,6.25347 -0.01,2.50789 0.60794,4.31749 1.86865,5.47574 1.34124,1.23223 3.29318,1.41016 4.78031,0.43574 z m -84.70278,4.60028 c -2.70118,-0.5171 -5.40911,-2.4762 -6.58008,-4.76052 -2.66848,-5.20549 -1.32215,-11.72815 3.04024,-14.72955 3.6912,-2.5396 9.8121,-2.21181 13.22342,0.70814 1.44983,1.241 2.82746,3.95527 3.25376,6.41071 0.59624,3.4344 -0.8512,8.04467 -3.16303,10.07446 -2.26196,1.98605 -6.36326,2.94977 -9.77431,2.29676 z m 5.47651,-5.3562 c 3.32579,-2.5367 2.91886,-8.84241 -0.68943,-10.68321 -1.45274,-0.74115 -3.18147,-0.73185 -4.52782,0.0243 -1.42886,0.80255 -2.01432,1.57332 -2.6005,3.42367 -0.98164,3.09873 0.1458,6.32879 2.66851,7.64514 1.5632,0.81567 3.773,0.63974 5.14924,-0.40996 z m 39.46894,5.36003 c -2.40523,-0.52809 -4.1593,-2.13768 -4.8514,-4.45181 -0.26467,-0.88495 -0.37743,-3.47714 -0.38054,-8.74848 l -0.004,-7.49091 h 2.44631 2.44629 l 0.0992,7.15142 0.0991,7.15142 0.95005,0.84858 c 0.81594,0.72881 1.18548,0.84842 2.61818,0.84749 2.06764,-0.001 3.3077,-0.69304 4.12914,-2.30318 0.54307,-1.06453 0.59354,-1.69626 0.59354,-7.4296 v -6.26613 h 2.47273 2.47272 v 10.18182 10.18182 h -2.47272 c -2.44364,0 -2.47273,-0.009 -2.47273,-0.72728 0,-0.73706 -0.39637,-0.97178 -0.72983,-0.4322 -0.72114,1.16682 -4.98226,2.0213 -7.41563,1.48704 z m 74.82837,-0.0364 c -0.68439,-0.14497 -1.91788,-0.6298 -2.74106,-1.07739 -5.69176,-3.09474 -6.61615,-12.8739 -1.64629,-17.41596 1.38723,-1.26782 2.20338,-1.72139 4.07648,-2.26551 3.02592,-0.879 6.47325,-0.39439 8.72902,1.22707 1.17309,0.84323 2.86258,3.12678 2.86258,3.86911 0,0.27641 -0.56719,0.73766 -1.37263,1.11626 -2.63706,1.23956 -2.59924,1.23785 -3.24288,0.14695 -0.32055,-0.54327 -1.10979,-1.25661 -1.75389,-1.5852 -3.34257,-1.70526 -6.83983,0.6481 -7.2178,4.857 -0.38616,4.2999 2.13507,7.1948 5.78888,6.64688 1.39689,-0.20948 2.40725,-0.98434 3.41987,-2.62281 0.35424,-0.57318 0.70607,-1.04214 0.78185,-1.04214 0.3886,0 3.68727,1.93937 3.80166,2.2351 0.20166,0.52122 -1.27395,2.85779 -2.4654,3.9039 -0.58057,0.50974 -1.60611,1.17034 -2.27904,1.468 -1.43206,0.63347 -4.96227,0.91559 -6.74135,0.53874 z m -181.01004,-0.32708 c -0.39992,-0.15947 -1.02174,-0.56672 -1.38182,-0.905 l -0.65469,-0.61505 v 0.79731 c 0,0.69816 -0.0995,0.78586 -0.8,0.70525 l -0.8,-0.0921 -0.0774,-8.0915 -0.0774,-8.09151 0.95008,0.0915 0.95009,0.0915 0.083,2.98808 0.083,2.98807 1.31365,-0.76985 c 2.24073,-1.31315 4.61422,-0.59031 5.66566,1.72547 0.63615,1.4011 0.75954,4.76074 0.23263,6.33391 -0.82912,2.47544 -3.25612,3.73337 -5.48683,2.84386 z m 3.0779,-2.49361 c 0.79334,-1.18118 1.06036,-2.84306 0.73586,-4.57996 -0.51779,-2.77164 -2.55292,-3.61539 -4.53106,-1.87856 -1.01816,0.89396 -1.0283,0.92609 -1.0283,3.25888 0,2.26261 0.0374,2.39457 0.94269,3.32862 0.80435,0.82988 1.11247,0.95999 2.09959,0.88658 0.92833,-0.069 1.28025,-0.26969 1.78122,-1.01556 z M 393.08113,116.20353 V 101.78 l 2.4,0.0845 2.4,0.0845 v 14.25455 14.25454 l -2.4,0.0845 -2.4,0.0845 z m 36.36363,4.21818 v -10.20535 l 2.4,0.0845 2.4,0.0845 -0.0929,0.79513 c -0.15014,1.28499 0.16593,1.37827 1.23945,0.3658 1.06999,-1.00914 3.2066,-1.8882 4.58935,-1.8882 h 0.83223 l -0.0841,2.54256 -0.084,2.54256 -1.33731,0.1906 c -1.74985,0.24939 -2.97615,0.90518 -3.76547,2.01369 -1.20059,1.68604 -1.46485,3.27407 -1.4254,8.56514 l 0.0369,4.94545 -2.35436,0.0845 -2.35436,0.0845 z m -324.65455,2.61818 v -6.69091 h -43.2 -43.200002 V 82.635901 48.922831 L 53.808391,30.377121 C 73.288392,20.176981 90.015182,11.396781 90.979034,10.865551 L 92.731493,9.8996907 120.36085,24.370901 c 15.19615,7.95916 27.80264,14.57849 28.01442,14.7096 0.25595,0.15846 -6.98627,4.09756 -21.6,11.7484 l -21.98506,11.51002 v 20.31412 20.314119 h 1.30909 1.30909 l 0.002,2.25455 0.002,2.25454 1.49204,-2.25454 c 1.48272,-2.24047 1.49998,-2.25455 2.7631,-2.25455 h 1.27107 l -1.93927,2.91267 -1.93926,2.91267 0.86906,1.23278 c 0.47799,0.67804 1.49233,2.11643 2.2541,3.19643 l 1.38504,1.96363 h -1.44341 -1.4434 l -1.56395,-2.38465 -1.56395,-2.38465 -0.0845,2.38465 -0.0845,2.38465 h -1.29733 c -1.10317,0 -1.29711,0.087 -1.29711,0.58182 0,0.57821 0.19394,0.58182 31.27394,0.58182 H 167.338 l -0.0739,-33.818179 -0.0739,-33.81818 -8.93877,-4.65455 c -4.91633,-2.56 -8.94178,-4.72946 -8.94546,-4.82103 -0.0146,-0.36401 29.74784,-15.73355 30.20318,-15.59715 0.26458,0.0793 17.04105,8.83129 37.28105,19.44895 l 36.8,19.30484 0.0739,33.66856 0.0739,33.668559 h -74.47386 -74.47395 z m -78.842309,-8.21818 c 1.871823,-0.95646 2.441698,-1.89766 2.559623,-4.22749 0.115898,-2.28978 -0.440158,-3.59982 -1.971714,-4.64524 -1.139644,-0.77791 -3.099035,-0.87221 -4.37823,-0.21071 l -0.858281,0.44383 v -1.89837 -1.89838 h -1.309091 -1.30909 v 6.4 6.39999 h 1.30909 c 0.924647,0 1.309091,-0.11893 1.309091,-0.405 0,-0.31994 0.226775,-0.28939 1.079693,0.14545 1.395546,0.7115 2.007731,0.69364 3.568909,-0.10408 z m -2.80004,-1.8956 c -1.079817,-0.17394 -1.703107,-1.15703 -1.703107,-2.68622 0,-1.80712 0.683307,-2.61818 2.205791,-2.61818 0.839084,0 1.239374,0.18044 1.700368,0.7665 0.649397,0.82558 0.812368,2.66223 0.318164,3.58566 -0.328457,0.61373 -1.61236,1.09865 -2.521216,0.95224 z m 12.780838,1.99968 c 0.852918,-0.43484 1.079692,-0.46539 1.079692,-0.14545 0,0.27857 0.363278,0.405 1.163636,0.405 h 1.163637 v -4.94545 -4.94545 h -1.163637 c -0.849108,0 -1.163636,0.11996 -1.163636,0.44383 0,0.39784 -0.08894,0.39784 -0.858281,0 -0.472054,-0.24411 -1.513815,-0.44383 -2.315023,-0.44383 -1.285735,0 -1.591233,0.12806 -2.602405,1.09091 -3.316387,3.15789 -1.408503,8.87904 3.023289,9.0659 0.32617,0.0138 1.078897,-0.2227 1.672728,-0.52546 z m -2.120308,-2.05486 c -0.457208,-0.10819 -0.922189,-0.5683 -1.252171,-1.23905 -0.438583,-0.89151 -0.472837,-1.2603 -0.208301,-2.24271 0.349167,-1.2967 0.965511,-1.76746 2.314074,-1.76746 1.675747,0 2.679419,1.74583 2.068267,3.59764 -0.490289,1.48559 -1.414855,2.0082 -2.921869,1.65158 z m 33.913775,2.05366 c 1.246892,-0.56631 2.626263,-2.02422 2.240023,-2.36756 -0.124587,-0.11076 -0.635458,-0.33758 -1.135264,-0.50405 -0.769445,-0.25629 -0.9981,-0.21332 -1.491717,0.2803 -0.845461,0.84546 -2.643291,0.79171 -3.366811,-0.10066 l -0.554286,-0.68364 3.524413,-0.0817 3.524413,-0.0817 v -1.16403 c 0,-1.51282 -0.578362,-2.82678 -1.714673,-3.89551 -0.773292,-0.72729 -1.200943,-0.87755 -2.784556,-0.97839 -1.544934,-0.0984 -2.048419,-0.01 -2.889382,0.51029 -1.552224,0.95932 -2.353443,2.46843 -2.326458,4.38191 0.03532,2.50469 1.067037,4.04595 3.223083,4.81489 1.503535,0.53623 2.348481,0.5069 3.751215,-0.13019 z m -3.950138,-6.26392 c 0,-0.0686 0.205713,-0.33039 0.457143,-0.58182 0.521644,-0.52164 1.930124,-0.60119 2.761981,-0.156 1.042645,0.55801 0.573746,0.8625 -1.328215,0.8625 -1.04,0 -1.890909,-0.0561 -1.890909,-0.12468 z m 26.931957,6.26392 c 1.246892,-0.56631 2.626263,-2.02422 2.240023,-2.36756 -0.124587,-0.11076 -0.635459,-0.33758 -1.135264,-0.50405 -0.769446,-0.25629 -0.9981,-0.21332 -1.491718,0.2803 -0.84546,0.84546 -2.64329,0.79171 -3.36681,-0.10066 l -0.554286,-0.68364 3.524413,-0.0817 3.524413,-0.0817 v -1.16403 c 0,-1.51282 -0.578362,-2.82678 -1.714674,-3.89551 -0.773291,-0.72729 -1.200942,-0.87755 -2.784555,-0.97839 -1.544934,-0.0984 -2.048419,-0.01 -2.889382,0.51029 -1.552224,0.95932 -2.353443,2.46843 -2.326458,4.38191 0.03532,2.50469 1.067037,4.04595 3.223083,4.81489 1.503535,0.53623 2.34848,0.5069 3.751215,-0.13019 z m -3.950138,-6.26392 c 0,-0.0686 0.205713,-0.33039 0.457143,-0.58182 0.521644,-0.52164 1.930124,-0.60119 2.761981,-0.156 1.042644,0.55801 0.573746,0.8625 -1.328215,0.8625 -1.04,0 -1.890909,-0.0561 -1.890909,-0.12468 z m -40.417241,6.22353 c 0.396742,-0.21233 0.562694,-0.2074 0.562694,0.0167 0,0.19406 0.481571,0.28303 1.236364,0.22842 l 1.236363,-0.0895 0.07976,-4.87273 0.07976,-4.87272 h -1.291092 -1.29109 l -0.09776,3.36947 c -0.0851,2.93323 -0.170869,3.42285 -0.662453,3.78181 -0.690257,0.50405 -1.670999,0.53303 -2.140762,0.0633 -0.23207,-0.23207 -0.349091,-1.4998 -0.349091,-3.78181 v -3.43273 h -1.454545 -1.454546 l 0.01265,2.54545 c 0.02124,4.26788 0.636622,6.10077 2.342647,6.97753 0.856061,0.43995 2.43218,0.47293 3.191081,0.0668 z m 7.253603,-2.94868 c 0,-3.59364 0.289208,-4.31381 1.732361,-4.31381 1.314947,0 1.467639,0.42978 1.467639,4.13091 v 3.43272 h 1.309091 1.309091 v -3.81604 -3.81604 l -1.129411,-1.12941 c -0.951976,-0.95198 -1.320608,-1.12941 -2.346397,-1.12941 -0.669344,0 -1.470199,0.13551 -1.77968,0.30114 -0.527427,0.28227 -0.562694,0.19111 -0.562694,-1.45455 v -1.75568 h -1.309091 -1.309091 v 6.4 6.39999 h 1.309091 1.309091 z m 20.658834,0.41346 c 0.0047,-3.14433 0.313708,-4.0865 1.531497,-4.67042 0.435319,-0.20873 0.793274,-0.536 0.795459,-0.72727 0.0023,-0.19127 0.08291,-0.64231 0.179386,-1.00231 0.146153,-0.54537 0.05924,-0.65454 -0.521062,-0.65454 -0.38306,0 -0.987421,0.20378 -1.343019,0.45285 -0.588131,0.41195 -0.646549,0.41044 -0.646549,-0.0167 0,-0.37254 -0.255493,-0.4511 -1.236363,-0.38013 l -1.236364,0.0895 -0.07976,4.87272 -0.07976,4.87273 h 1.316125 1.316125 l 0.0043,-2.83636 z m 6.395713,-0.0538 c 0,-3.4342 0.239482,-4.20632 1.433771,-4.62265 0.771238,-0.26885 0.893501,-0.45287 0.893501,-1.34479 0,-0.8843 -0.09649,-1.03331 -0.669091,-1.03331 -0.368,0 -0.826181,0.15709 -1.018181,0.34909 -0.271515,0.27151 -0.426668,0.27151 -0.698182,0 -0.192,-0.192 -0.846546,-0.34909 -1.454546,-0.34909 h -1.105454 v 4.94545 4.94545 h 1.309091 1.309091 z m 16.581818,-0.35967 c 0,-3.59364 0.289207,-4.31381 1.732361,-4.31381 1.314945,0 1.467635,0.42978 1.467635,4.13091 v 3.43272 h 1.3091 1.30909 v -3.81604 -3.81604 l -1.12941,-1.12941 c -0.95198,-0.95198 -1.32061,-1.12941 -2.346402,-1.12941 -0.669344,0 -1.470199,0.13551 -1.77968,0.30114 -0.396742,0.21233 -0.562694,0.2074 -0.562694,-0.0167 0,-0.19406 -0.481571,-0.28303 -1.236363,-0.22842 l -1.236364,0.0895 -0.07976,4.87272 -0.07976,4.87273 h 1.316125 1.316125 v -3.24982 z m 17.454546,-2.85927 v -6.10909 h 1.16364 1.16363 v 6.10909 6.10909 h -1.16363 -1.16364 z"
       id="path403" />
  </g>
</svg>
