<?xml version="1.0" encoding="UTF-8" standalone="no"?>
<!-- Created with Inkscape (http://www.inkscape.org/) -->

<svg
   version="1.1"
   id="svg194"
   width="546.1333"
   height="546.1333"
   viewBox="0 0 546.1333 546.1333"
   sodipodi:docname="external link.svg"
   inkscape:version="1.2 (dc2aedaf03, 2022-05-15)"
   xmlns:inkscape="http://www.inkscape.org/namespaces/inkscape"
   xmlns:sodipodi="http://sodipodi.sourceforge.net/DTD/sodipodi-0.dtd"
   xmlns="http://www.w3.org/2000/svg"
   xmlns:svg="http://www.w3.org/2000/svg">
  <defs
     id="defs198" />
  <sodipodi:namedview
     id="namedview196"
     pagecolor="#ffffff"
     bordercolor="#999999"
     borderopacity="1"
     inkscape:showpageshadow="0"
     inkscape:pageopacity="0"
     inkscape:pagecheckerboard="0"
     inkscape:deskcolor="#d1d1d1"
     showgrid="false"
     inkscape:zoom="0.86425786"
     inkscape:cx="341.91184"
     inkscape:cy="259.18191"
     inkscape:window-width="1920"
     inkscape:window-height="1129"
     inkscape:window-x="-8"
     inkscape:window-y="-8"
     inkscape:window-maximized="1"
     inkscape:current-layer="g200" />
  <g
     inkscape:groupmode="layer"
     inkscape:label="Image"
     id="g200">
    <path
       style="fill:#ffffff;stroke-width:1.06667"
       d="m 68.799994,505.0916 c -30.2583,-6.64475 -55.83297,-30.47448 -65.2788798,-60.82496 l -2.98778,-9.6 V 292.79998 c 0,-159.97838 -0.70393,-146.28526 8.49942,-165.33332 9.3224698,-19.29458 28.3088798,-36.786555 47.5517098,-43.808893 14.61082,-5.331961 8.6749,-5.081366 130.615526,-5.514133 77.56662,-0.275284 115.35484,-0.04706 117.94595,0.71233 5.78902,1.696623 6.85404,4.715035 6.85404,19.425281 0,12.353565 -0.059,12.664115 -2.9572,15.561925 l -2.95722,2.95682 -114.90944,0.53334 -114.909456,0.53333 -6.13556,2.47747 c -10.12362,4.08781 -20.74361,13.59695 -25.41779,22.7591 -5.43104,10.64572 -5.22275,4.68573 -5.2351,149.79643 -0.0111,130.34245 0.0664,135.79292 2.01154,141.44655 5.95115,17.2973 21.13704,30.23103 38.68125,32.94457 4.23772,0.65543 56.141956,0.92021 139.028986,0.70921 114.16494,-0.29062 132.85058,-0.55487 136.53332,-1.93081 18.24939,-6.81835 31.09604,-21.93965 33.65111,-39.60943 0.53497,-3.69954 0.98231,-29.66825 0.99411,-57.70825 l 0.0215,-50.98182 2.61818,-2.61818 c 2.51313,-2.51314 3.17845,-2.61819 16.58181,-2.61819 13.47493,0 14.05704,0.0934 16.63217,2.66854 l 2.66854,2.66853 -0.35715,58.93146 c -0.39621,65.37615 -0.21401,63.52412 -7.84361,79.73147 -11.5346,24.50262 -34.82066,43.02842 -61.08089,48.59442 -10.12832,2.14676 -281.032046,2.11309 -290.819036,-0.0362 z M 250.13332,375.49774 c -1.17334,-0.49519 -10.89333,-9.73424 -21.6,-20.53123 -18.58795,-18.74476 -19.46667,-19.81944 -19.46667,-23.80767 0,-4.11699 1.43844,-5.61575 100.4963,-104.71062 L 410.05924,125.91439 381.67392,97.349975 C 356.89424,72.413943 353.12798,68.189051 352.02411,64.089599 c -2.39713,-8.902249 1.66937,-18.456011 9.57167,-22.487455 4.19419,-2.139721 5.56052,-2.168914 88.34892,-1.887739 l 84.08885,0.285593 4.03265,3.076172 c 2.21795,1.691896 4.92985,5.051895 6.02644,7.466666 1.89166,4.165561 1.99381,8.571011 1.99381,85.990484 0,77.41949 -0.10218,81.82493 -1.99381,85.9905 -2.96905,6.53804 -8.55395,10.32434 -16.02593,10.86482 -4.38554,0.31721 -7.15764,-0.078 -9.76238,-1.39184 -2.00073,-1.00918 -16.12406,-14.25591 -31.38517,-29.43718 l -27.74748,-27.60231 -99.18585,99.29329 c -57.74286,57.8054 -100.62001,99.91781 -102.61825,100.78799 -3.87397,1.68701 -4.26595,1.71189 -7.23426,0.45915 z"
       id="path258" />
  </g>
</svg>
