<?xml version="1.0" encoding="UTF-8" standalone="no"?>
<svg
   xmlns:dc="http://purl.org/dc/elements/1.1/"
   xmlns:cc="http://creativecommons.org/ns#"
   xmlns:rdf="http://www.w3.org/1999/02/22-rdf-syntax-ns#"
   xmlns:svg="http://www.w3.org/2000/svg"
   xmlns="http://www.w3.org/2000/svg"
   xmlns:sodipodi="http://sodipodi.sourceforge.net/DTD/sodipodi-0.dtd"
   xmlns:inkscape="http://www.inkscape.org/namespaces/inkscape"
   width="210mm"
   height="297mm"
   viewBox="0 0 210 297"
   version="1.1"
   id="svg8"
   inkscape:export-filename="C:\Users\kalle\OneDrive\Desktop\cbb\house 32x32.png"
   inkscape:export-xdpi="2.4376802"
   inkscape:export-ydpi="2.4376802"
   inkscape:version="1.0.2 (e86c870879, 2021-01-15, custom)"
   sodipodi:docname="haus rot.svg">
  <defs
     id="defs2" />
  <sodipodi:namedview
     id="base"
     pagecolor="#ffffff"
     bordercolor="#666666"
     borderopacity="1.0"
     inkscape:pageopacity="0.0"
     inkscape:pageshadow="2"
     inkscape:zoom="0.35"
     inkscape:cx="861.07696"
     inkscape:cy="542.85714"
     inkscape:document-units="mm"
     inkscape:current-layer="layer1"
     inkscape:document-rotation="0"
     showgrid="false"
     inkscape:window-width="1920"
     inkscape:window-height="1137"
     inkscape:window-x="1912"
     inkscape:window-y="-8"
     inkscape:window-maximized="1" />
  <metadata
     id="metadata5">
    <rdf:RDF>
      <cc:Work
         rdf:about="">
        <dc:format>image/svg+xml</dc:format>
        <dc:type
           rdf:resource="http://purl.org/dc/dcmitype/StillImage" />
        <dc:title></dc:title>
      </cc:Work>
    </rdf:RDF>
  </metadata>
  <g
     inkscape:label="Ebene 1"
     inkscape:groupmode="layer"
     id="layer1">
    <rect
       style="fill:#a52a2a;stroke-width:0.264583"
       id="rect10"
       width="333.375"
       height="333.375"
       x="-15.119048"
       y="-8.3154755"
       inkscape:export-xdpi="2.4376802"
       inkscape:export-ydpi="2.4376802" />
    <g
       id="g26"
       transform="translate(27.26447,0.62012324)"
       style="fill:#ffffff"
       inkscape:export-xdpi="2.4376802"
       inkscape:export-ydpi="2.4376802">
      <path
         style="fill:#ffffff;fill-opacity:1;stroke-width:0.651123"
         d="m 271.22209,237.37864 c 6.5e-4,-5.37176 0.10177,-7.48266 0.22411,-4.69087 0.12235,2.79177 0.12161,7.18685 -0.002,9.76684 -0.12326,2.57999 -0.22336,0.2958 -0.22245,-5.07597 z M -6.7559755,182.03319 c 3.97e-5,-32.23059 0.079386,-45.32049 0.1763241,-29.08865 0.096939,16.23183 0.096907,42.60231 -7.16e-5,58.60107 -0.096978,15.99876 -0.1762922,2.71817 -0.1762525,-29.51242 z M 54.43807,189.5211 c 0,-16.65247 0.08432,-23.46485 0.18738,-15.13861 0.10306,8.32624 0.10306,21.95099 0,30.27722 -0.10306,8.32624 -0.18738,1.51386 -0.18738,-15.13861 z m 40.244437,-63.61016 c 0.633524,-0.16508 1.51254,-0.15423 1.95337,0.0242 0.440829,0.17836 -0.0775,0.31343 -1.151857,0.30016 -1.074353,-0.0133 -1.435036,-0.1592 -0.801513,-0.32428 z m -31.253906,-0.65112 c 0.633523,-0.16509 1.512539,-0.15423 1.953369,0.0242 0.44083,0.17836 -0.0775,0.31343 -1.151856,0.30016 -1.074353,-0.0133 -1.435036,-0.1592 -0.801513,-0.32429 z m -30.940735,-0.63113 c 0.447647,-0.18062 1.18016,-0.18062 1.627807,0 0.447647,0.18063 0.08139,0.32842 -0.813904,0.32842 -0.895294,0 -1.261551,-0.14779 -0.813903,-0.32842 z M 1.2339593,123.97757 c 0.4476471,-0.18063 1.1801606,-0.18063 1.6278076,0 0.4476471,0.18063 0.08139,0.32842 -0.8139038,0.32842 -0.8952941,0 -1.26155086,-0.14779 -0.8139038,-0.32842 z m -31.2539063,-0.65112 c 0.447647,-0.18063 1.180161,-0.18063 1.627808,0 0.447647,0.18063 0.08139,0.32842 -0.813904,0.32842 -0.895294,0 -1.261551,-0.14779 -0.813904,-0.32842 z m 142.282777,-9.78684 c 0.63352,-0.16509 1.51254,-0.15424 1.95337,0.0242 0.44083,0.17836 -0.0775,0.31343 -1.15186,0.30016 -1.07435,-0.0133 -1.43503,-0.1592 -0.80151,-0.32428 z M 18.584692,28.042585 c 0,-5.192706 0.10112,-7.316995 0.224711,-4.720642 0.12359,2.596353 0.12359,6.844931 0,9.441284 -0.123591,2.596354 -0.224711,0.472065 -0.224711,-4.720642 z"
         id="path42" />
      <path
         style="fill:#ffffff;fill-opacity:1;stroke-width:0.651123"
         d="m 271.24171,212.96153 c 0,-8.41576 0.0928,-11.85858 0.20621,-7.6507 0.11341,4.20789 0.11341,11.09351 0,15.3014 -0.11342,4.20788 -0.20621,0.76507 -0.20621,-7.6507 z M 97.60017,125.93094 c 0.447647,-0.18063 1.180161,-0.18063 1.627808,0 0.447647,0.18063 0.08139,0.32842 -0.813904,0.32842 -0.895294,0 -1.261551,-0.14779 -0.813904,-0.32842 z m -31.253906,-0.65112 c 0.447647,-0.18063 1.180161,-0.18063 1.627808,0 0.447647,0.18062 0.08139,0.32842 -0.813904,0.32842 -0.895294,0 -1.261551,-0.1478 -0.813904,-0.32842 z m -31.253906,-0.65113 c 0.447647,-0.18062 1.18016,-0.18062 1.627807,0 0.447647,0.18063 0.08139,0.32842 -0.813903,0.32842 -0.895295,0 -1.261551,-0.14779 -0.813904,-0.32842 z M 3.8384515,123.97757 c 0.4476471,-0.18063 1.1801605,-0.18063 1.6278076,0 0.4476471,0.18063 0.08139,0.32842 -0.8139038,0.32842 -0.8952942,0 -1.2615509,-0.14779 -0.8139038,-0.32842 z m -30.9159525,-0.67112 c 0.633521,-0.16508 1.512537,-0.15423 1.953369,0.0242 0.440831,0.17836 -0.0775,0.31343 -1.151857,0.30016 -1.074353,-0.0133 -1.435034,-0.1592 -0.801512,-0.32429 z m 311.590681,-4.55143 c 0.47003,-0.18809 1.03163,-0.16496 1.24799,0.0514 0.21636,0.21636 -0.16821,0.37025 -0.8546,0.34198 -0.75853,-0.0312 -0.91281,-0.18553 -0.39339,-0.39338 z m -25.73661,-5.08975 c 0.005,-1.79059 0.13135,-2.44582 0.28101,-1.45608 0.14966,0.98975 0.14566,2.45478 -0.009,3.25562 -0.15455,0.80084 -0.277,-0.009 -0.27212,-1.79954 z M 110.0122,113.54604 c 0.47003,-0.18809 1.03162,-0.16496 1.24799,0.0514 0.21636,0.21636 -0.16821,0.37026 -0.8546,0.34199 -0.75852,-0.0313 -0.91281,-0.18554 -0.39339,-0.39339 z"
         id="path40" />
      <path
         style="fill:#ffffff;fill-opacity:1;stroke-width:0.651123"
         d="m 185.32674,215.24046 c -3e-5,-36.16988 0.0787,-51.06225 0.17488,-33.09413 0.0962,17.9681 0.0962,47.56164 6e-5,65.76342 -0.0962,18.20178 -0.17491,3.5006 -0.17494,-32.66929 z M 4.9487596,177.80089 c 0,-14.14565 0.086006,-19.93251 0.1911241,-12.85968 0.105118,7.07282 0.105118,18.64653 0,25.71936 -0.1051179,7.07282 -0.1911241,1.28596 -0.1911241,-12.85968 z m 266.2937204,4.88342 c 4.3e-4,-8.59483 0.0931,-12.02083 0.20589,-7.61335 0.11281,4.40747 0.11247,11.4396 -6.5e-4,15.62695 -0.11324,4.18734 -0.20554,0.58122 -0.20512,-8.0136 z m -12.36984,-50.13648 c -4e-4,-8.95294 0.0913,-12.70582 0.20379,-8.33972 0.11248,4.3661 0.1128,11.69123 6.5e-4,16.27807 -0.11202,4.58685 -0.20404,1.0146 -0.20444,-7.93835 z m -158.33003,-6.63689 c 0.63353,-0.16508 1.51254,-0.15423 1.95337,0.0242 0.44083,0.17836 -0.0775,0.31343 -1.15185,0.30016 -1.07436,-0.0133 -1.435038,-0.1592 -0.80152,-0.32428 z m -31.591854,-0.63112 c 0.447647,-0.18063 1.180161,-0.18063 1.627808,0 0.447647,0.18062 0.08139,0.32842 -0.813904,0.32842 -0.895294,0 -1.261551,-0.1478 -0.813904,-0.32842 z M 37.69685,124.62869 c 0.447647,-0.18062 1.18016,-0.18062 1.627808,0 0.447647,0.18063 0.08139,0.32842 -0.813904,0.32842 -0.895294,0 -1.261551,-0.14779 -0.813904,-0.32842 z M 6.7808974,123.95757 c 0.6335212,-0.16508 1.5125374,-0.15423 1.9533691,0.0242 0.4408312,0.17836 -0.077504,0.31343 -1.1518575,0.30016 -1.074353,-0.0133 -1.4350335,-0.1592 -0.8015116,-0.32428 z m -30.9407364,-0.63112 c 0.447647,-0.18063 1.18016,-0.18063 1.627807,0 0.447647,0.18063 0.08139,0.32842 -0.813904,0.32842 -0.895294,0 -1.261551,-0.14779 -0.813903,-0.32842 z M 62.837036,20.229109 c 0,-3.402118 0.109741,-4.793894 0.243872,-3.092835 0.134131,1.701059 0.134131,4.48461 0,6.185669 -0.134131,1.701059 -0.243872,0.309284 -0.243872,-3.092834 z M 199.21606,-8.8650965 c 0.47003,-0.1880904 1.03163,-0.1649584 1.24799,0.051404 0.21636,0.2163628 -0.16821,0.3702549 -0.8546,0.3419824 -0.75853,-0.031243 -0.91281,-0.1855312 -0.39339,-0.3933864 z"
         id="path38" />
      <path
         style="fill:#ffffff;fill-opacity:1;stroke-width:0.651123"
         d="m 98.066133,198.96239 c 1.05e-4,-18.98024 0.08326,-26.65102 0.184789,-17.04617 0.101523,9.60484 0.101439,25.13413 -1.95e-4,34.50952 -0.101634,9.37539 -0.184704,1.51688 -0.184594,-17.46335 z M 36.856458,184.63768 c 1.5e-4,-15.75718 0.08508,-22.11013 0.188735,-14.11767 0.103659,7.99246 0.103535,20.8847 -2.67e-4,28.64941 -0.103809,7.76472 -0.188617,1.22544 -0.188468,-14.53174 z m 222.013912,-21.1615 c 0,-8.41577 0.0928,-11.85858 0.20621,-7.6507 0.11342,4.20789 0.11342,11.09351 0,15.30139 -0.11342,4.20789 -0.20621,0.76507 -0.20621,-7.65069 z m 12.37051,-10.74353 c 4.5e-4,-8.23671 0.0938,-11.51649 0.20736,-7.2884 0.11359,4.22809 0.11322,10.96721 -6.5e-4,14.97583 -0.11405,4.00862 -0.20699,0.54928 -0.20653,-7.68743 z M 103.79823,125.91094 c 0.63352,-0.16508 1.51254,-0.15423 1.95337,0.0242 0.44083,0.17836 -0.0775,0.31343 -1.15186,0.30016 -1.07435,-0.0133 -1.43503,-0.1592 -0.80151,-0.32428 z m -32.242982,-0.63112 c 0.447647,-0.18063 1.180161,-0.18063 1.627808,0 0.447647,0.18062 0.08139,0.32842 -0.813904,0.32842 -0.895294,0 -1.261551,-0.1478 -0.813904,-0.32842 z m -31.253906,-0.65113 c 0.447647,-0.18062 1.180161,-0.18062 1.627808,0 0.447647,0.18063 0.08139,0.32842 -0.813904,0.32842 -0.895294,0 -1.261551,-0.14779 -0.813904,-0.32842 z M 9.6985589,123.97757 c 0.4476471,-0.18063 1.1801601,-0.18063 1.6278081,0 0.447647,0.18063 0.08139,0.32842 -0.813904,0.32842 -0.8952944,0 -1.2615512,-0.14779 -0.8139041,-0.32842 z m -31.2539059,-0.65112 c 0.447647,-0.18063 1.18016,-0.18063 1.627807,0 0.447647,0.18063 0.08139,0.32842 -0.813904,0.32842 -0.895294,0 -1.26155,-0.14779 -0.813903,-0.32842 z"
         id="path36" />
      <path
         style="fill:#ffffff;fill-opacity:1;stroke-width:0.651123"
         d="m 258.87192,194.07896 c 0,-8.77388 0.0922,-12.3632 0.20481,-7.97625 0.11265,4.38694 0.11265,11.56557 0,15.95251 -0.11265,4.38694 -0.20481,0.79763 -0.20481,-7.97626 z m 12.35333,-66.08899 c 6.5e-4,-5.72988 0.10044,-7.98676 0.22136,-5.01529 0.12092,2.97148 0.12024,7.65957 -0.001,10.41797 -0.12174,2.75841 -0.22068,0.32721 -0.21986,-5.40268 z m -164.1714,-2.07903 c 0.63352,-0.16508 1.51253,-0.15423 1.95336,0.0242 0.44083,0.17836 -0.0775,0.31343 -1.15185,0.30016 -1.07435,-0.0133 -1.43504,-0.1592 -0.80151,-0.32428 z m -32.894109,-0.63112 c 0.447647,-0.18063 1.18016,-0.18063 1.627807,0 0.447647,0.18062 0.08139,0.32842 -0.813904,0.32842 -0.895294,0 -1.261551,-0.1478 -0.813903,-0.32842 z M 43.243787,124.6087 c 0.633523,-0.16509 1.512539,-0.15423 1.953369,0.0242 0.44083,0.17837 -0.0775,0.31344 -1.151856,0.30017 -1.074353,-0.0133 -1.435036,-0.1592 -0.801513,-0.32429 z m -30.940736,-0.63113 c 0.447647,-0.18063 1.180161,-0.18063 1.627808,0 0.447647,0.18063 0.08139,0.32842 -0.813904,0.32842 -0.895294,0 -1.261551,-0.14779 -0.813904,-0.32842 z"
         id="path34" />
      <path
         style="fill:#ffffff;fill-opacity:1;stroke-width:0.651123"
         d="m 258.87114,225.00731 c 4.3e-4,-8.59483 0.0931,-12.02083 0.20589,-7.61336 0.11282,4.40748 0.11247,11.43961 -6.5e-4,15.62696 -0.11336,4.18734 -0.20566,0.58122 -0.20524,-8.0136 z M 110.30946,125.91094 c 0.63352,-0.16508 1.51254,-0.15423 1.95337,0.0242 0.44083,0.17836 -0.0775,0.31343 -1.15186,0.30016 -1.07435,-0.0133 -1.43503,-0.1592 -0.80151,-0.32428 z m -33.545227,-0.63112 c 0.447647,-0.18063 1.18016,-0.18063 1.627807,0 0.447647,0.18062 0.08139,0.32842 -0.813903,0.32842 -0.895295,0 -1.261551,-0.1478 -0.813904,-0.32842 z M 46.16145,124.62869 c 0.447647,-0.18062 1.18016,-0.18062 1.627807,0 0.447647,0.18063 0.08139,0.32842 -0.813904,0.32842 -0.895294,0 -1.261551,-0.14779 -0.813903,-0.32842 z m -31.253907,-0.65112 c 0.447647,-0.18063 1.180161,-0.18063 1.627808,0 0.447647,0.18063 0.08139,0.32842 -0.813904,0.32842 -0.895294,0 -1.261551,-0.14779 -0.813904,-0.32842 z"
         id="path32" />
      <path
         style="fill:#ffffff;fill-opacity:1;stroke-width:0.651123"
         d="m -19.126895,183.98656 c 3.7e-5,-33.30495 0.0792,-46.83428 0.175914,-30.06518 0.09672,16.7691 0.09668,44.0186 -6.8e-5,60.55444 -0.09675,16.53585 -0.175883,2.81568 -0.175846,-30.48926 z m 277.602965,57.83653 c 0.27786,-1.36277 0.44159,-1.5265 0.63134,-0.63133 0.1409,0.66475 -0.0279,1.49273 -0.37515,1.83996 -0.40769,0.4077 -0.49844,-0.0204 -0.25619,-1.20863 z M 113.56508,125.91094 c 0.63352,-0.16508 1.51254,-0.15423 1.95336,0.0242 0.44083,0.17836 -0.0775,0.31343 -1.15185,0.30016 -1.07435,-0.0133 -1.43504,-0.1592 -0.80151,-0.32428 z m -33.858403,-0.65112 c 0.633524,-0.16509 1.51254,-0.15423 1.953369,0.0242 0.44083,0.17836 -0.0775,0.31343 -1.151856,0.30016 -1.074353,-0.0133 -1.435036,-0.1592 -0.801513,-0.32429 z m -30.940735,-0.63113 c 0.447647,-0.18062 1.18016,-0.18062 1.627807,0 0.447647,0.18063 0.08139,0.32842 -0.813903,0.32842 -0.895295,0 -1.261551,-0.14779 -0.813904,-0.32842 z m -31.253906,-0.65112 c 0.447647,-0.18063 1.18016,-0.18063 1.627807,0 0.447647,0.18063 0.08139,0.32842 -0.813904,0.32842 -0.895294,0 -1.261551,-0.14779 -0.813903,-0.32842 z"
         id="path30" />
      <path
         style="fill:#ffffff;fill-opacity:1;stroke-width:0.651123"
         d="m 54.78883,286.45453 c -39.213886,-20.42377 -71.737482,-37.56064 -72.274658,-38.08192 -0.850106,-0.82495 -1.018878,-8.98254 -1.302246,-62.94414 l -0.325562,-61.99636 -9.265468,-0.32556 c -8.812989,-0.30966 -9.34365,-0.40506 -10.866399,-1.95337 -3.429462,-3.48704 -3.867888,-2.33108 15.234911,-40.168398 C -14.281826,61.714808 -5.6540962,45.34055 -4.8378588,44.597538 -3.8547528,43.702627 0.41520987,42.292234 7.8116356,40.41934 18.977062,37.592074 18.977062,37.592074 18.977062,27.293056 c 0,-10.299018 0,-10.299018 1.790589,-12.200171 1.337769,-1.420374 4.395556,-2.822596 12.091426,-5.5448188 5.665461,-2.0040155 11.287635,-3.6436644 12.493717,-3.6436644 2.211741,0 9.259836,1.4356299 13.191316,2.6869465 3.215467,1.0234222 4.058196,3.2982067 4.058196,10.9543027 0,3.598961 0.244048,6.543565 0.542321,6.543565 0.298279,0 30.841895,-7.764642 67.874703,-17.2547605 37.03282,-9.49011842 68.06709,-17.2533054 68.96507,-17.2515266 0.89797,0.00178 2.39919,0.661041 3.33603,1.4650269 2.73506,2.3471746 87.58916,116.5277442 88.06916,118.5067842 0.52008,2.14427 -0.93504,5.31927 -2.92627,6.38494 -0.94279,0.50456 -3.87272,0.58734 -9.43455,0.26654 l -8.06709,-0.46529 v 64.8974 c 0,54.97874 -0.1422,65.17238 -0.93041,66.69662 -0.76134,1.47226 -13.58351,8.38839 -70.55837,38.05836 -46.55436,24.24344 -70.25065,36.24857 -71.50703,36.22725 -1.17211,-0.0199 -28.703213,-14.00272 -73.17704,-37.16603 z m 67.06567,-69.5255 V 126.4837 l -6.02288,-0.35959 c -5.59336,-0.33395 -109.7598002,-2.424 -118.8299605,-2.38426 -4.069519,0.0178 -4.069519,0.0178 -4.069519,58.47908 v 58.46125 L 56.90498,274.0066 c 35.185061,18.32953 64.19259,33.33572 64.46118,33.34709 0.26859,0.0114 0.48834,-40.67972 0.48834,-90.42466 z m -45.919153,11.44529 c -10.751774,-3.64244 -19.908192,-6.85968 -20.347596,-7.1494 -0.612719,-0.404 -0.798921,-7.80672 -0.798921,-31.76268 0,-27.55437 0.118439,-31.28136 1.004898,-31.62153 1.154499,-0.44302 38.290957,4.74108 40.504196,5.65423 1.465027,0.60444 1.465027,0.60444 1.465027,35.70938 0,31.41047 -0.108392,35.14654 -1.02994,35.50017 -0.566464,0.21738 -1.079223,0.3721 -1.139465,0.34384 -0.06023,-0.0282 -8.906432,-3.03155 -19.658199,-6.67401 z M 19.302624,209.51019 5.6290399,204.82249 5.4590219,177.94601 c -0.1544106,-24.40918 -0.071961,-26.91411 0.8981253,-27.28637 1.2403816,-0.47598 28.9404248,3.4828 29.7026038,4.24498 0.281168,0.28117 0.434904,13.67875 0.341644,29.77241 -0.169572,29.26119 -0.169572,29.26119 -1.79738,29.39102 -0.895294,0.0714 -7.78092,-1.97963 -15.301391,-4.55786 z m 141.071086,84.72171 25.29085,-13.14249 v -65.88924 c 0,-51.94441 0.17226,-66.02135 0.81391,-66.51344 1.33622,-1.02476 35.06646,-3.54452 36.08891,-2.69595 0.70371,0.58402 0.86232,11.24067 0.86232,57.93475 0,31.47051 0.10409,57.21911 0.23132,57.21911 0.12722,0 8.18487,-4.12833 17.90588,-9.17406 l 17.67457,-9.17405 v -66.63182 c 0,-66.63183 0,-66.63183 1.68568,-68.63515 1.60621,-1.90887 1.91579,-2.00333 6.5655,-2.00333 2.83764,0 4.78897,-0.26186 4.66275,-0.62572 C 272.03603,104.55635 255.56792,82.377306 235.55959,55.613725 205.64969,15.605566 199.05008,7.1297086 198.44558,7.9482731 198.0412,8.4958539 177.93248,32.295351 153.75953,60.836046 c -24.17294,28.54069 -44.0398,52.150224 -44.14857,52.465644 -0.10877,0.31541 4.49995,0.67275 10.2416,0.79409 10.41409,0.22008 10.44373,0.22498 12.24354,2.02593 1.80418,1.80533 1.80418,1.80533 1.97343,96.52899 0.0931,52.09802 0.35916,94.72367 0.59129,94.72367 0.23212,0 11.80292,-5.91412 25.71289,-13.14247 z"
         id="path28" />
    </g>
  </g>
</svg>
