<?xml version="1.0" encoding="UTF-8" standalone="no"?>
<!-- Created with Inkscape (http://www.inkscape.org/) -->

<svg
   width="100mm"
   height="100mm"
   viewBox="0 0 100 100"
   version="1.1"
   id="svg5"
   xml:space="preserve"
   inkscape:version="1.2 (dc2aedaf03, 2022-05-15)"
   sodipodi:docname="IF2_essenWH.svg"
   inkscape:export-filename="IF2_essenWH.png"
   inkscape:export-xdpi="96"
   inkscape:export-ydpi="96"
   xmlns:inkscape="http://www.inkscape.org/namespaces/inkscape"
   xmlns:sodipodi="http://sodipodi.sourceforge.net/DTD/sodipodi-0.dtd"
   xmlns="http://www.w3.org/2000/svg"
   xmlns:svg="http://www.w3.org/2000/svg"><sodipodi:namedview
     id="namedview7"
     pagecolor="#1b11f1"
     bordercolor="#999999"
     borderopacity="1"
     inkscape:showpageshadow="0"
     inkscape:pageopacity="0"
     inkscape:pagecheckerboard="0"
     inkscape:deskcolor="#d1d1d1"
     inkscape:document-units="mm"
     showgrid="false"
     inkscape:zoom="0.84096521"
     inkscape:cx="421.53944"
     inkscape:cy="284.19725"
     inkscape:window-width="1920"
     inkscape:window-height="1129"
     inkscape:window-x="-8"
     inkscape:window-y="-8"
     inkscape:window-maximized="1"
     inkscape:current-layer="layer1" /><defs
     id="defs2"><inkscape:path-effect
       effect="fillet_chamfer"
       id="path-effect5821"
       is_visible="true"
       lpeversion="1"
       nodesatellites_param="F,0,0,1,0,0,0,1 @ F,0,0,1,0,0,0,1 @ F,0,0,1,0,1.5875,0,1 @ F,0,0,1,0,1.5875,0,1"
       unit="px"
       method="auto"
       mode="F"
       radius="6"
       chamfer_steps="1"
       flexible="false"
       use_knot_distance="true"
       apply_no_radius="true"
       apply_with_radius="true"
       only_selected="false"
       hide_knots="false" /><inkscape:path-effect
       effect="fillet_chamfer"
       id="path-effect5765"
       is_visible="true"
       lpeversion="1"
       nodesatellites_param="F,0,0,1,0,5.55625,0,1 @ F,0,0,1,0,5.55625,0,1 @ F,0,0,1,0,5.55625,0,1 @ F,0,0,1,0,5.55625,0,1"
       unit="px"
       method="auto"
       mode="F"
       radius="21"
       chamfer_steps="1"
       flexible="false"
       use_knot_distance="true"
       apply_no_radius="true"
       apply_with_radius="true"
       only_selected="false"
       hide_knots="false" /><inkscape:path-effect
       effect="fillet_chamfer"
       id="path-effect5761"
       is_visible="true"
       lpeversion="1"
       nodesatellites_param="F,0,0,1,0,3.96875,0,1 @ F,0,0,1,0,3.96875,0,1 @ F,0,0,1,0,3.96875,0,1 @ F,0,0,1,0,3.96875,0,1 @ F,0,0,1,0,3.96875,0,1 | F,0,0,1,0,3.96875,0,1 @ F,0,0,1,0,3.96875,0,1 @ F,0,0,1,0,3.96875,0,1 @ F,0,0,1,0,3.96875,0,1"
       unit="px"
       method="auto"
       mode="F"
       radius="15"
       chamfer_steps="1"
       flexible="false"
       use_knot_distance="true"
       apply_no_radius="true"
       apply_with_radius="true"
       only_selected="false"
       hide_knots="false" /><inkscape:path-effect
       effect="fillet_chamfer"
       id="path-effect5821-8"
       is_visible="true"
       lpeversion="1"
       nodesatellites_param="F,0,0,1,0,0,0,1 @ F,0,0,1,0,0,0,1 @ F,0,0,1,0,1.5875,0,1 @ F,0,0,1,0,1.5875,0,1"
       unit="px"
       method="auto"
       mode="F"
       radius="6"
       chamfer_steps="1"
       flexible="false"
       use_knot_distance="true"
       apply_no_radius="true"
       apply_with_radius="true"
       only_selected="false"
       hide_knots="false" /><inkscape:path-effect
       effect="fillet_chamfer"
       id="path-effect5821-8-6"
       is_visible="true"
       lpeversion="1"
       nodesatellites_param="F,0,0,1,0,0,0,1 @ F,0,0,1,0,0,0,1 @ F,0,0,1,0,1.5875,0,1 @ F,0,0,1,0,1.5875,0,1"
       unit="px"
       method="auto"
       mode="F"
       radius="6"
       chamfer_steps="1"
       flexible="false"
       use_knot_distance="true"
       apply_no_radius="true"
       apply_with_radius="true"
       only_selected="false"
       hide_knots="false" /><inkscape:path-effect
       effect="fillet_chamfer"
       id="path-effect5821-8-6-5"
       is_visible="true"
       lpeversion="1"
       nodesatellites_param="F,0,0,1,0,0,0,1 @ F,0,0,1,0,0,0,1 @ F,0,0,1,0,1.5875,0,1 @ F,0,0,1,0,1.5875,0,1"
       unit="px"
       method="auto"
       mode="F"
       radius="6"
       chamfer_steps="1"
       flexible="false"
       use_knot_distance="true"
       apply_no_radius="true"
       apply_with_radius="true"
       only_selected="false"
       hide_knots="false" /></defs><g
     inkscape:label="Ebene 1"
     inkscape:groupmode="layer"
     id="layer1"><g
       id="g23328"
       transform="matrix(0.61355197,0,0,0.61355197,23.903799,24.329878)"
       style="fill:#ffffff"><path
         d="M 64.836,7.68 C 34.177,7.68 9.32,33.073 9.32,64.391 c 0,31.319 24.857,56.71 55.516,56.71 30.663,0 55.52,-25.392 55.52,-56.71 C 120.355,33.073 95.499,7.68 64.836,7.68 m 0,106.841 c -27.09,0 -49.131,-22.486 -49.131,-50.13 0,-27.643 22.041,-50.131 49.131,-50.131 27.094,0 49.132,22.488 49.132,50.131 0,27.644 -22.038,50.13 -49.132,50.13"
         id="path23314"
         style="fill:#ffffff" /><path
         d="m 64.836,19.521 c -24.188,0 -43.87,20.13 -43.87,44.872 0,18.771 11.334,34.879 27.368,41.559 L 47.337,81.04 C 39.212,80.499 37.321,74.696 36.907,72.638 l -0.045,0.007 -0.014,-0.339 C 36.804,72.06 36.793,71.912 36.793,71.912 l 0.038,-0.004 -1.497,-35.357 2.538,-0.233 2.867,31.481 4.028,-0.367 -2.864,-31.48 2.531,-0.231 2.867,31.479 4.028,-0.363 -2.863,-31.482 2.538,-0.231 2.863,31.48 4.028,-0.366 -2.863,-31.479 2.531,-0.231 4.918,35.045 h 0.034 c 0,0 0.014,0.145 0.021,0.395 l 0.044,0.335 -0.044,0.007 c -0.038,2.097 -0.846,8.146 -8.741,10.146 l 4.021,28.228 c 2.288,0.377 4.631,0.579 7.018,0.579 1.34,0 2.662,-0.072 3.967,-0.192 L 68.643,109.034 77.57,77.148 C 70.383,73.932 66.304,65.489 68.613,55.269 71.219,43.719 83.712,34.901 89.966,36.312 c 5.484,1.238 13.749,14.744 11.139,26.293 -2.309,10.223 -9.621,16.091 -17.492,15.91 l -4.919,28.439 c 17.417,-5.946 30.012,-22.771 30.012,-42.559 0,-24.744 -19.678,-44.874 -43.87,-44.874"
         id="path23316"
         style="fill:#ffffff" /><path
         d="m 85.216,75.43 c 4.285,-1.209 8.334,-5.449 8.334,-5.449 9.207,-12.356 -0.922,-27.362 -0.922,-27.362 9.283,24.84 -7.412,32.811 -7.412,32.811"
         id="path23318"
         style="fill:#ffffff" /></g></g></svg>
