<?xml version="1.0" encoding="UTF-8" standalone="no"?>
<!-- Created with Inkscape (http://www.inkscape.org/) -->

<svg
   width="100mm"
   height="100mm"
   viewBox="0 0 100 100"
   version="1.1"
   id="svg5"
   xml:space="preserve"
   inkscape:version="1.2 (dc2aedaf03, 2022-05-15)"
   sodipodi:docname="IF_ankleide_WH.svg"
   inkscape:export-filename="IF_ankleideWH.png"
   inkscape:export-xdpi="96"
   inkscape:export-ydpi="96"
   xmlns:inkscape="http://www.inkscape.org/namespaces/inkscape"
   xmlns:sodipodi="http://sodipodi.sourceforge.net/DTD/sodipodi-0.dtd"
   xmlns="http://www.w3.org/2000/svg"
   xmlns:svg="http://www.w3.org/2000/svg"><sodipodi:namedview
     id="namedview7"
     pagecolor="#1b11f1"
     bordercolor="#999999"
     borderopacity="1"
     inkscape:showpageshadow="0"
     inkscape:pageopacity="0"
     inkscape:pagecheckerboard="0"
     inkscape:deskcolor="#d1d1d1"
     inkscape:document-units="mm"
     showgrid="false"
     inkscape:zoom="0.84096521"
     inkscape:cx="262.19872"
     inkscape:cy="141.50407"
     inkscape:window-width="1920"
     inkscape:window-height="1129"
     inkscape:window-x="-8"
     inkscape:window-y="-8"
     inkscape:window-maximized="1"
     inkscape:current-layer="layer1" /><defs
     id="defs2"><inkscape:path-effect
       effect="spiro"
       id="path-effect21107"
       is_visible="true"
       lpeversion="1" /><inkscape:path-effect
       effect="spiro"
       id="path-effect21099"
       is_visible="true"
       lpeversion="1" /><inkscape:path-effect
       effect="fillet_chamfer"
       id="path-effect5821"
       is_visible="true"
       lpeversion="1"
       nodesatellites_param="F,0,0,1,0,0,0,1 @ F,0,0,1,0,0,0,1 @ F,0,0,1,0,1.5875,0,1 @ F,0,0,1,0,1.5875,0,1"
       unit="px"
       method="auto"
       mode="F"
       radius="6"
       chamfer_steps="1"
       flexible="false"
       use_knot_distance="true"
       apply_no_radius="true"
       apply_with_radius="true"
       only_selected="false"
       hide_knots="false" /><inkscape:path-effect
       effect="fillet_chamfer"
       id="path-effect5765"
       is_visible="true"
       lpeversion="1"
       nodesatellites_param="F,0,0,1,0,5.55625,0,1 @ F,0,0,1,0,5.55625,0,1 @ F,0,0,1,0,5.55625,0,1 @ F,0,0,1,0,5.55625,0,1"
       unit="px"
       method="auto"
       mode="F"
       radius="21"
       chamfer_steps="1"
       flexible="false"
       use_knot_distance="true"
       apply_no_radius="true"
       apply_with_radius="true"
       only_selected="false"
       hide_knots="false" /><inkscape:path-effect
       effect="fillet_chamfer"
       id="path-effect5761"
       is_visible="true"
       lpeversion="1"
       nodesatellites_param="F,0,0,1,0,3.96875,0,1 @ F,0,0,1,0,3.96875,0,1 @ F,0,0,1,0,3.96875,0,1 @ F,0,0,1,0,3.96875,0,1 @ F,0,0,1,0,3.96875,0,1 | F,0,0,1,0,3.96875,0,1 @ F,0,0,1,0,3.96875,0,1 @ F,0,0,1,0,3.96875,0,1 @ F,0,0,1,0,3.96875,0,1"
       unit="px"
       method="auto"
       mode="F"
       radius="15"
       chamfer_steps="1"
       flexible="false"
       use_knot_distance="true"
       apply_no_radius="true"
       apply_with_radius="true"
       only_selected="false"
       hide_knots="false" /><inkscape:path-effect
       effect="fillet_chamfer"
       id="path-effect5821-8"
       is_visible="true"
       lpeversion="1"
       nodesatellites_param="F,0,0,1,0,0,0,1 @ F,0,0,1,0,0,0,1 @ F,0,0,1,0,1.5875,0,1 @ F,0,0,1,0,1.5875,0,1"
       unit="px"
       method="auto"
       mode="F"
       radius="6"
       chamfer_steps="1"
       flexible="false"
       use_knot_distance="true"
       apply_no_radius="true"
       apply_with_radius="true"
       only_selected="false"
       hide_knots="false" /><inkscape:path-effect
       effect="fillet_chamfer"
       id="path-effect5821-8-6"
       is_visible="true"
       lpeversion="1"
       nodesatellites_param="F,0,0,1,0,0,0,1 @ F,0,0,1,0,0,0,1 @ F,0,0,1,0,1.5875,0,1 @ F,0,0,1,0,1.5875,0,1"
       unit="px"
       method="auto"
       mode="F"
       radius="6"
       chamfer_steps="1"
       flexible="false"
       use_knot_distance="true"
       apply_no_radius="true"
       apply_with_radius="true"
       only_selected="false"
       hide_knots="false" /><inkscape:path-effect
       effect="fillet_chamfer"
       id="path-effect5821-8-6-5"
       is_visible="true"
       lpeversion="1"
       nodesatellites_param="F,0,0,1,0,0,0,1 @ F,0,0,1,0,0,0,1 @ F,0,0,1,0,1.5875,0,1 @ F,0,0,1,0,1.5875,0,1"
       unit="px"
       method="auto"
       mode="F"
       radius="6"
       chamfer_steps="1"
       flexible="false"
       use_knot_distance="true"
       apply_no_radius="true"
       apply_with_radius="true"
       only_selected="false"
       hide_knots="false" /></defs><g
     inkscape:label="Ebene 1"
     inkscape:groupmode="layer"
     id="layer1"><g
       id="g21626"
       transform="matrix(0.30699729,0,0,0.31808441,0.59901856,0.18370525)"
       style="fill:#ffffff"><path
         d="m 161.843,329.665 c -0.02,-0.317 -0.048,-0.631 -0.048,-0.953 V 307.665 H 143 V 260 h 18.795 v -4 H 143 v -5.564 c -2.047,-1.871 -3.396,-4.503 -3.57,-7.469 -0.397,-6.765 -0.601,-13.269 -0.604,-19.334 0.009,-16.168 1.385,-29.39 4.174,-40.103 v -54.197 h 26.537 c 1.44,11.037 10.874,19.562 22.303,19.562 11.431,0 20.862,-8.524 22.303,-19.562 h 9.27 v -1.972 c -0.611,-0.624 -1.135,-1.305 -1.569,-2.028 h -7.53 c -0.555,-11.934 -10.402,-21.438 -22.474,-21.438 -12.069,0 -21.919,9.505 -22.474,21.438 H 143 V 64 h 80.413 V 60 H 143 V 8 H 496.41 V 307.665 H 221.884 v 21.047 c 0,0.322 -0.028,0.636 -0.048,0.953 h 282.575 v -22 H 504.41 V 8 0 h -8 H 143 135 8 3.666 0 v 312 h 0.001 v 17.665 z M 135,8 V 307.665 H 8 V 8 Z"
         id="path21610"
         style="fill:#ffffff" /><path
         d="M 131.061,198.124 H 11.958 v 33.433 h 119.103 z m -71.613,9.025 v -3.531 h 24.121 v 3.531 z"
         id="path21612"
         style="fill:#ffffff" /><path
         d="m 11.958,303.458 h 119.103 v -32.18 H 11.958 Z m 71.611,-25.695 v 3.531 H 59.448 v -3.531 z"
         id="path21614"
         style="fill:#ffffff" /><path
         d="m 131.061,267.747 v -32.66 H 11.958 v 32.66 z M 83.569,241.672 v 3.53 H 59.448 v -3.53 z"
         id="path21616"
         style="fill:#ffffff" /><polygon
         points="458.745,301.999 458.745,302 491.249,302 491.249,13.333 458.745,13.333 458.745,13.334 458.745,155.166 484.933,155.166 484.933,160.166 458.745,160.166 "
         id="polygon21618"
         style="fill:#ffffff" /><path
         d="m 237,144.291 c 0.023,-0.038 0.04,-0.069 0.058,-0.099 0,-0.032 0,-0.064 0.003,-0.102 0,-0.006 -0.025,-1.443 -1.994,-4.439 -1.223,-1.87 -3.5,-4.769 -7.653,-8.668 v 18.009 c 2.232,-0.627 4.212,-1.33 5.749,-2.071 2.548,-1.188 3.674,-2.375 3.837,-2.63 z"
         id="path21620"
         style="fill:#ffffff" /><path
         d="m 231.267,108.665 c 2.624,0 5.167,0.943 7.161,2.656 6.697,5.763 11.609,11.075 15.021,16.242 3.769,5.73 5.602,11.16 5.614,16.597 0.02,3.811 -1.031,7.699 -2.949,11.006 h 13.819 178.498 v 5 H 269.933 252.275 c -1.058,1.063 -2.23,2.073 -3.544,3.032 -5.684,4.088 -12.097,6.111 -16.428,7.277 -1.58,0.416 -3.214,0.794 -4.89,1.135 V 302 h 36.502 190.832 V 13.333 H 263.915 227.413 v 96.042 c 1.22,-0.457 2.52,-0.71 3.854,-0.71 z"
         id="path21622"
         style="fill:#ffffff" /><path
         d="m 218.886,169.958 c 3.571,-0.439 8.03,-1.168 12.635,-2.379 5.204,-1.404 10.637,-3.351 15.438,-6.803 2.385,-1.74 4.641,-3.918 6.351,-6.738 1.713,-2.798 2.771,-6.274 2.754,-9.871 -0.013,-5.069 -1.891,-10.037 -5.121,-14.953 -3.26,-4.939 -7.958,-10.016 -14.467,-15.615 -3.354,-2.88 -8.401,-2.499 -11.281,0.854 -2.88,3.351 -2.496,8.401 0.855,11.281 5.747,4.929 9.449,9.099 11.524,12.271 2.102,3.198 2.499,5.216 2.487,6.161 -0.019,0.699 -0.123,1.025 -0.441,1.59 -0.516,0.941 -2.276,2.529 -5.153,3.867 -4.256,2.051 -10.436,3.455 -15.37,4.16 -2.472,0.363 -4.649,0.578 -6.176,0.699 -0.714,0.055 -1.278,0.092 -1.676,0.113 -0.029,0 -0.058,-0.004 -0.087,-0.004 h -38.635 c -0.122,0 -0.239,0.013 -0.36,0.018 -1.803,0.022 -4.807,0.411 -8.222,2.133 -5.378,2.668 -11.179,8.504 -15.235,18.842 -4.107,10.379 -6.865,25.388 -6.88,48.045 0.003,5.857 0.191,12.225 0.6,19.16 0.25,4.25 3.775,7.529 7.977,7.529 0.158,0 0.317,-0.004 0.477,-0.014 4.412,-0.26 7.777,-4.045 7.518,-8.454 -0.391,-6.653 -0.569,-12.71 -0.569,-18.222 -0.032,-24.221 3.499,-37.826 6.968,-44.924 v 150.008 c 0,6.83 5.537,12.363 12.363,12.363 6.828,0 12.365,-5.533 12.365,-12.363 v -90.271 h 4.635 v 90.271 c 0,6.83 5.537,12.363 12.363,12.363 6.828,0 12.365,-5.533 12.365,-12.363 V 169.958 Z"
         id="path21624"
         style="fill:#ffffff" /></g></g><style
     type="text/css"
     id="style21339">
	.st0{fill:#222A30;}
	.st1{fill:#868687;}
	.st2{fill-rule:evenodd;clip-rule:evenodd;fill:#222A30;stroke:#222A30;stroke-width:0.776;}
	.st3{fill-rule:evenodd;clip-rule:evenodd;fill:#222A30;fill-opacity:0;stroke:#222A30;stroke-width:0.776;}
	.st4{fill:none;stroke:#222A30;stroke-width:1.5556;stroke-opacity:0.5;}
	.st5{fill:none;stroke:#222A30;stroke-width:1.5556;}
	.st6{fill:#070707;}
</style></svg>
