<?xml version="1.0" encoding="UTF-8" standalone="no"?>
<!-- Created with Inkscape (http://www.inkscape.org/) -->

<svg
   width="100mm"
   height="100mm"
   viewBox="0 0 100 100"
   version="1.1"
   id="svg5"
   xml:space="preserve"
   inkscape:version="1.2 (dc2aedaf03, 2022-05-15)"
   sodipodi:docname="IF_livingWH.svg"
   xmlns:inkscape="http://www.inkscape.org/namespaces/inkscape"
   xmlns:sodipodi="http://sodipodi.sourceforge.net/DTD/sodipodi-0.dtd"
   xmlns="http://www.w3.org/2000/svg"
   xmlns:svg="http://www.w3.org/2000/svg"><sodipodi:namedview
     id="namedview7"
     pagecolor="#1b11f1"
     bordercolor="#999999"
     borderopacity="1"
     inkscape:showpageshadow="0"
     inkscape:pageopacity="0"
     inkscape:pagecheckerboard="0"
     inkscape:deskcolor="#d1d1d1"
     inkscape:document-units="mm"
     showgrid="false"
     inkscape:zoom="0.84096521"
     inkscape:cx="421.53944"
     inkscape:cy="284.19725"
     inkscape:window-width="1920"
     inkscape:window-height="1129"
     inkscape:window-x="-8"
     inkscape:window-y="-8"
     inkscape:window-maximized="1"
     inkscape:current-layer="layer1" /><defs
     id="defs2"><inkscape:path-effect
       effect="fillet_chamfer"
       id="path-effect5821"
       is_visible="true"
       lpeversion="1"
       nodesatellites_param="F,0,0,1,0,0,0,1 @ F,0,0,1,0,0,0,1 @ F,0,0,1,0,1.5875,0,1 @ F,0,0,1,0,1.5875,0,1"
       unit="px"
       method="auto"
       mode="F"
       radius="6"
       chamfer_steps="1"
       flexible="false"
       use_knot_distance="true"
       apply_no_radius="true"
       apply_with_radius="true"
       only_selected="false"
       hide_knots="false" /><inkscape:path-effect
       effect="fillet_chamfer"
       id="path-effect5765"
       is_visible="true"
       lpeversion="1"
       nodesatellites_param="F,0,0,1,0,5.55625,0,1 @ F,0,0,1,0,5.55625,0,1 @ F,0,0,1,0,5.55625,0,1 @ F,0,0,1,0,5.55625,0,1"
       unit="px"
       method="auto"
       mode="F"
       radius="21"
       chamfer_steps="1"
       flexible="false"
       use_knot_distance="true"
       apply_no_radius="true"
       apply_with_radius="true"
       only_selected="false"
       hide_knots="false" /><inkscape:path-effect
       effect="fillet_chamfer"
       id="path-effect5761"
       is_visible="true"
       lpeversion="1"
       nodesatellites_param="F,0,0,1,0,3.96875,0,1 @ F,0,0,1,0,3.96875,0,1 @ F,0,0,1,0,3.96875,0,1 @ F,0,0,1,0,3.96875,0,1 @ F,0,0,1,0,3.96875,0,1 | F,0,0,1,0,3.96875,0,1 @ F,0,0,1,0,3.96875,0,1 @ F,0,0,1,0,3.96875,0,1 @ F,0,0,1,0,3.96875,0,1"
       unit="px"
       method="auto"
       mode="F"
       radius="15"
       chamfer_steps="1"
       flexible="false"
       use_knot_distance="true"
       apply_no_radius="true"
       apply_with_radius="true"
       only_selected="false"
       hide_knots="false" /><inkscape:path-effect
       effect="fillet_chamfer"
       id="path-effect5821-8"
       is_visible="true"
       lpeversion="1"
       nodesatellites_param="F,0,0,1,0,0,0,1 @ F,0,0,1,0,0,0,1 @ F,0,0,1,0,1.5875,0,1 @ F,0,0,1,0,1.5875,0,1"
       unit="px"
       method="auto"
       mode="F"
       radius="6"
       chamfer_steps="1"
       flexible="false"
       use_knot_distance="true"
       apply_no_radius="true"
       apply_with_radius="true"
       only_selected="false"
       hide_knots="false" /><inkscape:path-effect
       effect="fillet_chamfer"
       id="path-effect5821-8-6"
       is_visible="true"
       lpeversion="1"
       nodesatellites_param="F,0,0,1,0,0,0,1 @ F,0,0,1,0,0,0,1 @ F,0,0,1,0,1.5875,0,1 @ F,0,0,1,0,1.5875,0,1"
       unit="px"
       method="auto"
       mode="F"
       radius="6"
       chamfer_steps="1"
       flexible="false"
       use_knot_distance="true"
       apply_no_radius="true"
       apply_with_radius="true"
       only_selected="false"
       hide_knots="false" /><inkscape:path-effect
       effect="fillet_chamfer"
       id="path-effect5821-8-6-5"
       is_visible="true"
       lpeversion="1"
       nodesatellites_param="F,0,0,1,0,0,0,1 @ F,0,0,1,0,0,0,1 @ F,0,0,1,0,1.5875,0,1 @ F,0,0,1,0,1.5875,0,1"
       unit="px"
       method="auto"
       mode="F"
       radius="6"
       chamfer_steps="1"
       flexible="false"
       use_knot_distance="true"
       apply_no_radius="true"
       apply_with_radius="true"
       only_selected="false"
       hide_knots="false" /></defs><g
     inkscape:label="Ebene 1"
     inkscape:groupmode="layer"
     id="layer1"><path
       id="path11713"
       style="fill:#ffffff;stroke-width:0.234678"
       d="M 56.103552 2.6954427 C 55.791998 2.6954427 55.539246 2.9685842 55.539246 3.3052246 L 55.539246 73.231189 C 50.556623 65.425036 43.977874 70.489295 39.329382 63.183223 L 35.836572 57.597001 C 33.54732 53.745152 29.461166 54.455035 25.844417 54.428202 L 7.88479 54.428202 C 7.5371127 54.423302 7.2980425 54.750353 7.3251343 55.094312 C 8.408804 62.651643 12.686926 91.258925 13.808976 98.267387 C 14.10247 100.37261 17.035359 100.35265 17.2837 98.21571 L 18.012854 92.358704 L 32.359782 92.358704 L 33.251717 98.264803 C 33.391691 99.186905 34.120783 99.857471 34.985461 99.857471 C 35.85014 99.857471 36.609043 99.152821 36.72644 98.213643 L 37.455595 92.356637 L 53.365218 92.356637 L 54.257153 98.262219 C 54.399384 99.23067 55.200684 99.909072 56.101485 99.855404 L 100.1112 99.855404 L 100.1112 98.640491 L 82.265263 98.640491 L 82.265263 80.671562 L 100.1112 80.671562 L 100.1112 79.449414 L 95.082052 79.449414 C 94.454426 79.449414 93.944137 78.898191 93.944137 78.220032 L 93.944137 67.408289 C 93.944137 66.730128 94.454426 66.178906 95.082052 66.178906 L 100.1112 66.178906 L 100.1112 58.626396 L 93.375179 58.626396 C 91.52391 58.616596 91.521653 55.574841 93.375179 55.565084 L 100.1112 55.565084 L 100.1112 54.340352 L 93.235136 54.340352 C 92.490114 54.342752 91.907837 53.645111 91.959762 52.84742 C 91.959762 52.08632 92.533009 51.46921 93.235136 51.46921 L 100.1112 51.46921 L 100.1112 42.731242 L 56.668376 42.731242 L 56.668376 40.772188 L 100.1112 40.772188 L 100.1112 38.958346 L 98.773299 38.096383 L 100.1112 35.670691 L 100.1112 33.269287 L 96.815796 39.243083 L 95.337333 38.29172 C 95.534541 37.932723 98.56053 32.445693 100.1112 29.631783 L 100.1112 23.654887 L 56.668376 23.654887 L 56.668376 21.556824 L 100.1112 21.556824 L 100.1112 20.334676 L 97.502059 20.334676 L 97.502059 8.8697428 L 100.1112 8.8697428 L 100.1112 2.6954427 L 56.103552 2.6954427 z M 75.370593 3.9150065 L 77.307426 3.9150065 L 77.307426 20.33726 L 75.370593 20.33726 L 75.370593 3.9150065 z M 68.475407 6.4083944 L 70.261344 7.5571615 L 64.050871 18.817456 L 64.048287 18.817456 C 64.034737 18.858926 63.377828 20.032468 63.362024 20.069059 L 61.574019 18.917708 L 68.475407 6.4083944 z M 72.207479 6.4083944 L 73.995483 7.5597453 L 67.094096 20.069059 L 65.308158 18.919775 L 71.519149 7.6594808 L 71.521216 7.6594808 C 71.532506 7.6204498 72.193933 6.4425463 72.207479 6.4083944 z M 85.234074 6.5448201 L 87.171423 6.5448201 L 87.171423 20.334676 L 85.234074 20.334676 L 85.234074 6.5448201 z M 88.300037 6.5448201 L 90.236869 6.5448201 L 90.236869 20.334676 L 88.300037 20.334676 L 88.300037 6.5448201 z M 91.365999 6.5448201 L 93.302832 6.5448201 L 93.302832 20.334676 L 91.365999 20.334676 L 91.365999 6.5448201 z M 94.431962 6.5448201 L 96.368795 6.5448201 L 96.368795 20.334676 L 94.431962 20.334676 L 94.431962 6.5448201 z M 78.44069 8.8718099 L 81.138717 8.8718099 L 81.138717 20.33726 L 78.44069 20.33726 L 78.44069 8.8718099 z M 82.290068 12.338265 L 84.105461 12.338265 L 84.105461 20.334676 L 82.290068 20.334676 L 82.290068 12.338265 z M 76.842338 25.123531 L 79.256144 25.123531 L 79.256144 39.411031 L 76.842338 39.411031 L 76.842338 25.123531 z M 98.084452 27.287223 L 99.563432 28.238586 L 94.074878 38.186816 L 94.074878 38.188883 C 94.063588 38.227913 93.512939 39.208931 93.497135 39.243083 L 92.016089 38.289136 L 98.084452 27.287223 z M 83.825374 27.294458 L 85.227356 27.294458 L 85.227356 39.411031 L 83.825374 39.411031 L 83.825374 27.294458 z M 66.926664 27.32133 C 67.484303 27.86532 67.827593 28.629081 67.929187 29.429211 C 67.938187 29.492631 67.963153 29.814619 67.958643 29.943909 C 67.432611 30.644023 67.033136 31.448874 66.81866 32.280717 C 66.595154 31.431798 66.204491 30.680402 65.70555 29.992485 C 65.709943 29.956768 65.712182 29.92319 65.714335 29.887581 C 65.838506 28.914251 66.27872 28.004368 66.926664 27.32133 z M 62.190519 29.009599 C 63.226778 29.148646 64.109175 29.821759 64.820333 30.74386 L 64.818266 30.74386 C 65.335266 31.458611 65.773269 32.348841 65.834224 33.246549 C 63.885877 32.963576 62.158912 31.207519 62.190519 29.009599 z M 71.448869 29.009599 C 71.435319 29.492604 71.367828 29.941555 71.20754 30.434318 L 71.20754 30.431734 C 70.835028 31.585581 69.936336 32.446645 68.913623 32.910136 C 68.556914 33.066259 68.184639 33.180685 67.803097 33.246549 C 67.791807 33.246549 67.782347 33.249217 67.771057 33.251717 C 67.784607 33.249317 67.794067 33.246882 67.803097 33.244482 C 68.004027 31.26611 69.629207 29.270617 71.448869 29.009599 z M 80.414213 29.363066 L 82.696761 29.363066 L 82.696761 39.411031 L 80.414213 39.411031 L 80.414213 29.363066 z M 64.441028 34.488334 L 66.030595 34.488334 L 68.999406 34.488334 C 69.733141 34.517604 69.6224 35.468835 69.692387 36.039661 C 69.789451 40.542125 63.560734 40.452967 63.757349 35.944576 C 63.818309 35.407903 63.743412 34.50541 64.441028 34.488334 z M 75.463094 44.204537 L 77.090902 44.204537 L 77.090902 58.631563 L 75.463094 58.631563 L 75.463094 44.204537 z M 57.483313 47.280835 L 68.667643 47.280835 L 68.667643 49.032149 L 57.483313 49.032149 C 56.424477 49.027249 56.42222 47.285714 57.483313 47.280835 z M 78.251038 48.442004 L 79.878845 48.442004 L 79.878845 58.628979 L 78.251038 58.628979 L 78.251038 48.442004 z M 81.007975 48.442004 L 82.635783 48.442004 L 82.635783 58.628979 L 81.007975 58.628979 L 81.007975 48.442004 z M 57.483313 50.251713 L 68.667643 50.251713 L 68.667643 52.003544 L 57.483313 52.003544 C 56.424477 51.998644 56.42222 50.256592 57.483313 50.251713 z M 87.572949 51.46921 L 91.199084 51.46921 C 90.702403 52.288856 90.70217 53.528314 91.201152 54.34552 L 87.715059 54.34552 C 86.965521 54.40163 86.29306 53.789106 86.297575 52.962142 C 86.245645 52.164451 86.827926 51.46677 87.572949 51.46921 z M 57.435771 53.225692 L 71.564107 53.225692 L 71.564107 54.977006 L 57.435771 54.977006 C 56.975211 54.979406 56.629615 54.537815 56.67251 54.049931 C 56.67251 53.593758 57.015849 53.225692 57.435771 53.225692 z M 87.715059 55.565084 L 91.26213 55.565084 C 90.693203 56.4262 90.693203 57.765279 91.26213 58.626396 L 87.715059 58.626396 C 86.934563 58.626396 86.298631 57.942283 86.297575 57.096773 C 86.297575 56.252733 86.931656 55.565084 87.715059 55.565084 z M 12.08195 55.647766 L 12.357385 55.647766 C 18.200171 55.562386 18.855011 65.200947 24.709086 67.876994 C 16.951817 66.862194 16.809459 59.877726 12.08195 55.647766 z M 16.064136 55.647766 L 25.817546 55.647766 L 25.819613 55.647766 C 32.308086 56.345441 34.55234 62.93704 34.455261 69.908911 C 32.642372 68.530637 30.018598 68.086556 27.842228 67.715763 C 21.103156 66.554599 20.387526 59.416674 16.064136 55.647766 z M 29.766142 55.647766 L 30.317013 55.647766 C 36.153026 55.559946 36.821331 65.195924 42.657345 67.87441 C 39.117357 67.442632 36.636072 65.378959 34.676436 62.271134 C 33.567932 59.277962 32.141185 57.101663 29.766142 55.647766 z M 8.5488322 55.65035 C 10.323341 55.7089 11.962052 56.682342 12.959932 58.280164 C 15.68491 62.624776 18.283512 68.157547 23.665739 68.916207 C 34.651441 70.035903 34.822898 78.737185 35.432463 87.316634 L 13.248804 87.399316 L 8.5488322 55.65035 z M 57.796989 56.201737 L 74.336548 56.201737 L 74.336548 58.631563 L 57.796989 58.631563 C 56.329519 58.624263 56.327261 56.211494 57.796989 56.201737 z M 35.220589 64.9981 C 35.263479 65.05177 35.308438 65.105663 35.351331 65.15933 C 35.317471 65.18128 35.286113 65.208236 35.256763 65.239945 L 35.256763 65.237362 C 35.245473 65.156862 35.231879 65.076162 35.220589 64.9981 z M 56.668376 65.695732 L 58.417623 65.695732 L 58.417623 79.451998 L 57.74738 79.451998 C 57.496781 78.022496 57.173659 76.524645 56.593445 75.217114 C 56.638595 75.129294 56.665792 75.031444 56.665792 74.924109 L 56.668376 74.922042 L 56.668376 65.695732 z M 73.860091 65.871431 L 75.293595 66.905994 L 67.976729 78.732145 L 66.543225 77.6981 L 73.860091 65.871431 z M 69.685669 67.049654 L 71.119173 68.084216 L 64.531462 78.732145 L 63.097957 77.6981 L 69.685669 67.049654 z M 80.043693 68.10127 L 88.708797 68.10127 C 89.767633 68.10617 89.76989 69.847705 88.708797 69.852584 L 80.043693 69.852584 L 80.043693 68.10127 z M 59.553471 69.181824 L 61.303235 69.181824 L 61.303235 79.451998 L 59.553471 79.451998 L 59.553471 69.181824 z M 29.375468 69.240218 C 38.740182 70.511158 38.965894 80.476203 39.415165 87.311466 L 36.963635 87.311466 L 36.963635 87.31405 L 36.56366 87.31405 C 36.159541 81.966836 36.121312 72.409028 29.375468 69.240218 z M 47.341813 69.24797 L 48.1521 69.401449 L 48.1521 69.398865 C 56.342837 70.840563 57.270775 81.179046 57.394946 87.316634 L 54.523287 87.316634 C 54.064984 81.130258 53.949941 72.470447 47.341813 69.24797 z M 77.524467 71.072664 L 88.708797 71.072664 C 89.767633 71.077564 89.76989 72.8191 88.708797 72.823979 L 77.524467 72.823979 L 77.524467 71.072664 z M 73.476135 74.046126 L 88.708797 74.046126 C 89.767633 74.051026 89.76989 75.792562 88.708797 75.797441 L 73.476135 75.797441 L 73.476135 74.046126 z M 73.474068 77.019588 L 88.392537 77.019588 C 89.01339 77.019588 89.517017 77.56366 89.517017 78.234501 C 89.517017 78.905342 89.01339 79.449414 88.392537 79.449414 L 73.474068 79.449414 L 73.474068 77.019588 z M 44.047957 77.445402 C 47.520481 77.460555 50.918603 77.99141 52.877393 81.664266 C 53.18669 84.142719 53.333582 86.291932 53.390023 87.31405 L 40.543778 87.31405 C 40.467019 85.857715 40.164869 81.462174 39.395011 77.498112 C 40.875886 77.538515 42.469537 77.438514 44.047957 77.445402 z M 57.950468 80.668978 L 81.13665 80.668978 L 81.13665 98.637907 L 57.632141 98.637907 C 57.679551 98.503739 57.71588 98.362448 57.733944 98.213643 L 57.736011 98.21571 C 57.745011 98.096179 58.537702 91.863575 58.535445 91.748922 L 58.535445 87.923832 C 58.535445 87.755512 58.526198 84.511068 57.950468 80.668978 z M 37.527942 88.533614 L 57.404248 88.533614 L 57.404248 91.13914 L 37.527942 91.13914 L 37.527942 88.533614 z M 36.398812 88.536198 L 36.398812 91.13914 L 13.869954 91.13914 L 13.443107 88.616813 L 36.398812 88.536198 z " /><path
       d="m 67.798332,33.246721 c 0,0 0,0 0,0 0.01355,0 0.03612,-0.0073 0,0 z"
       id="path11717"
       style="fill:#ffffff;stroke-width:0.234678" /><path
       d="m 86.708388,87.521494 c -0.311555,0 -0.564412,0.273216 -0.564412,0.609857 v 3.049281 c 0,0.336641 0.252857,0.609856 0.564412,0.609856 0.311555,0 0.564412,-0.273215 0.564412,-0.609856 v -3.049281 c 0,-0.336641 -0.252857,-0.609857 -0.564412,-0.609857 z"
       id="path11719"
       style="fill:#ffffff;stroke-width:0.234678" /><path
       d="m 76.688948,87.521494 c -0.311555,0 -0.564412,0.273216 -0.564412,0.609857 v 3.049281 c 0,0.336641 0.252857,0.609856 0.564412,0.609856 0.311555,0 0.564412,-0.273215 0.564412,-0.609856 v -3.049281 c 0,-0.336641 -0.252857,-0.609857 -0.564412,-0.609857 z"
       id="path11721"
       style="fill:#ffffff;stroke-width:0.234678" /><path
       d="m 98.104993,69.525854 c 0.656976,0.665963 1.426833,-0.626933 0.616338,-1.012362 -0.553124,-0.287852 -1.056579,0.568386 -0.616338,1.012362 z"
       id="path11723"
       style="fill:#ffffff;stroke-width:0.234678" /></g></svg>
