<?xml version="1.0" encoding="UTF-8" standalone="no"?>
<!-- Created with Inkscape (http://www.inkscape.org/) -->

<svg
   width="100mm"
   height="100mm"
   viewBox="0 0 100 100"
   version="1.1"
   id="svg5"
   xml:space="preserve"
   inkscape:version="1.2 (dc2aedaf03, 2022-05-15)"
   sodipodi:docname="IF_schlafen_WH.svg"
   inkscape:export-filename="IF_schlafenWH.png"
   inkscape:export-xdpi="96"
   inkscape:export-ydpi="96"
   xmlns:inkscape="http://www.inkscape.org/namespaces/inkscape"
   xmlns:sodipodi="http://sodipodi.sourceforge.net/DTD/sodipodi-0.dtd"
   xmlns="http://www.w3.org/2000/svg"
   xmlns:svg="http://www.w3.org/2000/svg"><sodipodi:namedview
     id="namedview7"
     pagecolor="#1b11f1"
     bordercolor="#999999"
     borderopacity="1"
     inkscape:showpageshadow="0"
     inkscape:pageopacity="0"
     inkscape:pagecheckerboard="0"
     inkscape:deskcolor="#d1d1d1"
     inkscape:document-units="mm"
     showgrid="false"
     inkscape:zoom="1.6819304"
     inkscape:cx="160.23255"
     inkscape:cy="134.36941"
     inkscape:window-width="1920"
     inkscape:window-height="1129"
     inkscape:window-x="-8"
     inkscape:window-y="-8"
     inkscape:window-maximized="1"
     inkscape:current-layer="layer1" /><defs
     id="defs2"><inkscape:path-effect
       effect="spiro"
       id="path-effect21107"
       is_visible="true"
       lpeversion="1" /><inkscape:path-effect
       effect="spiro"
       id="path-effect21099"
       is_visible="true"
       lpeversion="1" /><inkscape:path-effect
       effect="fillet_chamfer"
       id="path-effect5821"
       is_visible="true"
       lpeversion="1"
       nodesatellites_param="F,0,0,1,0,0,0,1 @ F,0,0,1,0,0,0,1 @ F,0,0,1,0,1.5875,0,1 @ F,0,0,1,0,1.5875,0,1"
       unit="px"
       method="auto"
       mode="F"
       radius="6"
       chamfer_steps="1"
       flexible="false"
       use_knot_distance="true"
       apply_no_radius="true"
       apply_with_radius="true"
       only_selected="false"
       hide_knots="false" /><inkscape:path-effect
       effect="fillet_chamfer"
       id="path-effect5765"
       is_visible="true"
       lpeversion="1"
       nodesatellites_param="F,0,0,1,0,5.55625,0,1 @ F,0,0,1,0,5.55625,0,1 @ F,0,0,1,0,5.55625,0,1 @ F,0,0,1,0,5.55625,0,1"
       unit="px"
       method="auto"
       mode="F"
       radius="21"
       chamfer_steps="1"
       flexible="false"
       use_knot_distance="true"
       apply_no_radius="true"
       apply_with_radius="true"
       only_selected="false"
       hide_knots="false" /><inkscape:path-effect
       effect="fillet_chamfer"
       id="path-effect5761"
       is_visible="true"
       lpeversion="1"
       nodesatellites_param="F,0,0,1,0,3.96875,0,1 @ F,0,0,1,0,3.96875,0,1 @ F,0,0,1,0,3.96875,0,1 @ F,0,0,1,0,3.96875,0,1 @ F,0,0,1,0,3.96875,0,1 | F,0,0,1,0,3.96875,0,1 @ F,0,0,1,0,3.96875,0,1 @ F,0,0,1,0,3.96875,0,1 @ F,0,0,1,0,3.96875,0,1"
       unit="px"
       method="auto"
       mode="F"
       radius="15"
       chamfer_steps="1"
       flexible="false"
       use_knot_distance="true"
       apply_no_radius="true"
       apply_with_radius="true"
       only_selected="false"
       hide_knots="false" /><inkscape:path-effect
       effect="fillet_chamfer"
       id="path-effect5821-8"
       is_visible="true"
       lpeversion="1"
       nodesatellites_param="F,0,0,1,0,0,0,1 @ F,0,0,1,0,0,0,1 @ F,0,0,1,0,1.5875,0,1 @ F,0,0,1,0,1.5875,0,1"
       unit="px"
       method="auto"
       mode="F"
       radius="6"
       chamfer_steps="1"
       flexible="false"
       use_knot_distance="true"
       apply_no_radius="true"
       apply_with_radius="true"
       only_selected="false"
       hide_knots="false" /><inkscape:path-effect
       effect="fillet_chamfer"
       id="path-effect5821-8-6"
       is_visible="true"
       lpeversion="1"
       nodesatellites_param="F,0,0,1,0,0,0,1 @ F,0,0,1,0,0,0,1 @ F,0,0,1,0,1.5875,0,1 @ F,0,0,1,0,1.5875,0,1"
       unit="px"
       method="auto"
       mode="F"
       radius="6"
       chamfer_steps="1"
       flexible="false"
       use_knot_distance="true"
       apply_no_radius="true"
       apply_with_radius="true"
       only_selected="false"
       hide_knots="false" /><inkscape:path-effect
       effect="fillet_chamfer"
       id="path-effect5821-8-6-5"
       is_visible="true"
       lpeversion="1"
       nodesatellites_param="F,0,0,1,0,0,0,1 @ F,0,0,1,0,0,0,1 @ F,0,0,1,0,1.5875,0,1 @ F,0,0,1,0,1.5875,0,1"
       unit="px"
       method="auto"
       mode="F"
       radius="6"
       chamfer_steps="1"
       flexible="false"
       use_knot_distance="true"
       apply_no_radius="true"
       apply_with_radius="true"
       only_selected="false"
       hide_knots="false" /></defs><g
     inkscape:label="Ebene 1"
     inkscape:groupmode="layer"
     id="layer1"><g
       id="g21408"
       transform="matrix(0.32868442,0,0,0.32868442,28.984379,1.0123486)"
       style="fill:#ffffff"><path
         d="m 198,292.001 c -0.773,1.763 -2.53,2.999 -4.577,2.999 H 18.424 c -2.044,0 -3.8,-1.236 -4.573,-2.999 H 10 c -0.47,0 -0.932,-0.034 -1.388,-0.087 0.895,4.606 4.946,8.086 9.813,8.086 h 174.999 c 4.86,0 8.906,-3.467 9.809,-8.063 C 202.828,291.979 202.416,292 202,292 h -4 z"
         id="path21392"
         style="fill:#ffffff" /><path
         d="M 13.427,128.948 V 10 c 0,-2.758 2.241,-5 4.997,-5 h 174.999 c 2.76,0 5.001,2.242 5.001,5 v 69.809 l 3.063,-0.813 0.252,-0.066 H 202 c 0.483,0 0.957,0.037 1.425,0.093 V 10 c 0,-5.523 -4.477,-10 -10,-10 h -175 c -5.523,0 -10,4.477 -10,10 v 120.036 c 0.427,-0.057 0.86,-0.095 1.301,-0.104 z"
         id="path21394"
         style="fill:#ffffff" /><path
         d="m 53.732,105.275 c 2.833,-2.593 8.712,-5.744 15.073,-8.717 -1.19,-1.065 -2.303,-2.244 -3.296,-3.562 -3.938,-5.225 -5.603,-11.672 -4.695,-18.152 0.913,-6.479 4.291,-12.215 9.517,-16.15 1.933,-1.455 4.051,-2.611 6.304,-3.44 10.04,-3.687 21.556,-0.291 28,8.262 3.807,5.049 5.486,11.243 4.77,17.505 9.305,-2.89 20.135,-5.791 25.577,-5.589 10.662,0.396 -4.687,-16.613 -9.573,-29.918 -4.887,-13.303 -4.199,-36.205 -12.068,-29 -7.869,7.203 -39.228,18.725 -39.228,18.725 0,0 -31.361,11.517 -42.022,11.118 -10.661,-0.396 4.687,16.613 9.574,29.918 4.886,13.303 4.198,36.204 12.067,29 z"
         id="path21396"
         style="fill:#ffffff" /><path
         d="m 98.61,96.219 c 4.873,-3.671 7.818,-8.944 8.681,-14.534 0.894,-5.79 -0.449,-11.919 -4.252,-16.968 -7.478,-9.922 -21.584,-11.904 -31.505,-4.428 -9.921,7.477 -11.903,21.582 -4.427,31.504 1.1,1.46 2.357,2.727 3.71,3.838 7.841,6.44 19.331,6.966 27.793,0.588 z"
         id="path21398"
         style="fill:#ffffff" /><path
         d="m 109.402,90.318 c -4.012,3.122 -5.227,8.584 -4.265,14.171 0.003,0.032 0.005,0.064 0.008,0.097 l 0.01,-0.003 6.621,-1.759 c 1.158,-2.071 1.797,-3.604 1.807,-3.629 0.442,-1.112 1.062,-2.106 1.811,-2.962 1.866,-2.133 4.561,-3.398 7.504,-3.398 1.258,0 2.492,0.233 3.669,0.7 2.044,0.806 3.718,2.232 4.844,4.074 l 8.521,-2.264 C 129.423,84.153 116.316,84.938 109.402,90.318 Z"
         id="path21400"
         style="fill:#ffffff" /><path
         d="m 80.28,104.243 c -2.864,-3.364 -7.914,-3.771 -11.278,-0.905 -3.313,2.821 -3.749,7.758 -1.023,11.12 l 17.614,-4.679 c -1.662,-1.511 -3.435,-3.328 -5.313,-5.536 z"
         id="path21402"
         style="fill:#ffffff" /><path
         d="m 120.371,100.542 9.003,-2.392 c -0.864,-1.198 -2.064,-2.175 -3.54,-2.757 -3.017,-1.19 -6.32,-0.415 -8.506,1.705 -0.788,0.765 -1.434,1.698 -1.864,2.784 l -0.003,-0.001 -0.006,0.016 0.001,10e-4 c 0,-10e-4 0,-10e-4 0,-10e-4 l 10e-4,10e-4 c 0,0 0,0 -10e-4,0.001 l -0.001,-0.001 c -0.056,0.149 -0.419,1.001 -1.04,2.225 z"
         id="path21404"
         style="fill:#ffffff" /><path
         d="M 203.424,81.043 C 202.958,80.976 202.485,80.93 202,80.93 l -3.576,0.95 -56.969,15.132 -9.162,2.434 -1.94,0.516 -9.388,2.493 -7.87,2.091 -2.812,0.747 -4.693,1.246 -0.228,0.061 -15.512,4.121 -2.426,0.644 -17.983,4.777 -2.159,0.573 L 13.427,131.02 10,131.93 c -0.537,0 -1.061,0.055 -1.575,0.136 C 3.652,132.822 0,136.943 0,141.93 V 280 c 0,4.986 3.652,9.107 8.425,9.864 C 8.939,289.945 9.463,290 10,290 H 13.427 198.424 202 c 0.485,0 0.958,-0.046 1.424,-0.113 4.847,-0.692 8.575,-4.849 8.575,-9.887 V 90.93 c 0,-5.038 -3.728,-9.195 -8.575,-9.887 z"
         id="path21406"
         style="fill:#ffffff" /></g></g><style
     type="text/css"
     id="style21339">
	.st0{fill:#222A30;}
	.st1{fill:#868687;}
	.st2{fill-rule:evenodd;clip-rule:evenodd;fill:#222A30;stroke:#222A30;stroke-width:0.776;}
	.st3{fill-rule:evenodd;clip-rule:evenodd;fill:#222A30;fill-opacity:0;stroke:#222A30;stroke-width:0.776;}
	.st4{fill:none;stroke:#222A30;stroke-width:1.5556;stroke-opacity:0.5;}
	.st5{fill:none;stroke:#222A30;stroke-width:1.5556;}
	.st6{fill:#070707;}
</style></svg>
