<?xml version="1.0" encoding="UTF-8" standalone="no"?>
<!-- Created with Inkscape (http://www.inkscape.org/) -->

<svg
   width="100mm"
   height="100mm"
   viewBox="0 0 100 100"
   version="1.1"
   id="svg5"
   xml:space="preserve"
   inkscape:version="1.2 (dc2aedaf03, 2022-05-15)"
   sodipodi:docname="IF_technik_WH.svg"
   inkscape:export-filename="IF_technikWH.png"
   inkscape:export-xdpi="96"
   inkscape:export-ydpi="96"
   xmlns:inkscape="http://www.inkscape.org/namespaces/inkscape"
   xmlns:sodipodi="http://sodipodi.sourceforge.net/DTD/sodipodi-0.dtd"
   xmlns="http://www.w3.org/2000/svg"
   xmlns:svg="http://www.w3.org/2000/svg"><sodipodi:namedview
     id="namedview7"
     pagecolor="#1b11f1"
     bordercolor="#999999"
     borderopacity="1"
     inkscape:showpageshadow="0"
     inkscape:pageopacity="0"
     inkscape:pagecheckerboard="0"
     inkscape:deskcolor="#d1d1d1"
     inkscape:document-units="mm"
     showgrid="false"
     inkscape:zoom="0.84096521"
     inkscape:cx="262.19872"
     inkscape:cy="141.50407"
     inkscape:window-width="1920"
     inkscape:window-height="1129"
     inkscape:window-x="-8"
     inkscape:window-y="-8"
     inkscape:window-maximized="1"
     inkscape:current-layer="layer1" /><defs
     id="defs2"><inkscape:path-effect
       effect="spiro"
       id="path-effect21107"
       is_visible="true"
       lpeversion="1" /><inkscape:path-effect
       effect="spiro"
       id="path-effect21099"
       is_visible="true"
       lpeversion="1" /><inkscape:path-effect
       effect="fillet_chamfer"
       id="path-effect5821"
       is_visible="true"
       lpeversion="1"
       nodesatellites_param="F,0,0,1,0,0,0,1 @ F,0,0,1,0,0,0,1 @ F,0,0,1,0,1.5875,0,1 @ F,0,0,1,0,1.5875,0,1"
       unit="px"
       method="auto"
       mode="F"
       radius="6"
       chamfer_steps="1"
       flexible="false"
       use_knot_distance="true"
       apply_no_radius="true"
       apply_with_radius="true"
       only_selected="false"
       hide_knots="false" /><inkscape:path-effect
       effect="fillet_chamfer"
       id="path-effect5765"
       is_visible="true"
       lpeversion="1"
       nodesatellites_param="F,0,0,1,0,5.55625,0,1 @ F,0,0,1,0,5.55625,0,1 @ F,0,0,1,0,5.55625,0,1 @ F,0,0,1,0,5.55625,0,1"
       unit="px"
       method="auto"
       mode="F"
       radius="21"
       chamfer_steps="1"
       flexible="false"
       use_knot_distance="true"
       apply_no_radius="true"
       apply_with_radius="true"
       only_selected="false"
       hide_knots="false" /><inkscape:path-effect
       effect="fillet_chamfer"
       id="path-effect5761"
       is_visible="true"
       lpeversion="1"
       nodesatellites_param="F,0,0,1,0,3.96875,0,1 @ F,0,0,1,0,3.96875,0,1 @ F,0,0,1,0,3.96875,0,1 @ F,0,0,1,0,3.96875,0,1 @ F,0,0,1,0,3.96875,0,1 | F,0,0,1,0,3.96875,0,1 @ F,0,0,1,0,3.96875,0,1 @ F,0,0,1,0,3.96875,0,1 @ F,0,0,1,0,3.96875,0,1"
       unit="px"
       method="auto"
       mode="F"
       radius="15"
       chamfer_steps="1"
       flexible="false"
       use_knot_distance="true"
       apply_no_radius="true"
       apply_with_radius="true"
       only_selected="false"
       hide_knots="false" /><inkscape:path-effect
       effect="fillet_chamfer"
       id="path-effect5821-8"
       is_visible="true"
       lpeversion="1"
       nodesatellites_param="F,0,0,1,0,0,0,1 @ F,0,0,1,0,0,0,1 @ F,0,0,1,0,1.5875,0,1 @ F,0,0,1,0,1.5875,0,1"
       unit="px"
       method="auto"
       mode="F"
       radius="6"
       chamfer_steps="1"
       flexible="false"
       use_knot_distance="true"
       apply_no_radius="true"
       apply_with_radius="true"
       only_selected="false"
       hide_knots="false" /><inkscape:path-effect
       effect="fillet_chamfer"
       id="path-effect5821-8-6"
       is_visible="true"
       lpeversion="1"
       nodesatellites_param="F,0,0,1,0,0,0,1 @ F,0,0,1,0,0,0,1 @ F,0,0,1,0,1.5875,0,1 @ F,0,0,1,0,1.5875,0,1"
       unit="px"
       method="auto"
       mode="F"
       radius="6"
       chamfer_steps="1"
       flexible="false"
       use_knot_distance="true"
       apply_no_radius="true"
       apply_with_radius="true"
       only_selected="false"
       hide_knots="false" /><inkscape:path-effect
       effect="fillet_chamfer"
       id="path-effect5821-8-6-5"
       is_visible="true"
       lpeversion="1"
       nodesatellites_param="F,0,0,1,0,0,0,1 @ F,0,0,1,0,0,0,1 @ F,0,0,1,0,1.5875,0,1 @ F,0,0,1,0,1.5875,0,1"
       unit="px"
       method="auto"
       mode="F"
       radius="6"
       chamfer_steps="1"
       flexible="false"
       use_knot_distance="true"
       apply_no_radius="true"
       apply_with_radius="true"
       only_selected="false"
       hide_knots="false" /></defs><g
     inkscape:label="Ebene 1"
     inkscape:groupmode="layer"
     id="layer1"><g
       id="g21541"
       transform="matrix(0.50841238,0,0,0.46898583,-18.372027,-20.324781)"
       style="fill:#ffffff"><path
         d="M 218.754,124.815 H 207.7 c -12.849,0 -23.302,10.454 -23.302,23.302 v 109.634 h 57.659 V 148.117 c 0,-12.849 -10.454,-23.302 -23.303,-23.302 z m -4.551,69.005 c -5.257,0 -9.533,-4.277 -9.533,-9.533 0,-5.799 7.243,-16.178 8.069,-17.342 0.341,-0.481 0.861,-0.757 1.485,-0.757 0.589,0.007 1.138,0.302 1.468,0.79 0.823,1.219 8.045,12.061 8.045,17.309 0,5.256 -4.277,9.533 -9.534,9.533 z"
         id="path21519"
         style="fill:#ffffff" /><path
         d="m 208.262,184.286 c 0,3.276 2.665,5.942 5.942,5.942 3.277,0 5.942,-2.666 5.942,-5.942 0,-2.639 -3.233,-8.669 -5.97,-13.047 -2.427,3.76 -5.914,9.857 -5.914,13.047 z"
         id="path21521"
         style="fill:#ffffff" /><path
         d="M 158.391,128.14 V 65.976 C 140.962,64.224 121.126,64.232 100.808,66 v 62.134 c 18.774,-4.03 38.581,-4.028 57.583,0.006 z"
         id="path21523"
         style="fill:#ffffff" /><rect
         height="5.7919998"
         width="16.035"
         x="121.582"
         y="142.188"
         id="rect21525"
         style="fill:#ffffff" /><path
         d="m 158.391,131.813 c -18.99,-4.145 -38.832,-4.146 -57.583,-0.004 v 28.583 h 57.583 z m -43.685,19.116 v 1.796 h -4.868 v -1.796 -1.796 h 4.868 z m 0,-6.179 v 1.796 h -4.868 v -1.796 -1.796 h 4.868 z m 0,-6.178 v 1.796 h -4.868 v -1.796 -1.796 h 4.868 z m 26.503,11.204 c 0,0.992 -0.804,1.796 -1.796,1.796 h -19.627 c -0.992,0 -1.796,-0.804 -1.796,-1.796 v -9.384 c 0,-0.992 0.804,-1.796 1.796,-1.796 h 19.627 c 0.991,0 1.796,0.804 1.796,1.796 z m 7.533,1.153 v 1.796 h -4.868 v -1.796 -1.796 h 4.868 z m 0,-6.179 v 1.796 h -4.868 v -1.796 -1.796 h 4.868 z m 0,-6.178 v 1.796 h -4.868 v -1.796 -1.796 h 4.868 z"
         id="path21527"
         style="fill:#ffffff" /><path
         d="m 141.113,44.045 c 0,-0.992 -0.804,-1.796 -1.796,-1.796 -0.992,0 -1.796,0.804 -1.796,1.796 v 0 17.113 l 3.592,0.109 z"
         id="path21529"
         style="fill:#ffffff" /><path
         d="m 209.496,70.936 c 0,-3.456 2.812,-6.268 6.268,-6.268 h 31.795 c 0.992,0 1.796,-0.804 1.796,-1.796 0,-0.992 -0.804,-1.796 -1.796,-1.796 h -31.795 c -5.436,0 -9.859,4.423 -9.859,9.86 v 50.354 l 3.592,-0.067 V 70.936 Z"
         id="path21531"
         style="fill:#ffffff" /><path
         d="m 122.89,44.045 v 0 c 0,-0.992 -0.804,-1.796 -1.796,-1.796 -0.992,0 -1.796,0.804 -1.796,1.796 V 61.3 l 3.592,-0.126 z"
         id="path21533"
         style="fill:#ffffff" /><path
         d="m 80.783,194.634 h 36.54 c 0.991,0 1.796,-0.804 1.796,-1.796 v -28.853 h -3.592 v 27.057 H 82.578 V 45.354 c 0,-0.992 -0.804,-1.796 -1.796,-1.796 -0.992,0 -1.796,0.804 -1.796,1.796 v 147.484 c 10e-4,0.992 0.805,1.796 1.797,1.796 z"
         id="path21535"
         style="fill:#ffffff" /><path
         d="m 247.522,70.046 h -27.65 c -3.394,0 -6.156,2.762 -6.156,6.156 v 45.022 h 3.592 V 76.201 c 0,-1.414 1.15,-2.564 2.564,-2.564 h 27.65 c 0.992,0 1.796,-0.804 1.796,-1.796 0,-0.992 -0.804,-1.795 -1.796,-1.795 z"
         id="path21537"
         style="fill:#ffffff" /><path
         d="m 163.677,219.487 v -46.763 c 0,-2.162 -1.759,-3.921 -3.921,-3.921 h -18.642 v -4.819 h -3.592 v 13.608 c -3.922,0.657 -6.923,4.066 -6.923,8.172 v 5.804 c 0,4.106 3.001,7.515 6.923,8.172 v 3.723 c 0,1.805 -1.468,3.273 -3.273,3.273 H 71.773 c -1.804,0 -3.273,-1.468 -3.273,-3.273 V 47.198 c 0,-2.729 -2.22,-4.949 -4.949,-4.949 h -11.11 c -0.992,0 -1.796,0.804 -1.796,1.796 0,0.992 0.804,1.796 1.796,1.796 h 11.11 c 0.748,0 1.357,0.609 1.357,1.357 v 156.265 c 0,3.785 3.08,6.865 6.864,6.865 h 62.476 c 3.786,0 6.865,-3.08 6.865,-6.865 v -3.723 c 3.922,-0.657 6.924,-4.066 6.924,-8.172 v -5.804 c 0,-4.106 -3.002,-7.515 -6.924,-8.172 v -5.197 h 18.642 c 0.182,0 0.33,0.148 0.33,0.33 v 46.763 c 0,2.162 1.759,3.922 3.921,3.922 h 16.799 v -3.592 h -16.799 c -0.181,0 -0.329,-0.148 -0.329,-0.331 z"
         id="path21539"
         style="fill:#ffffff" /></g></g><style
     type="text/css"
     id="style21339">
	.st0{fill:#222A30;}
	.st1{fill:#868687;}
	.st2{fill-rule:evenodd;clip-rule:evenodd;fill:#222A30;stroke:#222A30;stroke-width:0.776;}
	.st3{fill-rule:evenodd;clip-rule:evenodd;fill:#222A30;fill-opacity:0;stroke:#222A30;stroke-width:0.776;}
	.st4{fill:none;stroke:#222A30;stroke-width:1.5556;stroke-opacity:0.5;}
	.st5{fill:none;stroke:#222A30;stroke-width:1.5556;}
	.st6{fill:#070707;}
</style></svg>
