<?xml version="1.0" encoding="UTF-8" standalone="no"?>
<svg
   xmlns:dc="http://purl.org/dc/elements/1.1/"
   xmlns:cc="http://creativecommons.org/ns#"
   xmlns:rdf="http://www.w3.org/1999/02/22-rdf-syntax-ns#"
   xmlns:svg="http://www.w3.org/2000/svg"
   xmlns="http://www.w3.org/2000/svg"
   xmlns:sodipodi="http://sodipodi.sourceforge.net/DTD/sodipodi-0.dtd"
   xmlns:inkscape="http://www.inkscape.org/namespaces/inkscape"
   width="210mm"
   height="200mm"
   viewBox="0 0 210 200"
   version="1.1"
   id="svg104"
   inkscape:version="1.0.2 (e86c870879, 2021-01-15, custom)"
   sodipodi:docname="Lifestyle_hobby.svg">
  <defs
     id="defs98" />
  <sodipodi:namedview
     id="base"
     pagecolor="#ffffff"
     bordercolor="#666666"
     borderopacity="1.0"
     inkscape:pageopacity="0.0"
     inkscape:pageshadow="2"
     inkscape:zoom="0.49497475"
     inkscape:cx="365.61545"
     inkscape:cy="579.39849"
     inkscape:document-units="mm"
     inkscape:current-layer="layer1"
     inkscape:document-rotation="0"
     showgrid="false"
     inkscape:window-width="1920"
     inkscape:window-height="1137"
     inkscape:window-x="1912"
     inkscape:window-y="-8"
     inkscape:window-maximized="1" />
  <metadata
     id="metadata101">
    <rdf:RDF>
      <cc:Work
         rdf:about="">
        <dc:format>image/svg+xml</dc:format>
        <dc:type
           rdf:resource="http://purl.org/dc/dcmitype/StillImage" />
        <dc:title></dc:title>
      </cc:Work>
    </rdf:RDF>
  </metadata>
  <g
     inkscape:label="Ebene 1"
     inkscape:groupmode="layer"
     id="layer1">
    <g
       id="g68"
       transform="matrix(1.2111702,0,0,1.2807748,-1.2609746,-34.562704)"
       style="fill:#008080">
      <path
         style="fill:#008080;fill-opacity:1;stroke-width:0.70822"
         d="m 20.785413,173.52034 c -0.708986,-0.37139 -0.80601,-0.622 -0.243083,-0.62787 0.515277,-0.005 1.155641,0.27717 1.423033,0.62787 0.603588,0.79162 0.331269,0.79162 -1.17995,0 z m 57.577572,-13.70891 c 0.01603,-1.05207 0.19233,-1.40528 0.391777,-0.78489 0.199445,0.62039 0.186329,1.48118 -0.02914,1.91287 -0.21548,0.43169 -0.378663,-0.0759 -0.362632,-1.12798 z M 46.868512,125.06096 c 0,-0.87673 0.178545,-1.23539 0.396767,-0.79703 0.218221,0.43837 0.218221,1.15569 0,1.59406 -0.218222,0.43837 -0.396767,0.0797 -0.396767,-0.79703 z m 11.90028,-7.97029 c 0.0059,-1.75347 0.158674,-2.39511 0.339485,-1.42589 0.180811,0.96923 0.175979,2.40388 -0.01074,3.18812 -0.186717,0.78424 -0.334653,-0.009 -0.328747,-1.76223 z m 19.44084,-1.19718 c 0,-0.1324 0.619473,-0.63453 1.376608,-1.11584 1.247644,-0.79312 1.275467,-0.77057 0.296997,0.24074 -1.027633,1.06212 -1.673605,1.39989 -1.673605,0.8751 z m 1.573266,-2.55049 c 0,-0.1324 0.619474,-0.63453 1.376608,-1.11584 1.247647,-0.79312 1.275471,-0.77057 0.297001,0.24074 -1.027637,1.06212 -1.673609,1.39989 -1.673609,0.8751 z m 1.891845,-6.2949 c -1.497318,-1.43349 -1.497206,-1.43375 0.138573,-0.31742 0.900404,0.61448 1.930618,0.90141 2.289362,0.63762 0.358736,-0.26378 0.39762,-0.12094 0.0864,0.31742 -0.740355,1.04282 -0.765819,1.03637 -2.514331,-0.63762 z m -33.35717,-9.645685 c 0,-0.132403 0.619473,-0.634531 1.376608,-1.115841 1.247644,-0.79312 1.275467,-0.770568 0.296997,0.240741 -1.027633,1.062121 -1.673605,1.39989 -1.673605,0.8751 z M 76.793235,77.402548 c 3.763788,-0.116626 10.135517,-0.117173 14.159397,-0.0012 4.023881,0.115958 0.944416,0.211379 -6.843252,0.212048 -7.787668,6.38e-4 -11.079933,-0.09421 -7.316145,-0.210832 z m -8.747732,-14.563 c 0.03774,-0.742795 0.224145,-0.893884 0.475258,-0.385231 0.227236,0.460284 0.199289,1.010234 -0.0621,1.222111 -0.261392,0.211877 -0.447312,-0.164719 -0.413156,-0.83688 z m 68.437087,-3.188117 c 0.0378,-0.742795 0.22414,-0.893884 0.47525,-0.385231 0.22724,0.460284 0.19929,1.010234 -0.0621,1.222112 -0.2614,0.211876 -0.44732,-0.16472 -0.41316,-0.836881 z"
         id="path84" />
      <path
         style="fill:#008080;fill-opacity:1;stroke-width:0.70822"
         d="m 46.868512,122.51047 c 0,-0.87673 0.178545,-1.2354 0.396767,-0.79703 0.218221,0.43836 0.218221,1.15569 0,1.59406 -0.218222,0.43836 -0.396767,0.0797 -0.396767,-0.79703 z m 28.98122,-4.78218 c 1.01613,-0.87673 2.024502,-1.59406 2.240826,-1.59406 0.216324,0 -0.438063,0.71733 -1.454192,1.59406 -1.01613,0.87673 -2.024501,1.59406 -2.240826,1.59406 -0.216324,0 0.438063,-0.71733 1.454192,-1.59406 z m -49.767656,0.23969 c 0.5336,-0.43576 1.16834,-0.63167 1.410534,-0.43536 0.242195,0.19632 -0.194386,0.55286 -0.970181,0.7923 -1.121108,0.34603 -1.211463,0.27279 -0.440353,-0.35694 z m 17.693627,-6.02849 c 0.746833,-0.63203 1.527201,-1.0119 1.73415,-0.84415 0.206949,0.16774 -0.404097,0.68486 -1.357879,1.14914 -1.656892,0.80654 -1.673655,0.79296 -0.376271,-0.30499 z m 13.31904,-6.00723 c 0,-0.87673 0.178544,-1.2354 0.396767,-0.79703 0.218221,0.43837 0.218221,1.15569 0,1.59406 -0.218223,0.43837 -0.396767,0.0797 -0.396767,-0.79703 z m 3.022327,-5.979352 c 0,-0.132402 0.619473,-0.63453 1.376608,-1.11584 1.247644,-0.793121 1.275467,-0.770568 0.296997,0.240741 -1.027633,1.062121 -1.673605,1.399891 -1.673605,0.875099 z"
         id="path82" />
      <path
         style="fill:#008080;fill-opacity:1;stroke-width:0.70822"
         d="m 81.418269,147.64346 c 0.03776,-0.7428 0.224143,-0.89389 0.475252,-0.38524 0.227235,0.46029 0.199294,1.01024 -0.06207,1.22212 -0.261398,0.21187 -0.447311,-0.16473 -0.413155,-0.83688 z m 0.09125,-5.04786 c 0.01605,-1.05208 0.192331,-1.40528 0.391774,-0.78489 0.199443,0.62039 0.18633,1.48118 -0.02911,1.91287 -0.215483,0.43169 -0.378662,-0.0759 -0.36263,-1.12798 z m 0.06088,-5.4198 c 0,-1.57811 0.153409,-2.22371 0.340903,-1.43465 0.187502,0.78906 0.187502,2.08025 0,2.86931 -0.187494,0.78906 -0.340903,0.14346 -0.340903,-1.43466 z m 0,-7.65148 c 0,-1.57811 0.153409,-2.22371 0.340903,-1.43465 0.187502,0.78906 0.187502,2.08025 0,2.86931 -0.187494,0.78906 -0.340903,0.14346 -0.340903,-1.43466 z m -0.06088,-5.41979 c 0.01605,-1.05208 0.192331,-1.40529 0.391774,-0.7849 0.199443,0.62039 0.18633,1.48118 -0.02911,1.91287 -0.215483,0.43169 -0.378662,-0.0759 -0.36263,-1.12797 z m -15.492701,-0.31882 c 0.783083,-0.70138 1.600779,-1.27524 1.817103,-1.27524 0.216324,0 -0.247387,0.57386 -1.03047,1.27524 -0.783082,0.70139 -1.600778,1.27525 -1.817102,1.27525 -0.216325,0 0.247387,-0.57386 1.030469,-1.27525 z m -7.348809,-12.11484 c 0,-0.87673 0.178545,-1.2354 0.396767,-0.79703 0.218221,0.43837 0.218221,1.15569 0,1.59406 -0.218222,0.43837 -0.396767,0.0797 -0.396767,-0.79703 z m -1.544118,-2.86931 c 0.01603,-1.05207 0.19233,-1.40528 0.391776,-0.78489 0.199445,0.62039 0.186329,1.48118 -0.02914,1.91287 -0.21548,0.43169 -0.378663,-0.0759 -0.362631,-1.12798 z m 19.412136,-5.89801 c -0.978471,-1.01131 -0.950647,-1.03386 0.296997,-0.24074 0.757134,0.48131 1.376608,0.98344 1.376608,1.11584 0,0.52479 -0.645972,0.18702 -1.673605,-0.8751 z M 71.85703,97.164939 c -1.907046,-1.753465 -1.907046,-1.753465 0.256195,-0.207668 1.189783,0.850194 2.163241,1.639253 2.163241,1.753464 0,0.500075 -0.637015,0.09308 -2.419436,-1.545796 z m 61.47903,-37.513508 c 0.0377,-0.742795 0.22414,-0.893884 0.47525,-0.385231 0.22723,0.460284 0.19929,1.010234 -0.0621,1.222112 -0.2614,0.211876 -0.44731,-0.16472 -0.41315,-0.836881 z"
         id="path80" />
      <path
         style="fill:#008080;fill-opacity:1;stroke-width:0.70822"
         d="m 81.480366,145.46491 c 0,-0.87673 0.17855,-1.2354 0.39677,-0.79703 0.21822,0.43837 0.21822,1.15569 0,1.59406 -0.21822,0.43836 -0.39677,0.0797 -0.39677,-0.79703 z m 29.767854,-0.24074 c 0,-0.13241 0.61948,-0.63453 1.37661,-1.11584 1.24765,-0.79312 1.27547,-0.77057 0.297,0.24074 -1.02763,1.06212 -1.67361,1.39989 -1.67361,0.8751 z M 81.480366,133.35006 c 0,-0.87673 0.17855,-1.23539 0.39677,-0.79702 0.21822,0.43836 0.21822,1.15569 0,1.59405 -0.21822,0.43837 -0.39677,0.0797 -0.39677,-0.79703 z M 46.806409,117.03754 c 0.03774,-0.7428 0.224144,-0.89389 0.475258,-0.38524 0.227235,0.46028 0.199289,1.01023 -0.0621,1.22212 -0.261392,0.21187 -0.447312,-0.16473 -0.413155,-0.83688 z m 11.799497,-7.65148 c 0.03774,-0.7428 0.224144,-0.89389 0.475258,-0.38524 0.227235,0.46028 0.199288,1.01024 -0.06211,1.22212 -0.261392,0.21187 -0.447312,-0.16473 -0.413155,-0.83688 z M 150.43239,72.977899 c 0.56784,-0.184191 1.24631,-0.161538 1.50771,0.05034 0.26139,0.211877 -0.20322,0.362579 -1.03245,0.334893 -0.91639,-0.03059 -1.10278,-0.181685 -0.47526,-0.385231 z"
         id="path78" />
      <path
         style="fill:#008080;fill-opacity:1;stroke-width:0.70822"
         d="m 114.78807,142.27679 c 0.78309,-0.70138 1.60079,-1.27525 1.81711,-1.27525 0.21632,0 -0.24739,0.57387 -1.03047,1.27525 -0.78309,0.70139 -1.60079,1.27525 -1.81711,1.27525 -0.21633,0 0.24739,-0.57386 1.03047,-1.27525 z M 70.736617,121.87284 c 0.783082,-0.70138 1.600779,-1.27524 1.817103,-1.27524 0.216324,0 -0.247387,0.57386 -1.03047,1.27524 -0.783082,0.70139 -1.600779,1.27525 -1.817103,1.27525 -0.216324,0 0.247388,-0.57386 1.03047,-1.27525 z m -0.786633,-1.27524 c 0.783082,-0.70139 1.600779,-1.27525 1.817103,-1.27525 0.216324,0 -0.247388,0.57386 -1.03047,1.27525 -0.783082,0.70138 -1.600779,1.27524 -1.817103,1.27524 -0.216324,0 0.247388,-0.57386 1.03047,-1.27524 z m -23.081472,-5.73861 c 0,-0.87674 0.178545,-1.2354 0.396767,-0.79703 0.218221,0.43836 0.218221,1.15569 0,1.59406 -0.218222,0.43836 -0.396767,0.0797 -0.396767,-0.79703 z m 10.284527,-1.91287 c 0,-1.22743 0.161885,-1.72956 0.359745,-1.11584 0.197859,0.61371 0.197859,1.61797 0,2.23168 -0.19786,0.61371 -0.359745,0.11158 -0.359745,-1.11584 z m 1.51497,-5.73861 c 0,-0.87674 0.178545,-1.2354 0.396767,-0.79703 0.218221,0.43836 0.218221,1.15569 0,1.59406 -0.218222,0.43836 -0.396767,0.0797 -0.396767,-0.79703 z m -1.697472,-4.70411 c 0,-0.1324 0.619474,-0.63453 1.376608,-1.11584 1.247645,-0.79312 1.275468,-0.77057 0.296998,0.24074 -1.027634,1.06212 -1.673606,1.39989 -1.673606,0.8751 z m 16.05124,-2.46916 c -1.498527,-1.434649 -1.498527,-1.434649 0.271398,-0.219983 1.663292,1.141483 2.128032,1.654643 1.498526,1.654643 -0.149269,0 -0.945735,-0.6456 -1.769924,-1.43466 z M 147.43335,78.273717 c 0,-0.132406 0.61947,-0.634534 1.37661,-1.115841 1.24764,-0.793121 1.27547,-0.770568 0.297,0.240738 -1.02764,1.06212 -1.67361,1.399889 -1.67361,0.875103 z m 13.37276,-8.289103 c 0,-0.132407 0.61947,-0.634535 1.37661,-1.115841 1.24765,-0.793121 1.27547,-0.770569 0.297,0.240738 -1.02763,1.062119 -1.67361,1.399888 -1.67361,0.875103 z M 141.14028,48.943043 c 0,-0.132407 0.61948,-0.634535 1.37661,-1.115841 1.24765,-0.793121 1.27547,-0.770569 0.297,0.240738 -1.02763,1.06212 -1.67361,1.399888 -1.67361,0.875103 z"
         id="path76" />
      <path
         style="fill:#008080;fill-opacity:1;stroke-width:0.70822"
         d="m 26.349966,168.15731 c -0.629707,-0.61503 -0.660181,-1.03041 -0.09632,-1.31288 0.453657,-0.22727 0.851914,-0.32455 0.885016,-0.21618 0.76375,2.50035 0.576828,2.86273 -0.788698,1.52906 z M 128.40666,137.37786 c 0.56785,-0.18419 1.24632,-0.16154 1.50771,0.0503 0.26139,0.21188 -0.20321,0.36258 -1.03245,0.33489 -0.91639,-0.0306 -1.10278,-0.18168 -0.47526,-0.38522 z M 67.196768,124.82022 c 0,-0.1324 0.619474,-0.63453 1.376608,-1.11584 1.247644,-0.79312 1.275467,-0.77057 0.296997,0.24074 -1.027633,1.06212 -1.673605,1.39989 -1.673605,0.8751 z m -10.043729,-8.04836 c 0,-1.22743 0.161885,-1.72956 0.359745,-1.11584 0.197859,0.61371 0.197859,1.61797 0,2.23168 -0.19786,0.61371 -0.359745,0.11158 -0.359745,-1.11584 z m 1.51497,-12.11485 c 0,-0.87673 0.178545,-1.23539 0.396767,-0.79703 0.218221,0.43837 0.218221,1.1557 0,1.59406 -0.218222,0.43837 -0.396767,0.0797 -0.396767,-0.79703 z M 77.32266,101.6283 c -0.97847,-1.01131 -0.950647,-1.03386 0.296997,-0.24074 0.757134,0.48131 1.376608,0.98344 1.376608,1.11584 0,0.52479 -0.645972,0.18702 -1.673605,-0.8751 z m 71.68395,-21.441713 c 0,-0.132406 0.61948,-0.634534 1.37661,-1.11584 1.24765,-0.793122 1.27547,-0.770569 0.297,0.240737 -1.02763,1.06212 -1.67361,1.399889 -1.67361,0.875103 z"
         id="path74" />
      <path
         style="fill:#008080;fill-opacity:1;stroke-width:0.70822"
         d="m 109.28164,144.18966 c 0.78309,-0.70138 1.60078,-1.27525 1.81711,-1.27525 0.21632,0 -0.24739,0.57387 -1.03048,1.27525 -0.78308,0.70139 -1.60078,1.27525 -1.8171,1.27525 -0.21633,0 0.24739,-0.57386 1.03047,-1.27525 z M 57.094743,119.95997 c 0,-0.87673 0.178544,-1.23539 0.396767,-0.79703 0.218221,0.43837 0.218221,1.1557 0,1.59406 -0.218223,0.43837 -0.396767,0.0797 -0.396767,-0.79703 z"
         id="path72" />
      <path
         style="fill:#008080;fill-opacity:1;stroke-width:0.70822"
         d="m 18.425514,177.30844 c 0,-0.37139 0.353985,-0.49792 0.786633,-0.28118 0.432648,0.21675 0.786633,0.52061 0.786633,0.67526 0,0.15465 -0.353985,0.28118 -0.786633,0.28118 -0.432648,0 -0.786633,-0.30387 -0.786633,-0.67526 z m 71.190298,-0.058 c -3.486916,-1.03588 -6.485428,-3.57976 -7.99423,-6.78212 -1.563551,-3.31856 -0.02973,-3.30951 -24.651045,-0.14551 -24.156627,3.10428 -22.552495,3.05762 -23.198173,0.67474 -0.742457,-2.74005 -2.208526,-2.33303 20.98417,-5.82572 11.384935,-1.7145 21.496348,-3.26878 22.469806,-3.45395 1.487362,-0.28292 1.772683,-0.76735 1.787201,-3.03441 0.05673,-8.85914 7.401823,-12.39545 22.914779,-11.03237 6.01944,0.52891 6.01944,0.52891 11.62374,-3.73755 6.64948,-5.06215 9.3683,-6.1009 15.96012,-6.09772 10.63846,0.005 15.09001,5.11573 17.91328,20.56534 2.8403,15.54281 -10.28207,23.46952 -27.31514,16.5 -6.26025,-2.56154 -8.39816,-2.51425 -15.30408,0.33852 -6.100292,2.51996 -11.233663,3.20623 -15.190428,2.03076 z m 15.256148,-11.31858 c 3.33541,-2.52552 3.39089,-5.76907 0.14371,-8.40114 -3.17353,-2.57238 -7.173728,-2.57238 -10.34725,0 -6.960107,5.64167 3.00836,13.84925 10.20354,8.40114 z m 27.5569,-1.49764 c -0.2365,-5.8031 -2.85929,-14.82474 -4.30988,-14.82474 -1.80374,0 -1.80407,-0.15556 0.019,9.08613 1.21619,6.16528 1.62119,7.17327 2.88219,7.17327 1.01439,0 1.44911,-0.44273 1.40869,-1.43466 z M 23.145313,176.31725 c 0,-0.98186 -4.864625,-0.89539 -8.212574,0.14598 -1.397388,0.43465 -3.079085,-2.59332 -2.492476,-4.48782 0.36979,-1.19427 1.024064,-1.64319 2.394836,-1.64319 1.037324,0 2.064588,-0.35866 2.28281,-0.79703 0.239319,-0.48075 0.421411,-0.51584 0.458869,-0.0884 0.03613,0.41226 0.911526,0.57699 2.093224,0.39389 1.516859,-0.23504 1.933843,-0.61626 1.646911,-1.50564 -0.23105,-0.71618 0.02745,-1.19092 0.64845,-1.19092 0.650766,0 0.878093,0.47911 0.614702,1.29553 -0.404664,1.2543 2.913997,1.38269 7.383187,0.28563 1.063496,-0.26106 1.835025,1.07546 1.835025,3.1788 0,1.56854 -2.2055,2.50497 -6.581469,2.79441 -1.060285,0.0701 -1.354017,0.45152 -1.056936,1.37236 0.22628,0.70139 0.09057,1.27525 -0.301571,1.27525 -0.392143,0 -0.712988,-0.46298 -0.712988,-1.02883 z m 1.778613,-2.52858 c 1.627209,-0.22709 3.18449,-0.70921 3.460623,-1.07137 0.493751,-0.64757 -8.734777,-0.12908 -10.128349,0.56904 -1.478705,0.74078 -0.447413,1.58326 1.545922,1.2629 1.189783,-0.19122 3.494594,-0.53347 5.121804,-0.76057 z m 2.495426,-2.879 c 1.387174,-1.05087 -0.11806,-1.24042 -4.355907,-0.54852 -5.673892,0.92636 -6.383906,1.14158 -5.892486,1.78609 0.485715,0.63704 9.155931,-0.40996 10.248393,-1.23757 z m 0.445759,5.16116 c 0,-0.35069 0.374877,-0.63762 0.833058,-0.63762 0.458182,0 0.614284,0.28693 0.346892,0.63762 -0.267391,0.35069 -0.642267,0.63762 -0.833058,0.63762 -0.19079,0 -0.346892,-0.28693 -0.346892,-0.63762 z m 41.157333,-0.88213 c -4.126596,-2.81455 -3.895269,-3.996 0.871329,-4.4501 2.23983,-0.21338 5.116496,-0.55722 6.392591,-0.76409 2.073226,-0.33611 2.424457,-0.15219 3.299966,1.72792 1.957816,4.20431 -5.77131,6.75506 -10.563886,3.48627 z m -3.316465,-31.40813 c 0.08248,-17.76317 0.08248,-17.76317 9.739563,-25.09584 12.273226,-9.31912 12.2046,-8.49904 1.48375,-17.7307 -9.604772,-8.270608 -8.737868,-8.126512 -15.179961,-2.52325 -4.937463,4.29455 -4.937463,4.29455 -4.66147,17.10635 0.302075,14.02257 0.112888,14.62482 -4.594155,14.62482 -4.284864,0 -4.667367,-1.17837 -5.274422,-16.24876 -0.55989,-13.89948 -0.55989,-13.89948 1.879534,-16.360003 2.694461,-2.717767 2.466735,-2.917586 -1.497563,-1.314058 -2.040544,0.825384 -4.236706,3.096216 -9.172608,9.484461 -6.488233,8.39735 -6.824243,9.1354 -4.159031,9.1354 1.178177,0 1.340663,0.35592 0.946046,2.07227 -0.262048,1.13975 -0.518687,2.34217 -0.570309,2.67203 -0.05162,0.32987 0.61411,0.69971 1.479406,0.82186 5.482077,0.77391 5.234663,-0.33085 2.395555,10.69678 -1.401398,5.4433 -2.723264,10.03898 -2.93748,10.21261 -0.214216,0.17364 -7.641101,-0.89361 -16.50419,-2.37167 -16.1147057,-2.68739 -16.1147057,-2.68739 -14.3522813,-9.41049 0.9693335,-3.69771 2.1638675,-8.33971 2.6545201,-10.31555 0.8920956,-3.59245 0.8920956,-3.59245 3.8051222,-3.04392 1.602165,0.30169 3.147401,0.55537 3.433858,0.56373 0.286457,0.008 0.753799,-1.1025 1.038537,-2.46859 0.506451,-2.42983 0.580623,-2.47767 3.412334,-2.20109 2.894629,0.28273 2.894629,0.28273 8.401061,-7.21467 C 37.903059,90.669389 38.257332,90.300653 42.72227,88.999223 47.655258,87.561366 47.810037,88.55666 41.157856,78.939441 35.232193,70.372568 34.62739,69.846788 33.884532,72.616439 c -0.667302,2.487954 -1.742691,3.590824 -3.092086,3.1711 -0.99847,-0.31057 -0.927318,-0.911296 0.498752,-4.210908 1.401989,-3.243896 1.517625,-4.161628 0.735893,-5.84036 -1.182214,-2.538749 -0.220554,-4.695691 2.595037,-5.820504 1.74895,-0.698696 2.655825,-2.089341 5.127456,-7.862681 3.358025,-7.843819 3.358479,-8.313684 0.0086,-8.910066 -2.372616,-0.4224 -2.372616,-0.4224 0.468651,-6.914576 1.562696,-3.570697 2.932498,-6.589081 3.044003,-6.707521 0.403066,-0.428134 13.699686,3.361716 13.699686,3.904734 0,0.4458 -2.125338,5.608693 -5.114905,12.425181 -0.281861,0.642669 -0.938994,0.614147 -3.156927,-0.13702 -2.687843,-0.910315 -2.826476,-0.89159 -3.432438,0.463637 -5.705541,12.760374 -5.964669,13.773087 -4.160588,16.260245 0.944647,1.302319 3.927229,5.611025 6.627958,9.574902 4.910418,7.20705 4.910418,7.20705 8.450267,6.855146 15.194828,-1.510554 42.939778,-1.084579 47.197989,0.724641 5.66602,2.407365 9.64597,7.175452 12.23115,14.653236 0.17466,0.505214 3.77514,-0.162014 11.12283,-2.061234 5.9755,-1.544542 11.43979,-2.813226 12.14284,-2.819298 3.99436,-0.0345 2.62941,-12.803626 -2.2504,-21.052612 -10.07027,-17.0231 14.10081,-35.243531 28.99932,-21.86001 9.64628,8.665374 6.15197,20.025023 -8.77284,28.519661 -9.75947,5.554723 -14.47719,11.522138 -13.64525,17.259802 0.47309,3.262712 0.39095,3.488647 -1.52559,4.196467 -1.48842,0.549701 -2.2807,1.554908 -2.98754,3.790399 -1.16511,3.6849 -3.5478,3.86544 -2.70054,0.20462 0.27275,-1.178452 0.36827,-2.142641 0.21227,-2.142641 -0.156,0 -5.73767,1.419669 -12.40373,3.154821 -15.01261,3.90773 -15.42131,3.83998 -17.29818,-2.867316 -3.69577,-13.207443 -5.07491,-11.985977 -5.30168,4.695556 -0.21076,15.50385 -0.21076,15.50385 6.83859,23.6424 10.15158,11.72011 9.88551,10.67405 3.88974,15.29216 -5.95773,4.58882 -7.79555,4.88906 -9.2989,1.51917 -1.96235,-4.39882 -17.514165,-21.79487 -19.507894,-21.82128 -1.769925,-0.0234 -1.769925,-0.0234 -1.769925,13.48496 0,12.2768 -0.133503,13.62841 -1.464299,14.82474 -1.830384,1.64544 -3.255499,5.01662 -3.255499,7.70105 0,1.94608 -0.179201,2.06978 -3.539308,2.44309 -1.94662,0.21628 -4.424514,0.57331 -5.506432,0.79341 -1.967124,0.4002 -1.967124,0.4002 -1.884647,-17.36297 z M 32.58491,117.65393 c 0,-1.4393 -0.243068,-1.60625 -1.769924,-1.21564 -4.608863,1.17906 -5.854817,1.09178 -8.059702,-0.56456 -2.818414,-2.11723 -5.116403,-2.18643 -5.116403,-0.15407 0,1.32875 0.600866,1.6082 5.309773,2.4695 8.316691,1.5212 9.636256,1.4479 9.636256,-0.53523 z M 147.71258,78.689371 c 3.51228,-3.013202 3.51228,-3.013202 0.23992,-3.733808 -1.79981,-0.396333 -3.95329,-0.955254 -4.78554,-1.242047 -1.27197,-0.438323 -1.41981,-0.325929 -0.92744,0.705096 0.32216,0.674596 0.78691,2.589458 1.03277,4.255249 0.54181,3.670794 0.18103,3.669534 4.44029,0.01551 z m 9.64574,-6.807575 c 9.07175,-3.423889 13.34,-13.215806 9.12637,-20.937019 -3.45163,-6.324879 -12.851,-8.807476 -20.17457,-5.328582 -18.67777,8.872451 -8.29133,33.564796 11.0482,26.265601 z M 52.706922,38.974327 c 1.363786,-3.052952 1.59094,-4.2185 0.89053,-4.569378 -1.29122,-0.646851 -1.686676,-0.157632 -3.53185,4.369265 -2.60596,6.393387 -0.206487,6.575178 2.64132,0.200113 z m -4.014167,-1.089273 c 0.973282,-2.181331 1.582015,-4.118113 1.352739,-4.303958 -1.231405,-0.998143 -2.376082,0.0451 -3.65204,3.328435 -0.783639,2.016484 -1.607904,4.054099 -1.831699,4.528034 -0.265567,0.562394 0.07387,0.783868 0.977247,0.637623 0.884009,-0.14311 2.023567,-1.657149 3.153753,-4.190134 z m -4.004356,-1.00259 c 1.722489,-3.710515 1.839879,-4.384109 0.819349,-4.701541 -1.418567,-0.441239 -1.11107,-0.835197 -3.287772,4.212222 -1.34692,3.123289 -1.540671,4.22171 -0.809297,4.5881 1.212066,0.607199 0.928517,0.961776 3.27772,-4.098781 z m 14.661125,78.811186 c 0.01909,-12.6307 0.01909,-12.6307 4.170949,-16.392437 4.151863,-3.761742 4.151863,-3.761742 11.977069,2.762627 4.303862,3.5884 7.925926,6.87322 8.049018,7.29961 0.194275,0.67291 -20.571743,17.19461 -23.232832,18.48433 -0.773576,0.37492 -0.97922,-2.2173 -0.964204,-12.15413 z m 9.42051,-16.544663 c 0,-1.200728 -2.237177,-1.860356 -3.323396,-0.979894 -0.619238,0.501937 -0.588543,0.958189 0.110389,1.640822 1.123724,1.097515 3.213007,0.667745 3.213007,-0.660928 z M 43.718092,114.77821 c -0.888401,-1.15309 -0.857856,-1.50753 0.204094,-2.36832 1.140717,-0.92463 1.248854,-0.80721 1.248854,1.35603 0,2.76074 -0.06887,2.80873 -1.452948,1.01229 z M 78.710922,73.754716 C 74.673547,72.588073 71.447776,69.986158 69.859516,66.61515 65.220224,56.768463 78.218758,47.693602 90.032759,52.531303 105.54863,58.884876 95.091164,78.487966 78.710922,73.754716 Z m 13.194866,-4.853533 c 3.235194,-3.1165 2.904281,-3.634435 -1.392357,-2.179256 -1.558902,0.527967 -4.699495,1.186866 -6.979111,1.46422 -4.144738,0.504281 -4.144738,0.504281 -1.784839,1.565025 3.919683,1.761846 7.780407,1.438739 10.156307,-0.849989 z"
         id="path70" />
    </g>
  </g>
</svg>
