<?xml version="1.0" encoding="UTF-8" standalone="no"?>
<!-- Created with Inkscape (http://www.inkscape.org/) -->

<svg
   width="22.225004mm"
   height="22.48958mm"
   viewBox="0 0 22.225004 22.48958"
   version="1.1"
   id="svg194"
   inkscape:version="1.2 (dc2aedaf03, 2022-05-15)"
   sodipodi:docname="LMLStair Rechter Winkel mit Podest.svg"
   xmlns:inkscape="http://www.inkscape.org/namespaces/inkscape"
   xmlns:sodipodi="http://sodipodi.sourceforge.net/DTD/sodipodi-0.dtd"
   xmlns="http://www.w3.org/2000/svg"
   xmlns:svg="http://www.w3.org/2000/svg">
  <sodipodi:namedview
     id="namedview196"
     pagecolor="#ffffff"
     bordercolor="#999999"
     borderopacity="1"
     inkscape:showpageshadow="0"
     inkscape:pageopacity="0"
     inkscape:pagecheckerboard="0"
     inkscape:deskcolor="#d1d1d1"
     inkscape:document-units="mm"
     showgrid="false"
     inkscape:zoom="3.3638608"
     inkscape:cx="-13.228847"
     inkscape:cy="68.671093"
     inkscape:window-width="1920"
     inkscape:window-height="1129"
     inkscape:window-x="-8"
     inkscape:window-y="-8"
     inkscape:window-maximized="1"
     inkscape:current-layer="layer1" />
  <defs
     id="defs191" />
  <g
     inkscape:label="Ebene 1"
     inkscape:groupmode="layer"
     id="layer1"
     transform="translate(-48.035803,-109.56877)">
    <path
       id="path252"
       style="fill:#000000;stroke-width:0.264583"
       d="m 48.035803,109.56877 v 10.98021 10.9802 h 1.704289 c 0.937289,0 1.777687,0.11907 1.867586,0.26459 0.08993,0.14552 0.447121,0.26458 0.79375,0.26458 0.34662,0 0.703851,-0.11906 0.79375,-0.26458 0.08993,-0.14552 0.930298,-0.26459 1.867587,-0.26459 h 1.704288 v -6.61458 -6.61458 h 6.746875 6.746879 v -4.36563 -4.36562 H 59.148303 Z m 0.529167,0.52917 h 3.96875 3.96875 v 1.98437 1.98438 h -2.116667 -2.116666 v 1.98437 1.98437 H 50.417053 48.56497 v -3.96875 z m 8.202083,0 h 0.79375 0.79375 v 1.98437 1.98438 h -0.79375 -0.79375 v -1.98438 z m 1.852084,0 h 0.79375 0.79375 v 1.98437 1.98438 h -0.79375 -0.79375 v -1.98438 z m 1.852083,0 h 0.79375 0.79375 v 1.98437 1.98438 h -0.79375 -0.79375 v -1.98438 z m 1.852083,0 h 0.79375 0.79375 v 1.98437 1.98438 h -0.79375 -0.79375 v -1.98438 z m 1.852084,0 h 0.79375 0.79375 v 1.98437 1.98438 h -0.79375 -0.79375 v -1.98438 z m 1.852083,0 h 0.79375 0.79375 v 1.98437 1.98438 h -0.79375 -0.79375 v -1.98438 z m 1.852083,0 h 0.926044 0.92604 v 1.98437 c 0,1.09141 -0.0297,1.97714 -0.0661,1.96784 -0.0364,-0.009 -0.4531,-0.20956 -0.92604,-0.44494 -0.822592,-0.40938 -0.859894,-0.49514 -0.859894,-1.96783 z m -15.345833,4.23333 h 1.996261 1.996777 l -0.07855,1.78594 -0.07803,1.78593 -1.918229,0.078 -1.918229,0.0775 v -1.86345 z m 4.233333,0 h 0.79375 0.79375 v 1.71979 1.71979 h -0.79375 -0.79375 v -1.71979 z m 1.852084,0 h 0.79375 0.79375 v 1.71979 1.71979 h -0.79375 -0.79375 v -1.71979 z m 1.852083,0 h 0.79375 0.79375 v 1.71979 1.71979 h -0.79375 -0.79375 v -1.71979 z m 1.852083,0 h 0.79375 0.79375 v 1.71979 1.71979 h -0.79375 -0.79375 v -1.71979 z m 1.852084,0 h 0.79375 0.79375 v 1.71979 1.71979 h -0.79375 -0.79375 v -1.71979 z m 1.852083,0 h 0.79375 0.79375 v 1.71979 1.71979 h -0.79375 -0.79375 v -1.71979 z m 3.704167,0.009 v 1.71566 1.71514 h -0.92604 -0.926044 v -1.27383 c 0,-1.19539 0.05708,-1.30127 0.926044,-1.71565 z m -21.166667,3.95996 h 1.852083 1.852084 v 0.79375 0.79375 H 50.417053 48.56497 v -0.79375 z m 3.96875,0 h 1.852083 1.852084 v 0.79375 0.79375 H 54.385803 52.53372 v -0.79375 z m -3.96875,1.85209 h 1.852083 1.852084 v 0.79375 0.79375 H 50.417053 48.56497 v -0.79375 z m 3.96875,0 h 1.852083 1.852084 v 0.79375 0.79375 H 54.385803 52.53372 v -0.79375 z m -3.96875,1.85208 h 1.852083 1.852084 v 0.79375 0.79375 H 50.417053 48.56497 v -0.79375 z m 3.96875,0 h 1.852083 1.852084 v 0.79375 0.79375 H 54.385803 52.53372 v -0.79375 z m -3.96875,1.85208 h 1.852083 1.852084 v 0.79375 0.79375 H 50.417053 48.56497 v -0.79375 z m 3.96875,0 h 1.852083 1.852084 v 0.79375 0.79375 H 54.385803 52.53372 v -0.79375 z m -3.96875,1.85209 h 1.852083 1.852084 v 0.79375 0.79375 H 50.417053 48.56497 v -0.79375 z m 3.96875,0 h 1.852083 1.852084 v 0.79375 0.79375 H 54.385803 52.53372 v -0.79375 z m -3.96875,1.85208 h 1.852083 1.852084 v 0.79375 0.79375 H 50.417053 48.56497 v -0.79375 z m 3.96875,0 h 1.852083 1.852084 v 0.79375 0.79375 H 54.385803 52.53372 v -0.79375 z m -3.96875,1.85208 h 1.852083 c 1.961108,0 2.194516,0.18673 1.322917,1.05834 -0.38806,0.38805 -0.881944,0.52916 -1.852083,0.52916 -1.293509,0 -1.322917,-0.0176 -1.322917,-0.79375 z m 5.820833,0 h 1.852084 v 0.79375 c 0,0.78395 -0.01715,0.79383 -1.389063,0.77205 -1.011639,-0.0161 -1.514873,-0.15984 -1.852083,-0.52917 -0.784969,-0.85973 -0.548306,-1.03663 1.389062,-1.03663 z" />
  </g>
</svg>
