<?xml version="1.0" encoding="UTF-8" standalone="no"?>
<!-- Created with Inkscape (http://www.inkscape.org/) -->

<svg
   width="51.530712mm"
   height="18.73839mm"
   viewBox="0 0 51.530712 18.73839"
   version="1.1"
   id="svg214"
   sodipodi:docname="Voll Gewendelt Rechteck.svg"
   inkscape:version="1.2 (dc2aedaf03, 2022-05-15)"
   xmlns:inkscape="http://www.inkscape.org/namespaces/inkscape"
   xmlns:sodipodi="http://sodipodi.sourceforge.net/DTD/sodipodi-0.dtd"
   xmlns="http://www.w3.org/2000/svg"
   xmlns:svg="http://www.w3.org/2000/svg">
  <sodipodi:namedview
     id="namedview216"
     pagecolor="#ffffff"
     bordercolor="#999999"
     borderopacity="1"
     inkscape:showpageshadow="0"
     inkscape:pageopacity="0"
     inkscape:pagecheckerboard="0"
     inkscape:deskcolor="#d1d1d1"
     inkscape:document-units="mm"
     showgrid="false"
     inkscape:zoom="0.14866305"
     inkscape:cx="-70.629521"
     inkscape:cy="-1204.0652"
     inkscape:window-width="1920"
     inkscape:window-height="1129"
     inkscape:window-x="-8"
     inkscape:window-y="-8"
     inkscape:window-maximized="1"
     inkscape:current-layer="layer1" />
  <defs
     id="defs211" />
  <g
     inkscape:label="Ebene 1"
     inkscape:groupmode="layer"
     id="layer1"
     transform="translate(-72.120989,-157.92747)">
    <path
       id="path209"
       style="fill:#000000;stroke-width:0.425873"
       d="m 72.120989,157.92747 v 8.73022 8.73021 h 1.86449 1.86397 l 0.5302,0.63872 0.5302,0.63924 h 0.74776 0.74724 l 0.5302,-0.63924 0.5302,-0.63872 h 2.50321 2.5032 v -1.19217 -1.1927 l 0.51108,-0.51108 0.510565,-0.51108 h 12.393042 12.393044 l 0.51108,0.51108 0.51108,0.51108 v 1.1927 1.19217 h 6.17533 6.17482 v -8.73021 -8.73022 H 97.886346 Z m 41.188191,0.80253 2.15284,0.13126 2.15232,0.13074 -1.99316,3.22668 -1.99368,3.22668 -1.26969,-0.41031 -1.26917,-0.41032 -0.12144,-0.0987 -0.12144,-0.0987 0.91933,-2.50476 0.91932,-2.50475 0.31212,-0.34365 z m -35.338411,0.003 2.46393,0.1292 2.46393,0.1297 1.01854,2.728 1.01803,2.72748 -0.33848,0.3297 -0.33796,0.3297 -1.06506,0.25786 -1.06453,0.25838 -1.16117,-2.03812 -1.16169,-2.03811 -0.91777,-1.40664 z m 44.829301,0.002 v 1.68156 1.68206 l -2.9316,2.59933 -2.93161,2.59881 -0.36897,-0.014 -0.36897,-0.0145 -0.97616,-0.8139 -0.97617,-0.8139 2.08152,-3.32435 2.08153,-3.32383 2.19522,-0.12867 z m -49.827451,0.0444 h 2.11667 2.11615 l 1.42317,2.23552 1.42368,2.23604 0.80047,1.36684 0.80099,1.36684 -0.78652,0.8692 -0.78651,0.86868 h -0.34624 -0.34623 l -3.20755,-2.79725 -3.20808,-2.79776 v -1.67431 z m 10.6469,0 h 1.867584 1.86707 l 0.301273,2.40915 0.300757,2.40864 0.219625,0.57206 0.219625,0.57206 H 87.0591 85.722231 l -0.26665,-0.74518 -0.267167,-0.74517 -0.784445,-2.03864 -0.78445,-2.03863 v -0.19741 z m 4.167702,0 h 1.689303 1.689819 l 0.268718,2.23552 0.268717,2.23604 0.0036,0.74517 h -5.16e-4 l 0.0041,0.74518 h -1.441256 -1.441772 l -0.300757,-2.40864 -0.301274,-2.40916 -0.219625,-0.57206 z m 4.350122,0 h 1.277442 1.277441 v 2.98121 2.9807 h -0.993738 -0.993737 l -0.283704,-0.28371 -0.283704,-0.2837 v -2.69751 z m 2.980697,0 h 1.277958 1.277442 v 2.98121 2.9807 H 96.395998 95.11804 v -2.9807 z m 2.981213,0 h 1.277959 1.277438 v 2.98121 2.9807 h -1.277438 -1.277959 v -2.9807 z m 2.981217,0 h 1.29707 1.29708 l -0.12609,2.87476 -0.12557,2.87424 -1.17151,0.13487 -1.17098,0.13488 v -3.00964 z m 3.52588,0 h 1.6893 1.68982 l -0.21962,0.57205 -0.21911,0.57206 -0.30128,2.40916 -0.30127,2.40864 h -1.44177 -1.44126 l 0.004,-0.74518 0.004,-0.74517 0.26872,-2.23604 z m 3.81217,0 h 1.89601 1.89601 l -0.23927,0.74517 -0.23926,0.74517 -0.80873,2.12959 -0.80822,2.12907 -1.3808,0.13798 -1.38079,0.13745 0.23151,-0.60306 0.23151,-0.60358 0.30076,-2.40864 z m -35.445901,4.20181 3.11971,2.68976 3.1197,2.69027 -0.64337,1.38441 -0.64285,1.3839 -0.24081,-0.0336 -0.2403,-0.0336 -0.42581,-0.15658 -0.42633,-0.15607 -1.80971,-0.46508 -1.81023,-0.46561 v -3.41891 z m 49.614541,0.13177 0.12506,3.20859 0.12557,3.20859 -0.18758,0.1881 -0.1881,0.18759 -2.10788,0.55604 -2.10789,0.55604 -0.54932,-1.51774 -0.5488,-1.51825 2.71973,-2.43448 z m -36.792065,2.05466 h 1.208195 1.208712 l 0.228409,0.95808 0.22841,0.95808 0.291972,2.02313 0.291972,2.02262 h -0.700733 -0.700215 l -0.19482,-0.53227 -0.195337,-0.53227 -0.833541,-2.44894 z m 3.2644,0 h 1.290877 1.290878 l 0.141593,2.98173 0.141593,2.98173 -0.912089,-5.2e-4 -0.912089,-0.001 -0.228409,-0.95808 -0.228927,-0.95809 -0.291972,-2.02313 z m 3.503662,0 h 1.064535 1.064534 v 2.98069 2.98122 h -1.064534 -1.064535 v -2.98122 z m 2.554883,0 h 1.277958 1.277442 v 2.98069 2.98122 H 96.395998 95.11804 v -2.98122 z m 2.981213,0 h 1.277959 1.277438 v 2.98069 2.98122 h -1.277438 -1.277959 v -2.98122 z m 2.981217,0 h 1.06453 1.06505 v 2.98069 2.98122 h -1.06505 -1.06453 v -2.98122 z m 3.05097,0 h 1.29088 1.29139 l -0.29197,2.02261 -0.29197,2.02313 -0.22841,0.95809 -0.22841,0.95859 -0.91209,5.2e-4 -0.91209,0.001 0.14108,-2.98224 z m 3.42977,0 h 1.20302 1.20355 l -0.96945,2.87424 -0.96893,2.87476 -0.7612,0.14831 -0.76067,0.14831 0.29817,-2.06499 0.29817,-2.06447 0.22841,-0.95808 z m -22.329388,0.35605 0.746724,2.27066 0.746208,2.27066 0.19637,0.53227 0.196887,0.53227 h -0.68988 -0.68988 l -1.520842,-2.37764 -1.52083,-2.37763 0.14314,-0.14314 0.14314,-0.14263 1.12448,-0.28215 z m 25.286308,0.0698 h 1.00563 1.0051 l 0.25735,0.416 0.25735,0.41651 -1.50482,2.35179 -1.5043,2.3518 h -0.68988 -0.68936 l 0.19637,-0.53227 0.19637,-0.53227 0.73535,-2.23604 z m 3.67575,0.85628 0.95033,0.76946 0.95084,0.76998 -2.07739,1.78025 v -5.1e-4 l -2.07739,1.78077 -0.24857,0.003 -0.24804,0.003 -0.25477,-0.25425 -0.25424,-0.25476 1.28209,-2.0836 1.28209,-2.08359 0.34727,-0.21497 z m -32.571661,0.42116 h 0.3235 0.32349 l 1.28468,2.08773 1.28467,2.08773 -0.25476,0.25476 -0.25425,0.25373 -0.24856,-0.008 -0.24857,-0.008 -1.82934,-1.53375 -1.82935,-1.53376 0.72451,-0.79995 z m 34.854721,1.54564 0.38706,0.61134 0.38654,0.61133 0.007,0.74517 0.006,0.74518 h -0.58963 -0.59014 l -1.22008,0.63613 v -5.1e-4 l -1.21957,0.63613 -0.83044,0.003 -0.83096,0.003 0.40463,-0.36587 0.40463,-0.36587 1.84278,-1.62936 z m -36.979131,0.58395 0.25114,0.0181 0.25063,0.0181 1.91668,1.68414 1.91616,1.68413 -0.85162,-0.0326 -0.85163,-0.0326 -1.27744,-0.42582 -1.27796,-0.42581 -0.52968,-0.16485 -0.52969,-0.16484 0.49145,-1.07901 z m -6.52519,1.70325 h 0.42013 0.41961 l 1.92237,0.51418 1.92288,0.51418 v 0.5886 0.58859 l -0.9586,0.79944 -0.95808,0.79943 -1.3839,0.0145 -1.38441,0.0139 v -1.91616 z m 48.619261,0 h 0.60409 0.6041 v 1.91668 1.91616 h -2.13785 -2.13837 l 0.84232,-1.65106 0.84233,-1.65106 0.69195,-0.2651 z m -42.863021,1.3131 2.12545,0.5426 2.12545,0.54209 0.1385,0.71727 0.13797,0.71778 h -1.88154 -1.88154 l -0.78031,-0.86196 -0.7798,-0.86145 0.39791,-0.3979 z m 37.517611,0.3266 0.49919,1.09657 0.49971,1.09657 h -2.33319 -2.33319 v -0.6134 -0.61391 l 0.32298,-0.19947 0.32246,-0.19947 1.51102,-0.28319 z" />
  </g>
</svg>
