<?xml version="1.0" encoding="UTF-8" standalone="no"?>
<!-- Created with Inkscape (http://www.inkscape.org/) -->

<svg
   width="22.48958mm"
   height="22.225mm"
   viewBox="0 0 22.48958 22.225"
   version="1.1"
   id="svg194"
   inkscape:version="1.2 (dc2aedaf03, 2022-05-15)"
   sodipodi:docname="LMLStair Rechter Winkel mit Podest90.svg"
   xmlns:inkscape="http://www.inkscape.org/namespaces/inkscape"
   xmlns:sodipodi="http://sodipodi.sourceforge.net/DTD/sodipodi-0.dtd"
   xmlns="http://www.w3.org/2000/svg"
   xmlns:svg="http://www.w3.org/2000/svg">
  <sodipodi:namedview
     id="namedview196"
     pagecolor="#ffffff"
     bordercolor="#999999"
     borderopacity="1"
     inkscape:showpageshadow="0"
     inkscape:pageopacity="0"
     inkscape:pagecheckerboard="0"
     inkscape:deskcolor="#d1d1d1"
     inkscape:document-units="mm"
     showgrid="false"
     inkscape:zoom="3.3638608"
     inkscape:cx="-12.634292"
     inkscape:cy="68.076538"
     inkscape:window-width="1920"
     inkscape:window-height="1129"
     inkscape:window-x="-8"
     inkscape:window-y="-8"
     inkscape:window-maximized="1"
     inkscape:current-layer="layer1" />
  <defs
     id="defs191" />
  <g
     inkscape:label="Ebene 1"
     inkscape:groupmode="layer"
     id="layer1"
     transform="translate(-47.903515,-109.70106)">
    <path
       id="path252"
       style="fill:#000000;stroke-width:0.264583"
       d="m 70.393095,109.70106 h -10.98021 -10.9802 v 1.70429 c 0,0.93729 -0.11907,1.77768 -0.26459,1.86758 -0.14552,0.0899 -0.26458,0.44712 -0.26458,0.79375 0,0.34662 0.11906,0.70385 0.26458,0.79375 0.14552,0.0899 0.26459,0.9303 0.26459,1.86759 v 1.70429 h 6.61458 6.61458 v 6.74687 6.74688 h 4.36563 4.36562 v -11.1125 z m -0.52917,0.52916 v 3.96875 3.96875 h -1.98437 -1.98438 v -2.11666 -2.11667 h -1.98437 -1.98437 v -1.85208 -1.85209 h 3.96875 z m 0,8.20209 v 0.79375 0.79375 h -1.98437 -1.98438 v -0.79375 -0.79375 h 1.98438 z m 0,1.85208 v 0.79375 0.79375 h -1.98437 -1.98438 v -0.79375 -0.79375 h 1.98438 z m 0,1.85208 v 0.79376 0.79374 h -1.98437 -1.98438 v -0.79374 -0.79376 h 1.98438 z m 0,1.85209 v 0.79375 0.79375 h -1.98437 -1.98438 v -0.79375 -0.79375 h 1.98438 z m 0,1.85208 v 0.79375 0.79375 h -1.98437 -1.98438 v -0.79375 -0.79375 h 1.98438 z m 0,1.85208 v 0.79375 0.79375 h -1.98437 -1.98438 v -0.79375 -0.79375 h 1.98438 z m 0,1.85209 v 0.92604 0.92604 h -1.98437 c -1.09141,0 -1.97714,-0.0297 -1.96784,-0.0661 0.009,-0.0364 0.20956,-0.4531 0.44494,-0.92604 0.40938,-0.82259 0.49514,-0.85989 1.96783,-0.85989 z m -4.23333,-15.34584 v 1.99627 1.99677 l -1.78594,-0.0785 -1.78593,-0.078 -0.078,-1.91823 -0.0775,-1.91823 h 1.86345 z m 0,4.23334 v 0.79375 0.79375 h -1.71979 -1.71979 v -0.79375 -0.79375 h 1.71979 z m 0,1.85208 v 0.79375 0.79375 h -1.71979 -1.71979 v -0.79375 -0.79375 h 1.71979 z m 0,1.85208 v 0.79375 0.79375 h -1.71979 -1.71979 v -0.79375 -0.79375 h 1.71979 z m 0,1.85209 v 0.79375 0.79375 h -1.71979 -1.71979 v -0.79375 -0.79375 h 1.71979 z m 0,1.85208 v 0.79375 0.79375 h -1.71979 -1.71979 v -0.79375 -0.79375 h 1.71979 z m 0,1.85208 v 0.79375 0.79375 h -1.71979 -1.71979 v -0.79375 -0.79375 h 1.71979 z m -0.009,3.70417 h -1.71566 -1.71514 v -0.92604 -0.92604 h 1.27383 c 1.19539,0 1.30127,0.0571 1.71565,0.92604 z m -3.95996,-21.16667 v 1.85209 1.85208 h -0.79375 -0.79375 v -1.85208 -1.85209 h 0.79375 z m 0,3.96875 v 1.85209 1.85208 h -0.79375 -0.79375 v -1.85208 -1.85209 h 0.79375 z m -1.85209,-3.96875 v 1.85209 1.85208 h -0.79375 -0.79375 v -1.85208 -1.85209 h 0.79375 z m 0,3.96875 v 1.85209 1.85208 h -0.79375 -0.79375 v -1.85208 -1.85209 h 0.79375 z m -1.85208,-3.96875 v 1.85209 1.85208 h -0.79375 -0.79375 v -1.85208 -1.85209 h 0.79375 z m 0,3.96875 v 1.85209 1.85208 h -0.79375 -0.79375 v -1.85208 -1.85209 h 0.79375 z m -1.85208,-3.96875 v 1.85209 1.85208 h -0.79375 -0.79375 v -1.85208 -1.85209 h 0.79375 z m 0,3.96875 v 1.85209 1.85208 h -0.79375 -0.79375 v -1.85208 -1.85209 h 0.79375 z m -1.85209,-3.96875 v 1.85209 1.85208 h -0.79375 -0.79375 v -1.85208 -1.85209 h 0.79375 z m 0,3.96875 v 1.85209 1.85208 h -0.79375 -0.79375 v -1.85208 -1.85209 h 0.79375 z m -1.85208,-3.96875 v 1.85209 1.85208 h -0.79375 -0.79375 v -1.85208 -1.85209 h 0.79375 z m 0,3.96875 v 1.85209 1.85208 h -0.79375 -0.79375 v -1.85208 -1.85209 h 0.79375 z m -1.85208,-3.96875 v 1.85209 c 0,1.96111 -0.18673,2.19451 -1.05834,1.32291 -0.38805,-0.38806 -0.52916,-0.88194 -0.52916,-1.85208 0,-1.29351 0.0176,-1.32292 0.79375,-1.32292 z m 0,5.82084 v 1.85208 h -0.79375 c -0.78395,0 -0.79383,-0.0171 -0.77205,-1.38906 0.0161,-1.01164 0.15984,-1.51487 0.52917,-1.85208 0.85973,-0.78497 1.03663,-0.54831 1.03663,1.38906 z" />
  </g>
</svg>
