<?xml version="1.0" encoding="UTF-8" standalone="no"?>
<!-- Created with Inkscape (http://www.inkscape.org/) -->

<svg
   width="44.290836mm"
   height="18.73839mm"
   viewBox="0 0 44.290836 18.73839"
   version="1.1"
   id="svg5"
   xml:space="preserve"
   inkscape:version="1.2 (dc2aedaf03, 2022-05-15)"
   sodipodi:docname="LMLStair halb Gewendelt Unten90.svg"
   xmlns:inkscape="http://www.inkscape.org/namespaces/inkscape"
   xmlns:sodipodi="http://sodipodi.sourceforge.net/DTD/sodipodi-0.dtd"
   xmlns="http://www.w3.org/2000/svg"
   xmlns:svg="http://www.w3.org/2000/svg"><sodipodi:namedview
     id="namedview7"
     pagecolor="#ffffff"
     bordercolor="#999999"
     borderopacity="1"
     inkscape:showpageshadow="0"
     inkscape:pageopacity="0"
     inkscape:pagecheckerboard="0"
     inkscape:deskcolor="#d1d1d1"
     inkscape:document-units="mm"
     showgrid="false"
     inkscape:zoom="1.1893044"
     inkscape:cx="-29.849381"
     inkscape:cy="-71.470349"
     inkscape:window-width="1920"
     inkscape:window-height="1129"
     inkscape:window-x="-8"
     inkscape:window-y="-8"
     inkscape:window-maximized="1"
     inkscape:current-layer="layer1" /><defs
     id="defs2" /><g
     inkscape:label="Ebene 1"
     inkscape:groupmode="layer"
     id="layer1"
     transform="translate(-98.724975,-110.75022)"><path
       id="path209"
       style="fill:#000000;stroke-width:0.425873"
       d="m 143.01581,112.02818 h -1.86396 -1.86449 l -0.5302,-0.63873 -0.5302,-0.63923 h -0.74724 -0.74776 l -0.5302,0.63923 -0.5302,0.63873 h -2.50269 -2.5032 v 1.19217 1.19269 l -0.51108,0.51108 -0.51108,0.51108 H 114.1845 98.724975 v 7.02696 7.02645 h 22.145425 22.14541 v -8.73022 z m -0.85162,0.85162 v 1.96267 1.96267 l -1.11466,-0.28008 -1.11414,-0.27957 -1.22784,-0.24546 -1.22783,-0.24547 v -0.51159 -0.51108 l 0.98547,-0.92605 0.98547,-0.92604 h 1.35703 z m 0,4.71754 v 3.17759 3.17758 h -0.25425 -0.25373 l -2.72696,-2.39417 -2.72749,-2.39468 0.0522,-0.48008 0.0527,-0.48059 0.47335,-0.95498 0.47284,-0.9555 0.64596,0.18501 0.64544,0.18448 1.80971,0.46767 z m 0,11.03964 h -2.08669 -2.0867 l -2.17196,-3.42098 -2.17196,-3.42098 v -0.34571 -0.34572 l 0.77877,-0.70487 0.77876,-0.70486 h 0.31833 0.31884 l 3.12901,2.66185 3.12952,2.66134 0.032,1.81022 z m -4.96042,-14.03377 -0.39791,0.39791 -0.39791,0.39843 -2.12545,-0.54261 -2.12545,-0.54208 -0.13798,-0.71727 -0.13849,-0.71779 h 1.88206 1.88154 l 0.77979,0.86197 z m -0.0749,14.07873 -2.44895,-0.12919 v 0.001 l -2.44843,-0.12919 -0.9741,-2.89336 -0.97461,-2.89337 1.07125,-0.40721 1.07073,-0.40721 0.29146,0.003 0.29145,0.003 0.93845,1.59371 0.93844,1.5937 1.1219,1.83244 z m -0.50643,-12.42405 -0.49144,1.07901 -0.49144,1.079 -0.25115,-0.0181 v -5.1e-4 l -0.25115,-0.0181 -1.91668,-1.68414 -1.91616,-1.68413 0.68161,-0.001 0.68161,-10e-4 1.44798,0.46406 1.44745,0.46302 0.52969,0.16123 z m -1.65209,2.67891 -0.72761,0.8046 -0.72812,0.80408 h -0.29611 -0.2961 l -1.31723,-2.11925 -1.31724,-2.11873 0.41962,-0.25993 0.42013,-0.25942 1.92133,1.57458 z m -2.49081,2.12907 -0.58756,0.37207 -0.58756,0.37207 -0.71107,0.006 -0.71107,0.007 -0.73484,-2.23552 -0.73535,-2.23604 -0.19637,-0.53227 -0.19637,-0.53226 0.79065,0.0119 0.79116,0.0124 1.43919,2.37712 z m -0.85008,7.62589 -1.85621,-0.13384 -1.85674,-0.13385 -0.31729,-1.91616 -0.31729,-1.91668 -0.23255,-0.95808 -0.23306,-0.95808 h 1.4211 1.4211 l 0.77102,2.44843 0.77153,2.44895 0.21394,0.55965 z m -2.29753,-6.44302 h -1.20354 -1.20355 l -0.22841,-0.95808 -0.22841,-0.95808 -0.29817,-2.06448 -0.29817,-2.06499 0.76067,0.14832 0.7612,0.14831 0.96893,2.87476 z m -1.98076,6.38824 h -1.74976 -1.74925 l -0.005,-1.38389 h 5.2e-4 l -0.005,-1.38442 -0.26355,-1.5968 -0.26407,-1.5968 h 1.48828 1.48829 l 0.26251,1.91616 0.26303,1.91565 0.26717,1.06505 z m -1.27331,-6.38824 h -1.32601 -1.32602 v -2.9807 -2.98121 h 0.80564 0.80563 l 0.22841,0.95808 0.22841,0.95808 0.29197,2.02313 z m -3.07784,0.42633 v 2.9807 2.98121 h -1.27796 -1.27744 v -2.98121 -2.9807 h 1.27744 z m -0.42582,-6.38824 v 2.98121 2.9807 h -1.06505 -1.06453 v -2.9807 -2.98121 h 1.06453 z m -2.5554,0 v 2.98121 2.9807 h -1.27744 -1.27796 v -2.9807 -2.98121 h 1.27796 z m 0,6.38824 v 2.9807 2.98121 h -1.27744 -1.27796 v -2.98121 -2.9807 h 1.27796 z m -2.98121,-6.38824 v 2.98121 2.9807 h -1.27744 -1.27796 v -2.9807 -2.98121 h 1.27796 z m 0,6.38824 v 2.9807 2.98121 h -1.27744 -1.27796 v -2.98121 -2.9807 h 1.27796 z m -2.98121,-6.38824 v 2.98121 2.9807 h -1.27745 -1.27744 v -2.9807 -2.98121 h 1.27744 z m 0,6.38824 v 2.9807 2.98121 h -1.27745 -1.27744 v -2.98121 -2.9807 h 1.27744 z m -2.9807,-6.38824 v 2.98121 2.9807 h -1.27796 -1.27744 v -2.9807 -2.98121 h 1.27744 z m 0,6.38824 v 2.9807 2.98121 h -1.27796 -1.27744 v -2.98121 -2.9807 h 1.27744 z m -2.98121,-6.38824 v 2.98121 2.9807 h -1.27796 -1.27744 v -2.9807 -2.98121 h 1.27744 z m 0,6.38824 v 2.9807 2.98121 h -1.27796 -1.27744 v -2.98121 -2.9807 h 1.27744 z m -2.98122,-6.38824 v 2.98121 2.9807 h -0.85162 -0.85215 v -1.08934 -1.08986 l -0.42581,0.26304 -0.42582,0.26303 v -2.15439 -2.15439 h 1.27796 z m 0,6.38824 v 2.9807 2.98121 h -1.27744 -1.27796 v -1.91616 -1.91668 h 0.42582 0.42581 v -1.06453 -1.06454 h 0.85215 z m -2.98121,-6.38824 v 2.25051 2.25051 l -1.27744,0.75447 -1.277965,0.755 v -3.00551 -3.00498 h 1.277965 z m 0,12.35015 h -1.27744 -5.2e-4 -1.277965 v -2.96106 -2.96158 l 1.274865,0.72554 1.27486,0.72554 0.003,2.23604 z" /></g></svg>
