<?xml version="1.0" encoding="UTF-8" standalone="no"?>
<!-- Created with Inkscape (http://www.inkscape.org/) -->

<svg
   width="21.431253mm"
   height="16.93334mm"
   viewBox="0 0 21.431253 16.93334"
   version="1.1"
   id="svg194"
   inkscape:version="1.2 (dc2aedaf03, 2022-05-15)"
   sodipodi:docname="LMLStair Voll Gewendelt Quadrat mit 2x Podest.svg"
   xmlns:inkscape="http://www.inkscape.org/namespaces/inkscape"
   xmlns:sodipodi="http://sodipodi.sourceforge.net/DTD/sodipodi-0.dtd"
   xmlns="http://www.w3.org/2000/svg"
   xmlns:svg="http://www.w3.org/2000/svg">
  <sodipodi:namedview
     id="namedview196"
     pagecolor="#ffffff"
     bordercolor="#999999"
     borderopacity="1"
     inkscape:showpageshadow="0"
     inkscape:pageopacity="0"
     inkscape:pagecheckerboard="0"
     inkscape:deskcolor="#d1d1d1"
     inkscape:document-units="mm"
     showgrid="false"
     inkscape:zoom="3.3638608"
     inkscape:cx="46.523922"
     inkscape:cy="37.159682"
     inkscape:window-width="1920"
     inkscape:window-height="1129"
     inkscape:window-x="-8"
     inkscape:window-y="-8"
     inkscape:window-maximized="1"
     inkscape:current-layer="layer1" />
  <defs
     id="defs191" />
  <g
     inkscape:label="Ebene 1"
     inkscape:groupmode="layer"
     id="layer1"
     transform="translate(-32.232644,-117.90918)">
    <path
       id="path252"
       style="fill:#000000;stroke-width:0.264583"
       d="m 32.232644,117.90918 v 8.20209 8.20208 h 1.307414 c 0.719019,0 1.380812,0.11906 1.470711,0.26459 0.08993,0.14552 0.447121,0.26458 0.79375,0.26458 0.34662,0 0.703851,-0.11906 0.79375,-0.26458 0.08993,-0.14553 0.751692,-0.26459 1.470712,-0.26459 h 1.307413 v -3.83646 -3.83646 h 3.571875 3.571875 v 3.83646 3.83646 h 3.571875 3.571879 v -8.20208 -8.20209 H 42.948269 Z m 0.529167,0.52917 h 3.175 3.175 v 1.98437 1.98438 h -1.719792 -1.719791 v 1.98437 1.98438 h -1.455209 -1.455208 v -3.96875 z m 6.614583,0 h 0.79375 0.79375 v 1.98437 1.98438 h -0.79375 -0.79375 v -1.98438 z m 1.852084,0 h 0.79375 0.79375 v 1.98437 1.98438 h -0.79375 -0.79375 v -1.98438 z m 1.852083,0 h 0.79375 0.79375 v 1.98437 1.98438 h -0.79375 -0.79375 v -1.98438 z m 1.852083,0 h 0.79375 0.79375 v 1.98437 1.98438 h -0.79375 -0.79375 v -1.98438 z m 1.852084,0 h 3.175 3.175 v 3.96875 3.96875 h -1.455209 -1.455208 v -1.98438 -1.98437 h -1.719792 -1.719791 v -1.98438 z m -10.847917,4.23333 h 1.599386 1.599902 l -0.07855,1.78594 -0.07803,1.78594 -1.521354,0.0796 -1.521354,0.0791 v -1.86501 z m 3.439583,0 h 0.79375 0.79375 v 1.71979 1.7198 h -0.79375 -0.79375 v -1.7198 z m 1.852084,0 h 0.79375 0.79375 v 1.71979 1.7198 h -0.79375 -0.79375 v -1.7198 z m 1.852083,0 h 0.79375 0.79375 v 1.71979 1.7198 h -0.79375 -0.79375 v -1.7198 z m 1.852083,0 h 0.79375 0.79375 v 1.71979 1.7198 h -0.79375 -0.79375 v -1.7198 z m 1.852084,0 h 1.5875 1.5875 v 1.85209 1.85208 h -1.411284 c -0.776109,0 -1.4905,-0.0792 -1.5875,-0.17622 -0.09699,-0.097 -0.176216,-0.93045 -0.176216,-1.85208 z m -12.567709,3.96875 c 1.440499,0 1.455209,0.008 1.455209,0.79375 0,0.78575 -0.01471,0.79375 -1.455209,0.79375 -1.440508,0 -1.455208,-0.008 -1.455208,-0.79375 0,-0.78575 0.0147,-0.79375 1.455208,-0.79375 z m 3.175,0 c 1.440499,0 1.455209,0.008 1.455209,0.79375 0,0.78575 -0.01471,0.79375 -1.455209,0.79375 -1.440508,0 -1.455208,-0.008 -1.455208,-0.79375 0,-0.78575 0.0147,-0.79375 1.455208,-0.79375 z m 11.1125,0 c 1.440499,0 1.455209,0.008 1.455209,0.79375 0,0.78575 -0.01471,0.79375 -1.455209,0.79375 -1.440508,0 -1.455208,-0.008 -1.455208,-0.79375 0,-0.78575 0.0147,-0.79375 1.455208,-0.79375 z m 3.175,0 c 1.440489,0 1.455209,0.008 1.455209,0.79375 0,0.78575 -0.0147,0.79375 -1.455209,0.79375 -1.440508,0 -1.455208,-0.008 -1.455208,-0.79375 0,-0.78575 0.0147,-0.79375 1.455208,-0.79375 z m -17.4625,1.85208 c 1.440499,0 1.455209,0.008 1.455209,0.79376 0,0.78575 -0.01471,0.79375 -1.455209,0.79375 -1.440508,0 -1.455208,-0.008 -1.455208,-0.79375 0,-0.78576 0.0147,-0.79376 1.455208,-0.79376 z m 3.175,0 c 1.440499,0 1.455209,0.008 1.455209,0.79376 0,0.78575 -0.01471,0.79375 -1.455209,0.79375 -1.440508,0 -1.455208,-0.008 -1.455208,-0.79375 0,-0.78576 0.0147,-0.79376 1.455208,-0.79376 z m 11.1125,0 c 1.440499,0 1.455209,0.008 1.455209,0.79376 0,0.78575 -0.01471,0.79375 -1.455209,0.79375 -1.440508,0 -1.455208,-0.008 -1.455208,-0.79375 0,-0.78576 0.0147,-0.79376 1.455208,-0.79376 z m 3.175,0 c 1.440489,0 1.455209,0.008 1.455209,0.79376 0,0.78575 -0.0147,0.79375 -1.455209,0.79375 -1.440508,0 -1.455208,-0.008 -1.455208,-0.79375 0,-0.78576 0.0147,-0.79376 1.455208,-0.79376 z m -17.4625,1.85209 c 1.440499,0 1.455209,0.008 1.455209,0.79375 0,0.78575 -0.01471,0.79375 -1.455209,0.79375 -1.440508,0 -1.455208,-0.008 -1.455208,-0.79375 0,-0.78575 0.0147,-0.79375 1.455208,-0.79375 z m 3.175,0 c 1.440499,0 1.455209,0.008 1.455209,0.79375 0,0.78575 -0.01471,0.79375 -1.455209,0.79375 -1.440508,0 -1.455208,-0.008 -1.455208,-0.79375 0,-0.78575 0.0147,-0.79375 1.455208,-0.79375 z m 11.1125,0 c 1.355399,0 1.455209,0.0431 1.455209,0.62839 0,0.49212 -0.179294,0.66424 -0.826823,0.79375 -1.720078,0.34401 -2.083594,0.23438 -2.083594,-0.62839 0,-0.78575 0.0147,-0.79375 1.455208,-0.79375 z m 3.175,0 c 1.440489,0 1.455209,0.008 1.455209,0.79375 0,0.72652 -0.0728,0.7911 -0.859896,0.7581 -1.691308,-0.0709 -2.050521,-0.23007 -2.050521,-0.90848 0,-0.60306 0.09048,-0.64337 1.455208,-0.64337 z m -17.4625,1.85209 c 1.562759,0 1.759511,0.22485 0.926042,1.05833 -0.32758,0.32758 -0.881949,0.52917 -1.455208,0.52917 -0.852539,0 -0.926042,-0.063 -0.926042,-0.79375 0,-0.78575 0.0147,-0.79375 1.455208,-0.79375 z m 3.175,0 c 1.440499,0 1.455209,0.008 1.455209,0.79375 0,0.74479 -0.06125,0.79274 -0.992188,0.77204 -0.951899,-0.0212 -1.918229,-0.67683 -1.918229,-1.30121 0,-0.14552 0.654839,-0.26458 1.455208,-0.26458 z m 10.658781,0 c 0.83196,0 1.080605,0.13423 1.470195,0.79375 l 0.468705,0.79375 h -1.470194 c -1.457159,0 -1.470195,-0.007 -1.470195,-0.79375 0,-0.74215 0.06534,-0.79375 1.001489,-0.79375 z m 4.082439,0 c 0.936169,0 1.001489,0.0516 1.001489,0.79375 0,0.78674 -0.0131,0.79375 -1.470195,0.79375 h -1.470194 l 0.469222,-0.79375 c 0.389589,-0.65952 0.637718,-0.79375 1.469678,-0.79375 z" />
  </g>
</svg>
