<?xml version="1.0" encoding="UTF-8" standalone="no"?>
<!-- Created with Inkscape (http://www.inkscape.org/) -->

<svg
   width="8.7312498mm"
   height="37.563526mm"
   viewBox="0 0 8.7312499 37.563526"
   version="1.1"
   id="svg194"
   inkscape:version="1.2 (dc2aedaf03, 2022-05-15)"
   sodipodi:docname="LMLStair Gerade Treppe mit Podest90.svg"
   xmlns:inkscape="http://www.inkscape.org/namespaces/inkscape"
   xmlns:sodipodi="http://sodipodi.sourceforge.net/DTD/sodipodi-0.dtd"
   xmlns="http://www.w3.org/2000/svg"
   xmlns:svg="http://www.w3.org/2000/svg">
  <sodipodi:namedview
     id="namedview196"
     pagecolor="#ffffff"
     bordercolor="#999999"
     borderopacity="1"
     inkscape:showpageshadow="0"
     inkscape:pageopacity="0"
     inkscape:pagecheckerboard="0"
     inkscape:deskcolor="#d1d1d1"
     inkscape:document-units="mm"
     showgrid="false"
     inkscape:zoom="3.3638608"
     inkscape:cx="28.389997"
     inkscape:cy="94.534232"
     inkscape:window-width="1920"
     inkscape:window-height="1129"
     inkscape:window-x="-8"
     inkscape:window-y="-8"
     inkscape:window-maximized="1"
     inkscape:current-layer="layer1" />
  <defs
     id="defs191" />
  <g
     inkscape:label="Ebene 1"
     inkscape:groupmode="layer"
     id="layer1"
     transform="translate(-37.037586,-102.77755)">
    <path
       id="path252"
       style="fill:#000000;stroke-width:0.264583"
       d="m 45.768836,103.29942 h -1.70429 c -0.93729,0 -1.77768,-0.11906 -1.86758,-0.26458 -0.21202,-0.34305 -1.37549,-0.34305 -1.5875,0 -0.0899,0.14552 -0.9303,0.26458 -1.86759,0.26458 h -1.70429 v 18.52083 18.52083 h 4.36563 4.36562 v -18.52083 z m -0.52917,1.32292 v 0.79375 h -1.85208 c -1.97697,0 -2.26264,-0.24665 -1.30121,-1.12448 0.3413,-0.31162 0.94003,-0.46302 1.83038,-0.46302 1.29351,0 1.32291,0.0176 1.32291,0.79375 z m 0,1.05833 v 0.79375 0.79375 h -1.85208 -1.85208 v -0.79375 -0.79375 h 1.85208 z m 0,1.85208 v 0.79375 0.79375 h -1.85208 -1.85208 v -0.79375 -0.79375 h 1.85208 z m 0,1.85209 v 0.79375 0.79375 h -1.85208 -1.85208 v -0.79375 -0.79375 h 1.85208 z m 0,1.85208 v 0.79375 0.79375 h -1.85208 -1.85208 v -0.79375 -0.79375 h 1.85208 z m 0,1.85208 v 0.79375 0.79375 h -1.85208 -1.85208 v -0.79375 -0.79375 h 1.85208 z m 0,1.85209 v 0.79375 0.79375 h -1.85208 -1.85208 v -0.79375 -0.79375 h 1.85208 z m 0,1.85208 v 5.02708 5.02708 h -1.85208 -1.85208 v -5.02708 -5.02708 h 1.85208 z m 0,10.31875 v 0.79375 0.79375 h -1.85208 -1.85208 v -0.79375 -0.79375 h 1.85208 z m 0,1.85208 v 0.79375 0.79375 h -1.85208 -1.85208 v -0.79375 -0.79375 h 1.85208 z m 0,1.85208 v 0.79375 0.79375 h -1.85208 -1.85208 v -0.79375 -0.79375 h 1.85208 z m 0,1.85209 v 0.79375 0.79375 h -1.85208 -1.85208 v -0.79375 -0.79375 h 1.85208 z m 0,1.85208 v 0.79375 0.79375 h -1.85208 -1.85208 v -0.79375 -0.79375 h 1.85208 z m 0,1.85208 v 0.79375 c 0,0.74535 -0.0625,0.79375 -1.02526,0.79375 -0.56389,0 -1.39733,-0.0744 -1.85208,-0.16536 -0.64753,-0.1295 -0.82682,-0.30162 -0.82682,-0.79375 0,-0.60158 0.0789,-0.62839 1.85208,-0.62839 z m 0,2.64584 v 0.79375 h -1.85208 c -1.01865,0 -1.84936,-0.0298 -1.84536,-0.0662 0.004,-0.0364 0.21025,-0.39356 0.45837,-0.79375 0.39964,-0.6446 0.60995,-0.7276 1.84484,-0.7276 1.37242,0 1.39423,0.0123 1.39423,0.79375 z m -3.93877,0.79375 h -1.86707 -1.86707 v -0.79375 c 0,-0.78185 0.0207,-0.79375 1.39785,-0.79375 1.27292,0 1.44019,0.0711 1.86707,0.79375 z m -0.03,-34.13125 v 0.79375 0.79375 h -1.85208 -1.85208 v -0.79375 -0.79375 h 1.85208 z m 0,1.85208 v 0.79375 0.79375 h -1.85208 -1.85208 v -0.79375 -0.79375 h 1.85208 z m 0,1.85209 v 0.79375 0.79375 h -1.85208 -1.85208 v -0.79375 -0.79375 h 1.85208 z m 0,1.85208 v 0.79375 0.79375 h -1.85208 -1.85208 v -0.79375 -0.79375 h 1.85208 z m 0,1.85208 v 0.79375 0.79375 h -1.85208 -1.85208 v -0.79375 -0.79375 h 1.85208 z m 0,1.85209 v 0.79375 0.79375 h -1.85208 -1.85208 v -0.79375 -0.79375 h 1.85208 z m 0,1.85208 v 5.02708 5.02708 h -1.85208 -1.85208 v -5.02708 -5.02708 h 1.85208 z m 0,10.31875 v 0.79375 0.79375 h -1.85208 -1.85208 v -0.79375 -0.79375 h 1.85208 z m 0,1.85208 v 0.79375 0.79375 h -1.85208 -1.85208 v -0.79375 -0.79375 h 1.85208 z m 0,1.85208 v 0.79375 0.79375 h -1.85208 -1.85208 v -0.79375 -0.79375 h 1.85208 z m 0,1.85209 v 0.79375 0.79375 h -1.85208 -1.85208 v -0.79375 -0.79375 h 1.85208 z m 0,1.85208 v 0.79375 0.79375 h -1.85208 -1.85208 v -0.79375 -0.79375 h 1.85208 z m 0,2.48047 c 0,0.69164 -0.7471,0.95911 -2.6789,0.95911 -0.96276,0 -1.02526,-0.0484 -1.02526,-0.79375 v -0.79375 h 1.85208 c 1.77318,0 1.85208,0.0268 1.85208,0.62839 z m -0.0475,-31.92518 c -0.028,0.2675 -0.57885,0.34055 -1.80454,0.34055 h -1.85208 v -0.79375 c 0,-0.77615 0.0294,-0.79375 1.32291,-0.79375 0.97014,0 1.46403,0.14111 1.85209,0.52916 0.32685,0.32686 0.49839,0.55729 0.48162,0.71779 z" />
  </g>
</svg>
