<?xml version="1.0" encoding="UTF-8" standalone="no"?>
<!-- Created with Inkscape (http://www.inkscape.org/) -->

<svg
   width="47.184727mm"
   height="14.053407mm"
   viewBox="0 0 47.184728 14.053407"
   version="1.1"
   id="svg214"
   sodipodi:docname="LMLStair Gerade Treppe90.svg"
   inkscape:version="1.2 (dc2aedaf03, 2022-05-15)"
   xmlns:inkscape="http://www.inkscape.org/namespaces/inkscape"
   xmlns:sodipodi="http://sodipodi.sourceforge.net/DTD/sodipodi-0.dtd"
   xmlns="http://www.w3.org/2000/svg"
   xmlns:svg="http://www.w3.org/2000/svg">
  <sodipodi:namedview
     id="namedview216"
     pagecolor="#ffffff"
     bordercolor="#999999"
     borderopacity="1"
     inkscape:showpageshadow="0"
     inkscape:pageopacity="0"
     inkscape:pagecheckerboard="0"
     inkscape:deskcolor="#d1d1d1"
     inkscape:document-units="mm"
     showgrid="false"
     inkscape:zoom="3.3638608"
     inkscape:cx="75.954391"
     inkscape:cy="37.159683"
     inkscape:window-width="1920"
     inkscape:window-height="1129"
     inkscape:window-x="-8"
     inkscape:window-y="-8"
     inkscape:window-maximized="1"
     inkscape:current-layer="layer1" />
  <defs
     id="defs211" />
  <g
     inkscape:label="Ebene 1"
     inkscape:groupmode="layer"
     id="layer1"
     transform="translate(-79.602553,-87.358893)">
    <path
       id="path209"
       style="fill:#000000;stroke-width:0.425873"
       d="M 126.78728,87.358893 H 103.79024 80.793183 v 2.7156 2.716109 l -0.63924,0.5302 -0.55139,0.45785 v 1.21388 l 0.55139,0.45786 0.63924,0.5302 v 2.71611 2.715598 h 22.997057 22.99704 v -7.026448 z m -0.85163,0.85163 v 2.7683 2.767789 h -0.33124 -0.33125 l -0.94619,-0.663 -0.94672,-0.6625 v -2.105289 -2.1053 h 1.27796 z m 0,6.814049 v 2.76779 2.768308 h -1.27744 -1.27796 v -2.105298 -2.10478 l 0.94672,-0.66301 0.94619,-0.66301 h 0.33125 z m -2.98121,-6.814049 -0.005,1.38389 -0.005,1.38441 -0.26407,1.596809 -0.26406,1.5968 h -1.00873 -1.00924 v -2.9807 -2.981209 h 1.27796 z m 0,12.350147 h -1.27744 -1.27796 v -2.981218 -2.98069 h 1.00924 1.00873 l 0.26406,1.5968 0.26407,1.5968 0.005,1.38441 z m -2.98121,-12.350147 v 2.981209 2.9807 h -1.27744 -1.27745 v -2.9807 -2.981209 h 1.27745 z m 0,6.388239 v 2.98069 2.981218 h -1.27744 -1.27745 v -2.981218 -2.98069 h 1.27745 z m -2.98122,-6.388239 v 2.981209 2.9807 h -1.27744 -1.27744 v -2.9807 -2.981209 h 1.27744 z m 0,6.388239 v 2.98069 2.981218 h -1.27744 -1.27744 v -2.981218 -2.98069 h 1.27744 z m -2.98069,-6.388239 v 2.981209 2.9807 h -1.27796 -1.27744 v -2.9807 -2.981209 h 1.27744 z m 0,6.388239 v 2.98069 2.981218 h -1.27796 -1.27744 v -2.981218 -2.98069 h 1.27744 z m -2.98122,-6.388239 v 2.981209 2.9807 h -1.27795 -1.27745 v -2.9807 -2.981209 h 1.27745 z m 0,6.388239 v 2.98069 2.981218 h -1.27795 -1.27745 v -2.981218 -2.98069 h 1.27745 z m -2.98121,-6.388239 v 2.981209 2.9807 h -1.27744 -1.27796 v -2.9807 -2.981209 h 1.27796 z m 0,6.388239 v 2.98069 2.981218 h -1.27744 -1.27796 v -2.981218 -2.98069 h 1.27796 z m -2.98121,-6.388239 v 2.981209 2.9807 h -1.27744 -1.27745 v -2.9807 -2.981209 h 1.27745 z m 0,6.388239 v 2.98069 2.981218 h -1.27744 -1.27745 v -2.981218 -2.98069 h 1.27745 z m -2.98122,-6.388239 v 2.981209 2.9807 h -1.27744 -1.277442 v -2.9807 -2.981209 h 1.277442 z m 0,6.388239 v 2.98069 2.981218 h -1.27744 -1.277442 v -2.981218 -2.98069 h 1.277442 z m -2.980692,-6.388239 v 2.981209 2.9807 h -1.27796 -1.277445 v -2.9807 -2.981209 h 1.277445 z m 0,6.388239 v 2.98069 2.981218 h -1.27796 -1.277445 v -2.981218 -2.98069 h 1.277445 z m -2.981225,-6.388239 v 2.981209 2.9807 h -1.27795 -1.27745 v -2.9807 -2.981209 h 1.27745 z m 0,6.388239 v 2.98069 2.981218 h -1.27795 -1.27745 v -2.981218 -2.98069 h 1.27745 z m -2.98121,-6.388239 v 2.981209 2.9807 h -1.27744 -1.27796 v -2.9807 -2.981209 h 1.27796 z m 0,6.388239 v 2.98069 2.981218 h -1.27744 -1.27796 v -2.981218 -2.98069 h 1.27796 z m -2.98121,-6.388239 v 2.981209 2.9807 h -1.27744 -1.27796 v -2.9807 -2.981209 h 1.27796 z m 0,6.388239 v 2.98069 2.981218 h -1.27744 -1.27796 v -2.981218 -2.98069 h 1.27796 z m -2.98122,-6.388239 v 2.981209 2.9807 h -1.27744 -1.27744 v -2.9807 -2.981209 h 1.27744 z m 0,6.388239 v 2.98069 2.981218 h -1.27744 -1.27744 v -2.981218 -2.98069 h 1.27744 z m -2.98069,-6.388239 v 2.981209 2.9807 h -0.35192 -0.3514 l -0.92604,-0.98547 -0.92604,-0.98547 v -1.995749 -1.99522 h 1.27744 z m 0,6.388239 v 2.98069 2.981218 h -1.27796 -1.27744 v -2.055168 -2.05518 l 0.98547,-0.92604 0.98598,-0.92552 h 0.29197 z" />
  </g>
</svg>
