<?xml version="1.0" encoding="UTF-8" standalone="no"?>
<!-- Created with Inkscape (http://www.inkscape.org/) -->

<svg
   width="37.563534mm"
   height="8.7312498mm"
   viewBox="0 0 37.563534 8.7312497"
   version="1.1"
   id="svg194"
   inkscape:version="1.2 (dc2aedaf03, 2022-05-15)"
   sodipodi:docname="LMLStair Gerade Treppe mit Podest.svg"
   xmlns:inkscape="http://www.inkscape.org/namespaces/inkscape"
   xmlns:sodipodi="http://sodipodi.sourceforge.net/DTD/sodipodi-0.dtd"
   xmlns="http://www.w3.org/2000/svg"
   xmlns:svg="http://www.w3.org/2000/svg">
  <sodipodi:namedview
     id="namedview196"
     pagecolor="#ffffff"
     bordercolor="#999999"
     borderopacity="1"
     inkscape:showpageshadow="0"
     inkscape:pageopacity="0"
     inkscape:pagecheckerboard="0"
     inkscape:deskcolor="#d1d1d1"
     inkscape:document-units="mm"
     showgrid="false"
     inkscape:zoom="3.3638608"
     inkscape:cx="82.791772"
     inkscape:cy="40.132457"
     inkscape:window-width="1920"
     inkscape:window-height="1129"
     inkscape:window-x="-8"
     inkscape:window-y="-8"
     inkscape:window-maximized="1"
     inkscape:current-layer="layer1" />
  <defs
     id="defs191" />
  <g
     inkscape:label="Ebene 1"
     inkscape:groupmode="layer"
     id="layer1"
     transform="translate(-22.621444,-117.19369)">
    <path
       id="path252"
       style="fill:#000000;stroke-width:0.264583"
       d="m 23.143314,117.19369 v 1.70429 c 0,0.93729 -0.119063,1.77768 -0.264583,1.86758 -0.34305,0.21202 -0.34305,1.37549 0,1.5875 0.14552,0.0899 0.264583,0.9303 0.264583,1.86759 v 1.70429 h 18.520834 18.52083 v -4.36563 -4.36562 h -18.52083 z m 1.322917,0.52917 h 0.79375 v 1.85208 c 0,1.97697 -0.24665,2.26264 -1.124479,1.30121 -0.31162,-0.3413 -0.463021,-0.94003 -0.463021,-1.83038 0,-1.29351 0.01764,-1.32291 0.79375,-1.32291 z m 1.058333,0 h 0.79375 0.79375 v 1.85208 1.85208 h -0.79375 -0.79375 v -1.85208 z m 1.852084,0 h 0.79375 0.79375 v 1.85208 1.85208 h -0.79375 -0.79375 v -1.85208 z m 1.852083,0 h 0.79375 0.79375 v 1.85208 1.85208 h -0.79375 -0.79375 v -1.85208 z m 1.852083,0 h 0.79375 0.79375 v 1.85208 1.85208 h -0.79375 -0.79375 v -1.85208 z m 1.852084,0 h 0.79375 0.79375 v 1.85208 1.85208 h -0.79375 -0.79375 v -1.85208 z m 1.852083,0 h 0.79375 0.79375 v 1.85208 1.85208 h -0.79375 -0.79375 v -1.85208 z m 1.852083,0 h 5.027084 5.02708 v 1.85208 1.85208 h -5.02708 -5.027084 v -1.85208 z m 10.318754,0 h 0.79375 0.79375 v 1.85208 1.85208 h -0.79375 -0.79375 v -1.85208 z m 1.85208,0 h 0.79375 0.79375 v 1.85208 1.85208 h -0.79375 -0.79375 v -1.85208 z m 1.85208,0 h 0.79375 0.79375 v 1.85208 1.85208 h -0.79375 -0.79375 v -1.85208 z m 1.85209,0 h 0.79375 0.79375 v 1.85208 1.85208 h -0.79375 -0.79375 v -1.85208 z m 1.85208,0 h 0.79375 0.79375 v 1.85208 1.85208 h -0.79375 -0.79375 v -1.85208 z m 1.85208,0 h 0.79375 c 0.74535,0 0.79375,0.0625 0.79375,1.02526 0,0.56389 -0.0744,1.39733 -0.16536,1.85208 -0.1295,0.64753 -0.30162,0.82682 -0.79375,0.82682 -0.60158,0 -0.62839,-0.0789 -0.62839,-1.85208 z m 2.64584,0 h 0.79375 v 1.85208 c 0,1.01865 -0.0298,1.84936 -0.0662,1.84536 -0.0364,-0.004 -0.39356,-0.21025 -0.79375,-0.45837 -0.6446,-0.39964 -0.7276,-0.60995 -0.7276,-1.84484 0,-1.37242 0.0123,-1.39423 0.79375,-1.39423 z m 0.79375,3.93877 v 1.86707 1.86707 h -0.79375 c -0.78185,0 -0.79375,-0.0207 -0.79375,-1.39785 0,-1.27292 0.0711,-1.44019 0.79375,-1.86707 z m -34.131254,0.03 h 0.79375 0.79375 v 1.85208 1.85208 h -0.79375 -0.79375 v -1.85208 z m 1.852084,0 h 0.79375 0.79375 v 1.85208 1.85208 h -0.79375 -0.79375 v -1.85208 z m 1.852083,0 h 0.79375 0.79375 v 1.85208 1.85208 h -0.79375 -0.79375 v -1.85208 z m 1.852083,0 h 0.79375 0.79375 v 1.85208 1.85208 h -0.79375 -0.79375 v -1.85208 z m 1.852084,0 h 0.79375 0.79375 v 1.85208 1.85208 h -0.79375 -0.79375 v -1.85208 z m 1.852083,0 h 0.79375 0.79375 v 1.85208 1.85208 h -0.79375 -0.79375 v -1.85208 z m 1.852083,0 h 5.027084 5.02708 v 1.85208 1.85208 h -5.02708 -5.027084 v -1.85208 z m 10.318754,0 h 0.79375 0.79375 v 1.85208 1.85208 h -0.79375 -0.79375 v -1.85208 z m 1.85208,0 h 0.79375 0.79375 v 1.85208 1.85208 h -0.79375 -0.79375 v -1.85208 z m 1.85208,0 h 0.79375 0.79375 v 1.85208 1.85208 h -0.79375 -0.79375 v -1.85208 z m 1.85209,0 h 0.79375 0.79375 v 1.85208 1.85208 h -0.79375 -0.79375 v -1.85208 z m 1.85208,0 h 0.79375 0.79375 v 1.85208 1.85208 h -0.79375 -0.79375 v -1.85208 z m 2.48047,0 c 0.69164,0 0.95911,0.7471 0.95911,2.6789 0,0.96276 -0.0484,1.02526 -0.79375,1.02526 h -0.79375 v -1.85208 c 0,-1.77318 0.0268,-1.85208 0.62839,-1.85208 z m -31.925185,0.0475 c 0.267502,0.028 0.340548,0.57885 0.340548,1.80454 v 1.85208 h -0.79375 c -0.776149,0 -0.79375,-0.0294 -0.79375,-1.32291 0,-0.97014 0.141117,-1.46403 0.529167,-1.85209 0.326853,-0.32685 0.557285,-0.49839 0.717785,-0.48162 z" />
  </g>
</svg>
