<?xml version="1.0" encoding="UTF-8" standalone="no"?>
<!-- Created with Inkscape (http://www.inkscape.org/) -->

<svg
   width="18.73839mm"
   height="44.29084mm"
   viewBox="0 0 18.73839 44.29084"
   version="1.1"
   id="svg5"
   xml:space="preserve"
   inkscape:version="1.2 (dc2aedaf03, 2022-05-15)"
   sodipodi:docname="halb Gewendelt Unten.svg"
   xmlns:inkscape="http://www.inkscape.org/namespaces/inkscape"
   xmlns:sodipodi="http://sodipodi.sourceforge.net/DTD/sodipodi-0.dtd"
   xmlns="http://www.w3.org/2000/svg"
   xmlns:svg="http://www.w3.org/2000/svg"><sodipodi:namedview
     id="namedview7"
     pagecolor="#ffffff"
     bordercolor="#999999"
     borderopacity="1"
     inkscape:showpageshadow="0"
     inkscape:pageopacity="0"
     inkscape:pagecheckerboard="0"
     inkscape:deskcolor="#d1d1d1"
     inkscape:document-units="mm"
     showgrid="false"
     inkscape:zoom="1.1893044"
     inkscape:cx="-78.617383"
     inkscape:cy="-23.543174"
     inkscape:window-width="1920"
     inkscape:window-height="1129"
     inkscape:window-x="-8"
     inkscape:window-y="-8"
     inkscape:window-maximized="1"
     inkscape:current-layer="layer1" /><defs
     id="defs2" /><g
     inkscape:label="Ebene 1"
     inkscape:groupmode="layer"
     id="layer1"
     transform="translate(-111.5012,-97.973991)"><path
       id="path209"
       style="fill:#000000;stroke-width:0.425873"
       d="m 112.77916,97.973991 v 1.863969 1.86449 l -0.63873,0.5302 -0.63923,0.5302 v 0.74724 0.74776 l 0.63923,0.5302 0.63873,0.5302 v 2.50269 2.5032 h 1.19217 1.19269 l 0.51108,0.51108 0.51108,0.51108 v 15.45901 15.45952 h 7.02696 7.02645 V 120.11941 97.973991 h -8.73022 z m 0.85162,0.851628 h 1.96267 1.96267 l -0.28008,1.11466 -0.27957,1.114141 -0.24546,1.22784 -0.24547,1.22783 h -0.51159 -0.51108 l -0.92605,-0.98547 -0.92604,-0.98547 v -1.35703 z m 4.71754,0 h 3.17759 3.17758 v 0.254248 0.253731 l -2.39417,2.726962 -2.39468,2.72749 -0.48008,-0.0522 -0.48059,-0.0527 -0.95498,-0.47335 -0.9555,-0.47284 0.18501,-0.64596 0.18448,-0.64544 0.46767,-1.80971 z m 11.03964,0 v 2.086691 2.0867 l -3.42098,2.17196 -3.42098,2.17196 h -0.34571 -0.34572 l -0.70487,-0.77877 -0.70486,-0.77876 v -0.31833 -0.31884 l 2.66185,-3.12901 2.66134,-3.129523 1.81022,-0.03204 z m -14.03377,4.960421 0.39791,0.39791 0.39843,0.39791 -0.54261,2.12545 -0.54208,2.12545 -0.71727,0.13798 -0.71779,0.13849 v -1.88206 -1.88154 l 0.86197,-0.77979 z m 14.07873,0.0749 -0.12919,2.44895 h 0.001 l -0.12919,2.44843 -2.89336,0.9741 -2.89337,0.97461 -0.40721,-1.07125 -0.40721,-1.07073 0.003,-0.29146 0.003,-0.29145 1.59371,-0.93845 1.5937,-0.93844 1.83244,-1.1219 z m -12.42405,0.50643 1.07901,0.49144 1.079,0.49144 -0.0181,0.25115 h -5.1e-4 l -0.0181,0.25115 -1.68414,1.91668 -1.68413,1.91616 -10e-4,-0.68161 -0.001,-0.68161 0.46406,-1.44798 0.46302,-1.44745 0.16123,-0.52969 z m 2.67891,1.65209 0.8046,0.72761 0.80408,0.72812 v 0.29611 0.2961 l -2.11925,1.31723 -2.11873,1.31724 -0.25993,-0.41962 -0.25942,-0.42013 1.57458,-1.92133 z m 2.12907,2.49081 0.37207,0.58756 0.37207,0.58756 0.006,0.71107 0.007,0.71107 -2.23552,0.73484 -2.23604,0.73535 -0.53227,0.19637 -0.53226,0.19637 0.0119,-0.79065 0.0124,-0.79116 2.37712,-1.43919 z m 7.62589,0.85008 -0.13384,1.85621 -0.13385,1.85674 -1.91616,0.31729 -1.91668,0.31729 -0.95808,0.23255 -0.95808,0.23306 v -1.4211 -1.4211 l 2.44843,-0.77102 2.44895,-0.77153 0.55965,-0.21394 z m -6.44302,2.29753 v 1.20354 1.20355 l -0.95808,0.22841 -0.95808,0.22841 -2.06448,0.29817 -2.06499,0.29817 0.14832,-0.76067 0.14831,-0.7612 2.87476,-0.96893 z m 6.38824,1.98076 v 1.74976 1.74925 l -1.38389,0.005 v -5.2e-4 l -1.38442,0.005 -1.5968,0.26355 -1.5968,0.26407 v -1.48828 -1.48829 l 1.91616,-0.26251 1.91565,-0.26303 1.06505,-0.26717 z m -6.38824,1.27331 v 1.32601 1.32602 h -2.9807 -2.98121 v -0.80564 -0.80563 l 0.95808,-0.22841 0.95808,-0.22841 2.02313,-0.29197 z m 0.42633,3.07784 h 2.9807 2.98121 v 1.27796 1.27744 h -2.98121 -2.9807 v -1.27744 z m -6.38824,0.42582 h 2.98121 2.9807 v 1.06505 1.06453 h -2.9807 -2.98121 v -1.06453 z m 0,2.5554 h 2.98121 2.9807 v 1.27744 1.27796 h -2.9807 -2.98121 v -1.27796 z m 6.38824,0 h 2.9807 2.98121 v 1.27744 1.27796 h -2.98121 -2.9807 v -1.27796 z m -6.38824,2.98121 h 2.98121 2.9807 v 1.27744 1.27796 h -2.9807 -2.98121 v -1.27796 z m 6.38824,0 h 2.9807 2.98121 v 1.27744 1.27796 h -2.98121 -2.9807 v -1.27796 z m -6.38824,2.98121 h 2.98121 2.9807 v 1.27745 1.27744 h -2.9807 -2.98121 v -1.27744 z m 6.38824,0 h 2.9807 2.98121 v 1.27745 1.27744 h -2.98121 -2.9807 v -1.27744 z m -6.38824,2.9807 h 2.98121 2.9807 v 1.27796 1.27744 h -2.9807 -2.98121 v -1.27744 z m 6.38824,0 h 2.9807 2.98121 v 1.27796 1.27744 h -2.98121 -2.9807 v -1.27744 z m -6.38824,2.98121 h 2.98121 2.9807 v 1.27796 1.27744 h -2.9807 -2.98121 v -1.27744 z m 6.38824,0 h 2.9807 2.98121 v 1.27796 1.27744 h -2.98121 -2.9807 v -1.27744 z m -6.38824,2.98122 h 2.98121 2.9807 v 0.85162 0.85215 h -1.08934 -1.08986 l 0.26304,0.42581 0.26303,0.42582 h -2.15439 -2.15439 V 137.154 Z m 6.38824,0 h 2.9807 2.98121 v 1.27744 1.27796 h -1.91616 -1.91668 v -0.42582 -0.42581 h -1.06453 -1.06454 v -0.85215 z m -6.38824,2.98121 h 2.25051 2.25051 l 0.75447,1.27744 0.755,1.27796 h -3.00551 -3.00498 v -1.27796 z m 12.35015,0 v 1.27744 5.2e-4 1.27796 h -2.96106 -2.96158 l 0.72554,-1.27486 0.72554,-1.27486 2.23604,-0.003 z" /></g></svg>
