<?xml version="1.0" encoding="UTF-8" standalone="no"?>
<!-- Created with Inkscape (http://www.inkscape.org/) -->

<svg
   width="16.93334mm"
   height="21.431259mm"
   viewBox="0 0 16.93334 21.431259"
   version="1.1"
   id="svg194"
   inkscape:version="1.2 (dc2aedaf03, 2022-05-15)"
   sodipodi:docname="LMLStair Voll Gewendelt Quadrat mit 2x Podest90.svg"
   xmlns:inkscape="http://www.inkscape.org/namespaces/inkscape"
   xmlns:sodipodi="http://sodipodi.sourceforge.net/DTD/sodipodi-0.dtd"
   xmlns="http://www.w3.org/2000/svg"
   xmlns:svg="http://www.w3.org/2000/svg">
  <sodipodi:namedview
     id="namedview196"
     pagecolor="#ffffff"
     bordercolor="#999999"
     borderopacity="1"
     inkscape:showpageshadow="0"
     inkscape:pageopacity="0"
     inkscape:pagecheckerboard="0"
     inkscape:deskcolor="#d1d1d1"
     inkscape:document-units="mm"
     showgrid="false"
     inkscape:zoom="3.3638608"
     inkscape:cx="37.902876"
     inkscape:cy="45.780729"
     inkscape:window-width="1920"
     inkscape:window-height="1129"
     inkscape:window-x="-8"
     inkscape:window-y="-8"
     inkscape:window-maximized="1"
     inkscape:current-layer="layer1" />
  <defs
     id="defs191" />
  <g
     inkscape:label="Ebene 1"
     inkscape:groupmode="layer"
     id="layer1"
     transform="translate(-34.481601,-115.66022)">
    <path
       id="path252"
       style="fill:#000000;stroke-width:0.264583"
       d="m 51.414941,115.66022 h -8.20209 -8.20208 v 1.30742 c 0,0.71902 -0.11906,1.38081 -0.26459,1.47071 -0.14552,0.0899 -0.26458,0.44712 -0.26458,0.79375 0,0.34662 0.11906,0.70385 0.26458,0.79375 0.14553,0.0899 0.26459,0.75169 0.26459,1.47071 v 1.30741 h 3.83646 3.83646 v 3.57188 3.57187 h -3.83646 -3.83646 v 3.57188 3.57188 h 8.20208 8.20209 v -10.71563 z m -0.52917,0.52917 v 3.175 3.175 h -1.98437 -1.98438 v -1.71979 -1.71979 h -1.98437 -1.98438 v -1.45521 -1.45521 h 3.96875 z m 0,6.61458 v 0.79375 0.79375 h -1.98437 -1.98438 v -0.79375 -0.79375 h 1.98438 z m 0,1.85209 v 0.79375 0.79375 h -1.98437 -1.98438 v -0.79375 -0.79375 h 1.98438 z m 0,1.85208 v 0.79375 0.79375 h -1.98437 -1.98438 v -0.79375 -0.79375 h 1.98438 z m 0,1.85208 v 0.79375 0.79375 h -1.98437 -1.98438 v -0.79375 -0.79375 h 1.98438 z m 0,1.85209 v 3.175 3.175 h -3.96875 -3.96875 v -1.45521 -1.45521 h 1.98438 1.98437 v -1.71979 -1.71979 h 1.98438 z m -4.23333,-10.84792 v 1.59939 1.5999 l -1.78594,-0.0786 -1.78594,-0.078 -0.0796,-1.52136 -0.0791,-1.52135 h 1.86501 z m 0,3.43958 v 0.79375 0.79375 h -1.71979 -1.7198 v -0.79375 -0.79375 h 1.7198 z m 0,1.85209 v 0.79375 0.79375 h -1.71979 -1.7198 v -0.79375 -0.79375 h 1.7198 z m 0,1.85208 v 0.79375 0.79375 h -1.71979 -1.7198 v -0.79375 -0.79375 h 1.7198 z m 0,1.85208 v 0.79375 0.79375 h -1.71979 -1.7198 v -0.79375 -0.79375 h 1.7198 z m 0,1.85209 v 1.5875 1.5875 h -1.85209 -1.85208 v -1.41129 c 0,-0.77611 0.0792,-1.4905 0.17622,-1.5875 0.097,-0.097 0.93045,-0.17621 1.85208,-0.17621 z m -3.96875,-12.56771 c 0,1.4405 -0.008,1.45521 -0.79375,1.45521 -0.78575,0 -0.79375,-0.0147 -0.79375,-1.45521 0,-1.44051 0.008,-1.45521 0.79375,-1.45521 0.78575,0 0.79375,0.0147 0.79375,1.45521 z m 0,3.175 c 0,1.4405 -0.008,1.45521 -0.79375,1.45521 -0.78575,0 -0.79375,-0.0147 -0.79375,-1.45521 0,-1.44051 0.008,-1.45521 0.79375,-1.45521 0.78575,0 0.79375,0.0147 0.79375,1.45521 z m 0,11.1125 c 0,1.4405 -0.008,1.45521 -0.79375,1.45521 -0.78575,0 -0.79375,-0.0147 -0.79375,-1.45521 0,-1.44051 0.008,-1.45521 0.79375,-1.45521 0.78575,0 0.79375,0.0147 0.79375,1.45521 z m 0,3.175 c 0,1.44049 -0.008,1.45521 -0.79375,1.45521 -0.78575,0 -0.79375,-0.0147 -0.79375,-1.45521 0,-1.44051 0.008,-1.45521 0.79375,-1.45521 0.78575,0 0.79375,0.0147 0.79375,1.45521 z m -1.85208,-17.4625 c 0,1.4405 -0.008,1.45521 -0.79376,1.45521 -0.78575,0 -0.79375,-0.0147 -0.79375,-1.45521 0,-1.44051 0.008,-1.45521 0.79375,-1.45521 0.78576,0 0.79376,0.0147 0.79376,1.45521 z m 0,3.175 c 0,1.4405 -0.008,1.45521 -0.79376,1.45521 -0.78575,0 -0.79375,-0.0147 -0.79375,-1.45521 0,-1.44051 0.008,-1.45521 0.79375,-1.45521 0.78576,0 0.79376,0.0147 0.79376,1.45521 z m 0,11.1125 c 0,1.4405 -0.008,1.45521 -0.79376,1.45521 -0.78575,0 -0.79375,-0.0147 -0.79375,-1.45521 0,-1.44051 0.008,-1.45521 0.79375,-1.45521 0.78576,0 0.79376,0.0147 0.79376,1.45521 z m 0,3.175 c 0,1.44049 -0.008,1.45521 -0.79376,1.45521 -0.78575,0 -0.79375,-0.0147 -0.79375,-1.45521 0,-1.44051 0.008,-1.45521 0.79375,-1.45521 0.78576,0 0.79376,0.0147 0.79376,1.45521 z m -1.85209,-17.4625 c 0,1.4405 -0.008,1.45521 -0.79375,1.45521 -0.78575,0 -0.79375,-0.0147 -0.79375,-1.45521 0,-1.44051 0.008,-1.45521 0.79375,-1.45521 0.78575,0 0.79375,0.0147 0.79375,1.45521 z m 0,3.175 c 0,1.4405 -0.008,1.45521 -0.79375,1.45521 -0.78575,0 -0.79375,-0.0147 -0.79375,-1.45521 0,-1.44051 0.008,-1.45521 0.79375,-1.45521 0.78575,0 0.79375,0.0147 0.79375,1.45521 z m 0,11.1125 c 0,1.3554 -0.0431,1.45521 -0.62839,1.45521 -0.49212,0 -0.66424,-0.1793 -0.79375,-0.82683 -0.34401,-1.72007 -0.23438,-2.08359 0.62839,-2.08359 0.78575,0 0.79375,0.0147 0.79375,1.45521 z m 0,3.175 c 0,1.44049 -0.008,1.45521 -0.79375,1.45521 -0.72652,0 -0.7911,-0.0728 -0.7581,-0.8599 0.0709,-1.69131 0.23007,-2.05052 0.90848,-2.05052 0.60306,0 0.64337,0.0905 0.64337,1.45521 z m -1.85209,-17.4625 c 0,1.56276 -0.22485,1.75951 -1.05833,0.92604 -0.32758,-0.32758 -0.52917,-0.88195 -0.52917,-1.45521 0,-0.85254 0.063,-0.92604 0.79375,-0.92604 0.78575,0 0.79375,0.0147 0.79375,1.45521 z m 0,3.175 c 0,1.4405 -0.008,1.45521 -0.79375,1.45521 -0.74479,0 -0.79274,-0.0613 -0.77204,-0.99219 0.0212,-0.9519 0.67683,-1.91823 1.30121,-1.91823 0.14552,0 0.26458,0.65484 0.26458,1.45521 z m 0,10.65878 c 0,0.83196 -0.13423,1.0806 -0.79375,1.47019 l -0.79375,0.46871 v -1.4702 c 0,-1.45715 0.007,-1.47019 0.79375,-1.47019 0.74215,0 0.79375,0.0653 0.79375,1.00149 z m 0,4.08244 c 0,0.93617 -0.0516,1.00149 -0.79375,1.00149 -0.78674,0 -0.79375,-0.0131 -0.79375,-1.4702 v -1.47019 l 0.79375,0.46922 c 0.65952,0.38959 0.79375,0.63772 0.79375,1.46968 z" />
  </g>
</svg>
