<?xml version="1.0" encoding="UTF-8" standalone="no"?>
<!-- Created with Inkscape (http://www.inkscape.org/) -->

<svg
   width="17.44803mm"
   height="45.568798mm"
   viewBox="0 0 17.44803 45.568798"
   version="1.1"
   id="svg214"
   sodipodi:docname="halb Gewendelt Obent.svg"
   inkscape:version="1.2 (dc2aedaf03, 2022-05-15)"
   xmlns:inkscape="http://www.inkscape.org/namespaces/inkscape"
   xmlns:sodipodi="http://sodipodi.sourceforge.net/DTD/sodipodi-0.dtd"
   xmlns="http://www.w3.org/2000/svg"
   xmlns:svg="http://www.w3.org/2000/svg">
  <sodipodi:namedview
     id="namedview216"
     pagecolor="#ffffff"
     bordercolor="#999999"
     borderopacity="1"
     inkscape:showpageshadow="0"
     inkscape:pageopacity="0"
     inkscape:pagecheckerboard="0"
     inkscape:deskcolor="#d1d1d1"
     inkscape:document-units="mm"
     showgrid="false"
     inkscape:zoom="1.6819304"
     inkscape:cx="97.209729"
     inkscape:cy="59.455492"
     inkscape:window-width="1920"
     inkscape:window-height="1129"
     inkscape:window-x="-8"
     inkscape:window-y="-8"
     inkscape:window-maximized="1"
     inkscape:current-layer="layer1" />
  <defs
     id="defs211" />
  <g
     inkscape:label="Ebene 1"
     inkscape:groupmode="layer"
     id="layer1"
     transform="translate(-69.585065,-43.956294)">
    <path
       id="path209"
       style="fill:#000000;stroke-width:0.425873"
       d="m -627.45467,-626.40168 v 22.99704 22.99705 h 2.7156 2.71611 l 0.5302,0.63924 0.45785,0.55139 h 1.21388 l 0.45786,-0.55139 0.5302,-0.63924 h 2.71611 2.7156 v -22.99705 -22.99704 h -7.02645 z m 0.85163,0.85163 h 2.7683 2.76779 v 0.33124 0.33125 l -0.663,0.94619 -0.6625,0.94672 h -2.10529 -2.1053 v -1.27796 z m 6.81405,0 h 2.76779 2.76831 v 1.27744 1.27796 h -2.1053 -2.10478 l -0.66301,-0.94672 -0.66301,-0.94619 v -0.33125 z m -6.81405,2.98121 1.38389,0.005 1.38441,0.005 1.59681,0.26407 1.5968,0.26406 v 1.00873 1.00924 h -2.9807 -2.98121 v -1.27796 z m 12.35015,0 v 1.27744 1.27796 h -2.98122 -2.98069 v -1.00924 -1.00873 l 1.5968,-0.26406 1.5968,-0.26407 1.38441,-0.005 z m -12.35015,2.98121 h 2.98121 2.9807 v 1.27744 1.27745 h -2.9807 -2.98121 v -1.27745 z m 6.38824,0 h 2.98069 2.98122 v 1.27744 1.27745 h -2.98122 -2.98069 v -1.27745 z m -6.38824,2.98122 h 2.98121 2.9807 v 1.27744 1.27744 h -2.9807 -2.98121 v -1.27744 z m 6.38824,0 h 2.98069 2.98122 v 1.27744 1.27744 h -2.98122 -2.98069 v -1.27744 z m -6.38824,2.98069 h 2.98121 2.9807 v 1.27796 1.27744 h -2.9807 -2.98121 v -1.27744 z m 6.38824,0 h 2.98069 2.98122 v 1.27796 1.27744 h -2.98122 -2.98069 v -1.27744 z m -6.38824,2.98122 h 2.98121 2.9807 v 1.27795 1.27745 h -2.9807 -2.98121 v -1.27745 z m 6.38824,0 h 2.98069 2.98122 v 1.27795 1.27745 h -2.98122 -2.98069 v -1.27745 z m -6.38824,2.98121 h 2.98121 2.9807 v 1.27744 1.27796 h -2.9807 -2.98121 v -1.27796 z m 6.38824,0 h 2.98069 2.98122 v 1.27744 1.27796 h -2.98122 -2.98069 v -1.27796 z m -6.38824,2.98121 h 2.98121 2.9807 v 1.27744 1.27745 h -2.9807 -2.98121 v -1.27745 z m 6.38824,0 h 2.98069 2.98122 v 1.27744 1.27745 h -2.98122 -2.98069 v -1.27745 z m -6.38824,2.98122 h 2.98121 2.9807 v 1.27744 1.27744 h -2.9807 -2.98121 v -1.27744 z m 6.38824,0 h 2.98069 2.98122 v 1.27744 1.27744 h -2.98122 -2.98069 v -1.27744 z m -6.38824,2.98069 h 2.98121 2.9807 v 1.27796 1.27744 h -2.9807 -2.98121 v -1.27744 z m 6.38824,0 h 2.98069 2.98122 v 1.27796 1.27744 h -2.98122 -2.98069 v -1.27744 z m -6.38824,2.98122 h 2.98121 2.9807 v 1.27795 1.27745 h -2.9807 -2.98121 v -1.27745 z m 6.38824,0 h 2.98069 2.98122 v 1.27795 1.27745 h -2.98122 -2.98069 v -1.27745 z m -6.38824,2.98121 h 2.98121 2.9807 v 1.27744 1.27796 h -2.9807 -2.98121 v -1.27796 z m 6.38824,0 h 2.98069 2.98122 v 1.27744 1.27796 h -2.98122 -2.98069 v -1.27796 z m -6.38824,2.98121 h 2.98121 2.9807 v 1.27744 1.27796 h -2.9807 -2.98121 v -1.27796 z m 6.38824,0 h 2.98069 2.98122 v 1.27744 1.27796 h -2.98122 -2.98069 v -1.27796 z m -6.38824,2.98122 h 2.98121 2.9807 v 1.27744 1.27744 h -2.9807 -2.98121 v -1.27744 z m 6.38824,0 h 2.98069 2.98122 v 1.27744 1.27744 h -2.98122 -2.98069 v -1.27744 z m -6.38824,2.98069 h 2.98121 2.9807 v 0.35192 0.3514 l -0.98547,0.92604 -0.98547,0.92604 h -1.99575 -1.99522 v -1.27744 z m 6.38824,0 h 2.98069 2.98122 v 1.27796 1.27744 h -2.05517 -2.05518 l -0.92604,-0.98547 -0.92552,-0.98598 v -0.29197 z" />
    <path
       id="path209-6"
       style="fill:#000000;stroke-width:0.425873"
       d="m 78.915245,43.956294 -0.24547,0.639238 -0.24494,0.63872 h -2.72284 -2.72231 v 15.459005 15.459522 l -0.51108,0.510563 -0.51108,0.51108 h -1.19269 -1.17977 v 12.35067 h 8.71781 8.73022 V 67.379671 45.234252 h -2.72232 -2.72283 l -0.24495,-0.63872 -0.24494,-0.639238 h -1.09141 z m -5.08393,2.129586 h 2.12907 2.12958 l 0.85163,0.851628 0.85163,0.851627 v 0.426331 0.425814 h -2.9807 -2.98121 v -1.277959 z m 8.09149,0 h 2.12959 2.12907 v 1.277441 1.277959 h -2.98122 -2.98069 v -0.425814 -0.426331 l 0.85163,-0.851627 z m -8.09149,2.981213 h 2.98121 2.9807 v 1.277442 1.277958 h -2.9807 -2.98121 v -1.277958 z m 6.38824,0 h 2.98069 2.98122 v 1.277442 1.277958 h -2.98122 -2.98069 v -1.277958 z m -6.38824,2.981214 h 2.98121 2.9807 v 1.277441 1.277442 h -2.9807 -2.98121 v -1.277442 z m 6.38824,0 h 2.98069 2.98122 v 1.277441 1.277442 h -2.98122 -2.98069 v -1.277442 z m -6.38824,2.980696 h 2.98121 2.9807 v 1.277959 1.277441 h -2.9807 -2.98121 v -1.277441 z m 6.38824,0 h 2.98069 2.98122 v 1.277959 1.277441 h -2.98122 -2.98069 v -1.277441 z m -6.38824,2.981214 h 2.98121 2.9807 v 1.277958 1.277441 h -2.9807 -2.98121 v -1.277441 z m 6.38824,0 h 2.98069 2.98122 v 1.277958 1.277441 h -2.98122 -2.98069 v -1.277441 z m -6.38824,2.981213 h 2.98121 2.9807 v 1.277442 1.277958 h -2.9807 -2.98121 v -1.277958 z m 6.38824,0 h 2.98069 2.98122 v 1.277442 1.277958 h -2.98122 -2.98069 v -1.277958 z m -6.38824,2.981214 h 2.98121 2.9807 v 1.277441 1.277958 h -2.9807 -2.98121 v -1.277958 z m 6.38824,0 h 2.98069 2.98122 v 1.277441 1.277958 h -2.98122 -2.98069 v -1.277958 z m -6.38824,2.981213 h 2.98121 2.9807 v 1.064534 1.064535 h -2.9807 -2.98121 v -1.064535 z m 6.38824,0 h 2.98069 2.98122 v 1.277441 1.277442 h -2.98122 -2.98069 v -1.277442 z m 0,2.869592 1.5968,0.264067 1.5968,0.26355 1.38441,0.0046 1.3839,0.0052 v 1.703255 1.703255 l -0.53227,-0.06149 -0.53227,-0.06201 -2.44894,-0.433049 -2.44843,-0.433048 v -1.476913 z m -6.38824,0.111105 h 2.98121 2.9807 v 1.277958 1.277441 l -0.95808,-0.03359 -0.95808,-0.03359 -0.42582,-0.144178 -0.42581,-0.144694 -1.59732,-0.267167 -1.5968,-0.267167 V 70.76706 Z m -0.0837,2.446362 2.06499,0.298173 2.06448,0.298173 0.95808,0.22841 0.95808,0.22841 v 1.231449 1.231449 l -0.10646,-0.03307 -0.10645,-0.03359 -2.76779,-0.960665 -2.76831,-0.961182 -0.14831,-0.763778 z m 6.47196,0.944645 0.95808,0.232544 0.95808,0.232544 1.91668,0.31781 1.91616,0.317293 0.13126,1.800407 0.13074,1.800407 -0.34365,-0.03927 -0.34416,-0.03927 -2.66186,-0.894519 -2.66133,-0.894519 v -1.416976 z m -6.38824,1.202511 0.53226,0.196887 0.53227,0.19637 2.26033,0.743107 2.25981,0.743107 -0.13074,1.096058 -0.13074,1.096057 -0.42582,0.12454 -0.42581,0.12454 -2.2226,-1.369425 -2.22261,-1.369426 -0.0129,-0.790649 z m 6.44508,2.295983 2.63343,0.869715 2.63292,0.870231 0.34365,0.309025 0.34364,0.309542 -0.13074,2.178161 -0.13074,2.178162 -3.19412,-1.978691 -3.19412,-1.978173 -0.108,-0.06976 -0.10852,-0.07028 0.4563,-1.308965 z m -5.98671,0.297657 2.12597,1.30793 2.12596,1.308447 -0.44131,0.823723 -0.4408,0.824239 -0.39584,0.244429 -0.39585,0.24443 -1.6247,-1.943551 -1.62471,-1.944067 v -0.406177 -0.406693 l 0.33538,-0.02636 z m -1.73581,0.715202 1.88619,2.1177 1.8867,2.1177 -0.69039,0.532267 h 0.001 l -0.6904,0.532267 h -0.55759 -0.55759 v -0.590144 -0.590145 l -0.63613,-1.219564 -0.63614,-1.220081 -0.003,-0.840258 z m -2.12959,0.552937 0.71469,0.13746 0.71468,0.137976 0.34778,1.277441 0.3483,1.277958 -0.18707,0.504362 -0.18707,0.504362 -0.87539,0.468706 -0.87592,0.468705 v -2.388485 z m 8.81393,1.701705 3.47163,2.204 3.47162,2.203996 v 2.0867 2.08669 l -1.80971,-0.032 -1.81023,-0.032 -2.60966,-3.06958 -2.61017,-3.070093 0.94826,-1.188558 z m -2.28048,2.931088 2.25309,2.505788 2.2531,2.50579 0.0165,0.31936 0.0165,0.31988 h -3.17758 -3.17759 l -0.46354,-1.81023 -0.46302,-1.8097 -0.16898,-0.50695 -0.16898,-0.50695 1.54047,-0.508492 z m -6.53345,1.320848 0.31936,0.15555 0.31936,0.15554 1.27796,0.60513 1.27744,0.60514 0.0568,0.0202 0.0563,0.0202 0.29662,1.3839 0.29663,1.38441 h -1.95027 -1.95027 v -2.16524 z" />
  </g>
</svg>
