<?xml version="1.0" encoding="UTF-8" standalone="no"?>
<!-- Created with Inkscape (http://www.inkscape.org/) -->

<svg
   width="18.73839mm"
   height="51.530708mm"
   viewBox="0 0 18.73839 51.530708"
   version="1.1"
   id="svg214"
   sodipodi:docname="LMLStair Voll Gewendelt Rechteck.svg"
   inkscape:version="1.2 (dc2aedaf03, 2022-05-15)"
   xmlns:inkscape="http://www.inkscape.org/namespaces/inkscape"
   xmlns:sodipodi="http://sodipodi.sourceforge.net/DTD/sodipodi-0.dtd"
   xmlns="http://www.w3.org/2000/svg"
   xmlns:svg="http://www.w3.org/2000/svg">
  <sodipodi:namedview
     id="namedview216"
     pagecolor="#ffffff"
     bordercolor="#999999"
     borderopacity="1"
     inkscape:showpageshadow="0"
     inkscape:pageopacity="0"
     inkscape:pagecheckerboard="0"
     inkscape:deskcolor="#d1d1d1"
     inkscape:document-units="mm"
     showgrid="false"
     inkscape:zoom="0.074331525"
     inkscape:cx="-6719.8944"
     inkscape:cy="-861.00749"
     inkscape:window-width="1920"
     inkscape:window-height="1129"
     inkscape:window-x="-8"
     inkscape:window-y="-8"
     inkscape:window-maximized="1"
     inkscape:current-layer="layer1" />
  <defs
     id="defs211" />
  <g
     inkscape:label="Ebene 1"
     inkscape:groupmode="layer"
     id="layer1"
     transform="translate(-88.51715,-141.53131)">
    <path
       id="path209"
       style="fill:#000000;stroke-width:0.425873"
       d="m 107.25554,141.53131 h -8.73022 -8.73021 v 1.86449 1.86397 l -0.63872,0.5302 -0.63924,0.5302 v 0.74776 0.74724 l 0.63924,0.5302 0.63872,0.5302 v 2.50321 2.5032 h 1.19217 1.1927 l 0.51108,0.51108 0.51108,0.51056 v 12.39305 12.39304 l -0.51108,0.51108 -0.51108,0.51108 h -1.1927 -1.19217 v 6.17533 6.17482 h 8.73021 8.73022 v -25.76535 z m -0.80253,41.18819 -0.13126,2.15284 -0.13074,2.15232 -3.22668,-1.99316 -3.22668,-1.99368 0.41031,-1.26969 0.41032,-1.26917 0.0987,-0.12144 0.0987,-0.12144 2.50476,0.91933 2.50475,0.91932 0.34365,0.31212 z m -0.003,-35.33841 -0.1292,2.46393 -0.1297,2.46393 -2.728,1.01854 -2.72748,1.01803 -0.3297,-0.33848 -0.3297,-0.33796 -0.25786,-1.06506 -0.25838,-1.06453 2.03812,-1.16117 2.03811,-1.16169 1.40664,-0.91777 z m -0.002,44.8293 h -1.68156 -1.68206 l -2.59933,-2.9316 -2.59881,-2.93161 0.014,-0.36897 0.0145,-0.36897 0.8139,-0.97616 0.8139,-0.97617 3.32435,2.08152 3.32383,2.08153 0.12867,2.19522 z m -0.0444,-49.82745 v 2.11667 2.11615 l -2.23552,1.42317 -2.23604,1.42368 -1.36684,0.80047 -1.36684,0.80099 -0.8692,-0.78652 -0.86868,-0.78651 v -0.34624 -0.34623 l 2.79725,-3.20755 2.79776,-3.20808 h 1.67431 z m 0,10.6469 v 1.86758 1.86707 l -2.40915,0.30128 -2.40864,0.30075 -0.57206,0.21963 -0.57206,0.21962 v -1.33635 -1.33687 l 0.74518,-0.26665 0.74517,-0.26717 2.03864,-0.78444 2.03863,-0.78445 h 0.19741 z m 0,4.1677 v 1.6893 1.68982 l -2.23552,0.26872 -2.23604,0.26872 -0.74517,0.004 v -5.2e-4 l -0.74518,0.004 v -1.44125 -1.44178 l 2.40864,-0.30075 2.40916,-0.30128 0.57206,-0.21962 z m 0,4.35012 v 1.27745 1.27744 h -2.98121 -2.9807 v -0.99374 -0.99374 l 0.28371,-0.2837 0.2837,-0.28371 h 2.69751 z m 0,2.9807 v 1.27796 1.27744 h -2.98121 -2.9807 v -1.27744 -1.27796 h 2.9807 z m 0,2.98121 v 1.27796 1.27744 h -2.98121 -2.9807 v -1.27744 -1.27796 h 2.9807 z m 0,2.98122 v 1.29707 1.29708 l -2.87476,-0.12609 -2.87424,-0.12557 -0.13487,-1.17151 -0.13488,-1.17098 h 3.00964 z m 0,3.52588 v 1.6893 1.68982 l -0.57205,-0.21962 -0.57206,-0.21911 -2.40916,-0.30128 -2.40864,-0.30127 v -1.44177 -1.44126 l 0.74518,0.004 0.74517,0.004 2.23604,0.26872 z m 0,3.81217 v 1.89601 1.89601 l -0.74517,-0.23927 -0.74517,-0.23926 -2.12959,-0.80873 -2.12907,-0.80822 -0.13798,-1.3808 -0.13745,-1.38079 0.60306,0.23151 0.60358,0.23151 2.40864,0.30076 z m -4.20181,-35.4459 -2.68976,3.11971 -2.69027,3.1197 -1.38441,-0.64337 -1.3839,-0.64285 0.0336,-0.24081 0.0336,-0.2403 0.15658,-0.42581 0.15607,-0.42633 0.46508,-1.80971 0.46561,-1.81023 h 3.41891 z m -0.13177,49.61454 -3.20859,0.12506 -3.20859,0.12557 -0.1881,-0.18758 -0.18759,-0.1881 -0.55604,-2.10788 -0.55604,-2.10789 1.51774,-0.54932 1.51825,-0.5488 2.43448,2.71973 z m -2.05466,-36.79206 v 1.20819 1.20871 l -0.95808,0.22841 -0.95808,0.22841 -2.02313,0.29197 -2.02262,0.29198 v -0.70074 -0.70021 l 0.53227,-0.19482 0.53227,-0.19534 2.44894,-0.83354 z m 0,3.2644 v 1.29087 1.29088 l -2.98173,0.14159 -2.98173,0.1416 5.2e-4,-0.91209 0.001,-0.91209 0.95808,-0.22841 0.95809,-0.22893 2.02313,-0.29197 z m 0,3.50366 v 1.06453 1.06454 h -2.98069 -2.98122 v -1.06454 -1.06453 h 2.98122 z m 0,2.55488 v 1.27796 1.27744 h -2.98069 -2.98122 v -1.27744 -1.27796 h 2.98122 z m 0,2.98121 v 1.27796 1.27744 h -2.98069 -2.98122 v -1.27744 -1.27796 h 2.98122 z m 0,2.98122 v 1.06453 1.06505 h -2.98069 -2.98122 v -1.06505 -1.06453 h 2.98122 z m 0,3.05097 v 1.29088 1.29139 l -2.02261,-0.29197 -2.02313,-0.29197 -0.95809,-0.22841 -0.95859,-0.22841 -5.2e-4,-0.91209 -0.001,-0.91209 2.98224,0.14108 z m 0,3.42977 v 1.20302 1.20355 l -2.87424,-0.96945 -2.87476,-0.96893 -0.14831,-0.7612 -0.14831,-0.76067 2.06499,0.29817 2.06447,0.29817 0.95808,0.22841 z m -0.35605,-22.32939 -2.27066,0.74673 -2.27066,0.7462 -0.53227,0.19637 -0.53227,0.19689 v -0.68988 -0.68988 l 2.37764,-1.52084 2.37763,-1.52083 0.14314,0.14314 0.14263,0.14314 0.28215,1.12448 z m -0.0698,25.28631 v 1.00563 1.0051 l -0.416,0.25735 -0.41651,0.25735 -2.35179,-1.50482 -2.3518,-1.5043 v -0.68988 -0.68936 l 0.53227,0.19637 0.53227,0.19637 2.23604,0.73535 z m -0.85628,3.67575 -0.76946,0.95033 -0.76998,0.95084 -1.78025,-2.07739 h 5.1e-4 l -1.78077,-2.07739 -0.003,-0.24857 -0.003,-0.24804 0.25425,-0.25477 0.25476,-0.25424 2.0836,1.28209 2.08359,1.28209 0.21497,0.34727 z m -0.42116,-32.57166 v 0.3235 0.32349 l -2.08773,1.28468 -2.08773,1.28467 -0.25476,-0.25476 -0.25373,-0.25425 0.008,-0.24856 0.008,-0.24857 1.53375,-1.82934 1.53376,-1.82935 0.79995,0.72451 z m -1.54564,34.85472 -0.61134,0.38706 -0.61133,0.38654 -0.74517,0.007 -0.74518,0.006 v -0.58963 -0.59014 l -0.63613,-1.22008 h 5.1e-4 l -0.63613,-1.21957 -0.003,-0.83044 -0.003,-0.83096 0.36587,0.40463 0.36587,0.40463 1.62936,1.84278 z m -0.58395,-36.97913 -0.0181,0.25114 -0.0181,0.25063 -1.68414,1.91668 -1.68413,1.91616 0.0326,-0.85162 0.0326,-0.85163 0.42582,-1.27744 0.42581,-1.27796 0.16485,-0.52968 0.16484,-0.52969 1.07901,0.49145 z m -1.70325,-6.52519 v 0.42013 0.41961 l -0.51418,1.92237 -0.51418,1.92288 h -0.5886 -0.58859 l -0.79944,-0.9586 -0.79943,-0.95808 -0.0145,-1.3839 -0.0139,-1.38441 h 1.91616 z m 0,48.61926 v 0.60409 0.6041 H 92.56256 90.6464 v -2.13785 -2.13837 l 1.65106,0.84232 1.65106,0.84233 0.2651,0.69195 z m -1.3131,-42.86302 -0.5426,2.12545 -0.54209,2.12545 -0.71727,0.1385 -0.71778,0.13797 v -1.88154 -1.88154 l 0.86196,-0.78031 0.86145,-0.7798 0.3979,0.39791 z m -0.3266,37.51761 -1.09657,0.49919 -1.09657,0.49971 v -2.33319 -2.33319 h 0.6134 0.61391 l 0.19947,0.32298 0.19947,0.32246 0.28319,1.51102 z" />
  </g>
</svg>
