<?xml version="1.0" encoding="UTF-8" standalone="no"?>
<!-- Created with Inkscape (http://www.inkscape.org/) -->

<svg
   width="45.568798mm"
   height="17.44803mm"
   viewBox="0 0 45.568797 17.44803"
   version="1.1"
   id="svg214"
   sodipodi:docname="LMLStair halb Gewendelt Oben.svg"
   inkscape:version="1.2 (dc2aedaf03, 2022-05-15)"
   xmlns:inkscape="http://www.inkscape.org/namespaces/inkscape"
   xmlns:sodipodi="http://sodipodi.sourceforge.net/DTD/sodipodi-0.dtd"
   xmlns="http://www.w3.org/2000/svg"
   xmlns:svg="http://www.w3.org/2000/svg">
  <sodipodi:namedview
     id="namedview216"
     pagecolor="#ffffff"
     bordercolor="#999999"
     borderopacity="1"
     inkscape:showpageshadow="0"
     inkscape:pageopacity="0"
     inkscape:pagecheckerboard="0"
     inkscape:deskcolor="#d1d1d1"
     inkscape:document-units="mm"
     showgrid="false"
     inkscape:zoom="1.6819304"
     inkscape:cx="150.71967"
     inkscape:cy="6.5401042"
     inkscape:window-width="1920"
     inkscape:window-height="1129"
     inkscape:window-x="-8"
     inkscape:window-y="-8"
     inkscape:window-maximized="1"
     inkscape:current-layer="layer1" />
  <defs
     id="defs211" />
  <g
     inkscape:label="Ebene 1"
     inkscape:groupmode="layer"
     id="layer1"
     transform="translate(-55.524681,-58.016678)">
    <path
       id="path209"
       style="fill:#000000;stroke-width:0.425873"
       d="m -627.45467,-626.40168 v 22.99704 22.99705 h 2.7156 2.71611 l 0.5302,0.63924 0.45785,0.55139 h 1.21388 l 0.45786,-0.55139 0.5302,-0.63924 h 2.71611 2.7156 v -22.99705 -22.99704 h -7.02645 z m 0.85163,0.85163 h 2.7683 2.76779 v 0.33124 0.33125 l -0.663,0.94619 -0.6625,0.94672 h -2.10529 -2.1053 v -1.27796 z m 6.81405,0 h 2.76779 2.76831 v 1.27744 1.27796 h -2.1053 -2.10478 l -0.66301,-0.94672 -0.66301,-0.94619 v -0.33125 z m -6.81405,2.98121 1.38389,0.005 1.38441,0.005 1.59681,0.26407 1.5968,0.26406 v 1.00873 1.00924 h -2.9807 -2.98121 v -1.27796 z m 12.35015,0 v 1.27744 1.27796 h -2.98122 -2.98069 v -1.00924 -1.00873 l 1.5968,-0.26406 1.5968,-0.26407 1.38441,-0.005 z m -12.35015,2.98121 h 2.98121 2.9807 v 1.27744 1.27745 h -2.9807 -2.98121 v -1.27745 z m 6.38824,0 h 2.98069 2.98122 v 1.27744 1.27745 h -2.98122 -2.98069 v -1.27745 z m -6.38824,2.98122 h 2.98121 2.9807 v 1.27744 1.27744 h -2.9807 -2.98121 v -1.27744 z m 6.38824,0 h 2.98069 2.98122 v 1.27744 1.27744 h -2.98122 -2.98069 v -1.27744 z m -6.38824,2.98069 h 2.98121 2.9807 v 1.27796 1.27744 h -2.9807 -2.98121 v -1.27744 z m 6.38824,0 h 2.98069 2.98122 v 1.27796 1.27744 h -2.98122 -2.98069 v -1.27744 z m -6.38824,2.98122 h 2.98121 2.9807 v 1.27795 1.27745 h -2.9807 -2.98121 v -1.27745 z m 6.38824,0 h 2.98069 2.98122 v 1.27795 1.27745 h -2.98122 -2.98069 v -1.27745 z m -6.38824,2.98121 h 2.98121 2.9807 v 1.27744 1.27796 h -2.9807 -2.98121 v -1.27796 z m 6.38824,0 h 2.98069 2.98122 v 1.27744 1.27796 h -2.98122 -2.98069 v -1.27796 z m -6.38824,2.98121 h 2.98121 2.9807 v 1.27744 1.27745 h -2.9807 -2.98121 v -1.27745 z m 6.38824,0 h 2.98069 2.98122 v 1.27744 1.27745 h -2.98122 -2.98069 v -1.27745 z m -6.38824,2.98122 h 2.98121 2.9807 v 1.27744 1.27744 h -2.9807 -2.98121 v -1.27744 z m 6.38824,0 h 2.98069 2.98122 v 1.27744 1.27744 h -2.98122 -2.98069 v -1.27744 z m -6.38824,2.98069 h 2.98121 2.9807 v 1.27796 1.27744 h -2.9807 -2.98121 v -1.27744 z m 6.38824,0 h 2.98069 2.98122 v 1.27796 1.27744 h -2.98122 -2.98069 v -1.27744 z m -6.38824,2.98122 h 2.98121 2.9807 v 1.27795 1.27745 h -2.9807 -2.98121 v -1.27745 z m 6.38824,0 h 2.98069 2.98122 v 1.27795 1.27745 h -2.98122 -2.98069 v -1.27745 z m -6.38824,2.98121 h 2.98121 2.9807 v 1.27744 1.27796 h -2.9807 -2.98121 v -1.27796 z m 6.38824,0 h 2.98069 2.98122 v 1.27744 1.27796 h -2.98122 -2.98069 v -1.27796 z m -6.38824,2.98121 h 2.98121 2.9807 v 1.27744 1.27796 h -2.9807 -2.98121 v -1.27796 z m 6.38824,0 h 2.98069 2.98122 v 1.27744 1.27796 h -2.98122 -2.98069 v -1.27796 z m -6.38824,2.98122 h 2.98121 2.9807 v 1.27744 1.27744 h -2.9807 -2.98121 v -1.27744 z m 6.38824,0 h 2.98069 2.98122 v 1.27744 1.27744 h -2.98122 -2.98069 v -1.27744 z m -6.38824,2.98069 h 2.98121 2.9807 v 0.35192 0.3514 l -0.98547,0.92604 -0.98547,0.92604 h -1.99575 -1.99522 v -1.27744 z m 6.38824,0 h 2.98069 2.98122 v 1.27796 1.27744 h -2.05517 -2.05518 l -0.92604,-0.98547 -0.92552,-0.98598 v -0.29197 z" />
    <path
       id="path209-6"
       style="fill:#000000;stroke-width:0.425873"
       d="m 101.09348,67.346858 -0.63924,-0.24547 -0.638719,-0.24494 v -2.72284 -2.72231 H 84.356516 68.896994 l -0.510563,-0.51108 -0.51108,-0.51108 v -1.19269 -1.17977 h -12.35067 v 8.71781 8.73022 h 22.145421 22.145419 v -2.72232 -2.72283 l 0.638719,-0.24495 0.63924,-0.24494 v -1.09141 z m -2.129587,-5.08393 v 2.12907 2.12958 l -0.851628,0.85163 -0.851627,0.85163 h -0.426331 -0.425814 v -2.9807 -2.98121 h 1.277959 z m 0,8.09149 v 2.12959 2.12907 h -1.277441 -1.277959 v -2.98122 -2.98069 h 0.425814 0.426331 l 0.851627,0.85163 z m -2.981213,-8.09149 v 2.98121 2.9807 H 94.705238 93.42728 v -2.9807 -2.98121 h 1.277958 z m 0,6.38824 v 2.98069 2.98122 H 94.705238 93.42728 v -2.98122 -2.98069 h 1.277958 z m -2.981214,-6.38824 v 2.98121 2.9807 h -1.277441 -1.277442 v -2.9807 -2.98121 h 1.277442 z m 0,6.38824 v 2.98069 2.98122 h -1.277441 -1.277442 v -2.98122 -2.98069 h 1.277442 z m -2.980696,-6.38824 v 2.98121 2.9807 H 88.742811 87.46537 v -2.9807 -2.98121 h 1.277441 z m 0,6.38824 v 2.98069 2.98122 H 88.742811 87.46537 v -2.98122 -2.98069 h 1.277441 z m -2.981214,-6.38824 v 2.98121 2.9807 h -1.277958 -1.277441 v -2.9807 -2.98121 h 1.277441 z m 0,6.38824 v 2.98069 2.98122 h -1.277958 -1.277441 v -2.98122 -2.98069 h 1.277441 z m -2.981213,-6.38824 v 2.98121 2.9807 h -1.277442 -1.277958 v -2.9807 -2.98121 h 1.277958 z m 0,6.38824 v 2.98069 2.98122 h -1.277442 -1.277958 v -2.98122 -2.98069 h 1.277958 z m -2.981214,-6.38824 v 2.98121 2.9807 H 79.799688 78.52173 v -2.9807 -2.98121 h 1.277958 z m 0,6.38824 v 2.98069 2.98122 H 79.799688 78.52173 v -2.98122 -2.98069 h 1.277958 z m -2.981213,-6.38824 v 2.98121 2.9807 h -1.064534 -1.064535 v -2.9807 -2.98121 h 1.064535 z m 0,6.38824 v 2.98069 2.98122 h -1.277441 -1.277442 v -2.98122 -2.98069 h 1.277442 z m -2.869592,0 -0.264067,1.5968 -0.26355,1.5968 -0.0046,1.38441 -0.0052,1.3839 h -1.703255 -1.703255 l 0.06149,-0.53227 0.06201,-0.53227 0.433049,-2.44894 0.433048,-2.44843 h 1.476913 z m -0.111105,-6.38824 v 2.98121 2.9807 H 73.837261 72.55982 l 0.03359,-0.95808 0.03359,-0.95808 0.144178,-0.42582 0.144694,-0.42581 0.267167,-1.59732 0.267167,-1.5968 h 0.832507 z m -2.446362,-0.0837 -0.298173,2.06499 -0.298173,2.06448 -0.22841,0.95808 -0.22841,0.95808 h -1.231449 -1.231449 l 0.03307,-0.10646 0.03359,-0.10645 0.960665,-2.76779 0.961182,-2.76831 0.763778,-0.14831 z m -0.944645,6.47196 -0.232544,0.95808 -0.232544,0.95808 -0.31781,1.91668 -0.317293,1.91616 -1.800407,0.13126 -1.800407,0.13074 0.03927,-0.34365 0.03927,-0.34416 0.894519,-2.66186 0.894519,-2.66133 h 1.416976 z m -1.202511,-6.38824 -0.196887,0.53226 -0.19637,0.53227 -0.743107,2.26033 -0.743107,2.25981 -1.096058,-0.13074 -1.096057,-0.13074 -0.12454,-0.42582 -0.12454,-0.42581 1.369425,-2.2226 1.369426,-2.22261 0.790649,-0.0129 z m -2.295983,6.44508 -0.869715,2.63343 -0.870231,2.63292 -0.309025,0.34365 -0.309542,0.34364 -2.178161,-0.13074 -2.178162,-0.13074 1.978691,-3.19412 1.978173,-3.19412 0.06976,-0.108 0.07028,-0.10852 1.308965,0.4563 z m -0.297657,-5.98671 -1.30793,2.12597 -1.308447,2.12596 -0.823723,-0.44131 -0.824239,-0.4408 -0.244429,-0.39584 -0.24443,-0.39585 1.943551,-1.6247 1.944067,-1.62471 h 0.406177 0.406693 l 0.02636,0.33538 z m -0.715202,-1.73581 -2.1177,1.88619 -2.1177,1.8867 -0.532267,-0.69039 v 10e-4 l -0.532267,-0.6904 v -0.55759 -0.55759 h 0.590144 0.590145 l 1.219564,-0.63613 1.220081,-0.63614 0.840258,-0.003 z m -0.552937,-2.12959 -0.13746,0.71469 -0.137976,0.71468 -1.277441,0.34778 -1.277958,0.3483 -0.504362,-0.18707 -0.504362,-0.18707 -0.468706,-0.87539 -0.468705,-0.87592 h 2.388485 z m -1.701705,8.81393 -2.204,3.47163 -2.203996,3.47162 h -2.0867 -2.08669 l 0.032,-1.80971 0.032,-1.81023 3.06958,-2.60966 3.070093,-2.61017 1.188558,0.94826 z m -2.931088,-2.28048 -2.505788,2.25309 -2.50579,2.2531 -0.31936,0.0165 -0.31988,0.0165 v -3.17758 -3.17759 l 1.81023,-0.46354 1.8097,-0.46302 0.50695,-0.16898 0.50695,-0.16898 0.508492,1.54047 z m -1.320848,-6.53345 -0.15555,0.31936 -0.15554,0.31936 -0.60513,1.27796 -0.60514,1.27744 -0.0202,0.0568 -0.0202,0.0563 -1.3839,0.29662 -1.38441,0.29663 v -1.95027 -1.95027 h 2.16524 z" />
  </g>
</svg>
