<?xml version="1.0" encoding="UTF-8" standalone="no"?>
<!-- Created with Inkscape (http://www.inkscape.org/) -->

<svg
   width="14.053409mm"
   height="47.184727mm"
   viewBox="0 0 14.053409 47.184727"
   version="1.1"
   id="svg214"
   sodipodi:docname="Gerade Treppe.svg"
   inkscape:version="1.2 (dc2aedaf03, 2022-05-15)"
   xmlns:inkscape="http://www.inkscape.org/namespaces/inkscape"
   xmlns:sodipodi="http://sodipodi.sourceforge.net/DTD/sodipodi-0.dtd"
   xmlns="http://www.w3.org/2000/svg"
   xmlns:svg="http://www.w3.org/2000/svg">
  <sodipodi:namedview
     id="namedview216"
     pagecolor="#ffffff"
     bordercolor="#999999"
     borderopacity="1"
     inkscape:showpageshadow="0"
     inkscape:pageopacity="0"
     inkscape:pagecheckerboard="0"
     inkscape:deskcolor="#d1d1d1"
     inkscape:document-units="mm"
     showgrid="false"
     inkscape:zoom="3.3638608"
     inkscape:cx="12.931569"
     inkscape:cy="99.885226"
     inkscape:window-width="1920"
     inkscape:window-height="1129"
     inkscape:window-x="-8"
     inkscape:window-y="-8"
     inkscape:window-maximized="1"
     inkscape:current-layer="layer1" />
  <defs
     id="defs211" />
  <g
     inkscape:label="Ebene 1"
     inkscape:groupmode="layer"
     id="layer1"
     transform="translate(-96.168211,-70.793235)">
    <path
       id="path209"
       style="fill:#000000;stroke-width:0.425873"
       d="m 96.168211,70.793235 v 22.99704 22.997055 h 2.7156 2.716109 l 0.5302,0.63924 0.45785,0.55139 h 1.21388 l 0.45786,-0.55139 0.5302,-0.63924 h 2.71611 2.7156 V 93.790275 70.793235 h -7.02645 z m 0.85163,0.85163 h 2.7683 2.767789 v 0.33124 0.33125 l -0.663,0.94619 -0.6625,0.94672 h -2.105289 -2.1053 v -1.27796 z m 6.814049,0 h 2.76779 2.76831 v 1.27744 1.27796 h -2.1053 -2.10478 l -0.66301,-0.94672 -0.66301,-0.94619 v -0.33125 z m -6.814049,2.98121 1.38389,0.005 1.38441,0.005 1.596809,0.26407 1.5968,0.26406 v 1.00873 1.00924 h -2.9807 -2.981209 v -1.27796 z m 12.350149,0 v 1.27744 1.27796 h -2.98122 -2.98069 v -1.00924 -1.00873 l 1.5968,-0.26406 1.5968,-0.26407 1.38441,-0.005 z m -12.350149,2.98121 h 2.981209 2.9807 v 1.27744 1.27745 h -2.9807 -2.981209 v -1.27745 z m 6.388239,0 h 2.98069 2.98122 v 1.27744 1.27745 h -2.98122 -2.98069 v -1.27745 z m -6.388239,2.98122 h 2.981209 2.9807 v 1.27744 1.27744 h -2.9807 -2.981209 v -1.27744 z m 6.388239,0 h 2.98069 2.98122 v 1.27744 1.27744 h -2.98122 -2.98069 v -1.27744 z m -6.388239,2.98069 h 2.981209 2.9807 v 1.27796 1.27744 h -2.9807 -2.981209 v -1.27744 z m 6.388239,0 h 2.98069 2.98122 v 1.27796 1.27744 h -2.98122 -2.98069 v -1.27744 z m -6.388239,2.98122 h 2.981209 2.9807 v 1.27795 1.27745 h -2.9807 -2.981209 v -1.27745 z m 6.388239,0 h 2.98069 2.98122 v 1.27795 1.27745 h -2.98122 -2.98069 v -1.27745 z m -6.388239,2.98121 h 2.981209 2.9807 v 1.27744 1.27796 h -2.9807 -2.981209 v -1.27796 z m 6.388239,0 h 2.98069 2.98122 v 1.27744 1.27796 h -2.98122 -2.98069 v -1.27796 z m -6.388239,2.98121 h 2.981209 2.9807 v 1.27744 1.27745 h -2.9807 -2.981209 v -1.27745 z m 6.388239,0 h 2.98069 2.98122 v 1.27744 1.27745 h -2.98122 -2.98069 v -1.27745 z m -6.388239,2.98122 h 2.981209 2.9807 v 1.27744 1.27744 h -2.9807 -2.981209 v -1.27744 z m 6.388239,0 h 2.98069 2.98122 v 1.27744 1.27744 h -2.98122 -2.98069 v -1.27744 z m -6.388239,2.98069 h 2.981209 2.9807 v 1.27796 1.277445 h -2.9807 -2.981209 v -1.277445 z m 6.388239,0 h 2.98069 2.98122 v 1.27796 1.277445 h -2.98122 -2.98069 v -1.277445 z m -6.388239,2.981225 h 2.981209 2.9807 v 1.27795 1.27745 h -2.9807 -2.981209 v -1.27745 z m 6.388239,0 h 2.98069 2.98122 v 1.27795 1.27745 h -2.98122 -2.98069 v -1.27745 z m -6.388239,2.98121 h 2.981209 2.9807 v 1.27744 1.27796 h -2.9807 -2.981209 v -1.27796 z m 6.388239,0 h 2.98069 2.98122 v 1.27744 1.27796 h -2.98122 -2.98069 v -1.27796 z m -6.388239,2.98121 h 2.981209 2.9807 v 1.27744 1.27796 h -2.9807 -2.981209 v -1.27796 z m 6.388239,0 h 2.98069 2.98122 v 1.27744 1.27796 h -2.98122 -2.98069 v -1.27796 z m -6.388239,2.98122 h 2.981209 2.9807 v 1.27744 1.27744 h -2.9807 -2.981209 v -1.27744 z m 6.388239,0 h 2.98069 2.98122 v 1.27744 1.27744 h -2.98122 -2.98069 v -1.27744 z m -6.388239,2.98069 h 2.981209 2.9807 v 0.35192 0.3514 l -0.98547,0.92604 -0.98547,0.92604 h -1.995749 -1.99522 v -1.27744 z m 6.388239,0 h 2.98069 2.98122 v 1.27796 1.27744 h -2.05517 -2.05518 l -0.92604,-0.98547 -0.92552,-0.98598 v -0.29197 z" />
  </g>
</svg>
