<?xml version="1.0" encoding="UTF-8" standalone="no"?>
<!-- Created with Inkscape (http://www.inkscape.org/) -->

<svg
   width="31.08906mm"
   height="36.625156mm"
   viewBox="0 0 31.08906 36.625156"
   version="1.1"
   id="svg214"
   sodipodi:docname="Podesttreppe.svg"
   inkscape:version="1.2 (dc2aedaf03, 2022-05-15)"
   xmlns:inkscape="http://www.inkscape.org/namespaces/inkscape"
   xmlns:sodipodi="http://sodipodi.sourceforge.net/DTD/sodipodi-0.dtd"
   xmlns="http://www.w3.org/2000/svg"
   xmlns:svg="http://www.w3.org/2000/svg">
  <sodipodi:namedview
     id="namedview216"
     pagecolor="#ffffff"
     bordercolor="#999999"
     borderopacity="1"
     inkscape:showpageshadow="0"
     inkscape:pageopacity="0"
     inkscape:pagecheckerboard="0"
     inkscape:deskcolor="#d1d1d1"
     inkscape:document-units="mm"
     showgrid="false"
     inkscape:zoom="0.2102413"
     inkscape:cx="-83.237689"
     inkscape:cy="-261.60416"
     inkscape:window-width="1920"
     inkscape:window-height="1129"
     inkscape:window-x="-8"
     inkscape:window-y="-8"
     inkscape:window-maximized="1"
     inkscape:current-layer="layer1" />
  <defs
     id="defs211" />
  <g
     inkscape:label="Ebene 1"
     inkscape:groupmode="layer"
     id="layer1"
     transform="translate(-64.997843,-13.149287)">
    <path
       id="path209"
       style="fill:#000000;stroke-width:0.425873"
       d="m 64.997843,13.149287 v 17.673857 17.67334 h 2.92902 2.92902 l 0.5302,0.639237 0.5302,0.638721 h 0.534335 0.534851 l 0.5302,-0.638721 0.529683,-0.639237 h 2.503207 2.503203 V 37.850105 27.20321 h 1.49035 1.49087 v 10.646895 10.646379 h 7.02696 7.02696 V 30.823144 13.149287 h -15.54479 z m 0.851627,0.851628 h 14.692642 14.69264 v 6.388241 6.38824 h -2.98069 -2.98122 v -3.19412 -3.19412 h -8.51782 -8.517311 v 3.19412 3.19412 h -3.19412 -3.194121 v -6.38824 z m 6.814055,6.814054 h 8.091497 8.09201 v 2.923336 2.923336 l -8.09201,-0.0093 -8.091497,-0.0088 V 23.72899 Z M 65.84947,27.20321 h 3.194121 3.19412 v 1.277441 1.277442 h -3.19412 -3.194121 v -1.277442 z m 6.814055,0 h 2.768306 2.768307 v 1.277441 1.277442 h -2.768307 -2.768306 v -1.277442 z m 10.221077,0 h 2.98122 2.98121 v 1.277441 1.277442 h -2.98121 -2.98122 v -1.277442 z m 6.38824,0 h 2.98122 2.98069 v 1.277441 1.277442 h -2.98069 -2.98122 V 28.480651 Z M 65.84947,30.184423 h 3.194121 3.19412 v 1.277442 1.277441 h -3.19412 -3.194121 v -1.277441 z m 6.814055,0 h 2.768306 2.768307 v 1.277442 1.277441 h -2.768307 -2.768306 v -1.277441 z m 10.221077,0 h 2.98122 2.98121 v 1.277442 1.277441 h -2.98121 -2.98122 v -1.277441 z m 6.38824,0 h 2.98122 2.98069 v 1.277442 1.277441 h -2.98069 -2.98122 V 31.461865 Z M 65.84947,33.16512 h 3.194121 3.19412 v 1.277958 1.277442 h -3.19412 -3.194121 v -1.277442 z m 6.814055,0 h 2.768306 2.768307 v 1.277958 1.277442 h -2.768307 -2.768306 v -1.277442 z m 10.221077,0 h 2.98122 2.98121 v 1.277958 1.277442 h -2.98121 -2.98122 v -1.277442 z m 6.38824,0 h 2.98122 2.98069 v 1.277958 1.277442 h -2.98069 -2.98122 V 34.443078 Z M 65.84947,36.146333 h 3.194121 3.19412 v 1.277442 1.277958 h -3.19412 -3.194121 v -1.277958 z m 6.814055,0 h 2.768306 2.768307 v 1.277442 1.277958 h -2.768307 -2.768306 v -1.277958 z m 10.221077,0 h 2.98122 2.98121 v 1.277442 1.277958 h -2.98121 -2.98122 v -1.277958 z m 6.38824,0 h 2.98122 2.98069 v 1.277442 1.277958 h -2.98069 -2.98122 V 37.423775 Z M 65.84947,39.127547 h 3.194121 3.19412 v 1.277441 1.277958 h -3.19412 -3.194121 v -1.277958 z m 6.814055,0 h 2.768306 2.768307 v 1.277441 1.277958 h -2.768307 -2.768306 v -1.277958 z m 10.221077,0 h 2.98122 2.98121 v 1.277441 1.277958 h -2.98121 -2.98122 v -1.277958 z m 6.38824,0 h 2.98122 2.98069 v 1.277441 1.277958 h -2.98069 -2.98122 V 40.404988 Z M 65.84947,42.10876 h 3.194121 3.19412 v 1.277442 1.277441 h -3.19412 -3.194121 v -1.277441 z m 6.814055,0 h 2.768306 2.768307 v 1.277442 1.277441 h -2.768307 -2.768306 v -1.277441 z m 10.221077,0 h 2.98122 2.98121 v 1.008724 1.009241 l -1.59732,0.26355 -1.5968,0.264066 -1.38441,0.0047 -1.3839,0.0047 V 43.3863 Z m 6.38824,0 h 2.98122 2.98069 v 1.277442 1.277441 l -1.8097,-0.06356 -1.81023,-0.06408 -1.17099,-0.17725 -1.17099,-0.17725 V 43.144874 Z M 65.84947,45.089974 h 3.194121 3.19412 v 0.351399 0.3514 l -0.98547,0.926042 -0.985986,0.926041 H 68.058121 65.84947 v -1.277441 z m 6.814055,0 h 2.768306 2.768307 v 1.277441 1.277441 h -1.842265 -1.842265 l -0.926042,-0.985469 -0.926041,-0.98547 v -0.291972 z m 10.221077,0 h 2.1053 2.1053 l 0.66301,0.946195 0.66301,0.946712 v 0.331246 0.330729 h -2.76831 -2.76831 v -1.277441 z m 8.14008,0 h 2.10529 2.10478 v 1.277441 1.277441 h -2.76778 -2.76831 v -0.330729 -0.331246 l 0.66301,-0.946712 z" />
  </g>
</svg>
