<?xml version="1.0" encoding="UTF-8" standalone="no"?>
<!-- Created with Inkscape (http://www.inkscape.org/) -->

<svg
   width="30.85494mm"
   height="31.08906mm"
   viewBox="0 0 30.854941 31.08906"
   version="1.1"
   id="svg214"
   sodipodi:docname="LMLStair Voll Gewendelt Quadrat.svg"
   inkscape:version="1.2 (dc2aedaf03, 2022-05-15)"
   xmlns:inkscape="http://www.inkscape.org/namespaces/inkscape"
   xmlns:sodipodi="http://sodipodi.sourceforge.net/DTD/sodipodi-0.dtd"
   xmlns="http://www.w3.org/2000/svg"
   xmlns:svg="http://www.w3.org/2000/svg">
  <sodipodi:namedview
     id="namedview216"
     pagecolor="#ffffff"
     bordercolor="#999999"
     borderopacity="1"
     inkscape:showpageshadow="0"
     inkscape:pageopacity="0"
     inkscape:pagecheckerboard="0"
     inkscape:deskcolor="#d1d1d1"
     inkscape:document-units="mm"
     showgrid="false"
     inkscape:zoom="0.5946522"
     inkscape:cx="237.95422"
     inkscape:cy="82.401108"
     inkscape:window-width="1920"
     inkscape:window-height="1129"
     inkscape:window-x="-8"
     inkscape:window-y="-8"
     inkscape:window-maximized="1"
     inkscape:current-layer="layer1" />
  <defs
     id="defs211" />
  <g
     inkscape:label="Ebene 1"
     inkscape:groupmode="layer"
     id="layer1"
     transform="translate(-131.84699,-94.80007)">
    <path
       id="path209"
       style="fill:#000000;stroke-width:0.425873"
       d="m -627.45467,-626.40168 v 22.99704 22.99705 h 2.7156 2.71611 l 0.5302,0.63924 0.45785,0.55139 h 1.21388 l 0.45786,-0.55139 0.5302,-0.63924 h 2.71611 2.7156 v -22.99705 -22.99704 h -7.02645 z m 0.85163,0.85163 h 2.7683 2.76779 v 0.33124 0.33125 l -0.663,0.94619 -0.6625,0.94672 h -2.10529 -2.1053 v -1.27796 z m 6.81405,0 h 2.76779 2.76831 v 1.27744 1.27796 h -2.1053 -2.10478 l -0.66301,-0.94672 -0.66301,-0.94619 v -0.33125 z m -6.81405,2.98121 1.38389,0.005 1.38441,0.005 1.59681,0.26407 1.5968,0.26406 v 1.00873 1.00924 h -2.9807 -2.98121 v -1.27796 z m 12.35015,0 v 1.27744 1.27796 h -2.98122 -2.98069 v -1.00924 -1.00873 l 1.5968,-0.26406 1.5968,-0.26407 1.38441,-0.005 z m -12.35015,2.98121 h 2.98121 2.9807 v 1.27744 1.27745 h -2.9807 -2.98121 v -1.27745 z m 6.38824,0 h 2.98069 2.98122 v 1.27744 1.27745 h -2.98122 -2.98069 v -1.27745 z m -6.38824,2.98122 h 2.98121 2.9807 v 1.27744 1.27744 h -2.9807 -2.98121 v -1.27744 z m 6.38824,0 h 2.98069 2.98122 v 1.27744 1.27744 h -2.98122 -2.98069 v -1.27744 z m -6.38824,2.98069 h 2.98121 2.9807 v 1.27796 1.27744 h -2.9807 -2.98121 v -1.27744 z m 6.38824,0 h 2.98069 2.98122 v 1.27796 1.27744 h -2.98122 -2.98069 v -1.27744 z m -6.38824,2.98122 h 2.98121 2.9807 v 1.27795 1.27745 h -2.9807 -2.98121 v -1.27745 z m 6.38824,0 h 2.98069 2.98122 v 1.27795 1.27745 h -2.98122 -2.98069 v -1.27745 z m -6.38824,2.98121 h 2.98121 2.9807 v 1.27744 1.27796 h -2.9807 -2.98121 v -1.27796 z m 6.38824,0 h 2.98069 2.98122 v 1.27744 1.27796 h -2.98122 -2.98069 v -1.27796 z m -6.38824,2.98121 h 2.98121 2.9807 v 1.27744 1.27745 h -2.9807 -2.98121 v -1.27745 z m 6.38824,0 h 2.98069 2.98122 v 1.27744 1.27745 h -2.98122 -2.98069 v -1.27745 z m -6.38824,2.98122 h 2.98121 2.9807 v 1.27744 1.27744 h -2.9807 -2.98121 v -1.27744 z m 6.38824,0 h 2.98069 2.98122 v 1.27744 1.27744 h -2.98122 -2.98069 v -1.27744 z m -6.38824,2.98069 h 2.98121 2.9807 v 1.27796 1.27744 h -2.9807 -2.98121 v -1.27744 z m 6.38824,0 h 2.98069 2.98122 v 1.27796 1.27744 h -2.98122 -2.98069 v -1.27744 z m -6.38824,2.98122 h 2.98121 2.9807 v 1.27795 1.27745 h -2.9807 -2.98121 v -1.27745 z m 6.38824,0 h 2.98069 2.98122 v 1.27795 1.27745 h -2.98122 -2.98069 v -1.27745 z m -6.38824,2.98121 h 2.98121 2.9807 v 1.27744 1.27796 h -2.9807 -2.98121 v -1.27796 z m 6.38824,0 h 2.98069 2.98122 v 1.27744 1.27796 h -2.98122 -2.98069 v -1.27796 z m -6.38824,2.98121 h 2.98121 2.9807 v 1.27744 1.27796 h -2.9807 -2.98121 v -1.27796 z m 6.38824,0 h 2.98069 2.98122 v 1.27744 1.27796 h -2.98122 -2.98069 v -1.27796 z m -6.38824,2.98122 h 2.98121 2.9807 v 1.27744 1.27744 h -2.9807 -2.98121 v -1.27744 z m 6.38824,0 h 2.98069 2.98122 v 1.27744 1.27744 h -2.98122 -2.98069 v -1.27744 z m -6.38824,2.98069 h 2.98121 2.9807 v 0.35192 0.3514 l -0.98547,0.92604 -0.98547,0.92604 h -1.99575 -1.99522 v -1.27744 z m 6.38824,0 h 2.98069 2.98122 v 1.27796 1.27744 h -2.05517 -2.05518 l -0.92604,-0.98547 -0.92552,-0.98598 v -0.29197 z" />
    <path
       id="path209-1"
       style="fill:#000000;stroke-width:0.425873"
       d="m 162.70193,94.80007 h -14.69264 -14.69265 v 2.72283 2.72232 l -0.63872,0.24546 -0.63872,0.24495 v 1.0914 1.09141 l 0.63872,0.24495 0.63872,0.24546 v 2.71353 2.71301 l 8.15196,0.11575 8.15247,0.11576 0.447,0.70952 0.44701,0.70951 -0.55966,0.6749 -0.55966,0.67438 h -8.0393 -8.03982 v 7.02696 7.02696 h 14.69265 14.69264 v -15.54479 z m -0.81029,13.10153 -0.12712,2.74867 -0.12713,2.74867 -2.16472,-0.60359 -2.16524,-0.60409 v -1.8247 -1.82469 l 2.12235,-0.48989 2.12235,-0.4899 0.1695,0.1695 z m -0.0413,-12.2499 -0.032,1.81023 -0.032,1.8097 -3.1874,2.7125 -3.1874,2.71198 -1.03921,-0.97617 -1.03922,-0.97668 0.032,-0.24495 0.0326,-0.24546 2.13889,-3.300579 2.13889,-3.30057 h 2.08721 z m 0,4.68499 v 3.17758 3.17758 l -1.81022,0.46302 -1.80971,0.46354 -0.52917,0.17725 -0.52865,0.17725 -0.64234,-1.24178 -0.64234,-1.24179 v -0.1819 -0.18242 l 2.72749,-2.39417 2.72696,-2.39416 h 0.25425 z m 0,13.72887 v 3.39411 3.39462 l -1.38389,-1.15703 -1.38441,-1.15755 -1.59681,-1.43454 -1.59731,-1.43506 0.0527,-0.32039 0.0522,-0.32039 0.47438,-0.9586 0.47439,-0.95808 h 0.56224 0.56224 l 1.89239,0.47645 z m 0,7.62796 v 1.67173 1.67173 h -2.13217 -2.13217 l -1.9513,-3.04374 -1.95078,-3.04374 -0.18811,-0.49041 -0.1881,-0.48989 1.00046,-0.93948 1.00045,-0.93999 3.2706,2.80189 z m -5.03277,-26.08626 -0.32762,0.55449 -0.32763,0.555 -1.70429,2.76779 -1.70429,2.76831 -0.0672,0.10852 -0.0672,0.10852 -1.34669,-0.46974 -1.34669,-0.46922 0.03,-0.27802 0.03,-0.2775 0.98547,-2.5554 0.98599,-2.5554 2.43034,-0.12868 z m -0.0672,29.42972 h -2.48253 -2.48305 l -0.77153,-2.44842 -0.77102,-2.44895 -0.18448,-0.48163 -0.18397,-0.48162 1.31052,-0.45682 1.31103,-0.45682 1.12448,1.79007 1.12499,1.79007 1.00304,1.59732 z m -0.0103,-16.18299 v 1.49035 1.49087 h -0.39377 -0.39326 l -2.16162,-0.4992 -2.16215,-0.49919 v -0.3359 -0.33641 l 2.20659,-0.65526 2.20658,-0.65526 h 0.34882 z m -0.42633,-1.54047 v 0.48938 0.48989 l -2.37505,0.53123 -2.37556,0.53175 -0.1695,-0.1695 -0.16898,-0.1695 1.96577,-1.64331 1.96577,-1.64331 0.57878,0.79169 z m 0,5.43378 v 0.31419 0.31419 l -0.59169,0.80977 -0.59221,0.80977 -1.96319,-1.60869 -1.96319,-1.60868 v -0.18397 -0.18449 h 0.25373 0.25425 l 2.30115,0.6687 z m -1.70325,-8.04757 v 0.34519 0.3452 l -1.93528,1.58544 -1.93477,1.58543 -0.35192,-0.38551 -0.3514,-0.38602 1.23351,-1.91668 1.23352,-1.91616 0.42892,-0.14676 0.42839,-0.14676 0.62477,0.51831 z m 0,10.72285 v 0.31161 0.3111 l -0.91777,0.64285 -0.91726,0.64286 -1.1281,-1.79008 -1.12758,-1.78955 -0.30386,-0.50281 -0.30385,-0.50281 0.42995,-0.26562 0.42994,-0.26614 1.91927,1.60404 z m -2.51406,-12.24162 -1.40457,2.40243 -1.40456,2.40244 -0.74569,0.008 v 5.2e-4 l -0.74518,0.008 0.0336,-0.31936 0.0336,-0.31988 0.8537,-2.44843 0.85369,-2.44895 0.70952,0.007 0.71004,0.006 0.55293,0.35089 z m -0.0207,14.23892 -0.24856,0.40152 -0.24805,0.40205 h -1.00562 -1.00511 l -0.73484,-2.23604 -0.73535,-2.23604 -0.19637,-0.53227 -0.19638,-0.53227 h 0.67128 0.67128 l 1.5136,2.36627 z m -0.81494,-21.76818 -0.29765,0.9586 -0.29714,0.95808 -0.74311,1.91616 -0.74311,1.91668 -1.33015,0.13332 -1.33067,0.13333 0.0594,-0.34623 0.0589,-0.34623 0.42633,-2.661859 0.42582,-2.66185 h 1.88567 z m -0.11317,29.38528 h -1.83968 -1.83916 l -0.30128,-2.40863 -0.30075,-2.40916 -0.23152,-0.60358 -0.23151,-0.60306 1.40509,0.13746 1.40456,0.13797 0.96738,2.87476 z m -2.12959,-22.99704 -0.96944,2.87476 -0.96894,2.87476 -0.70641,0.13746 -0.7059,0.13798 0.0336,-0.98961 0.0336,-0.9896 0.14417,-0.42582 0.1447,-0.42581 0.26716,-1.5968 0.26665,-1.59732 h 1.23042 z m 0,16.60932 h -1.21439 -1.2144 l -0.46095,-2.15026 -0.46095,-2.15077 v -0.86196 -0.86196 l 0.7059,0.13797 0.70641,0.13746 0.96894,2.87476 z m -1.9823,-22.99756 -0.21963,0.57206 -0.21911,0.57206 -0.30127,2.40915 -0.30076,2.40916 h -1.44177 -1.44125 l 0.0713,-1.3839 0.0718,-1.38441 0.16691,-1.5968 0.16692,-1.59732 h 1.7234 z m 0,29.38528 h -1.68982 -1.6893 l -0.26872,-2.23552 -0.2682,-2.23604 -0.004,-0.74517 -0.004,-0.74518 h 1.44125 1.44178 l 0.30075,2.40916 0.30128,2.40864 0.21911,0.57206 z m -1.27176,-22.99704 -0.29197,2.02313 -0.29197,2.02262 -0.22841,0.9586 -0.22841,0.95808 h -1.01854 -1.01855 l 0.0832,-0.10646 0.0837,-0.10645 0.14883,-2.87476 0.14883,-2.87476 h 1.30642 z m -0.0966,16.03985 v 0.28473 0.28474 h -1.24282 -1.24282 l -0.14159,-2.98225 -0.14108,-2.98173 0.91416,5.2e-4 0.91467,0.001 0.46974,2.69648 z m -2.94245,-22.42809 -0.1261,2.87476 -0.12557,2.87476 -1.1715,0.13488 -1.17099,0.13487 v -3.009629 -3.00964 h 1.29708 z m 0,29.38528 h -1.29708 -1.29708 v -3.00911 -3.00964 l 1.17099,0.13488 1.1715,0.13487 0.12557,2.87476 z m -0.46458,-22.99704 v 2.98121 2.98122 h -1.06505 -1.06453 v -2.98122 -2.98121 h 1.06453 z m 0,10.64689 v 2.98122 2.98121 h -1.06505 -1.06453 v -2.98121 -2.98122 h 1.06453 z M 139.7049,95.6517 v 2.98121 2.98122 h -1.27744 -1.27796 V 98.63291 95.6517 h 1.27796 z m 0,6.38824 v 2.98121 2.98122 h -1.27744 -1.27796 v -2.98122 -2.98121 h 1.27796 z m 0,10.64689 v 2.98122 2.98121 h -1.00924 -1.00872 l -0.26407,-1.59732 -0.26406,-1.5968 -0.005,-1.38441 -0.005,-1.3839 h 1.27805 z m 0,6.38824 v 2.98122 2.98069 h -1.27744 -1.27796 l 0.0641,-1.8097 0.0636,-1.81023 0.17777,-1.17099 0.17725,-1.17099 h 1.03611 z M 136.72369,95.6517 v 2.98121 2.98122 h -0.42581 -0.42582 l -0.85162,-0.85163 -0.85215,-0.851629 V 97.78129 95.6517 h 1.27796 z m 0,6.38824 v 2.98121 2.98122 h -1.27744 -1.27796 l 0.0357,-2.23604 0.0357,-2.23552 0.81597,-0.7457 0.81649,-0.74517 h 0.42581 z m 0,10.64689 v 2.1053 2.1053 l -0.94619,0.66301 -0.94672,0.66301 h -0.33124 -0.33125 v -2.76831 -2.76831 h 1.27796 z m 0,8.14008 v 2.10529 2.10478 h -1.27744 -1.27796 v -2.76778 -2.76831 h 0.33125 0.33124 l 0.94672,0.66301 z m -4.68447,-25.175209 h -0.19223 v 2.98121 h 0.19223 v -1.49035 z" />
  </g>
</svg>
