<?xml version="1.0" encoding="UTF-8" standalone="no"?>
<!-- Created with Inkscape (http://www.inkscape.org/) -->

<svg
   width="36.625156mm"
   height="31.08906mm"
   viewBox="0 0 36.625157 31.089059"
   version="1.1"
   id="svg214"
   sodipodi:docname="LMLStair Podesttreppe90.svg"
   inkscape:version="1.2 (dc2aedaf03, 2022-05-15)"
   xmlns:inkscape="http://www.inkscape.org/namespaces/inkscape"
   xmlns:sodipodi="http://sodipodi.sourceforge.net/DTD/sodipodi-0.dtd"
   xmlns="http://www.w3.org/2000/svg"
   xmlns:svg="http://www.w3.org/2000/svg">
  <sodipodi:namedview
     id="namedview216"
     pagecolor="#ffffff"
     bordercolor="#999999"
     borderopacity="1"
     inkscape:showpageshadow="0"
     inkscape:pageopacity="0"
     inkscape:pagecheckerboard="0"
     inkscape:deskcolor="#d1d1d1"
     inkscape:document-units="mm"
     showgrid="false"
     inkscape:zoom="0.2102413"
     inkscape:cx="-68.968371"
     inkscape:cy="-271.11705"
     inkscape:window-width="1920"
     inkscape:window-height="1129"
     inkscape:window-x="-8"
     inkscape:window-y="-8"
     inkscape:window-maximized="1"
     inkscape:current-layer="layer1" />
  <defs
     id="defs211" />
  <g
     inkscape:label="Ebene 1"
     inkscape:groupmode="layer"
     id="layer1"
     transform="translate(-62.229795,-15.917335)">
    <path
       id="path209"
       style="fill:#000000;stroke-width:0.425873"
       d="M 98.85495,15.917335 H 81.181093 63.507753 v 2.92902 2.92902 l -0.639237,0.5302 -0.638721,0.5302 v 0.534335 0.534851 l 0.638721,0.5302 0.639237,0.529683 v 2.503207 2.503203 h 10.646379 10.646895 v 1.49035 1.49087 H 74.154132 63.507753 v 7.02696 7.02696 h 17.67334 17.673857 v -15.54479 z m -0.851628,0.851627 v 14.692642 14.69264 h -6.388241 -6.38824 v -2.98069 -2.98122 h 3.19412 3.19412 v -8.51782 -8.517311 h -3.19412 -3.19412 v -3.19412 -3.194121 h 6.38824 z m -6.814054,6.814055 v 8.091497 8.09201 h -2.923336 -2.923336 l 0.0093,-8.09201 0.0088,-8.091497 h 2.914551 z m -6.388241,-6.814055 v 3.194121 3.19412 h -1.277441 -1.277442 v -3.19412 -3.194121 h 1.277442 z m 0,6.814055 v 2.768306 2.768307 h -1.277441 -1.277442 v -2.768307 -2.768306 h 1.277442 z m 0,10.221077 v 2.98122 2.98121 h -1.277441 -1.277442 v -2.98121 -2.98122 h 1.277442 z m 0,6.38824 v 2.98122 2.98069 h -1.277441 -1.277442 v -2.98069 -2.98122 h 1.277442 z M 81.819814,16.768962 v 3.194121 3.19412 h -1.277442 -1.277441 v -3.19412 -3.194121 h 1.277441 z m 0,6.814055 v 2.768306 2.768307 h -1.277442 -1.277441 v -2.768307 -2.768306 h 1.277441 z m 0,10.221077 v 2.98122 2.98121 h -1.277442 -1.277441 v -2.98121 -2.98122 h 1.277441 z m 0,6.38824 v 2.98122 2.98069 h -1.277442 -1.277441 v -2.98069 -2.98122 h 1.277441 z M 78.839117,16.768962 v 3.194121 3.19412 h -1.277958 -1.277442 v -3.19412 -3.194121 h 1.277442 z m 0,6.814055 v 2.768306 2.768307 h -1.277958 -1.277442 v -2.768307 -2.768306 h 1.277442 z m 0,10.221077 v 2.98122 2.98121 h -1.277958 -1.277442 v -2.98121 -2.98122 h 1.277442 z m 0,6.38824 v 2.98122 2.98069 h -1.277958 -1.277442 v -2.98069 -2.98122 h 1.277442 z M 75.857904,16.768962 v 3.194121 3.19412 h -1.277442 -1.277958 v -3.19412 -3.194121 h 1.277958 z m 0,6.814055 v 2.768306 2.768307 h -1.277442 -1.277958 v -2.768307 -2.768306 h 1.277958 z m 0,10.221077 v 2.98122 2.98121 h -1.277442 -1.277958 v -2.98121 -2.98122 h 1.277958 z m 0,6.38824 v 2.98122 2.98069 h -1.277442 -1.277958 v -2.98069 -2.98122 h 1.277958 z M 72.87669,16.768962 v 3.194121 3.19412 h -1.277441 -1.277958 v -3.19412 -3.194121 h 1.277958 z m 0,6.814055 v 2.768306 2.768307 h -1.277441 -1.277958 v -2.768307 -2.768306 h 1.277958 z m 0,10.221077 v 2.98122 2.98121 h -1.277441 -1.277958 v -2.98121 -2.98122 h 1.277958 z m 0,6.38824 v 2.98122 2.98069 h -1.277441 -1.277958 v -2.98069 -2.98122 h 1.277958 z M 69.895477,16.768962 v 3.194121 3.19412 h -1.277442 -1.277441 v -3.19412 -3.194121 h 1.277441 z m 0,6.814055 v 2.768306 2.768307 h -1.277442 -1.277441 v -2.768307 -2.768306 h 1.277441 z m 0,10.221077 v 2.98122 2.98121 h -1.008724 -1.009241 l -0.26355,-1.59732 -0.264066,-1.5968 -0.0047,-1.38441 -0.0047,-1.3839 h 1.277441 z m 0,6.38824 v 2.98122 2.98069 h -1.277442 -1.277441 l 0.06356,-1.8097 0.06408,-1.81023 0.17725,-1.17099 0.17725,-1.17099 h 1.036629 z M 66.914263,16.768962 v 3.194121 3.19412 h -0.351399 -0.3514 l -0.926042,-0.98547 -0.926041,-0.985986 v -2.208134 -2.208651 h 1.277441 z m 0,6.814055 v 2.768306 2.768307 H 65.636822 64.359381 V 27.277365 25.4351 l 0.985469,-0.926042 0.98547,-0.926041 h 0.291972 z m 0,10.221077 v 2.1053 2.1053 l -0.946195,0.66301 -0.946712,0.66301 H 64.69011 64.359381 v -2.76831 -2.76831 h 1.277441 z m 0,8.14008 v 2.10529 2.10478 h -1.277441 -1.277441 v -2.76778 -2.76831 h 0.330729 0.331246 l 0.946712,0.66301 z" />
  </g>
</svg>
