<?xml version="1.0" encoding="UTF-8" standalone="no"?>
<!-- Created with Inkscape (http://www.inkscape.org/) -->

<svg
   width="36.625149mm"
   height="35.773533mm"
   viewBox="0 0 36.625149 35.773533"
   version="1.1"
   id="svg214"
   inkscape:version="1.2 (dc2aedaf03, 2022-05-15)"
   sodipodi:docname="LMLStair Treppe Rechter Winkel90.svg"
   xmlns:inkscape="http://www.inkscape.org/namespaces/inkscape"
   xmlns:sodipodi="http://sodipodi.sourceforge.net/DTD/sodipodi-0.dtd"
   xmlns="http://www.w3.org/2000/svg"
   xmlns:svg="http://www.w3.org/2000/svg">
  <sodipodi:namedview
     id="namedview216"
     pagecolor="#ffffff"
     bordercolor="#999999"
     borderopacity="1"
     inkscape:showpageshadow="0"
     inkscape:pageopacity="0"
     inkscape:pagecheckerboard="0"
     inkscape:deskcolor="#d1d1d1"
     inkscape:document-units="mm"
     showgrid="false"
     inkscape:zoom="2.3786088"
     inkscape:cx="46.035313"
     inkscape:cy="162.27973"
     inkscape:window-width="1920"
     inkscape:window-height="1129"
     inkscape:window-x="-8"
     inkscape:window-y="-8"
     inkscape:window-maximized="1"
     inkscape:current-layer="layer1" />
  <defs
     id="defs211" />
  <g
     inkscape:label="Ebene 1"
     inkscape:groupmode="layer"
     id="layer1"
     transform="translate(-73.55607,-94.117469)">
    <path
       id="path209"
       style="fill:#000000;stroke-width:0.425873"
       d="M 110.18122,94.117469 H 92.50736 74.83402 v 2.71612 2.71611 l -0.63923,0.530201 -0.63872,0.5302 v 0.53434 0.53485 l 0.63872,0.52968 0.63923,0.5302 v 2.71611 2.71612 H 85.4804 96.1273 v 10.8598 10.8598 h 7.02696 7.02696 v -17.88676 z m -0.85163,0.85163 v 6.388241 6.38824 h -3.19412 -3.19412 v -3.40702 -3.40703 h -3.19412 -3.19412 v -2.981211 -2.98122 h 6.38824 z m 0,13.202301 v 1.27744 1.27796 h -3.19412 -3.19412 v -1.27796 -1.27744 h 3.19412 z m 0,2.98121 v 1.27744 1.27796 h -3.19412 -3.19412 v -1.27796 -1.27744 h 3.19412 z m 0,2.98121 v 1.27745 1.27744 h -3.19412 -3.19412 v -1.27744 -1.27745 h 3.19412 z m 0,2.9807 v 1.27796 1.27744 h -3.19412 -3.19412 v -1.27744 -1.27796 h 3.19412 z m 0,2.98121 v 1.27796 1.27744 h -3.19412 -3.19412 v -1.27744 -1.27796 h 3.19412 z m 0,2.98174 v 1.27795 1.27744 l -1.59732,-0.005 -1.5968,-0.005 -1.5968,-0.26406 -1.59732,-0.26355 v -1.00873 -1.00924 h 3.19412 z m 0,2.98069 v 1.49035 1.49086 h -3.19412 -3.19412 l 0.0351,-0.10645 0.0357,-0.10645 0.85525,-1.38441 0.85576,-1.3839 h 2.30321 z m -6.81405,-24.70082 v 3.21376 3.21324 l -2.87476,-0.12557 -2.87476,-0.12609 -0.12506,-3.08767 -0.12506,-3.08767 h 2.99982 z m 0,6.81406 v 1.27744 1.27796 h -2.76831 -2.76779 v -1.27796 -1.27744 h 2.76779 z m 0,2.98121 v 1.27744 1.27796 h -2.76831 -2.76779 v -1.27796 -1.27744 h 2.76779 z m 0,2.98121 v 1.27745 1.27744 h -2.76831 -2.76779 v -1.27744 -1.27745 h 2.76779 z m 0,2.9807 v 1.27796 1.27744 h -2.76831 -2.76779 v -1.27744 -1.27796 h 2.76779 z m 0,2.98121 v 1.27796 1.27744 h -2.76831 -2.76779 v -1.27744 -1.27796 h 2.76779 z m 0,2.9807 v 1.00924 1.00873 l -1.5968,0.26406 -1.59732,0.26407 -1.17099,0.005 v -5.5e-4 l -1.17099,0.005 v -1.27744 -1.27796 h 2.76779 z m -0.0289,5.96294 H 99.7328 96.97948 v -1.49086 -1.49035 h 1.87431 1.8743 l 0.87953,1.49035 z m -6.3593,-34.070271 v 2.98122 2.981211 H 94.8499 93.57245 v -2.981211 -2.98122 h 1.27745 z m 0,6.388241 v 2.98122 2.98121 H 94.8499 93.57245 v -2.98121 -2.98122 h 1.27745 z m -2.98122,-6.388241 v 2.98122 2.981211 h -1.27744 -1.27744 v -2.981211 -2.98122 h 1.27744 z m 0,6.388241 v 2.98122 2.98121 h -1.27744 -1.27744 v -2.98121 -2.98122 h 1.27744 z m -2.98069,-6.388241 v 2.98122 2.981211 h -1.27796 -1.27744 v -2.981211 -2.98122 h 1.27744 z m 0,6.388241 v 2.98122 2.98121 h -1.27796 -1.27744 v -2.98121 -2.98122 h 1.27744 z m -2.98122,-6.388241 v 2.98122 2.981211 h -1.27744 -1.27796 v -2.981211 -2.98122 h 1.27796 z m 0,6.388241 v 2.98122 2.98121 h -1.27744 -1.27796 v -2.98121 -2.98122 h 1.27796 z M 84.203,94.969099 v 2.98122 2.981211 H 82.92556 81.6476 v -2.981211 -2.98122 h 1.27796 z m 0,6.388241 v 2.98122 2.98121 H 82.92556 81.6476 v -2.98121 -2.98122 h 1.27796 z m -2.98121,-6.388241 v 2.98122 2.981211 H 79.94434 78.6669 v -2.981211 -2.98122 h 1.27744 z m 0,6.388241 v 2.98122 2.98121 H 79.94434 78.6669 v -2.98121 -2.98122 h 1.27744 z m -2.98122,-6.388241 v 2.98122 2.981211 h -0.3514 -0.3514 l -0.92604,-0.985471 -0.92604,-0.98599 v -1.99522 -1.99575 h 1.27744 z m 0,6.388241 v 2.98122 2.98121 h -1.27744 -1.27744 v -2.05517 -2.05517 l 0.98547,-0.92604 0.98547,-0.92605 h 0.29197 z" />
  </g>
</svg>
