<?xml version="1.0" encoding="UTF-8" standalone="no"?>
<!-- Created with Inkscape (http://www.inkscape.org/) -->

<svg
   width="35.773533mm"
   height="36.625149mm"
   viewBox="0 0 35.773533 36.625149"
   version="1.1"
   id="svg214"
   inkscape:version="1.2 (dc2aedaf03, 2022-05-15)"
   sodipodi:docname="Treppe Rechter Winkel.svg"
   xmlns:inkscape="http://www.inkscape.org/namespaces/inkscape"
   xmlns:sodipodi="http://sodipodi.sourceforge.net/DTD/sodipodi-0.dtd"
   xmlns="http://www.w3.org/2000/svg"
   xmlns:svg="http://www.w3.org/2000/svg">
  <sodipodi:namedview
     id="namedview216"
     pagecolor="#ffffff"
     bordercolor="#999999"
     borderopacity="1"
     inkscape:showpageshadow="0"
     inkscape:pageopacity="0"
     inkscape:pagecheckerboard="0"
     inkscape:deskcolor="#d1d1d1"
     inkscape:document-units="mm"
     showgrid="false"
     inkscape:zoom="2.3786088"
     inkscape:cx="43.933244"
     inkscape:cy="163.96139"
     inkscape:window-width="1920"
     inkscape:window-height="1129"
     inkscape:window-x="-8"
     inkscape:window-y="-8"
     inkscape:window-maximized="1"
     inkscape:current-layer="layer1" />
  <defs
     id="defs211" />
  <g
     inkscape:label="Ebene 1"
     inkscape:groupmode="layer"
     id="layer1"
     transform="translate(-73.981879,-93.69166)">
    <path
       id="path209"
       style="fill:#000000;stroke-width:0.425873"
       d="m 73.981879,93.69166 v 17.67386 17.67334 h 2.71612 2.71611 l 0.5302,0.63923 0.5302,0.63872 h 0.53434 0.53485 l 0.52968,-0.63872 0.5302,-0.63923 h 2.71611 2.71612 v -10.64638 -10.6469 h 10.8598 10.859801 v -7.02696 -7.02696 H 91.868649 Z m 0.85163,0.851627 h 6.38824 6.38824 v 3.19412 3.194123 h -3.40702 -3.40703 v 3.19412 3.19412 h -2.98121 -2.98122 v -6.38824 z m 13.2023,0 h 1.27744 1.27796 v 3.19412 3.194123 h -1.27796 -1.27744 v -3.194123 z m 2.98121,0 h 1.27744 1.27796 v 3.19412 3.194123 h -1.27796 -1.27744 v -3.194123 z m 2.98121,0 h 1.27745 1.27744 v 3.19412 3.194123 h -1.27744 -1.27745 v -3.194123 z m 2.9807,0 h 1.27796 1.27744 v 3.19412 3.194123 h -1.27744 -1.27796 v -3.194123 z m 2.98121,0 h 1.277961 1.27744 v 3.19412 3.194123 h -1.27744 -1.277961 v -3.194123 z m 2.981741,0 h 1.27795 1.27744 l -0.005,1.597319 -0.005,1.596801 -0.26406,1.596802 -0.26355,1.597321 h -1.00873 -1.00924 v -3.194123 z m 2.98069,0 h 1.49035 1.49086 v 3.19412 3.194123 l -0.10645,-0.0351 -0.10645,-0.0357 -1.38441,-0.85525 -1.3839,-0.855759 v -2.303215 z m -24.700821,6.814053 h 3.21376 3.21324 l -0.12557,2.87476 -0.12609,2.87476 -3.08767,0.12506 -3.08767,0.12506 v -2.99982 z m 6.81406,0 h 1.27744 1.27796 v 2.76831 2.76779 h -1.27796 -1.27744 v -2.76779 z m 2.98121,0 h 1.27744 1.27796 v 2.76831 2.76779 h -1.27796 -1.27744 v -2.76779 z m 2.98121,0 h 1.27745 1.27744 v 2.76831 2.76779 h -1.27744 -1.27745 v -2.76779 z m 2.9807,0 h 1.27796 1.27744 v 2.76831 2.76779 h -1.27744 -1.27796 v -2.76779 z m 2.98121,0 h 1.277961 1.27744 v 2.76831 2.76779 h -1.27744 -1.277961 v -2.76779 z m 2.980701,0 h 1.00924 1.00873 l 0.26406,1.5968 0.26407,1.59732 0.005,1.17099 h -5.5e-4 l 0.005,1.17099 h -1.27744 -1.27796 v -2.76779 z m 5.96294,0.0289 v 2.75384 2.75332 h -1.49086 -1.49035 v -1.87431 -1.8743 l 1.49035,-0.87953 z m -34.070271,6.3593 h 2.98122 2.98121 v 1.27744 1.27745 h -2.98121 -2.98122 v -1.27745 z m 6.38824,0 h 2.98122 2.98121 v 1.27744 1.27745 h -2.98121 -2.98122 v -1.27745 z m -6.38824,2.98122 h 2.98122 2.98121 v 1.27744 1.27744 h -2.98121 -2.98122 v -1.27744 z m 6.38824,0 h 2.98122 2.98121 v 1.27744 1.27744 h -2.98121 -2.98122 v -1.27744 z m -6.38824,2.98069 h 2.98122 2.98121 v 1.27796 1.27744 h -2.98121 -2.98122 v -1.27744 z m 6.38824,0 h 2.98122 2.98121 v 1.27796 1.27744 h -2.98121 -2.98122 v -1.27744 z m -6.38824,2.98122 h 2.98122 2.98121 v 1.27744 1.27796 h -2.98121 -2.98122 v -1.27796 z m 6.38824,0 h 2.98122 2.98121 v 1.27744 1.27796 h -2.98121 -2.98122 v -1.27796 z m -6.38824,2.98121 h 2.98122 2.98121 v 1.27744 1.27796 h -2.98121 -2.98122 v -1.27796 z m 6.38824,0 h 2.98122 2.98121 v 1.27744 1.27796 h -2.98121 -2.98122 v -1.27796 z m -6.38824,2.98121 h 2.98122 2.98121 v 1.27745 1.27744 h -2.98121 -2.98122 v -1.27744 z m 6.38824,0 h 2.98122 2.98121 v 1.27745 1.27744 h -2.98121 -2.98122 v -1.27744 z m -6.38824,2.98122 h 2.98122 2.98121 v 0.3514 0.3514 l -0.98547,0.92604 -0.98599,0.92604 h -1.99522 -1.99575 v -1.27744 z m 6.38824,0 h 2.98122 2.98121 v 1.27744 1.27744 h -2.05517 -2.05517 l -0.92604,-0.98547 -0.92605,-0.98547 v -0.29197 z" />
  </g>
</svg>
