<?xml version="1.0" encoding="UTF-8" standalone="no"?>
<!-- Created with Inkscape (http://www.inkscape.org/) -->

<svg
   width="31.08906mm"
   height="30.854939mm"
   viewBox="0 0 31.08906 30.854939"
   version="1.1"
   id="svg214"
   sodipodi:docname="Voll Gewendelt Quadrat.svg"
   inkscape:version="1.2 (dc2aedaf03, 2022-05-15)"
   xmlns:inkscape="http://www.inkscape.org/namespaces/inkscape"
   xmlns:sodipodi="http://sodipodi.sourceforge.net/DTD/sodipodi-0.dtd"
   xmlns="http://www.w3.org/2000/svg"
   xmlns:svg="http://www.w3.org/2000/svg">
  <sodipodi:namedview
     id="namedview216"
     pagecolor="#ffffff"
     bordercolor="#999999"
     borderopacity="1"
     inkscape:showpageshadow="0"
     inkscape:pageopacity="0"
     inkscape:pagecheckerboard="0"
     inkscape:deskcolor="#d1d1d1"
     inkscape:document-units="mm"
     showgrid="false"
     inkscape:zoom="0.5946522"
     inkscape:cx="236.27256"
     inkscape:cy="82.401108"
     inkscape:window-width="1920"
     inkscape:window-height="1129"
     inkscape:window-x="-8"
     inkscape:window-y="-8"
     inkscape:window-maximized="1"
     inkscape:current-layer="layer1" />
  <defs
     id="defs211" />
  <g
     inkscape:label="Ebene 1"
     inkscape:groupmode="layer"
     id="layer1"
     transform="translate(-131.72993,-94.917131)">
    <path
       id="path209"
       style="fill:#000000;stroke-width:0.425873"
       d="m -627.45467,-626.40168 v 22.99704 22.99705 h 2.7156 2.71611 l 0.5302,0.63924 0.45785,0.55139 h 1.21388 l 0.45786,-0.55139 0.5302,-0.63924 h 2.71611 2.7156 v -22.99705 -22.99704 h -7.02645 z m 0.85163,0.85163 h 2.7683 2.76779 v 0.33124 0.33125 l -0.663,0.94619 -0.6625,0.94672 h -2.10529 -2.1053 v -1.27796 z m 6.81405,0 h 2.76779 2.76831 v 1.27744 1.27796 h -2.1053 -2.10478 l -0.66301,-0.94672 -0.66301,-0.94619 v -0.33125 z m -6.81405,2.98121 1.38389,0.005 1.38441,0.005 1.59681,0.26407 1.5968,0.26406 v 1.00873 1.00924 h -2.9807 -2.98121 v -1.27796 z m 12.35015,0 v 1.27744 1.27796 h -2.98122 -2.98069 v -1.00924 -1.00873 l 1.5968,-0.26406 1.5968,-0.26407 1.38441,-0.005 z m -12.35015,2.98121 h 2.98121 2.9807 v 1.27744 1.27745 h -2.9807 -2.98121 v -1.27745 z m 6.38824,0 h 2.98069 2.98122 v 1.27744 1.27745 h -2.98122 -2.98069 v -1.27745 z m -6.38824,2.98122 h 2.98121 2.9807 v 1.27744 1.27744 h -2.9807 -2.98121 v -1.27744 z m 6.38824,0 h 2.98069 2.98122 v 1.27744 1.27744 h -2.98122 -2.98069 v -1.27744 z m -6.38824,2.98069 h 2.98121 2.9807 v 1.27796 1.27744 h -2.9807 -2.98121 v -1.27744 z m 6.38824,0 h 2.98069 2.98122 v 1.27796 1.27744 h -2.98122 -2.98069 v -1.27744 z m -6.38824,2.98122 h 2.98121 2.9807 v 1.27795 1.27745 h -2.9807 -2.98121 v -1.27745 z m 6.38824,0 h 2.98069 2.98122 v 1.27795 1.27745 h -2.98122 -2.98069 v -1.27745 z m -6.38824,2.98121 h 2.98121 2.9807 v 1.27744 1.27796 h -2.9807 -2.98121 v -1.27796 z m 6.38824,0 h 2.98069 2.98122 v 1.27744 1.27796 h -2.98122 -2.98069 v -1.27796 z m -6.38824,2.98121 h 2.98121 2.9807 v 1.27744 1.27745 h -2.9807 -2.98121 v -1.27745 z m 6.38824,0 h 2.98069 2.98122 v 1.27744 1.27745 h -2.98122 -2.98069 v -1.27745 z m -6.38824,2.98122 h 2.98121 2.9807 v 1.27744 1.27744 h -2.9807 -2.98121 v -1.27744 z m 6.38824,0 h 2.98069 2.98122 v 1.27744 1.27744 h -2.98122 -2.98069 v -1.27744 z m -6.38824,2.98069 h 2.98121 2.9807 v 1.27796 1.27744 h -2.9807 -2.98121 v -1.27744 z m 6.38824,0 h 2.98069 2.98122 v 1.27796 1.27744 h -2.98122 -2.98069 v -1.27744 z m -6.38824,2.98122 h 2.98121 2.9807 v 1.27795 1.27745 h -2.9807 -2.98121 v -1.27745 z m 6.38824,0 h 2.98069 2.98122 v 1.27795 1.27745 h -2.98122 -2.98069 v -1.27745 z m -6.38824,2.98121 h 2.98121 2.9807 v 1.27744 1.27796 h -2.9807 -2.98121 v -1.27796 z m 6.38824,0 h 2.98069 2.98122 v 1.27744 1.27796 h -2.98122 -2.98069 v -1.27796 z m -6.38824,2.98121 h 2.98121 2.9807 v 1.27744 1.27796 h -2.9807 -2.98121 v -1.27796 z m 6.38824,0 h 2.98069 2.98122 v 1.27744 1.27796 h -2.98122 -2.98069 v -1.27796 z m -6.38824,2.98122 h 2.98121 2.9807 v 1.27744 1.27744 h -2.9807 -2.98121 v -1.27744 z m 6.38824,0 h 2.98069 2.98122 v 1.27744 1.27744 h -2.98122 -2.98069 v -1.27744 z m -6.38824,2.98069 h 2.98121 2.9807 v 0.35192 0.3514 l -0.98547,0.92604 -0.98547,0.92604 h -1.99575 -1.99522 v -1.27744 z m 6.38824,0 h 2.98069 2.98122 v 1.27796 1.27744 h -2.05517 -2.05518 l -0.92604,-0.98547 -0.92552,-0.98598 v -0.29197 z" />
    <path
       id="path209-1"
       style="fill:#000000;stroke-width:0.425873"
       d="m 131.72993,94.917131 v 14.692639 14.69265 h 2.72283 2.72232 l 0.24546,0.63872 0.24495,0.63872 h 1.0914 1.09141 l 0.24495,-0.63872 0.24546,-0.63872 h 2.71353 2.71301 l 0.11575,-8.15196 0.11576,-8.15247 0.70952,-0.447 0.70951,-0.44701 0.6749,0.55966 0.67438,0.55966 v 8.0393 8.03982 h 7.02696 7.02696 V 109.60977 94.917131 H 147.2742 Z m 13.10153,0.810287 2.74867,0.127124 2.74867,0.127124 -0.60359,2.164725 -0.60409,2.165239 h -1.8247 -1.82469 l -0.48989,-2.122347 -0.4899,-2.122351 0.1695,-0.169499 z m -12.2499,0.04134 1.81023,0.03204 1.8097,0.03204 2.7125,3.187402 2.71198,3.1874 -0.97617,1.03921 -0.97668,1.03922 -0.24495,-0.032 -0.24546,-0.0326 -3.30058,-2.13889 -3.30057,-2.138887 v -2.087211 z m 4.68499,0 h 3.17758 3.17758 l 0.46302,1.810225 0.46354,1.809709 0.17725,0.529167 0.17725,0.528651 -1.24178,0.64234 -1.24179,0.64234 h -0.1819 -0.18242 l -2.39417,-2.727487 -2.39416,-2.726966 v -0.254248 z m 13.72887,0 h 3.39411 3.39462 l -1.15703,1.383895 -1.15755,1.384411 -1.43454,1.596806 -1.43506,1.59731 -0.32039,-0.0527 -0.32039,-0.0522 -0.9586,-0.47438 -0.95808,-0.47439 v -0.56224 -0.562243 l 0.47645,-1.892391 z m 7.62796,0 h 1.67173 1.67173 v 2.132169 2.132173 l -3.04374,1.9513 -3.04374,1.95078 -0.49041,0.18811 -0.48989,0.1881 -0.93948,-1.00046 -0.93999,-1.00045 2.80189,-3.270604 z m -26.08626,5.032772 0.55449,0.32762 0.555,0.32763 2.76779,1.70429 2.76831,1.70429 0.10852,0.0672 0.10852,0.0672 -0.46974,1.34669 -0.46922,1.34669 -0.27802,-0.03 -0.2775,-0.03 -2.5554,-0.98547 -2.5554,-0.98599 -0.12868,-2.43034 z m 29.42972,0.0672 v 2.48253 2.48305 l -2.44842,0.77153 -2.44895,0.77102 -0.48163,0.18448 -0.48162,0.18397 -0.45682,-1.31052 -0.45682,-1.31103 1.79007,-1.12448 1.79007,-1.12499 1.59732,-1.00304 z m -16.18299,0.0103 h 1.49035 1.49087 v 0.39377 0.39326 l -0.4992,2.16162 -0.49919,2.16215 h -0.3359 -0.33641 l -0.65526,-2.20659 -0.65526,-2.20658 v -0.34882 z m -1.54047,0.42633 h 0.48938 0.48989 l 0.53123,2.37505 0.53175,2.37556 -0.1695,0.1695 -0.1695,0.16898 -1.64331,-1.96577 -1.64331,-1.96577 0.79169,-0.57878 z m 5.43378,0 h 0.31419 0.31419 l 0.80977,0.59169 0.80977,0.59221 -1.60869,1.96319 -1.60868,1.96319 h -0.18397 -0.18449 v -0.25373 -0.25425 l 0.6687,-2.30115 z m -8.04757,1.70325 h 0.34519 0.3452 l 1.58544,1.93528 1.58543,1.93477 -0.38551,0.35192 -0.38602,0.3514 -1.91668,-1.23351 -1.91616,-1.23352 -0.14676,-0.42892 -0.14676,-0.42839 0.51831,-0.62477 z m 10.72285,0 h 0.31161 0.3111 l 0.64285,0.91777 0.64286,0.91726 -1.79008,1.1281 -1.78955,1.12758 -0.50281,0.30386 -0.50281,0.30385 -0.26562,-0.42995 -0.26614,-0.42994 1.60404,-1.91927 z m -12.24162,2.51406 2.40243,1.40457 2.40244,1.40456 0.008,0.74569 h 5.2e-4 l 0.008,0.74518 -0.31936,-0.0336 -0.31988,-0.0336 -2.44843,-0.8537 -2.44895,-0.85369 0.007,-0.70952 0.006,-0.71004 0.35089,-0.55293 z m 14.23892,0.0207 0.40152,0.24856 0.40205,0.24805 v 1.00562 1.00511 l -2.23604,0.73484 -2.23604,0.73535 -0.53227,0.19637 -0.53227,0.19638 v -0.67128 -0.67128 l 2.36627,-1.5136 z m -21.76818,0.81494 0.9586,0.29765 0.95808,0.29714 1.91616,0.74311 1.91668,0.74311 0.13332,1.33015 0.13333,1.33067 -0.34623,-0.0594 -0.34623,-0.0589 -2.66186,-0.42633 -2.66185,-0.42582 v -1.88567 z m 29.38528,0.11317 v 1.83968 1.83916 l -2.40863,0.30128 -2.40916,0.30075 -0.60358,0.23152 -0.60306,0.23151 0.13746,-1.40509 0.13797,-1.40456 2.87476,-0.96738 z m -22.99704,2.12959 2.87476,0.96944 2.87476,0.96894 0.13746,0.70641 0.13798,0.7059 -0.98961,-0.0336 -0.9896,-0.0336 -0.42582,-0.14417 -0.42581,-0.1447 -1.5968,-0.26716 -1.59732,-0.26665 v -1.23042 z m 16.60932,0 v 1.21439 1.2144 l -2.15026,0.46095 -2.15077,0.46095 h -0.86196 -0.86196 l 0.13797,-0.7059 0.13746,-0.70641 2.87476,-0.96894 z m -22.99756,1.9823 0.57206,0.21963 0.57206,0.21911 2.40915,0.30127 2.40916,0.30076 v 1.44177 1.44125 l -1.3839,-0.0713 -1.38441,-0.0718 -1.5968,-0.16691 -1.59732,-0.16692 v -1.7234 z m 29.38528,0 v 1.68982 1.6893 l -2.23552,0.26872 -2.23604,0.2682 -0.74517,0.004 -0.74518,0.004 v -1.44125 -1.44178 l 2.40916,-0.30075 2.40864,-0.30128 0.57206,-0.21911 z m -22.99704,1.27176 2.02313,0.29197 2.02262,0.29197 0.9586,0.22841 0.95808,0.22841 v 1.01854 1.01855 l -0.10646,-0.0832 -0.10645,-0.0837 -2.87476,-0.14883 -2.87476,-0.14883 V 113.162 Z m 16.03985,0.0966 h 0.28473 0.28474 v 1.24282 1.24282 l -2.98225,0.14159 -2.98173,0.14108 5.2e-4,-0.91416 0.001,-0.91467 2.69648,-0.46974 z m -22.42809,2.94245 2.87476,0.1261 2.87476,0.12557 0.13488,1.1715 0.13487,1.17099 h -3.00963 -3.00964 v -1.29708 z m 29.38528,0 v 1.29708 1.29708 h -3.00911 -3.00964 l 0.13488,-1.17099 0.13487,-1.1715 2.87476,-0.12557 z m -22.99704,0.46458 h 2.98121 2.98122 v 1.06505 1.06453 h -2.98122 -2.98121 v -1.06453 z m 10.64689,0 h 2.98122 2.98121 v 1.06505 1.06453 h -2.98121 -2.98122 v -1.06453 z m -17.03513,2.5554 h 2.98121 2.98122 v 1.27744 1.27796 h -2.98122 -2.98121 v -1.27796 z m 6.38824,0 h 2.98121 2.98122 v 1.27744 1.27796 h -2.98122 -2.98121 v -1.27796 z m 10.64689,0 h 2.98122 2.98121 v 1.00924 1.00872 l -1.59732,0.26407 -1.5968,0.26406 -1.38441,0.005 -1.3839,0.005 v -1.27805 z m 6.38824,0 h 2.98122 2.98069 v 1.27744 1.27796 l -1.8097,-0.0641 -1.81023,-0.0636 -1.17099,-0.17777 -1.17099,-0.17725 v -1.03611 z m -23.42337,2.98121 h 2.98121 2.98122 v 0.42581 0.42582 l -0.85163,0.85162 -0.85163,0.85215 h -2.12958 -2.12959 v -1.27796 z m 6.38824,0 h 2.98121 2.98122 v 1.27744 1.27796 l -2.23604,-0.0357 -2.23552,-0.0357 -0.7457,-0.81597 -0.74517,-0.81649 v -0.42581 z m 10.64689,0 h 2.1053 2.1053 l 0.66301,0.94619 0.66301,0.94672 v 0.33124 0.33125 h -2.76831 -2.76831 v -1.27796 z m 8.14008,0 h 2.10529 2.10478 v 1.27744 1.27796 h -2.76778 -2.76831 v -0.33125 -0.33124 l 0.66301,-0.94672 z m -25.17521,4.68447 v 0.19223 h 2.98121 v -0.19223 h -1.49035 z" />
  </g>
</svg>
