<?xml version="1.0" encoding="UTF-8" standalone="no"?>
<svg
   xmlns:dc="http://purl.org/dc/elements/1.1/"
   xmlns:cc="http://creativecommons.org/ns#"
   xmlns:rdf="http://www.w3.org/1999/02/22-rdf-syntax-ns#"
   xmlns:svg="http://www.w3.org/2000/svg"
   xmlns="http://www.w3.org/2000/svg"
   xmlns:sodipodi="http://sodipodi.sourceforge.net/DTD/sodipodi-0.dtd"
   xmlns:inkscape="http://www.inkscape.org/namespaces/inkscape"
   width="100"
   height="100"
   viewBox="0 0 26.458333 26.458333"
   version="1.1"
   id="svg24"
   inkscape:version="1.0.2 (e86c870879, 2021-01-15, custom)"
   sodipodi:docname="Raumgrößen_m2_neu.svg">
  <defs
     id="defs18" />
  <sodipodi:namedview
     id="base"
     pagecolor="#ffffff"
     bordercolor="#666666"
     borderopacity="1.0"
     inkscape:pageopacity="0.0"
     inkscape:pageshadow="2"
     inkscape:zoom="1.979899"
     inkscape:cx="23.545919"
     inkscape:cy="127.47995"
     inkscape:document-units="mm"
     inkscape:current-layer="layer1-3"
     inkscape:document-rotation="0"
     showgrid="false"
     units="px"
     width="100px"
     inkscape:window-width="1212"
     inkscape:window-height="864"
     inkscape:window-x="1972"
     inkscape:window-y="52"
     inkscape:window-maximized="0" />
  <metadata
     id="metadata21">
    <rdf:RDF>
      <cc:Work
         rdf:about="">
        <dc:format>image/svg+xml</dc:format>
        <dc:type
           rdf:resource="http://purl.org/dc/dcmitype/StillImage" />
        <dc:title></dc:title>
      </cc:Work>
    </rdf:RDF>
  </metadata>
  <g
     inkscape:label="Ebene 1"
     inkscape:groupmode="layer"
     id="layer1">
    <g
       inkscape:label="Ebene 1"
       id="layer1-3"
       transform="matrix(0.12542424,0,0,0.12542424,-0.04075864,-0.09554795)">
      <rect
         style="fill:#696969;stroke-width:0.297871"
         id="rect142"
         width="210.46138"
         height="211.66708"
         x="0.32496622"
         y="0.76179808"
         rx="0.72187656"
         ry="22.748377" />
      <rect
         style="fill:#808080;stroke-width:0.214448"
         id="rect142-1"
         width="109.47384"
         height="210.91368"
         x="101.31249"
         y="0.76179808"
         rx="0.37549222"
         ry="22.667408" />
      <g
         id="g124"
         transform="matrix(1.0798346,0,0,1.0798346,-59.736094,-71.069935)"
         style="fill:#fffafa">
        <path
           style="fill:#fffafa;fill-opacity:1;stroke-width:0.352778"
           d="m 72.416766,168.50179 c 0,-38.51452 0.04124,-54.27046 0.09164,-35.0132 0.0504,19.25726 0.0504,50.76913 0,70.02639 -0.0504,19.25726 -0.09164,3.50132 -0.09164,-35.01319 z m 10.230539,0 c 0,-38.32049 0.04125,-53.99705 0.09166,-34.83681 0.05041,19.16024 0.05041,50.51337 0,69.67361 -0.05041,19.16025 -0.09166,3.48368 -0.09166,-34.8368 z M 206.3876,213.04025 c 4.99621,-0.0552 13.17184,-0.0552 18.16805,0 4.99622,0.0552 0.90841,0.10037 -9.08402,0.10037 -9.99243,0 -14.08025,-0.0452 -9.08403,-0.10037 z m -0.17639,-10.23054 c 4.8992,-0.0553 12.91608,-0.0553 17.81528,0 4.8992,0.0553 0.89076,0.10058 -8.90764,0.10058 -9.7984,0 -13.80684,-0.0453 -8.90764,-0.10058 z m 37.30165,-52.1232 c 0,-28.71611 0.0418,-40.41148 0.0928,-25.9897 0.051,14.42178 0.051,37.91678 -2e-5,52.21111 -0.051,14.29434 -0.0928,2.4947 -0.0928,-26.22141 z m -136.2347,30.33889 c 0.002,-1.16417 0.0678,-1.59789 0.14635,-0.96382 0.0785,0.63406 0.0769,1.58656 -0.004,2.11666 -0.0805,0.53011 -0.14473,0.0113 -0.14275,-1.15284 z m 43.45874,-33.3375 c 0.35119,-0.38806 0.7179,-0.70556 0.81491,-0.70556 0.097,0 -0.11094,0.3175 -0.46213,0.70556 -0.35119,0.38805 -0.7179,0.70555 -0.81491,0.70555 -0.097,0 0.11094,-0.3175 0.46213,-0.70555 z m 58.14771,-10.40695 c 0.001,-1.35819 0.0653,-1.87059 0.1417,-1.13866 0.0764,0.73193 0.0751,1.84318 -0.003,2.46945 -0.0779,0.62626 -0.14041,0.0274 -0.13885,-1.33079 z m -4.61368,-4.30962 c 0.53358,-0.0808 1.4067,-0.0808 1.94028,0 0.53358,0.0808 0.097,0.14696 -0.97014,0.14696 -1.06715,0 -1.50372,-0.0661 -0.97014,-0.14696 z"
           id="path140" />
        <path
           style="fill:#fffafa;fill-opacity:1;stroke-width:0.352778"
           d="m 233.28222,150.15734 c 0,-28.23104 0.0418,-39.7801 0.0928,-25.66458 0.0511,14.11552 0.0511,37.21364 0,51.32917 -0.0511,14.11552 -0.0928,2.56645 -0.0928,-25.66459 z m -126.00766,27.16389 c 0,-1.06715 0.0661,-1.50371 0.14696,-0.97014 0.0808,0.53358 0.0808,1.4067 0,1.94028 -0.0808,0.53358 -0.14696,0.097 -0.14696,-0.97014 z"
           id="path138" />
        <path
           style="fill:#fffafa;fill-opacity:1;stroke-width:0.352778"
           d="m 151.42811,179.26151 c 8e-5,-8.53722 0.0461,-11.97924 0.10225,-7.64894 0.0562,4.33031 0.0561,11.31531 -1.4e-4,15.52222 -0.0563,4.20692 -0.1022,0.66394 -0.10211,-7.87328 z m -44.15355,-5.46806 c 0,-1.06715 0.0661,-1.50371 0.14696,-0.97014 0.0808,0.53358 0.0808,1.40671 0,1.94028 -0.0808,0.53358 -0.14696,0.097 -0.14696,-0.97014 z m 12.24151,-26.23875 c 0,-0.0733 0.27781,-0.35106 0.61736,-0.61736 0.55952,-0.43881 0.572,-0.42633 0.13319,0.1332 -0.46086,0.58764 -0.75055,0.77451 -0.75055,0.48416 z m 67.49347,-9.3918 c 0,-1.26118 0.064,-1.77712 0.14228,-1.14653 0.0783,0.63059 0.0783,1.66246 0,2.29306 -0.0782,0.63059 -0.14228,0.11465 -0.14228,-1.14653 z"
           id="path136" />
        <path
           style="fill:#fffafa;fill-opacity:1;stroke-width:0.352778"
           d="m 119.32518,179.08512 c 0,-8.44021 0.046,-11.89302 0.10232,-7.67292 0.0563,4.22011 0.0563,11.12573 0,15.34584 -0.0563,4.2201 -0.10232,0.76729 -0.10232,-7.67292 z m -12.05062,-8.81944 c 0,-1.06716 0.0661,-1.50372 0.14696,-0.97014 0.0808,0.53357 0.0808,1.4067 0,1.94027 -0.0808,0.53358 -0.14696,0.097 -0.14696,-0.97013 z m 28.77706,-15.78681 c -0.43881,-0.55953 -0.42633,-0.572 0.1332,-0.13319 0.33954,0.26629 0.61736,0.5441 0.61736,0.61736 0,0.29035 -0.2897,0.10347 -0.75056,-0.48417 z m 40.92223,-7.76111 c -0.43881,-0.55953 -0.42634,-0.57201 0.13319,-0.1332 0.58764,0.46086 0.77452,0.75056 0.48417,0.75056 -0.0733,0 -0.35107,-0.27781 -0.61736,-0.61736 z m 16.18458,-4.5852 c 2.57087,-0.0603 6.77774,-0.0603 9.34861,0 2.57087,0.0603 0.46743,0.1096 -4.6743,0.1096 -5.14174,0 -7.24518,-0.0493 -4.67431,-0.1096 z m 0.79375,-13.27508 c 0,-0.0733 0.27781,-0.35107 0.61736,-0.61736 0.55953,-0.43881 0.57201,-0.42633 0.1332,0.13319 -0.46086,0.58764 -0.75056,0.77452 -0.75056,0.48417 z m 14.13896,-7.48092 c 0.0169,-0.41097 0.10052,-0.49456 0.21314,-0.21314 0.10191,0.25466 0.0894,0.55893 -0.0278,0.67616 -0.11722,0.11722 -0.2006,-0.0911 -0.18528,-0.46302 z"
           id="path134" />
        <path
           style="fill:#fffafa;fill-opacity:1;stroke-width:0.352778"
           d="m 108.8722,248.67057 c 14.42178,-0.051 37.91679,-0.051 52.21112,1e-5 14.29433,0.051 2.49469,0.0928 -26.22142,0.0928 -28.71611,-1e-5 -40.411477,-0.0418 -25.9897,-0.0928 z m 78.18388,-23.37156 c 0,-7.08201 0.0471,-9.9792 0.10462,-6.43819 0.0575,3.541 0.0575,9.33538 0,12.87639 -0.0575,3.541 -0.10462,0.64381 -0.10462,-6.4382 z m -79.77792,-58.7375 c 0.002,-1.16417 0.0678,-1.59789 0.14635,-0.96382 0.0785,0.63406 0.0769,1.58656 -0.004,2.11667 -0.0805,0.5301 -0.14473,0.0113 -0.14275,-1.15285 z m 83.8518,-34.88181 c 0,-0.0733 0.27781,-0.35106 0.61736,-0.61736 0.55953,-0.43881 0.572,-0.42633 0.13319,0.1332 -0.46085,0.58764 -0.75055,0.77451 -0.75055,0.48416 z M 120.30982,88.156663 c 20.71246,-0.05027 54.60559,-0.05027 75.31806,0 20.71246,0.05027 3.7659,0.0914 -37.65903,0.0914 -41.42494,0 -58.371501,-0.04113 -37.65903,-0.0914 z"
           id="path132" />
        <path
           style="fill:#fffafa;fill-opacity:1;stroke-width:0.352778"
           d="m 107.26974,163.03373 c 0.003,-0.97014 0.0712,-1.32514 0.15225,-0.7889 0.0811,0.53625 0.0789,1.33 -0.005,1.76389 -0.0837,0.4339 -0.15008,-0.005 -0.14743,-0.97499 z m 82.97827,-30.51528 c 0.35119,-0.38805 0.7179,-0.70555 0.81491,-0.70555 0.097,0 -0.11094,0.3175 -0.46213,0.70555 -0.35119,0.38806 -0.71789,0.70556 -0.81491,0.70556 -0.097,0 0.11095,-0.3175 0.46213,-0.70556 z"
           id="path130" />
        <path
           style="fill:#fffafa;fill-opacity:1;stroke-width:0.352778"
           d="m 196.93364,226.18096 c -1.1e-4,-6.98501 0.047,-9.8925 0.10471,-6.46112 0.0577,3.43139 0.0578,9.14639 2.1e-4,12.7 -0.0576,3.55362 -0.1048,0.74612 -0.10492,-6.23888 z m -57.1472,-46.91945 c 8e-5,-8.53722 0.0461,-11.97924 0.10225,-7.64894 0.0562,4.33031 0.0561,11.31531 -1.4e-4,15.52222 -0.0562,4.20692 -0.10219,0.66394 -0.10211,-7.87328 z m -32.51188,-19.57917 c 0,-1.06715 0.0661,-1.50371 0.14696,-0.97014 0.0808,0.53358 0.0808,1.4067 0,1.94028 -0.0808,0.53358 -0.14696,0.097 -0.14696,-0.97014 z m 3.51025,-16.48708 c 0.92164,-0.0727 2.42976,-0.0727 3.35139,0 0.92164,0.0727 0.16757,0.13213 -1.67569,0.13213 -1.84326,0 -2.59733,-0.0595 -1.6757,-0.13213 z m 76.81737,-7.96497 c 0,-0.0607 0.51594,-0.57665 1.14653,-1.14653 1.14653,-1.03614 1.14653,-1.03614 0.11039,0.11039 -0.96583,1.06872 -1.25692,1.30868 -1.25692,1.03614 z"
           id="path128" />
        <path
           style="fill:#fffafa;fill-opacity:1;stroke-width:0.352778"
           d="m 79.900063,248.07584 c -2.05185,-0.73546 -4.022599,-2.17571 -5.198733,-3.79932 -2.25465,-3.11245 -2.120516,1.96721 -2.019907,-76.49404 0.09158,-71.42375 0.09158,-71.42375 1.075864,-73.428094 1.067136,-2.173068 2.598465,-3.712556 4.934557,-4.960852 1.489497,-0.795916 1.489497,-0.795916 79.277006,-0.795916 77.7875,0 77.7875,0 79.58315,0.947483 2.09966,1.107898 3.82782,2.956129 4.86985,5.208206 0.74283,1.605423 0.74283,1.605423 0.74283,55.933203 0,54.32778 0,54.32778 -0.86706,56.07678 -1.10344,2.22584 -2.94718,4.06958 -5.15735,5.15736 -1.7367,0.85475 -1.7367,0.85475 -20.77319,0.95477 -14.47357,0.076 -19.10185,0.20288 -19.30918,0.52917 -0.14998,0.23602 -0.27667,6.46164 -0.28154,13.8347 -0.009,13.36313 -0.0115,13.41125 -0.84695,15.20549 -0.98772,2.12123 -2.82269,4.05663 -4.89702,5.16504 -1.48993,0.79614 -1.48993,0.79614 -55.64132,0.87116 -44.929194,0.0623 -54.379537,-0.007 -55.491007,-0.40514 z M 187.2494,224.59346 c 0.17639,-13.93473 0.17639,-13.93473 1.04673,-15.63856 1.04509,-2.04596 3.04107,-3.92446 5.26009,-4.9505 1.58544,-0.73308 2.15926,-0.75889 20.68068,-0.93039 19.05001,-0.17639 19.05001,-0.17639 19.05001,-52.3875 0,-52.211114 0,-52.211114 -75.31806,-52.211114 -75.318065,0 -75.318065,0 -75.408546,69.673614 -0.04977,38.32049 -0.01486,69.87258 0.07757,70.11575 0.133842,0.35213 10.780315,0.42395 52.301596,0.35278 52.13354,-0.0894 52.13354,-0.0894 52.30993,-14.02408 z m -77.79975,-27.85235 c -1.80714,-0.73251 -1.73369,0.23667 -2.00381,-26.44119 -0.24047,-23.75033 -0.22239,-24.94597 0.38993,-25.78702 0.60864,-0.83598 0.84425,-0.88712 4.52096,-0.9812 4.87099,-0.12464 5.2955,0.1286 5.62364,3.35467 0.22347,2.19708 0.22347,2.19708 2.37184,0.20808 2.4732,-2.28975 5.41338,-3.78432 8.89613,-4.52214 7.11509,-1.50733 13.38135,0.74344 17.5541,6.30521 0.74646,0.99494 1.46084,1.8475 1.5875,1.89458 0.12666,0.0471 0.61172,-0.47438 1.07791,-1.15878 0.93988,-1.37981 3.31105,-3.45117 5.56281,-4.85945 5.01527,-3.13662 12.79642,-3.46153 18.13318,-0.75719 2.28016,1.15544 5.47746,4.2961 6.81048,6.68983 1.45861,2.61926 2.58181,6.30382 3.01113,9.87778 0.2197,1.82887 0.38183,9.80496 0.3824,18.81255 0.001,15.63756 0.001,15.63756 -1.06131,16.69986 -1.0623,1.0623 -1.0623,1.0623 -4.97015,0.943 -6.09078,-0.18594 -5.60921,1.36581 -5.60921,-18.07421 0,-14.83399 -0.0506,-16.17464 -0.70828,-18.76575 -0.81616,-3.21548 -2.02902,-5.14752 -4.18078,-6.65984 -1.31986,-0.92763 -1.88354,-1.08346 -4.31924,-1.19407 -2.46125,-0.11178 -3.03204,-0.0143 -4.70243,0.80293 -2.30303,1.12677 -4.19794,3.14744 -5.44436,5.80569 -0.92963,1.98261 -0.92963,1.98261 -1.01846,18.73956 -0.0489,9.21632 -0.17021,17.11125 -0.26969,17.54428 -0.33064,1.43927 -1.97567,1.9333 -5.99763,1.8012 -5.57951,-0.18326 -5.03087,1.77975 -5.19357,-18.58255 -0.15039,-18.82014 -0.15787,-18.89119 -2.3538,-22.35309 -1.60718,-2.53372 -3.47409,-3.59764 -6.58899,-3.75493 -2.16164,-0.10916 -2.86795,0.009 -4.49636,0.75494 -2.50546,1.14704 -4.65917,3.3805 -6.02268,6.2457 -1.09123,2.29306 -1.09123,2.29306 -1.18021,18.69723 -0.0489,9.02229 -0.17031,16.75847 -0.2697,17.1915 -0.30609,1.33361 -1.89508,1.86093 -5.53283,1.83614 -1.80439,-0.0123 -3.60373,-0.15329 -3.99852,-0.31332 z m 78.35412,-55.25202 c -0.40124,-0.40124 -0.55437,-1.25548 -0.55437,-3.09256 0,-2.5382 0,-2.5382 4.07351,-6.58939 2.24042,-2.22815 4.7167,-4.87989 5.50283,-5.89274 3.46835,-4.46864 1.58739,-7.19118 -2.85639,-4.1344 -2.73586,1.88194 -3.41264,1.66512 -5.02177,-1.60877 -0.71523,-1.45521 -1.31055,-3.01197 -1.32291,-3.45947 -0.0494,-1.78679 4.27027,-4.43115 8.09226,-4.95384 10.52803,-1.4398 15.91794,8.37173 9.72467,17.70229 -0.6869,1.03485 -1.56864,2.1709 -1.95944,2.52457 -0.39079,0.35366 -0.71053,0.77717 -0.71053,0.94113 0,0.16395 1.10224,0.2981 2.44944,0.2981 3.22659,0 3.54778,0.41734 3.54778,4.60993 0,4.47056 0.67287,4.20951 -10.8505,4.20951 -8.22074,0 -9.63789,-0.0777 -10.11458,-0.55436 z"
           id="path126" />
      </g>
    </g>
  </g>
</svg>
