<?xml version="1.0" encoding="UTF-8" standalone="no"?>
<!-- Created with Inkscape (http://www.inkscape.org/) -->

<svg
   width="100mm"
   height="100mm"
   viewBox="0 0 100 100"
   version="1.1"
   id="svg5"
   xml:space="preserve"
   inkscape:version="1.2 (dc2aedaf03, 2022-05-15)"
   sodipodi:docname="RP_arbeiten.svg"
   xmlns:inkscape="http://www.inkscape.org/namespaces/inkscape"
   xmlns:sodipodi="http://sodipodi.sourceforge.net/DTD/sodipodi-0.dtd"
   xmlns="http://www.w3.org/2000/svg"
   xmlns:svg="http://www.w3.org/2000/svg"><sodipodi:namedview
     id="namedview7"
     pagecolor="#1b11f1"
     bordercolor="#999999"
     borderopacity="1"
     inkscape:showpageshadow="0"
     inkscape:pageopacity="0"
     inkscape:pagecheckerboard="0"
     inkscape:deskcolor="#d1d1d1"
     inkscape:document-units="mm"
     showgrid="false"
     inkscape:zoom="0.4204826"
     inkscape:cx="-11.891098"
     inkscape:cy="566.01629"
     inkscape:window-width="1920"
     inkscape:window-height="1129"
     inkscape:window-x="-8"
     inkscape:window-y="-8"
     inkscape:window-maximized="1"
     inkscape:current-layer="layer1" /><defs
     id="defs2" /><g
     inkscape:label="Ebene 1"
     inkscape:groupmode="layer"
     id="layer1"><path
       id="rect356"
       style="fill:#ffffff;stroke:none;stroke-width:1.74824;stroke-linecap:round;paint-order:markers fill stroke"
       d="m 50.702959,45.648255 -2.265053,0.267962 -2.265053,0.267962 -0.268385,0.217405 -0.267964,0.21698 -1.274092,0.602503 -1.274514,0.602495 -0.183277,0.305882 -0.183277,0.305883 -0.871304,0.482423 -0.871304,0.482839 -0.369082,1.039415 -0.369082,1.039831 v 0.356024 0.356017 l -0.366554,0.559103 -0.366133,0.559104 -0.09058,1.898914 -0.09101,1.898499 0.45714,0.642103 0.457139,0.641679 -4.22e-4,0.829593 v 0.829593 l -0.660218,1.395432 -0.660219,1.395439 0.217404,0.476944 0.217405,0.476521 0.604604,0.06955 0.605025,0.06906 -0.03118,0.862874 -0.03118,0.862883 0.302092,0.173165 0.302091,0.173589 -0.132297,0.52623 -0.131875,0.526238 0.500958,0.185387 0.500536,0.184963 0.223303,1.164542 0.223303,1.16455 2.234296,0.06196 2.234296,0.06148 -0.120921,0.369926 -0.120499,0.369501 -0.439866,1.186458 -0.439443,1.186457 0.129347,0.83676 0.129347,0.836752 0.428068,0.725526 0.42849,0.725942 -0.276812,1.079863 -0.277233,1.080279 H 45.98747 45.775543 L 45.38076,77.921864 44.986398,77.565 v 0.313888 0.313474 l 0.244369,0.244366 0.24437,0.244371 -0.133139,0.347178 -0.13314,0.34717 -0.704458,0.299564 -0.704459,0.299564 -0.89574,-0.521184 -0.895741,-0.520759 0.113337,0.433129 0.113336,0.433545 0.541827,0.426378 0.541826,0.425963 0.779876,0.0065 0.779876,0.0065 -0.604182,0.531293 -0.603762,0.531717 -0.834649,-0.425962 -0.834226,-0.425539 -0.988433,-0.666962 -0.988432,-0.667386 v -0.173165 -0.173581 l -0.616401,-0.123455 -0.61598,-0.123023 -1.389536,-0.871309 -1.389114,-0.870881 -0.684657,-0.136932 -0.685076,-0.136933 -1.785584,0.25111 -1.786003,0.251109 -2.34005,0.456301 -2.340049,0.455876 -1.974336,1.048265 -1.974338,1.048261 -0.344224,0.453765 -0.344645,0.453773 -0.380459,1.057947 -0.380457,1.058379 -2.942125,-0.05984 -2.942546,-0.05984 -1.841198,-9.593611 -1.841198,-9.594032 -1.8154983,-0.70741 -1.8159182,-0.707401 -0.3876205,0.123023 -0.388042,0.123031 v 0.277232 0.277233 l 2.2612607,11.734369 2.2616833,11.734797 0.111651,0.469361 0.111652,0.469778 0.377509,0.09859 0.377087,0.09859 -9.4377205,0.02528 -9.4377199,0.02487 0.051821,10.516319 0.051822,10.516316 0.05814,-10.408458 0.05814,-10.40846 H 16.851451 39.837354 l 0.37161,0.198872 0.371611,0.198864 2.688486,0.343379 2.688065,0.343803 1.617895,0.305043 1.617895,0.305042 1.551325,0.135245 1.551325,0.134821 1.360885,-0.238048 1.360883,-0.238048 0.701088,-0.222044 0.701507,-0.222035 0.138621,-0.553625 0.139036,-0.553625 11.132298,0.19297 11.13229,0.192969 9.707369,-0.05773 9.707369,-0.05772 0.701091,-0.113753 0.126823,-0.02063 V 70.493893 l -0.342963,0.181588 -0.916808,0.48579 -0.698979,-8.15e-4 -0.698564,-4.24e-4 -1.108505,0.420907 -1.108513,0.421323 -0.781563,0.532142 -0.781139,0.532133 -2.198902,0.448717 -2.198486,0.449134 H 87.889668 87.408517 L 87.068081,73.674934 86.727654,73.38548 85.169583,73.101929 83.611936,72.818794 83.136679,72.312784 82.661423,71.80719 H 81.97045 81.279477 l -0.268386,-0.323575 -0.26881,-0.323583 h -0.272178 -0.272177 l -0.323575,-0.493373 -0.323159,-0.493797 -1.108929,-0.301667 -1.108937,-0.302091 -0.532973,-0.69898 -0.533405,-0.698979 -1.672664,-0.910913 -1.672671,-0.911329 -0.349698,-0.29914 -0.349706,-0.29914 -2.670367,-1.350353 -2.670367,-1.350352 -1.617891,-1.172557 -1.617899,-1.172972 -1.078599,-0.811477 -1.078591,-0.811477 -0.44787,-8.15e-4 -0.44787,-8.15e-4 -0.468938,-0.499276 -0.468938,-0.499276 -8.15e-4,-0.741107 -8.15e-4,-0.741115 -0.732269,-1.965908 -0.732261,-1.966333 -0.923127,-1.485182 -0.92271,-1.485597 -0.931133,-1.111041 -0.930704,-1.111033 -1.013292,-0.671601 -1.013712,-0.671169 -0.875517,-0.241423 z m -42.4035916,18.119574 1.3217023,0.494221 1.3212813,0.493797 0.18412,0.451661 0.18412,0.451661 1.640646,8.520911 1.640646,8.520915 0.0948,0.326526 0.09522,0.326535 -1.10177,1.345289 -1.101769,1.345298 h -0.190861 -0.190861 l -0.0025,-0.161784 -0.0025,-0.161791 -2.02911,-10.89383 -2.0291104,-10.893402 0.083002,-0.083 z M 25.545958,81.730262 h 0.351808 0.351808 l -0.447028,0.568366 -0.447028,0.568374 v 0.186642 0.186651 h 0.761759 0.762181 l 0.706986,-0.295349 0.707407,-0.295773 1.86395,-0.264595 1.86395,-0.264594 1.035199,0.351385 1.0352,0.351393 0.418799,0.316833 0.418378,0.316416 h -5.541711 -5.542133 v -0.179484 -0.179908 l 0.850237,-0.682966 z m 9.258235,2.150448 1.100084,1.381954 1.100084,1.38237 v 0.131454 0.131037 l -3.074,-0.05014 -3.074001,-0.05055 -8.915695,-0.111234 -8.915274,-0.111649 1.032672,-1.348241 1.032671,-1.348249 h 2.974989 2.97541 v 0.855292 0.855292 l 0.443235,0.237208 0.443658,0.237208 0.194231,-0.06783 0.194231,-0.06783 0.512334,-0.970733 0.511912,-0.970741 5.731729,-0.05732 z m 28.209507,2.113799 0.669074,0.563311 0.669065,0.562895 0.941243,0.538035 0.941243,0.538036 -3.020073,-0.01394 -3.020065,-0.01386 0.714144,-0.258692 0.714569,-0.259116 0.695612,-0.828329 z m -24.822883,0.945034 0.704459,0.631145 0.704458,0.631153 h -0.866248 -0.866248 l 0.01516,-0.269649 0.01517,-0.26965 0.146622,-0.361504 z" /></g></svg>
