<?xml version="1.0" encoding="UTF-8" standalone="no"?>
<!-- Created with Inkscape (http://www.inkscape.org/) -->

<svg
   width="100mm"
   height="100mm"
   viewBox="0 0 100 100"
   version="1.1"
   id="svg5"
   xml:space="preserve"
   inkscape:version="1.2 (dc2aedaf03, 2022-05-15)"
   sodipodi:docname="RP_Eingangsbereich.svg"
   inkscape:export-filename="RP_eingangsbereich.png"
   inkscape:export-xdpi="96"
   inkscape:export-ydpi="96"
   xmlns:inkscape="http://www.inkscape.org/namespaces/inkscape"
   xmlns:sodipodi="http://sodipodi.sourceforge.net/DTD/sodipodi-0.dtd"
   xmlns="http://www.w3.org/2000/svg"
   xmlns:svg="http://www.w3.org/2000/svg"><sodipodi:namedview
     id="namedview7"
     pagecolor="#1b11f1"
     bordercolor="#999999"
     borderopacity="1"
     inkscape:showpageshadow="0"
     inkscape:pageopacity="0"
     inkscape:pagecheckerboard="0"
     inkscape:deskcolor="#d1d1d1"
     inkscape:document-units="mm"
     showgrid="false"
     inkscape:zoom="0.84096521"
     inkscape:cx="7.7292139"
     inkscape:cy="250.90218"
     inkscape:window-width="1920"
     inkscape:window-height="1129"
     inkscape:window-x="-8"
     inkscape:window-y="-8"
     inkscape:window-maximized="1"
     inkscape:current-layer="layer1" /><defs
     id="defs2"><inkscape:path-effect
       effect="spiro"
       id="path-effect21107"
       is_visible="true"
       lpeversion="1" /><inkscape:path-effect
       effect="spiro"
       id="path-effect21099"
       is_visible="true"
       lpeversion="1" /><inkscape:path-effect
       effect="fillet_chamfer"
       id="path-effect5821"
       is_visible="true"
       lpeversion="1"
       nodesatellites_param="F,0,0,1,0,0,0,1 @ F,0,0,1,0,0,0,1 @ F,0,0,1,0,1.5875,0,1 @ F,0,0,1,0,1.5875,0,1"
       unit="px"
       method="auto"
       mode="F"
       radius="6"
       chamfer_steps="1"
       flexible="false"
       use_knot_distance="true"
       apply_no_radius="true"
       apply_with_radius="true"
       only_selected="false"
       hide_knots="false" /><inkscape:path-effect
       effect="fillet_chamfer"
       id="path-effect5765"
       is_visible="true"
       lpeversion="1"
       nodesatellites_param="F,0,0,1,0,5.55625,0,1 @ F,0,0,1,0,5.55625,0,1 @ F,0,0,1,0,5.55625,0,1 @ F,0,0,1,0,5.55625,0,1"
       unit="px"
       method="auto"
       mode="F"
       radius="21"
       chamfer_steps="1"
       flexible="false"
       use_knot_distance="true"
       apply_no_radius="true"
       apply_with_radius="true"
       only_selected="false"
       hide_knots="false" /><inkscape:path-effect
       effect="fillet_chamfer"
       id="path-effect5761"
       is_visible="true"
       lpeversion="1"
       nodesatellites_param="F,0,0,1,0,3.96875,0,1 @ F,0,0,1,0,3.96875,0,1 @ F,0,0,1,0,3.96875,0,1 @ F,0,0,1,0,3.96875,0,1 @ F,0,0,1,0,3.96875,0,1 | F,0,0,1,0,3.96875,0,1 @ F,0,0,1,0,3.96875,0,1 @ F,0,0,1,0,3.96875,0,1 @ F,0,0,1,0,3.96875,0,1"
       unit="px"
       method="auto"
       mode="F"
       radius="15"
       chamfer_steps="1"
       flexible="false"
       use_knot_distance="true"
       apply_no_radius="true"
       apply_with_radius="true"
       only_selected="false"
       hide_knots="false" /><inkscape:path-effect
       effect="fillet_chamfer"
       id="path-effect5821-8"
       is_visible="true"
       lpeversion="1"
       nodesatellites_param="F,0,0,1,0,0,0,1 @ F,0,0,1,0,0,0,1 @ F,0,0,1,0,1.5875,0,1 @ F,0,0,1,0,1.5875,0,1"
       unit="px"
       method="auto"
       mode="F"
       radius="6"
       chamfer_steps="1"
       flexible="false"
       use_knot_distance="true"
       apply_no_radius="true"
       apply_with_radius="true"
       only_selected="false"
       hide_knots="false" /><inkscape:path-effect
       effect="fillet_chamfer"
       id="path-effect5821-8-6"
       is_visible="true"
       lpeversion="1"
       nodesatellites_param="F,0,0,1,0,0,0,1 @ F,0,0,1,0,0,0,1 @ F,0,0,1,0,1.5875,0,1 @ F,0,0,1,0,1.5875,0,1"
       unit="px"
       method="auto"
       mode="F"
       radius="6"
       chamfer_steps="1"
       flexible="false"
       use_knot_distance="true"
       apply_no_radius="true"
       apply_with_radius="true"
       only_selected="false"
       hide_knots="false" /><inkscape:path-effect
       effect="fillet_chamfer"
       id="path-effect5821-8-6-5"
       is_visible="true"
       lpeversion="1"
       nodesatellites_param="F,0,0,1,0,0,0,1 @ F,0,0,1,0,0,0,1 @ F,0,0,1,0,1.5875,0,1 @ F,0,0,1,0,1.5875,0,1"
       unit="px"
       method="auto"
       mode="F"
       radius="6"
       chamfer_steps="1"
       flexible="false"
       use_knot_distance="true"
       apply_no_radius="true"
       apply_with_radius="true"
       only_selected="false"
       hide_knots="false" /></defs><g
     inkscape:label="Ebene 1"
     inkscape:groupmode="layer"
     id="layer1"><path
       id="rect20291"
       style="fill:#ffffff;stroke:none;stroke-width:1.10353;stroke-linecap:round;stroke-dasharray:none;paint-order:markers fill stroke"
       d="M 88.694729,94.635597 V 48.297366 1.9591335 H 62.854194 37.01366 V 48.296225 94.633317 l 2.234308,0.100444 0.04904,-45.026617 0.04904,-45.0266161 21.322875,0.026231 c 11.727603,0.014556 21.148233,0.057362 20.934523,0.095235 -0.21372,0.037873 -6.727217,0.7232904 -14.47453,1.5231845 C 59.381602,7.1245592 52.671141,7.8303118 52.21699,7.8928437 L 51.391242,8.0068975 V 48.19985 c 0,38.111846 0.01747,40.19784 0.33988,40.291686 0.187005,0.0544 1.605515,0.328049 3.151869,0.607904 2.297528,0.415823 3.110485,0.657365 4.448087,1.32017 1.45666,0.72181 1.803108,0.814969 3.145596,0.846277 1.570034,0.03664 2.320419,0.27687 2.320419,0.743059 0,0.16638 0.513486,0.438146 1.311616,0.694586 1.129611,0.362919 1.426124,0.390262 2.137361,0.197882 0.696206,-0.188307 0.825748,-0.300595 0.825748,-0.716826 0,-0.434704 0.06329,-0.481074 0.533771,-0.387781 0.293861,0.05827 0.884172,0.165232 1.311615,0.2378 1.284355,0.218048 1.707609,0.683629 1.744449,1.917811 0.03591,1.20348 0.02502,1.213217 -1.614998,1.377765 -2.099074,0.210621 -3.141034,0.845569 -3.141034,1.914959 0,0.315071 1.058999,1.145871 1.96229,1.539723 0.08679,0.03784 0.04347,0.07044 -0.164807,0.09923 h 5.343979 l 0.821184,-0.379798 v -5.71e-4 c 1.07461,-0.496977 1.324123,-0.547839 1.698827,-0.347293 0.35512,0.190051 0.672142,0.170852 1.654916,-0.100946 1.111126,-0.307235 3.523993,-1.635564 3.389672,-1.865916 -0.31645,-0.542683 -0.925702,-1.992916 -0.863386,-2.055243 0.04414,-0.04414 2.201803,0.312505 2.201803,0.312505 z M 37.402013,2.1535951 H 62.854194 88.306377 V 48.394311 94.635597 H 87.529102 86.751827 V 49.462993 4.2903875 H 62.854194 38.956561 V 49.462993 94.635597 H 38.179286 37.402013 V 48.394311 Z M 86.363475,4.7631386 V 49.602138 c 0,35.752499 -0.242934,44.818469 -0.242934,44.818469 l -2.426488,-0.451081 c 0,0 -2.21737,-0.468125 -2.25883,-0.513812 -0.197986,-0.218191 -0.941559,-1.834085 -1.381758,-3.003599 -0.296013,-0.786423 -0.490432,-1.706075 -0.490432,-2.319848 0,-0.850428 -0.208179,-1.455881 -1.272837,-3.696475 -0.765918,-1.611877 -1.431679,-3.34594 -1.670313,-4.351712 -0.218174,-0.919564 -0.606942,-2.17168 -0.863955,-2.782906 -0.454327,-1.080459 -0.467155,-1.258395 -0.473323,-6.411518 -0.0058,-4.639862 -0.05122,-5.429956 -0.36554,-6.340235 -0.351594,-1.018125 -0.350608,-1.093224 0.03536,-3.594395 0.216788,-1.40499 0.463736,-2.632843 0.549168,-2.728732 0.08544,-0.09589 0.706547,-0.227007 1.380048,-0.291406 l 1.224364,-0.117476 0.119756,-6.897385 c 0.06577,-3.793513 0.131061,-9.855441 0.145418,-13.470862 0.02406,-6.064026 -0.0053,-6.695184 -0.376376,-8.150264 -0.221502,-0.867531 -0.494922,-1.750041 -0.607906,-1.96115 -0.246395,-0.4604 -2.895574,-3.620845 -3.354313,-4.001566 -0.177869,-0.147616 -0.458592,-0.529512 -0.623873,-0.849129 -0.424638,-0.821158 -0.196775,-3.157574 0.367252,-3.762626 0.352887,-0.378558 0.372301,-0.498234 0.160816,-1.008804 -0.140859,-0.340061 -0.188886,-0.885394 -0.116334,-1.319599 0.171875,-1.028696 -0.362012,-2.040424 -1.852801,-3.512848 -1.381777,-1.364751 -2.356374,-1.712073 -4.3922,-1.564814 -1.210761,0.08757 -1.785404,0.424441 -3.512279,2.058095 -0.659795,0.624177 -0.668421,0.653945 -0.550307,1.845957 0.06602,0.666279 0.04161,1.536779 -0.0536,1.934347 -0.130707,0.54581 -0.10669,0.777644 0.09694,0.946644 0.347776,0.288632 0.334846,0.947698 -0.02794,1.42738 -0.370773,0.490198 -0.372047,1.274549 -0.0017,1.274549 0.167971,0 0.377745,0.336741 0.514381,0.825746 0.126892,0.454154 0.446574,1.011888 0.709984,1.239192 l 0.479025,0.412874 -0.605055,0.357558 c -0.792908,0.468381 -1.111707,1.395514 -1.397155,4.062015 -0.125829,1.175455 -0.345341,2.399598 -0.487578,2.720177 -0.142238,0.320579 -0.395059,2.331427 -0.562285,4.468617 -0.30478,3.895159 -0.79566,8.887779 -1.007091,10.243716 -0.08215,0.526805 -0.300076,0.866804 -0.799516,1.247745 -0.377459,0.287904 -0.982149,0.851079 -1.344121,1.251738 -0.464262,0.513881 -0.882399,0.766482 -1.418826,0.857111 -0.854038,0.144288 -3.372628,1.924816 -3.249955,2.297609 0.04123,0.125331 0.264639,0.256119 0.496704,0.290267 0.232062,0.03414 0.421998,0.142935 0.421998,0.242363 0,0.09943 0.209622,0.180774 0.465338,0.180774 0.255717,0 0.51503,0.131689 0.576541,0.291978 0.08181,0.213213 0.417497,0.291407 1.251167,0.291407 1.059605,0 1.198867,-0.0546 1.981679,-0.777276 0.463014,-0.427453 0.862322,-0.755533 0.887336,-0.728801 0.02501,0.02673 -0.07312,1.534852 -0.217842,3.351462 -0.14472,1.816611 -0.267067,3.631069 -0.272017,4.031792 l -0.0092,0.728232 h 1.360089 c 0.748016,0 1.360088,0.07339 1.360088,0.163096 0,0.08971 -0.459195,0.652928 -1.020208,1.251168 -0.965124,1.029164 -1.082839,1.094531 -2.185837,1.215239 -2.007786,0.219727 -3.38097,1.166404 -3.393663,2.339808 -0.0041,0.375229 -0.181441,0.76221 -0.477313,1.040169 -0.645645,0.606552 -0.844371,1.706592 -0.973447,5.39245 -0.104935,2.996366 -0.02386,3.911422 0.564565,6.375591 0.201828,0.845219 1.779935,1.481912 5.345118,2.156182 0.803338,0.151923 2.072527,0.434253 2.820543,0.627295 l 1.360088,0.351284 0.130592,1.832839 0.13002,1.832841 -0.615888,0.852549 c -0.338789,0.469014 -0.846273,1.099347 -1.127419,1.400577 -0.281152,0.301221 -0.561233,0.747918 -0.622732,0.992837 -0.230258,0.917004 -0.549928,1.101475 -2.266243,1.308764 -1.140972,0.13781 -1.711155,0.295991 -1.845386,0.510959 -0.573107,0.917765 -0.396203,0.900952 -3.49403,0.329045 L 52.077742,88.126563 51.939737,87.349859 C 51.754205,86.304106 51.740271,8.3726464 51.925474,8.3638083 c 0.08015,-0.00389 7.861301,-0.815539 17.291653,-1.8037559 z M 69.688851,85.775922 c 0.104372,-0.02035 0.207312,0.02472 0.25605,0.168227 0.04471,0.131773 0.269137,0.764547 0.498413,1.40571 0.372186,1.040798 1.348113,4.163449 1.348113,4.312934 0,0.0906 -0.583389,0.02602 -1.686851,-0.186477 -0.961811,-0.185218 -1.011931,-0.225903 -1.112592,-0.897602 -0.228962,-1.527843 -0.181439,-2.501697 0.157394,-3.215738 0.190541,-0.401533 0.304638,-0.890807 0.253199,-1.087501 -0.06512,-0.249012 0.112324,-0.46564 0.286274,-0.499553 z"
       sodipodi:nodetypes="cccccccccccscccscsssssssssssssccccscssccccccccccccccccccccsccsssssscccscccccsssssssssscscsscccssssssssssssssssccsssscsssscccccssscccccccscsssssss" /><path
       style="fill:none;stroke:#ffffff;stroke-width:0.780963;stroke-linecap:butt;stroke-linejoin:miter;stroke-dasharray:none;stroke-opacity:1"
       d="M 39.512535,94.587902 H 16.024567"
       id="path21097"
       inkscape:path-effect="#path-effect21099"
       inkscape:original-d="M 39.512535,94.587902 H 16.024567" /><path
       style="fill:none;stroke:#ffffff;stroke-width:0.78351;stroke-linecap:butt;stroke-linejoin:miter;stroke-dasharray:none;stroke-opacity:1"
       d="M 86.238232,94.342403 H 99.618108"
       id="path21105"
       inkscape:path-effect="#path-effect21107"
       inkscape:original-d="M 86.238232,94.342403 H 99.618108" /><circle
       id="path21158"
       style="fill:#ffffff;stroke:#ffffff;stroke-width:0.291976"
       cx="37.137764"
       cy="94.52652"
       r="7.724625e-06" /><circle
       id="path21160"
       style="fill:#ffffff;stroke:#ffffff;stroke-width:0.291976"
       cx="37.137764"
       cy="94.40377"
       r="7.724625e-06" /><path
       style="fill:none;stroke:#ffffff;stroke-width:0.772475;stroke-linecap:butt;stroke-linejoin:miter;stroke-dasharray:none;stroke-opacity:1"
       d="M 37.137766,94.710655 V 2.0222674 H 88.484055 V 94.332131 H 86.422598 V 4.4960158 H 39.117593 V 94.679324"
       id="path21216" /><path
       style="fill:none;stroke:#ffffff;stroke-width:0.292437;stroke-linecap:round;stroke-linejoin:miter;stroke-dasharray:none;stroke-opacity:1"
       d="M 86.010307,94.657624 51.779277,88.299658 V 8.1523883 L 84.708334,4.626213"
       id="path21218" /></g></svg>
