<?xml version="1.0" encoding="UTF-8" standalone="no"?>
<svg
   xmlns:dc="http://purl.org/dc/elements/1.1/"
   xmlns:cc="http://creativecommons.org/ns#"
   xmlns:rdf="http://www.w3.org/1999/02/22-rdf-syntax-ns#"
   xmlns:svg="http://www.w3.org/2000/svg"
   xmlns="http://www.w3.org/2000/svg"
   xmlns:sodipodi="http://sodipodi.sourceforge.net/DTD/sodipodi-0.dtd"
   xmlns:inkscape="http://www.inkscape.org/namespaces/inkscape"
   version="1.1"
   id="Layer_1"
   x="0px"
   y="0px"
   viewBox="0 0 512 512"
   style="enable-background:new 0 0 512 512;"
   xml:space="preserve"
   sodipodi:docname="Räume_Flur.svg"
   inkscape:version="1.0.2 (e86c870879, 2021-01-15, custom)"><metadata
   id="metadata51"><rdf:RDF><cc:Work
       rdf:about=""><dc:format>image/svg+xml</dc:format><dc:type
         rdf:resource="http://purl.org/dc/dcmitype/StillImage" /><dc:title></dc:title></cc:Work></rdf:RDF></metadata><defs
   id="defs49" /><sodipodi:namedview
   pagecolor="#ffffff"
   bordercolor="#666666"
   borderopacity="1"
   objecttolerance="10"
   gridtolerance="10"
   guidetolerance="10"
   inkscape:pageopacity="0"
   inkscape:pageshadow="2"
   inkscape:window-width="1920"
   inkscape:window-height="1137"
   id="namedview47"
   showgrid="false"
   inkscape:zoom="2.0301699"
   inkscape:cx="124.36499"
   inkscape:cy="270.13732"
   inkscape:window-x="1912"
   inkscape:window-y="-8"
   inkscape:window-maximized="1"
   inkscape:current-layer="Layer_1"
   inkscape:document-rotation="0"
   inkscape:object-paths="false" />
<circle
   style="fill:#ffe4e1"
   cx="256"
   cy="256"
   r="256"
   id="circle2" />
<path
   style="fill:#f08080"
   d="M 264.283,511.853 C 390.07,507.854 492.94,413.12 509.618,290.94 l -170.596,-170.596 -19.196,31.975 -14.838,-14.838 -67.25,139.75 -23.40994,-69.01405 -8.1662,52.95835 29.80193,-16.87019 -8.95184,69.95596 -31.67095,27.53993 25.793,-20.335 -46.097,101.142 z"
   id="path4"
   sodipodi:nodetypes="cccccccccccccc" />
<path
   style="fill:#9acd32"
   d="M185.032,426.667h141.934c7.933,0,14.365-6.432,14.365-14.365V128.145  c0-7.933-6.432-14.367-14.365-14.367H185.032c-7.933,0-14.365,6.432-14.365,14.367v284.157  C170.667,420.235,177.099,426.667,185.032,426.667z"
   id="path6" />




<g
   id="g16">
</g>
<g
   id="g18">
</g>
<g
   id="g20">
</g>
<g
   id="g22">
</g>
<g
   id="g24">
</g>
<g
   id="g26">
</g>
<g
   id="g28">
</g>
<g
   id="g30">
</g>
<g
   id="g32">
</g>
<g
   id="g34">
</g>
<g
   id="g36">
</g>
<g
   id="g38">
</g>
<g
   id="g40">
</g>
<g
   id="g42">
</g>
<g
   id="g44">
</g>
<path
   style="fill:#cd853f;stroke-width:0.941505"
   d="m 199.22662,409.48817 h 113.03924 c 6.31801,0 11.44059,-5.75075 11.44059,-12.84353 V 142.5841 c 0,-7.09279 -5.12258,-12.84531 -11.44059,-12.84531 H 199.22662 c -6.31801,0 -11.44059,5.75075 -11.44059,12.84531 v 254.06054 c 0,7.09278 5.12258,12.84353 11.44059,12.84353 z"
   id="path6-9" /><rect
   style="fill:#cd853f;stroke-width:0.999998"
   id="rect70"
   width="55.72789"
   height="61.126534"
   x="226.04881"
   y="113.7822" /><rect
   style="fill:#cd853f;stroke-width:0.999998"
   id="rect70-5"
   width="55.72789"
   height="61.126534"
   x="285.66452"
   y="235.84961" /><rect
   style="fill:#cd853f;stroke-width:0.999998"
   id="rect70-0"
   width="55.72789"
   height="61.126534"
   x="170.68159"
   y="239.37944" /><rect
   style="fill:#cd853f;stroke-width:0.999998"
   id="rect70-0-6"
   width="55.72789"
   height="61.126534"
   x="230.15546"
   y="365.57965" /><rect
   style="fill:#9acd32;stroke-width:1.00211"
   id="rect121"
   width="80.676994"
   height="5.3340149"
   x="-74.72377"
   y="329.98175"
   transform="matrix(0.67396817,-0.73876038,0.67396817,0.73876038,0,0)" /><rect
   style="fill:#9acd32;stroke-width:1.00254"
   id="rect121-2"
   width="63.532944"
   height="4.2005243"
   x="39.868473"
   y="275.3187"
   transform="matrix(0.74171374,-0.67071658,0.74171374,0.67071658,0,0)" /><rect
   style="fill:#9acd32;stroke-width:1.00211"
   id="rect121-9"
   width="80.676994"
   height="5.3340149"
   x="10.931056"
   y="407.58954"
   transform="matrix(0.67396817,-0.73876038,0.67396817,0.73876038,0,0)" /><rect
   style="fill:#9acd32;stroke-width:1.00075"
   id="rect121-2-9"
   width="65.807892"
   height="4.350934"
   x="-153.08363"
   y="463.05508"
   transform="matrix(0.72600191,-0.68769268,0.72600191,0.68769268,0,0)" /></svg>
