<?xml version="1.0" encoding="UTF-8" standalone="no"?>
<svg
   version="1.1"
   id="Layer_1"
   x="0px"
   y="0px"
   viewBox="0 0 512 512"
   style="enable-background:new 0 0 512 512;"
   xml:space="preserve"
   sodipodi:docname="Räume_Eingang.svg"
   inkscape:version="1.1 (c68e22c387, 2021-05-23)"
   xmlns:inkscape="http://www.inkscape.org/namespaces/inkscape"
   xmlns:sodipodi="http://sodipodi.sourceforge.net/DTD/sodipodi-0.dtd"
   xmlns="http://www.w3.org/2000/svg"
   xmlns:svg="http://www.w3.org/2000/svg"
   xmlns:rdf="http://www.w3.org/1999/02/22-rdf-syntax-ns#"
   xmlns:cc="http://creativecommons.org/ns#"
   xmlns:dc="http://purl.org/dc/elements/1.1/"><metadata
   id="metadata51"><rdf:RDF><cc:Work
       rdf:about=""><dc:format>image/svg+xml</dc:format><dc:type
         rdf:resource="http://purl.org/dc/dcmitype/StillImage" /></cc:Work></rdf:RDF></metadata><defs
   id="defs49" /><sodipodi:namedview
   pagecolor="#ffffff"
   bordercolor="#666666"
   borderopacity="1"
   objecttolerance="10"
   gridtolerance="10"
   guidetolerance="10"
   inkscape:pageopacity="0"
   inkscape:pageshadow="2"
   inkscape:window-width="1536"
   inkscape:window-height="841"
   id="namedview47"
   showgrid="false"
   inkscape:zoom="1.4355469"
   inkscape:cx="256"
   inkscape:cy="256"
   inkscape:window-x="-8"
   inkscape:window-y="-8"
   inkscape:window-maximized="1"
   inkscape:current-layer="Layer_1"
   inkscape:pagecheckerboard="0" />
<circle
   style="fill:#660033;fill-opacity:1"
   cx="256"
   cy="256"
   r="256"
   id="circle2" />
<path
   style="fill:#40001f;fill-opacity:1"
   d="M264.283,511.853C390.07,507.854,492.94,413.12,509.618,290.94L339.022,120.344l-19.196,31.975  l-14.838-14.838l-67.25,139.75l-94.463-96.878l-6.773,29.274l-8.511-8.511l-27.76,45.575l95.11,95.11l25.793-20.335l-46.097,101.142  L264.283,511.853z"
   id="path4" />
<path
   style="fill:#006400"
   d="M185.032,426.667h141.934c7.933,0,14.365-6.432,14.365-14.365V128.145  c0-7.933-6.432-14.367-14.365-14.367H185.032c-7.933,0-14.365,6.432-14.365,14.367v284.157  C170.667,420.235,177.099,426.667,185.032,426.667z"
   id="path6" />
<path
   style="fill:#008000"
   d="M326.966,113.778h-71.542v312.889h71.542c7.935,0,14.365-6.432,14.365-14.365V128.143  C341.333,120.21,334.901,113.778,326.966,113.778z"
   id="path8" />
<path
   style="fill:#556b2f"
   d="M138.931,248.242h-34.792c-3.246,0-5.877-2.631-5.877-5.877v-58.065c0-3.246,2.631-5.877,5.877-5.877  h34.792c3.246,0,5.877,2.631,5.877,5.877v58.065C144.808,245.612,142.177,248.242,138.931,248.242z"
   id="path10" />
<path
   style="fill:#f4a460"
   d="M184.889,300.103v-47.12c0-2.698,2.188-4.884,4.884-4.884h18.675c2.698,0,4.884,2.188,4.884,4.884  v47.12c0,2.698-2.188,4.884-4.884,4.884h-18.675C187.075,304.987,184.889,302.801,184.889,300.103z"
   id="path12" />
<path
   style="fill:#8b4513"
   d="M228.714,273.239h-31.622c-2.693,0-4.875-2.182-4.875-4.875v-0.591c0-2.693,2.182-4.875,4.875-4.875  h31.622c2.693,0,4.875,2.182,4.875,4.875v0.591C233.589,271.057,231.407,273.239,228.714,273.239z"
   id="path14" />
<g
   id="g16">
</g>
<g
   id="g18">
</g>
<g
   id="g20">
</g>
<g
   id="g22">
</g>
<g
   id="g24">
</g>
<g
   id="g26">
</g>
<g
   id="g28">
</g>
<g
   id="g30">
</g>
<g
   id="g32">
</g>
<g
   id="g34">
</g>
<g
   id="g36">
</g>
<g
   id="g38">
</g>
<g
   id="g40">
</g>
<g
   id="g42">
</g>
<g
   id="g44">
</g>
</svg>
