<?xml version="1.0" encoding="UTF-8" standalone="no"?>
<svg
   xmlns:dc="http://purl.org/dc/elements/1.1/"
   xmlns:cc="http://creativecommons.org/ns#"
   xmlns:rdf="http://www.w3.org/1999/02/22-rdf-syntax-ns#"
   xmlns:svg="http://www.w3.org/2000/svg"
   xmlns="http://www.w3.org/2000/svg"
   xmlns:sodipodi="http://sodipodi.sourceforge.net/DTD/sodipodi-0.dtd"
   xmlns:inkscape="http://www.inkscape.org/namespaces/inkscape"
   version="1.1"
   id="Layer_1"
   x="0px"
   y="0px"
   viewBox="0 0 512 512"
   style="enable-background:new 0 0 512 512;"
   xml:space="preserve"
   sodipodi:docname="Räume_KochenBL.svg"
   inkscape:version="1.0.2 (e86c870879, 2021-01-15, custom)"
   inkscape:export-filename="C:\Users\kalle\OneDrive - popularc GmbH\70_AML\Bibliotheken\images\Räume_KochenBL.png"
   inkscape:export-xdpi="96"
   inkscape:export-ydpi="96"><metadata
   id="metadata57"><rdf:RDF><cc:Work
       rdf:about=""><dc:format>image/svg+xml</dc:format><dc:type
         rdf:resource="http://purl.org/dc/dcmitype/StillImage" /><dc:title /></cc:Work></rdf:RDF></metadata><defs
   id="defs55" /><sodipodi:namedview
   pagecolor="#2f2f2f"
   bordercolor="#666666"
   borderopacity="1"
   objecttolerance="10"
   gridtolerance="10"
   guidetolerance="10"
   inkscape:pageopacity="0"
   inkscape:pageshadow="2"
   inkscape:window-width="1920"
   inkscape:window-height="1137"
   id="namedview53"
   showgrid="false"
   inkscape:zoom="0.71777344"
   inkscape:cx="58.253727"
   inkscape:cy="304.07395"
   inkscape:window-x="1912"
   inkscape:window-y="-8"
   inkscape:window-maximized="1"
   inkscape:current-layer="Layer_1"
   inkscape:document-rotation="0"
   inkscape:pagecheckerboard="false" />



<rect
   x="404.41748"
   y="115.46025"
   style="fill:#000000;stroke-width:0.923297"
   width="23.4547"
   height="357.03787"
   id="rect8" />
<path
   style="fill:#000000;stroke-width:1.82697"
   d="m 33.616805,453.00823 c 0,-132.65215 69.155865,-240.18725 154.464505,-240.18725 85.30866,0 154.46454,107.5351 154.46454,240.18725 z"
   id="path10" />
<g
   id="g16"
   style="fill:#000000"
   transform="matrix(1.4651047,0,0,2.2781894,-113.05043,-306.18476)">
	<path
   style="fill:#000000"
   d="m 205.536,227.816 c -0.034,0 -0.069,0.003 -0.103,0.003 v 105.425 h 105.532 c 0,-58.226 -47.202,-105.428 -105.429,-105.428 z"
   id="path12" />
	<circle
   style="fill:#000000"
   cx="205.541"
   cy="217.85001"
   r="8.5489998"
   id="circle14" />
</g>
<path
   style="fill:#000000;stroke-width:1.82697"
   d="m 188.08131,170.62664 c -0.0528,0 -0.10122,0.0228 -0.1509,0.0228 v 38.90007 c 0.0528,0 0.10122,0.0228 0.1509,0.0228 6.91823,0 12.52519,-8.71863 12.52519,-19.47625 0,-10.7576 -5.60696,-19.46939 -12.52519,-19.46939 z"
   id="path18" />
<path
   style="fill:#000000;stroke-width:1.82697"
   d="M 496.90634,481.14159 H 17.023028 c -6.973899,0 -12.6292031,-8.79382 -12.6292031,-19.63801 v -4.00277 c 0,-10.84418 5.6553041,-19.63798 12.6292031,-19.63798 H 496.90634 c 6.97392,0 12.62922,8.7938 12.62922,19.63798 v 4.00277 c 0,10.84419 -5.6553,19.63801 -12.62922,19.63801 z"
   id="path20" />
<g
   id="g22">
</g>
<g
   id="g24">
</g>
<g
   id="g26">
</g>
<g
   id="g28">
</g>
<g
   id="g30">
</g>
<g
   id="g32">
</g>
<g
   id="g34">
</g>
<g
   id="g36">
</g>
<g
   id="g38">
</g>
<g
   id="g40">
</g>
<g
   id="g42">
</g>
<g
   id="g44">
</g>
<g
   id="g46">
</g>
<g
   id="g48">
</g>
<g
   id="g50">
</g>
<rect
   style="fill:#000000;stroke-width:1.46814"
   id="rect59"
   width="311.27994"
   height="321.246"
   x="30.291924"
   y="118.0931" /><rect
   style="fill:#000000;stroke-width:0.466904"
   id="rect59-3"
   width="311.27994"
   height="32.491211"
   x="31.363058"
   y="66.342567" /><rect
   style="fill:#000000;stroke-width:0.160784"
   id="rect59-5"
   width="27.555929"
   height="43.523846"
   x="171.1839"
   y="25.992672" /><ellipse
   style="fill:#000000;stroke-width:1.82697"
   id="path90"
   cx="415.10486"
   cy="109.60496"
   rx="31.127995"
   ry="65.066338" /><rect
   style="fill:#242424;stroke-width:0.768579;fill-opacity:1"
   id="rect59-1"
   width="85.310638"
   height="321.246"
   x="256.2612"
   y="118.09313" /><rect
   style="fill:#242424;stroke-width:0.308322;fill-opacity:1"
   id="rect59-3-9"
   width="135.73848"
   height="32.491211"
   x="206.90451"
   y="66.342567" /><rect
   style="fill:#242424;stroke-width:0.083074;fill-opacity:1"
   id="rect59-5-9"
   width="7.7820001"
   height="41.143372"
   x="190.95782"
   y="25.992672" /></svg>
