<svg id="line_color" height="512" viewBox="0 0 74 74" width="512" xmlns="http://www.w3.org/2000/svg" data-name="line color"><path d="m3.853 10.237h4.535v55.84h-4.535z" fill="#e7aa6c"/><path d="m8.388 23.467h46.66v4.391h-46.66z" fill="#e7aa6c"/><path d="m8.388 43.135h46.66v4.391h-46.66z" fill="#e7aa6c"/><path d="m52.367 23.465h2.68v4.39h-2.68z" fill="#d09865"/><path d="m52.367 42.935h2.68v4.79h-2.68z" fill="#d09865"/><rect fill="#e1e6e9" height="3.917" rx="1.958" width="10.002" x="12.852" y="39.218"/><path d="m20.9 43.635h-6.09a2.459 2.459 0 0 1 0-4.917h6.09a2.459 2.459 0 0 1 0 4.917zm-6.09-3.917a1.459 1.459 0 0 0 0 2.917h6.09a1.459 1.459 0 0 0 0-2.917z" fill="#323c6b"/><rect fill="#e1e6e9" height="3.917" rx="1.958" width="10.002" x="12.852" y="19.551"/><path d="m20.9 23.967h-6.09a2.458 2.458 0 0 1 0-4.916h6.09a2.458 2.458 0 0 1 0 4.916zm-6.09-3.916a1.458 1.458 0 0 0 0 2.916h6.09a1.458 1.458 0 0 0 0-2.916z" fill="#323c6b"/><path d="m8.388 53.01h63.465v13.067h-63.465z" fill="#e7aa6c"/><path d="m68.353 53.01h3.5v13.067h-3.5z" fill="#d09865"/><path d="m3.853 63.125h68v2.952h-68z" fill="#d09865"/><g fill="#323c6b"><path d="m71.853 66.577h-16.8a.5.5 0 0 1 -.5-.5v-50.3a.5.5 0 0 1 1 0v49.8h15.8v-49.8a.5.5 0 0 1 1 0v50.3a.5.5 0 0 1 -.5.5z"/><path d="m71.853 25.641h-16.8a.5.5 0 0 1 0-1h16.8a.5.5 0 0 1 0 1z"/><path d="m71.853 36.455h-16.8a.5.5 0 0 1 0-1h16.8a.5.5 0 0 1 0 1z"/><path d="m71.853 47.269h-16.8a.5.5 0 0 1 0-1h16.8a.5.5 0 0 1 0 1z"/><path d="m71.853 58.572h-16.8a.5.5 0 0 1 0-1h16.8a.5.5 0 1 1 0 1z"/><path d="m71.853 66.577h-63.465a.5.5 0 0 1 -.5-.5v-13.067a.5.5 0 0 1 .5-.5h63.465a.5.5 0 0 1 .5.5v13.067a.5.5 0 0 1 -.5.5zm-62.965-1h62.465v-12.067h-62.465z"/><path d="m55.048 28.358h-46.66a.5.5 0 0 1 -.5-.5v-4.391a.5.5 0 0 1 .5-.5h46.66a.5.5 0 0 1 .5.5v4.391a.5.5 0 0 1 -.5.5zm-46.16-1h45.66v-3.391h-45.66z"/><path d="m55.048 48.025h-46.66a.5.5 0 0 1 -.5-.5v-4.39a.5.5 0 0 1 .5-.5h46.66a.5.5 0 0 1 .5.5v4.39a.5.5 0 0 1 -.5.5zm-46.16-1h45.66v-3.39h-45.66z"/><path d="m6.917 69.577h-1.417a.5.5 0 0 1 0-1h1.417a.5.5 0 1 1 0 1z"/><path d="m18.979 69.577h-9.187a.5.5 0 0 1 0-1h9.187a.5.5 0 0 1 0 1z"/><path d="m35.655 31.358h-1.375a.5.5 0 0 1 0-1h1.375a.5.5 0 0 1 0 1z"/><path d="m31.718 31.358h-9.385a.5.5 0 0 1 0-1h9.385a.5.5 0 1 1 0 1z"/></g><path d="m40 56.36h-7.957a.65.65 0 1 1 0-1.3h7.957a.65.65 0 1 1 0 1.3z" fill="#fff"/><path d="m43.664 56.36h-.831a.65.65 0 1 1 0-1.3h.831a.65.65 0 1 1 0 1.3z" fill="#fff"/><path d="m8.388 66.577h-4.535a.5.5 0 0 1 -.5-.5v-55.84a.5.5 0 0 1 .5-.5h4.535a.5.5 0 0 1 .5.5v55.84a.5.5 0 0 1 -.5.5zm-4.035-1h3.535v-54.84h-3.535z" fill="#323c6b"/></svg>