<?xml version="1.0" encoding="UTF-8" standalone="no"?>
<!-- Generator: Adobe Illustrator 19.0.0, SVG Export Plug-In . SVG Version: 6.00 Build 0)  -->

<svg
   version="1.1"
   id="Layer_1"
   x="0px"
   y="0px"
   viewBox="0 0 512 512"
   style="enable-background:new 0 0 512 512;"
   xml:space="preserve"
   sodipodi:docname="Räume_lamp-svgrepo-com 220327.svg"
   inkscape:version="1.1 (c68e22c387, 2021-05-23)"
   xmlns:inkscape="http://www.inkscape.org/namespaces/inkscape"
   xmlns:sodipodi="http://sodipodi.sourceforge.net/DTD/sodipodi-0.dtd"
   xmlns="http://www.w3.org/2000/svg"
   xmlns:svg="http://www.w3.org/2000/svg"><defs
   id="defs49" /><sodipodi:namedview
   id="namedview47"
   pagecolor="#ffffff"
   bordercolor="#999999"
   borderopacity="1"
   inkscape:pageshadow="0"
   inkscape:pageopacity="0"
   inkscape:pagecheckerboard="0"
   showgrid="false"
   inkscape:zoom="0.73535156"
   inkscape:cx="53.715803"
   inkscape:cy="108.11155"
   inkscape:window-width="1920"
   inkscape:window-height="1129"
   inkscape:window-x="1912"
   inkscape:window-y="-8"
   inkscape:window-maximized="1"
   inkscape:current-layer="Layer_1" />
<circle
   style="fill:#ffff00"
   cx="256"
   cy="256"
   r="256"
   id="circle2" />
<path
   style="fill:#f0e68c"
   d="M303.926,507.502c116.217-22.014,204.641-122.565,207.97-244.381L352.539,103.764L294.96,208.148  l-7.621-7.621l-127.878,79.446l46.906,50.981l-4.884,5.137l59.976,63.317l-50.369,15.258L303.926,507.502z"
   id="path4" />
<path
   style="fill:#d3d3d3"
   d="M294.536,402.491h-30.779V256.098c0-4.284-3.474-7.758-7.758-7.758c-4.284,0-7.758,3.474-7.758,7.758  v146.392h-30.779c-4.284,0-7.758,3.474-7.758,7.758s3.474,7.758,7.758,7.758h77.074c4.284,0,7.758-3.474,7.758-7.758  S298.822,402.491,294.536,402.491z"
   id="path6" />
<path
   style="fill:#696969"
   d="M294.536,402.491h-30.779V256.098c0-4.284-3.474-7.758-7.758-7.758v169.665h38.536  c4.284,0,7.758-3.474,7.758-7.758S298.822,402.491,294.536,402.491z"
   id="path8" />
<path
   style="fill:#696969"
   d="M204.616,337.484c-2.381,0-4.31-1.929-4.31-4.31v-77.076c0-2.381,1.929-4.31,4.31-4.31  s4.31,1.929,4.31,4.31v77.076C208.925,335.553,206.996,337.484,204.616,337.484z"
   id="path10" />
<rect
   x="159.461"
   y="103.762"
   style="fill:#c0c0c0"
   width="193.077"
   height="176.218"
   id="rect12" />
<rect
   x="256"
   y="103.762"
   style="fill:#696969"
   width="96.539"
   height="176.218"
   id="rect14" />
<g
   id="g16">
</g>
<g
   id="g18">
</g>
<g
   id="g20">
</g>
<g
   id="g22">
</g>
<g
   id="g24">
</g>
<g
   id="g26">
</g>
<g
   id="g28">
</g>
<g
   id="g30">
</g>
<g
   id="g32">
</g>
<g
   id="g34">
</g>
<g
   id="g36">
</g>
<g
   id="g38">
</g>
<g
   id="g40">
</g>
<g
   id="g42">
</g>
<g
   id="g44">
</g>
</svg>
