<svg id="_x31_" enable-background="new 0 0 24 24" height="512" viewBox="0 0 24 24" width="512" xmlns="http://www.w3.org/2000/svg"><g><g><path d="m8.781 23c-.083 0-.167-.021-.242-.062l-2.539-1.404-2.54 1.404c-.167.093-.374.082-.53-.029s-.236-.3-.206-.489l.491-3.007-2.074-2.125c-.131-.134-.176-.33-.116-.508s.213-.307.398-.335l2.846-.435 1.277-2.721c.165-.352.74-.352.905 0l1.277 2.721 2.846.435c.185.028.339.158.398.335s.015.374-.116.508l-2.074 2.125.491 3.007c.031.189-.049.379-.206.489-.084.06-.185.091-.286.091zm-2.781-2.538c.083 0 .167.021.242.062l1.88 1.039-.366-2.24c-.025-.157.025-.316.136-.43l1.57-1.61-2.147-.328c-.165-.025-.306-.131-.377-.282l-.938-1.996-.938 1.998c-.071.151-.212.257-.377.282l-2.147.328 1.57 1.61c.111.114.161.273.136.43l-.366 2.24 1.88-1.039c.075-.043.159-.064.242-.064z"/></g></g><g><g><path d="m20.781 23c-.083 0-.167-.021-.242-.062l-2.539-1.404-2.54 1.404c-.167.093-.374.082-.53-.029s-.236-.3-.206-.489l.491-3.007-2.074-2.125c-.131-.134-.176-.33-.116-.508s.213-.307.398-.335l2.846-.435 1.277-2.721c.165-.352.74-.352.905 0l1.277 2.721 2.846.435c.185.028.339.158.398.335s.015.374-.116.508l-2.074 2.125.491 3.007c.031.189-.049.379-.206.489-.084.06-.185.091-.286.091zm-2.781-2.538c.083 0 .167.021.242.062l1.88 1.039-.366-2.24c-.025-.157.025-.316.136-.43l1.57-1.61-2.147-.328c-.165-.025-.306-.131-.377-.282l-.938-1.996-.938 1.998c-.071.151-.212.257-.377.282l-2.147.328 1.57 1.61c.111.114.161.273.136.43l-.366 2.24 1.88-1.039c.075-.043.159-.064.242-.064z"/></g></g><g><g><path d="m8.781 11c-.083 0-.167-.021-.242-.062l-2.539-1.404-2.54 1.404c-.167.093-.374.082-.53-.029s-.236-.3-.206-.489l.491-3.007-2.073-2.126c-.131-.134-.176-.33-.116-.508s.213-.307.398-.335l2.846-.436 1.277-2.721c.165-.352.74-.352.905 0l1.278 2.721 2.846.435c.185.028.339.158.398.335s.015.374-.116.508l-2.074 2.126.491 3.007c.031.189-.049.379-.206.489-.086.061-.187.092-.288.092zm-2.781-2.538c.083 0 .167.021.242.062l1.88 1.039-.366-2.24c-.025-.157.025-.316.136-.43l1.57-1.61-2.147-.326c-.165-.025-.306-.131-.377-.282l-.938-1.998-.938 1.998c-.071.151-.212.257-.377.282l-2.147.328 1.57 1.61c.111.114.161.273.136.43l-.366 2.24 1.88-1.039c.075-.043.159-.064.242-.064z"/></g></g><g><g><path d="m20.781 11c-.083 0-.167-.021-.242-.062l-2.539-1.404-2.54 1.404c-.167.093-.374.082-.53-.029s-.236-.3-.206-.489l.491-3.007-2.074-2.125c-.131-.134-.176-.33-.116-.508s.213-.307.398-.335l2.846-.435 1.277-2.721c.165-.352.74-.352.905 0l1.277 2.721 2.846.435c.185.028.339.158.398.335s.015.374-.116.508l-2.074 2.125.491 3.007c.031.189-.049.379-.206.489-.084.06-.185.091-.286.091zm-2.781-2.538c.083 0 .167.021.242.062l1.88 1.039-.366-2.24c-.025-.157.025-.316.136-.43l1.57-1.61-2.147-.328c-.165-.025-.306-.131-.377-.282l-.938-1.996-.938 1.998c-.071.151-.212.257-.377.282l-2.147.328 1.57 1.61c.111.114.161.273.136.43l-.366 2.24 1.88-1.039c.075-.043.159-.064.242-.064z"/></g></g></svg>