<?xml version="1.0" encoding="UTF-8" standalone="no"?>
<!-- Generator: Adobe Illustrator 19.0.0, SVG Export Plug-In . SVG Version: 6.00 Build 0)  -->

<svg
   version="1.1"
   id="Layer_1"
   x="0px"
   y="0px"
   viewBox="0 0 512 512"
   style="enable-background:new 0 0 512 512;"
   xml:space="preserve"
   sodipodi:docname="Räume_Keller.svg"
   inkscape:version="1.1 (c68e22c387, 2021-05-23)"
   xmlns:inkscape="http://www.inkscape.org/namespaces/inkscape"
   xmlns:sodipodi="http://sodipodi.sourceforge.net/DTD/sodipodi-0.dtd"
   xmlns="http://www.w3.org/2000/svg"
   xmlns:svg="http://www.w3.org/2000/svg"><defs
   id="defs49" /><sodipodi:namedview
   id="namedview47"
   pagecolor="#ffffff"
   bordercolor="#999999"
   borderopacity="1"
   inkscape:pageshadow="0"
   inkscape:pageopacity="0"
   inkscape:pagecheckerboard="0"
   showgrid="false"
   inkscape:zoom="0.36767578"
   inkscape:cx="-218.94289"
   inkscape:cy="-167.26693"
   inkscape:window-width="1920"
   inkscape:window-height="1129"
   inkscape:window-x="1912"
   inkscape:window-y="-8"
   inkscape:window-maximized="1"
   inkscape:current-layer="Layer_1" />
<circle
   style="fill:#c0c0c0"
   cx="256"
   cy="256"
   r="256"
   id="circle2" />

<path
   style="fill:#808080"
   d="M 227.74258,511.853 C 397.76272,526.12421 491.01682,391.00343 495.19415,341.90427 L 347.2743,159.08196 319.3452,157.84814 293.44892,159.59757 237.738,277.231 C 218.751,243.01515 196.58263,204.03037 172.3631,162.92418 l -34.85764,8.77451 c -12.91051,24.45754 -17.62915,11.21855 -39.425193,13.46226 L 78.114428,219.76648 189.57146,370.6487 221.134,321.466 195.484,468.365 Z"
   id="path4"
   sodipodi:nodetypes="cccccccccccccc" /><path
   style="fill:#386895"
   d="m 195.484,468.365 h 141.934 c 7.933,0 14.365,-6.432 14.365,-14.365 V 169.843 c 0,-7.933 -6.432,-14.367 -14.365,-14.367 H 195.484 c -7.933,0 -14.365,6.432 -14.365,14.367 V 454 c 0,7.933 6.432,14.365 14.365,14.365 z"
   id="path6" />
<path
   style="fill:#273b7a"
   d="m 337.418,155.476 h -71.542 v 312.889 h 71.542 c 7.935,0 14.365,-6.432 14.365,-14.365 V 169.841 c 0.002,-7.933 -6.43,-14.365 -14.365,-14.365 z"
   id="path8" />
<path
   style="fill:#dcdcdc;stroke-width:1.37566"
   d="M 160.47835,222.82859 H 88.928668 c -6.675392,0 -12.086039,-2.42112 -12.086039,-5.40818 v -53.433 c 0,-2.98706 5.410647,-5.40818 12.086039,-5.40818 h 71.549682 c 6.6754,0 12.08604,2.42112 12.08604,5.40818 v 53.433 c 0,2.98798 -5.41064,5.40818 -12.08604,5.40818 z"
   id="path10" />
<path
   style="fill:#02b2b2"
   d="m 195.341,341.801 v -47.12 c 0,-2.698 2.188,-4.884 4.884,-4.884 H 218.9 c 2.698,0 4.884,2.188 4.884,4.884 v 47.12 c 0,2.698 -2.188,4.884 -4.884,4.884 h -18.675 c -2.698,0 -4.884,-2.186 -4.884,-4.884 z"
   id="path12" />
<path
   style="fill:#ffc61b"
   d="m 239.166,314.937 h -31.622 c -2.693,0 -4.875,-2.182 -4.875,-4.875 v -0.591 c 0,-2.693 2.182,-4.875 4.875,-4.875 h 31.622 c 2.693,0 4.875,2.182 4.875,4.875 v 0.591 c 0,2.693 -2.182,4.875 -4.875,4.875 z"
   id="path14" />
<g
   id="g16">
</g>
<g
   id="g18">
</g>
<g
   id="g20">
</g>
<g
   id="g22">
</g>
<g
   id="g24">
</g>
<g
   id="g26">
</g>
<g
   id="g28">
</g>
<g
   id="g30">
</g>
<g
   id="g32">
</g>
<g
   id="g34">
</g>
<g
   id="g36">
</g>
<g
   id="g38">
</g>
<g
   id="g40">
</g>
<g
   id="g42">
</g>
<g
   id="g44">
</g>
<path
   style="fill:#556b2f;stroke-width:0.444418"
   d="m 98.339349,130.82693 c -0.827544,-0.96371 -0.965687,-4.00468 -0.263457,-5.7995 0.587029,-1.50038 2.086978,-2.28847 3.658788,-1.92239 l 1.23771,0.28828 -0.005,-4.25635 c -0.0107,-8.05689 -2.45818,-17.83956 -6.388355,-25.532243 C 94.295321,89.13472 89.116781,82.38794 86.304413,80.21859 84.36666,78.723886 84.299549,78.185294 86.053215,78.202655 c 5.202718,0.05151 15.383425,12.229289 19.236275,23.009705 1.4228,3.98104 1.16318,1.96669 -0.48666,-3.775967 -1.65836,-5.772349 -4.58107,-12.535727 -7.088387,-16.40306 -0.932802,-1.438779 -2.893686,-3.640055 -4.357519,-4.891728 -1.463831,-1.251672 -3.271755,-3.082826 -4.017609,-4.069229 l -1.356094,-1.793459 1.075657,-0.147747 c 1.495517,-0.205422 5.043419,1.986009 12.607192,7.787075 11.70684,8.978616 16.223,14.884558 18.67847,24.426555 l 0.7576,2.94406 -0.23582,-6.234648 c -0.41074,-10.85912 -2.15444,-23.298608 -5.29671,-37.78646 -0.75577,-3.484612 -1.3213,-6.406388 -1.25673,-6.492839 0.0646,-0.08645 0.85453,0.618348 1.75546,1.566216 2.09392,2.202998 4.25155,7.276216 6.74358,15.856141 l 1.95014,6.714236 0.0242,-3.357118 c 0.0443,-6.157453 1.038,-7.277421 2.65938,-2.997427 1.28025,3.37951 3.99453,13.193516 5.60407,20.262603 1.65832,7.283286 2.01652,8.032106 2.03261,4.249191 0.0177,-4.172365 -3.43281,-22.364293 -5.78348,-30.491516 -0.43626,-1.508377 -0.79321,-3.066261 -0.79321,-3.461965 0,-3.54398 7.37675,10.610554 9.58954,18.400449 0.69124,2.433411 0.83979,2.15172 1.49985,-2.844012 0.4008,-3.033472 1.25964,-17.132824 1.26348,-20.742191 0.001,-0.989151 0.16693,-1.798456 0.36862,-1.798456 0.49634,0 1.71924,5.502963 3.82123,17.195301 0.96519,5.368923 1.79147,9.57731 1.83615,9.351971 0.0447,-0.225345 0.19366,-1.003203 0.33104,-1.72858 0.63953,-3.376767 2.26731,0.192281 2.65312,5.817199 l 0.28357,4.134256 0.32441,-3.079349 c 0.17843,-1.693642 0.68178,-4.174614 1.11856,-5.51327 0.43678,-1.338655 0.91095,-3.761521 1.0537,-5.384145 0.25778,-2.930126 0.71584,-4.473086 1.17068,-3.943415 0.13054,0.15202 0.50804,1.764382 0.83889,3.583023 0.81545,4.482414 0.81434,14.760388 -0.002,17.45448 -0.67704,2.23468 -0.83232,6.503185 -0.25178,6.921015 0.37558,0.27031 0.67584,-1.389593 2.10302,-11.625804 0.45272,-3.247072 1.03666,-6.36839 1.29763,-6.936266 0.47332,-1.029935 0.47528,-1.030055 0.78693,-0.04897 0.17183,0.540938 0.44477,2.25946 0.60653,3.818937 0.46714,4.503627 0.86746,4.464339 1.16937,-0.114755 0.43751,-6.633118 1.18601,-13.116038 1.51452,-13.116038 0.43726,0 1.51932,2.833349 2.0224,5.295637 0.24025,1.175888 0.63371,6.775416 0.87436,12.443387 0.24065,5.667975 0.51697,10.397912 0.61406,10.510972 0.0971,0.11307 0.18551,-1.610869 0.19649,-3.83096 0.011,-2.220096 0.17914,-8.78446 0.37368,-14.587477 0.28881,-8.615007 0.51388,-11.141205 1.22668,-13.7679 0.84933,-3.12985 1.40397,-4.154826 1.822,-3.367127 0.11255,0.212074 0.76313,3.614676 1.44573,7.561337 1.6119,9.319781 2.52683,19.247502 2.87124,31.155157 0.2742,9.48021 0.28581,9.57386 0.99736,8.05175 0.91872,-1.96524 1.85304,-7.04314 2.58454,-14.0466 0.80594,-7.716076 0.73542,-13.349823 -0.23081,-18.439851 -0.44811,-2.3606 -0.80888,-4.950377 -0.80172,-5.755059 l 0.013,-1.463061 0.96749,1.279192 c 1.26419,1.67147 3.34225,8.05924 4.17062,12.820084 0.54693,3.143322 0.58195,4.5611 0.20892,8.456958 -0.48879,5.104697 -0.33549,6.301427 0.38815,3.03025 1.23638,-5.588901 3.51385,-12.307429 3.98574,-11.757893 0.39294,0.457595 0.19321,4.918552 -0.4905,10.955345 -0.33341,2.943815 -0.52946,5.441775 -0.43565,5.551015 0.51943,0.6049 4.02902,-10.933055 5.79903,-19.064627 2.37323,-10.902868 6.23287,-21.910886 8.51377,-24.282042 l 0.86222,-0.896341 -0.28934,2.87753 c -0.15914,1.582641 -1.14811,6.654287 -2.19771,11.270324 -1.7556,7.720934 -1.90991,8.857793 -1.9277,14.201528 l -0.0193,5.808739 2.24673,5.165904 c 1.23569,2.841245 2.3171,4.920025 2.40312,4.619505 0.086,-0.30053 -0.51723,-4.052128 -1.34056,-8.336908 -0.82332,-4.284776 -1.58395,-8.276087 -1.69027,-8.869577 -0.10633,-0.593491 -0.0293,-1.079074 0.17122,-1.079074 0.44859,0 2.51067,5.346905 3.74337,9.706454 1.78396,6.309165 2.17392,4.249588 0.83496,-4.409877 -0.46111,-2.982166 -0.76719,-5.505035 -0.68017,-5.606372 0.2067,-0.240705 2.81467,4.342226 3.96411,6.966053 0.49414,1.127953 1.91083,5.084691 3.1482,8.792752 2.33533,6.998319 5.32613,14.130289 6.79508,16.203819 l 0.8494,1.19897 -0.26046,-1.91836 c -1.08838,-8.01628 -3.1827,-16.417113 -8.54861,-34.290556 -1.465,-4.879811 -2.78642,-9.465873 -2.93651,-10.19125 -0.36304,-1.754723 0.34151,-1.70381 1.65924,0.119897 0.57177,0.79132 1.35021,1.438764 1.72987,1.438764 0.41895,0 1.52247,1.555195 2.80747,3.956603 3.43115,6.412138 4.88411,10.305335 8.77318,23.507661 2.00946,6.821581 3.90818,12.341561 4.24517,12.341561 0.30922,0 -0.85302,-7.94615 -1.90382,-13.016318 -0.5817,-2.806709 -2.0066,-8.309984 -3.16644,-12.2295 -4.06436,-13.734861 -6.98899,-23.885389 -6.98899,-24.256686 0,-0.808279 1.1344,-0.308927 2.14497,0.944194 1.64357,2.038039 7.34968,16.341547 9.15501,22.948863 0.72646,2.65878 1.65887,4.443558 2.07079,3.963854 0.14283,-0.166326 0.71844,-3.247263 1.27915,-6.846529 1.05165,-6.75066 2.00803,-10.352315 3.50316,-13.192605 0.67477,-1.281853 0.94338,-1.490915 1.23239,-0.959176 0.57374,1.055578 0.44914,6.388542 -0.29648,12.689559 -1.51587,12.810128 -0.39336,25.737344 1.80511,20.788354 0.36447,-0.82046 0.51216,-4.680673 0.52087,-13.614452 0.014,-14.362838 0.22901,-15.958855 3.09189,-22.951257 2.89074,-7.06044 3.21714,-6.272266 1.8881,4.559307 -0.98992,8.067811 -1.3584,13.179204 -0.90853,12.602888 0.1913,-0.245074 0.8581,-2.028054 1.48177,-3.962185 1.07218,-3.325033 2.76817,-6.373301 3.24076,-5.824767 0.11866,0.137714 -0.43225,4.238193 -1.22423,9.112176 -2.30407,14.179631 -2.26512,21.635 0.14136,27.05432 0.59796,1.34659 0.66562,1.38029 0.95328,0.47472 0.1703,-0.53612 0.52353,-4.52394 0.78494,-8.86184 0.74556,-12.371611 1.64392,-17.881318 2.87265,-17.618153 0.35778,0.07662 1.11382,1.218394 1.68008,2.537261 l 1.02956,2.397941 0.12952,16.545791 c 0.0712,9.10019 0.28858,16.73415 0.48297,16.96435 0.58358,0.69108 2.38233,-1.83076 2.91032,-4.08023 0.78427,-3.34143 0.19363,-12.39591 -1.65386,-25.35341 -0.92142,-6.462452 -1.76874,-12.235495 -1.88292,-12.828986 -0.40492,-2.10449 0.48514,-1.022664 2.76202,3.357118 2.97041,5.713852 3.39814,6.726911 4.41423,10.454817 0.80301,2.946145 2.14825,11.773981 2.73698,17.960791 0.29794,3.13117 0.89313,4.89645 1.43221,4.24788 1.21032,-1.45616 2.59997,-14.32401 2.1939,-20.315084 -0.28428,-4.194383 -1.91353,-9.886198 -3.80129,-13.279899 -0.85213,-1.531924 -3.55496,-4.943461 -6.00628,-7.581196 -3.57219,-3.843838 -4.28873,-4.825186 -3.60956,-4.943495 1.31489,-0.229047 6.00304,2.75286 13.56616,8.628795 10.83966,8.42154 15.2055,14.183059 17.7402,23.411439 l 1.11967,4.0765 0.13265,-2.39795 c 0.39765,-7.18837 -2.4429,-27.543505 -5.68873,-40.764995 -1.37401,-5.5968 -1.61928,-7.52134 -0.99003,-7.768203 0.9044,-0.354804 4.09317,5.560874 6.59609,12.23679 0.75974,2.026428 1.38362,3.458292 1.38638,3.181924 0.003,-0.276367 -0.44592,-2.974051 -0.99706,-5.994853 -0.948,-5.19596 -1.56936,-8.044594 -4.93783,-22.637644 -0.7763,-3.363113 -1.24615,-6.114751 -1.0441,-6.114751 0.71008,0 3.2364,3.353703 4.66579,6.193883 2.99584,5.952678 6.32423,16.396484 8.64864,27.137501 1.56033,7.210321 1.8501,9.914604 2.51812,23.499823 0.81209,16.515285 1.63778,25.873845 2.58112,29.254885 0.48498,1.73824 0.86254,-2.96586 0.8946,-11.14605 0.0528,-13.467749 -1.50046,-26.851057 -5.01029,-43.170591 -0.9782,-4.548295 -1.65566,-8.269626 -1.50548,-8.269626 0.15019,0 0.93782,0.856875 1.7503,1.904167 3.88163,5.003448 8.00472,19.254902 8.9128,30.807065 0.79585,10.124465 1.16812,13.535595 1.63238,14.957635 0.43231,1.32415 0.47897,1.34429 1.24468,0.53732 1.52377,-1.6059 2.82362,-7.61824 3.94167,-18.231922 0.78568,-7.45847 1.31807,-10.141215 1.88217,-9.484299 0.782,0.910671 1.58649,5.693312 1.59132,9.460319 0.003,2.281708 0.15398,3.629773 0.37618,3.357118 0.73224,-0.898518 2.92332,-15.256589 2.92332,-19.156394 0,-2.801606 0.65596,-1.896211 1.47444,2.035094 1.04073,4.998753 0.96146,12.642387 -0.19866,19.15837 -0.69086,3.880219 -5.04272,21.658434 -6.13674,25.069734 -0.19802,0.61745 -0.13085,0.63458 0.42518,0.10842 2.25959,-2.13817 7.43916,-23.206595 8.80712,-35.823833 l 0.25998,-2.397941 0.60711,1.918353 c 0.33711,1.065228 0.70958,4.477733 0.83753,7.673412 l 0.23043,5.755059 0.60717,-2.158147 c 0.92668,-3.293789 5.6716,-19.065326 6.67493,-22.186649 1.6858,-5.244465 2.27788,-1.223703 0.80742,5.483132 -0.46291,2.111339 -2.20327,8.082203 -3.86749,13.268586 -3.41601,10.645678 -4.15031,14.709938 -3.84785,21.297478 0.18927,4.12244 1.34985,9.95357 1.98107,9.95357 0.1511,0 0.39336,-2.10826 0.53836,-4.68503 0.47385,-8.4202 2.59085,-20.144519 5.46727,-30.278559 1.64178,-5.784203 5.36638,-15.075146 5.89181,-14.696977 0.4707,0.338772 -0.33779,5.037595 -2.59852,15.102152 -1.03339,4.600604 -1.8142,8.440082 -1.73512,8.532173 0.0791,0.09209 0.65049,-0.974356 1.26979,-2.369881 1.15654,-2.606102 2.56615,-4.695466 3.16785,-4.695466 0.57551,0 0.3791,3.517899 -0.47128,8.44072 -0.44622,2.583208 -0.74843,4.769978 -0.67157,4.859488 0.20524,0.23901 1.76099,-4.496872 2.47859,-7.545149 2.20618,-9.3715 1.64823,-22.029114 -1.43039,-32.449593 -1.09957,-3.72182 -1.02262,-3.956162 0.67475,-2.054944 2.46979,2.766385 4.82735,9.2224 7.55772,20.696227 1.36258,5.725996 3.11798,12.319893 3.90088,14.653105 0.78291,2.333211 1.54932,4.826184 1.70315,5.539934 0.42782,1.98506 1.17683,2.22595 0.86727,0.27894 -0.75666,-4.759186 -1.50244,-14.52895 -1.14118,-14.94965 0.58686,-0.683427 2.26172,3.489206 3.32289,8.278432 0.49587,2.237922 0.95261,4.128377 1.01498,4.201011 0.0624,0.07264 0.23074,-3.269094 0.37414,-7.426064 0.14385,-4.169665 0.53973,-8.794315 0.88303,-10.315497 0.71676,-3.175915 3.33084,-9.472137 3.93267,-9.472137 0.51748,0 0.55055,-0.526377 -0.46303,7.371358 -0.67923,5.292544 -0.8209,8.089277 -0.64694,12.771348 0.3187,8.577579 2.59002,22.051129 3.59533,21.327589 0.21932,-0.15785 0.39412,-3.38846 0.3965,-7.32794 0.007,-11.568549 1.2024,-24.905562 3.14622,-35.101531 0.57831,-3.033396 1.14465,-5.692976 1.25854,-5.910177 0.32905,-0.62756 1.20596,1.142763 1.98049,3.998265 0.56942,2.099277 0.75501,5.079712 0.91796,14.740897 0.11233,6.660282 0.3371,12.109603 0.49948,12.109603 0.16238,0 0.53887,-3.102063 0.83665,-6.893476 0.49447,-6.295891 0.40251,-12.489346 -0.23311,-15.699278 -0.17638,-0.890759 -0.0592,-1.335327 0.40689,-1.543608 1.80886,-0.808336 2.7586,1.099672 5.80743,11.667068 2.62463,9.097117 3.84701,12.251825 4.46739,11.529373 0.67429,-0.785239 -0.56771,-6.999859 -3.45432,-17.284432 -3.52904,-12.573499 -4.1724,-15.543603 -3.41132,-15.748551 1.06662,-0.28723 2.22821,1.490609 4.33569,6.635885 1.13454,2.769891 2.95466,7.194313 4.04471,9.832049 1.09005,2.637735 2.18975,5.767048 2.44378,6.954029 0.62892,2.938658 1.27977,4.795882 1.6807,4.795882 0.18357,0 0.63317,-1.672564 0.99911,-3.716809 1.54311,-8.62032 2.34204,-12.016078 3.4088,-14.488672 0.62143,-1.440376 1.33669,-2.689655 1.58947,-2.776178 0.90388,-0.309382 0.95836,3.685439 0.15917,11.673178 -0.99195,9.91435 -1.0602,17.322996 -0.19099,20.731553 0.34853,1.36674 0.78052,2.48499 0.95997,2.48499 0.17946,0 0.58925,-0.57574 0.91066,-1.27942 0.46646,-1.02128 0.56065,-3.501099 0.46681,-12.2907 -0.0647,-6.056202 0.0765,-12.636306 0.31373,-14.622453 0.61398,-5.140663 4.63553,-15.498369 5.58721,-14.390108 0.11209,0.130544 -0.16296,3.236655 -0.61125,6.902474 -0.93921,7.680308 -1.77878,17.490909 -1.52239,17.789486 0.0963,0.112152 0.58241,-1.265878 1.08023,-3.062286 0.49782,-1.796412 1.39779,-4.453183 1.99993,-5.903937 l 1.09479,-2.637735 0.10686,5.755059 c 0.0588,3.165282 -0.22645,9.909491 -0.63383,14.987132 -0.40739,5.077638 -0.61763,9.232078 -0.46721,9.232078 0.15042,0 0.38651,-0.59349 0.52464,-1.31887 0.56039,-2.94266 4.34752,-19.423268 4.50567,-19.60743 0.48005,-0.559046 1.53651,0.602089 2.13642,2.348121 1.1777,3.427632 1.52152,9.543658 1.22175,21.732669 -0.31209,12.68976 -0.15477,14.86038 1.02378,14.12586 0.40427,-0.25196 0.99212,-1.16775 1.30631,-2.0351 0.84178,-2.32375 0.65263,-12.95132 -0.40117,-22.54099 -1.18107,-10.747712 -1.08726,-11.670013 0.55057,-5.413353 3.16949,12.107733 3.74411,12.917603 3.36852,4.747583 -0.69604,-15.141066 -0.79536,-20.813789 -0.36439,-20.813789 0.53901,0 1.55651,3.559528 2.12491,7.433618 0.23221,1.582641 0.61926,7.625453 0.86012,13.428471 0.44839,10.80279 0.86134,15.42312 1.72948,19.35047 l 0.49316,2.231 0.29613,-1.91835 c 0.16287,-1.0551 0.20571,-8.3928 0.0952,-16.306 -0.16125,-11.547044 -0.0852,-14.861085 0.3852,-16.785591 l 0.58613,-2.397941 0.25178,1.678559 c 0.13848,0.923207 0.64514,4.994091 1.12591,9.04641 0.95136,8.018893 1.58592,11.163553 2.30934,11.444363 0.69238,0.26877 1.28567,-2.28208 2.59363,-11.151349 0.64728,-4.389206 1.26791,-8.0864 1.37918,-8.215984 0.63144,-0.735334 0.69074,7.834476 0.11019,15.924483 -0.36053,5.0241 -0.6487,10.74319 -0.64037,12.70909 0.0146,3.45134 0.8319,9.75632 1.34161,10.34989 0.13665,0.15914 1.72563,0.31836 3.53108,0.35382 2.86501,0.0563 3.4178,0.2124 4.34522,1.22715 0.88577,0.96919 1.0626,1.59023 1.0626,3.73187 0,1.61543 -0.1911,2.65284 -0.51478,2.79454 -0.28313,0.12395 -76.12604,0.27904 -168.5398,0.34464 -159.55305,0.11327 -168.061353,0.077 -168.745709,-0.72 z m 61.194321,-12.46929 c 0.30501,-6.1642 0.28042,-22.185519 -0.0318,-20.749224 -0.11385,0.523677 -1.22088,4.498464 -2.46006,8.832844 -3.55235,12.42531 -3.42868,15.41369 0.70348,16.99902 1.42978,0.54855 1.52288,0.28397 1.78842,-5.08264 z m 36.68545,4.72239 c 2.88403,-1.4033 2.8075,-4.49075 -0.36961,-14.91131 -1.04509,-3.42778 -2.15308,-7.31244 -2.46219,-8.632589 -0.54904,-2.344846 -0.56288,-2.244943 -0.59944,4.326539 -0.0367,6.58509 0.37271,12.33651 1.23644,17.3725 0.23751,1.38481 0.51731,2.51784 0.62179,2.51784 0.10446,0 0.81232,-0.30284 1.57301,-0.67298 z m 78.72359,-0.23137 c 3.04407,-2.1617 3.39689,-7.61449 1.02595,-15.85571 -1.39457,-4.84739 -5.5812,-14.75281 -7.20677,-17.050915 l -1.01771,-1.438765 0.23225,1.918353 c 0.12773,1.055094 1.21799,7.745351 2.42279,14.867237 1.20481,7.12188 2.31693,14.18982 2.47139,15.70651 0.15446,1.5167 0.39847,2.75683 0.54224,2.75584 0.14379,-9.6e-4 0.83222,-0.40713 1.52986,-0.90255 z m 99.98305,0.24396 c 3.12058,-1.51841 3.00958,-5.06397 -0.55517,-17.7327 l -2.44904,-8.703649 -0.005,9.831559 c -0.006,10.87112 0.53395,17.26518 1.45738,17.26518 0.10716,0 0.80558,-0.29718 1.55205,-0.66039 z M 336.966,121.778 c 1.71342,-2.30166 1.86827,-7.25492 0.68041,-21.76461 l -0.51041,-6.234649 -0.53427,2.637735 c -0.89037,4.395854 -2.9424,18.705584 -3.24279,22.613464 -0.25693,3.34248 -0.21308,3.68986 0.49175,3.89546 1.15261,0.33624 2.33504,-0.0993 3.11531,-1.1474 z M 114.44764,108.16639 c 0.0631,-8.734886 -1.10199,-13.604865 -4.6314,-19.358792 -1.21788,-1.9855 -5.60454,-6.463511 -5.94418,-6.067981 -0.0876,0.101966 0.30164,0.900964 0.86487,1.775551 3.21366,4.990139 5.0326,10.484586 6.86159,20.726672 0.69907,3.91466 1.49253,8.11647 1.76325,9.33735 0.48485,2.1866 0.49634,2.19828 0.76825,0.78102 0.15183,-0.79132 0.29476,-4.02854 0.31762,-7.19382 z m 27.64534,1.0709 c 0.2901,-1.56619 0.41673,-6.38603 0.33683,-12.820814 l -0.12803,-10.311147 -0.74464,3.541241 c -0.40955,1.94768 -0.85124,5.300319 -0.98152,7.450303 -0.28245,4.660807 0.22158,15.248097 0.70921,14.897147 0.1888,-0.1359 0.55247,-1.37642 0.80815,-2.75673 z M 265.49385,85.51227 c -0.62565,-1.408949 -2.61851,-3.297006 -3.00498,-2.846946 -0.29019,0.337937 0.99592,3.084055 1.9824,4.232851 1.18823,1.383736 1.85261,0.483295 1.02258,-1.385905 z"
   id="path914" /></svg>
