<svg id="line_color" height="512" viewBox="0 0 74 74" width="512" xmlns="http://www.w3.org/2000/svg" data-name="line color"><path d="m66.269 13.151v26.627h-17.415a3.741 3.741 0 0 0 -3.741 3.741v17.33h4.976v-16.094h16.18v16.094h4.976v-47.7z" fill="#e7aa6c"/><path d="m8.222 13.151v26.627h17.415a3.741 3.741 0 0 1 3.741 3.741v17.33h-4.978v-16.094h-16.178v16.094h-4.977v-47.7z" fill="#e7aa6c"/><path d="m39.771 41.522v19.327h-5.493v-23.808" fill="#e7aa6c"/><path d="m68.778 13.151h2.468v47.697h-2.468z" fill="#d09865"/><path d="m66.269 58.083h4.976v2.765h-4.976z" fill="#d09865"/><path d="m45.137 58.083h4.976v2.765h-4.976z" fill="#d09865"/><path d="m34.536 58.083h4.976v2.765h-4.976z" fill="#d09865"/><path d="m24.436 58.083h4.976v2.765h-4.976z" fill="#d09865"/><path d="m3.245 58.083h4.976v2.765h-4.976z" fill="#d09865"/><path d="m25.637 39.778h-2.42a3.741 3.741 0 0 1 3.741 3.741v17.33h2.42v-17.329a3.741 3.741 0 0 0 -3.741-3.742z" fill="#d09865"/><path d="m5.802 13.151h2.42v26.627h-2.42z" fill="#d09865"/><path d="m29 35.772h-13.892a.964.964 0 0 1 -.966-.966v-4.572a.964.964 0 0 1 .966-.966h43.833a.964.964 0 0 1 .966.966v4.571a.964.964 0 0 1 -.966.966h-13.557" fill="#e1e6e9"/><path d="m58.941 29.268h-43.833a.964.964 0 0 0 -.966.966v1.6h42.49a.964.964 0 0 1 .966.966v2.975h1.343a.964.964 0 0 0 .966-.966v-4.575a.964.964 0 0 0 -.966-.966z" fill="#d5d6db"/><path d="m17 29.266 24.071 13.142 8.542-13.142z" fill="#27ccbc"/><path d="m46.206 29.266-7.386 11.363 2.25 1.779 8.543-13.142z" fill="#21b3a9"/><path d="m21.912 22.813v4.387a2.066 2.066 0 0 0 2.066 2.066h2.081a2.066 2.066 0 0 0 2.067-2.066v-4.387z" fill="#e1e6e9"/><path d="m26.06 29.768h-2.081a2.569 2.569 0 0 1 -2.567-2.568v-4.387a.5.5 0 0 1 .5-.5h6.214a.5.5 0 0 1 .5.5v4.387a2.569 2.569 0 0 1 -2.566 2.568zm-3.647-6.455v3.887a1.568 1.568 0 0 0 1.566 1.566h2.081a1.568 1.568 0 0 0 1.566-1.566v-3.887z" fill="#323c6b"/><path d="m45.923 22.813v4.387a2.066 2.066 0 0 0 2.066 2.066h2.081a2.066 2.066 0 0 0 2.067-2.066v-4.387z" fill="#e1e6e9"/><g fill="#323c6b"><path d="m50.07 29.768h-2.081a2.569 2.569 0 0 1 -2.566-2.568v-4.387a.5.5 0 0 1 .5-.5h6.214a.5.5 0 0 1 .5.5v4.387a2.569 2.569 0 0 1 -2.567 2.568zm-3.647-6.455v3.887a1.568 1.568 0 0 0 1.566 1.566h2.081a1.568 1.568 0 0 0 1.567-1.566v-3.887z"/><path d="m14.333 48.255h-1.583a.5.5 0 0 1 0-1h1.583a.5.5 0 0 1 0 1z"/><path d="m11.222 57.375a.5.5 0 0 1 -.5-.5v-6.625a.5.5 0 0 1 1 0v6.625a.5.5 0 0 1 -.5.5z"/><path d="m62.907 30.734a.5.5 0 0 1 -.5-.5 3.471 3.471 0 0 0 -3.467-3.466h-2.44a.5.5 0 0 1 0-1h2.44a4.472 4.472 0 0 1 4.467 4.466.5.5 0 0 1 -.5.5z"/><path d="m62.907 33.938a.5.5 0 0 1 -.5-.5v-.738a.5.5 0 0 1 1 0v.734a.5.5 0 0 1 -.5.504z"/><path d="m58.94 36.271h-13.556a.5.5 0 0 1 0-1h13.556a.461.461 0 0 0 .467-.466v-4.571a.461.461 0 0 0 -.467-.466h-43.832a.461.461 0 0 0 -.467.466v4.571a.461.461 0 0 0 .467.466h13.892a.5.5 0 1 1 0 1h-13.892a1.468 1.468 0 0 1 -1.467-1.466v-4.571a1.468 1.468 0 0 1 1.467-1.466h43.832a1.468 1.468 0 0 1 1.467 1.466v4.571a1.468 1.468 0 0 1 -1.467 1.466z"/><path d="m41.07 42.908a.493.493 0 0 1 -.239-.061l-24.07-13.142a.5.5 0 0 1 .239-.939h32.612a.5.5 0 0 1 .419.772l-8.542 13.142a.5.5 0 0 1 -.419.228zm-22.111-13.142 21.941 11.981 7.788-11.981z"/><path d="m71.245 61.349h-4.976a.5.5 0 0 1 -.5-.5v-15.594h-15.18v15.594a.5.5 0 0 1 -.5.5h-4.977a.5.5 0 0 1 -.5-.5v-17.329a4.246 4.246 0 0 1 4.241-4.241h16.916v-26.128a.5.5 0 0 1 .5-.5h4.977a.5.5 0 0 1 .5.5v47.7a.5.5 0 0 1 -.501.498zm-4.477-1h3.977v-46.7h-3.976v26.129a.5.5 0 0 1 -.5.5h-17.415a3.245 3.245 0 0 0 -3.241 3.241v16.83h3.977v-15.594a.5.5 0 0 1 .5-.5h16.18a.5.5 0 0 1 .5.5z"/><path d="m39.771 61.349h-5.494a.5.5 0 0 1 -.5-.5v-21.849a.5.5 0 0 1 1 0v21.349h4.494v-18.649a.5.5 0 0 1 1 0v19.15a.5.5 0 0 1 -.5.499z"/><path d="m29.378 61.349h-4.978a.5.5 0 0 1 -.5-.5v-15.594h-15.178v15.594a.5.5 0 0 1 -.5.5h-4.977a.5.5 0 0 1 -.5-.5v-47.7a.5.5 0 0 1 .5-.5h4.977a.5.5 0 0 1 .5.5v26.129h16.915a4.246 4.246 0 0 1 4.241 4.241v17.33a.5.5 0 0 1 -.5.5zm-4.476-1h3.976v-16.829a3.245 3.245 0 0 0 -3.241-3.241h-17.415a.5.5 0 0 1 -.5-.5v-26.128h-3.977v46.7h3.977v-15.596a.5.5 0 0 1 .5-.5h16.178a.5.5 0 0 1 .5.5z"/></g><path d="m47.625 53.978a.516.516 0 0 1 -.517-.516v-6.289a.517.517 0 0 1 1.033 0v6.289a.516.516 0 0 1 -.516.516z" fill="#fff"/><path d="m47.625 56.427a.516.516 0 0 1 -.517-.516v-.4a.517.517 0 0 1 1.033 0v.4a.516.516 0 0 1 -.516.516z" fill="#fff"/></svg>