<?xml version="1.0" encoding="UTF-8" standalone="no"?>
<!-- Generator: Adobe Illustrator 19.0.0, SVG Export Plug-In . SVG Version: 6.00 Build 0)  -->

<svg
   version="1.1"
   id="Layer_1"
   x="0px"
   y="0px"
   viewBox="0 0 512 512"
   style="enable-background:new 0 0 512 512;"
   xml:space="preserve"
   sodipodi:docname="Räume_toilets-restroom-svgrepo-com.svg"
   inkscape:version="1.1 (c68e22c387, 2021-05-23)"
   xmlns:inkscape="http://www.inkscape.org/namespaces/inkscape"
   xmlns:sodipodi="http://sodipodi.sourceforge.net/DTD/sodipodi-0.dtd"
   xmlns="http://www.w3.org/2000/svg"
   xmlns:svg="http://www.w3.org/2000/svg"><defs
   id="defs61" /><sodipodi:namedview
   id="namedview59"
   pagecolor="#ffffff"
   bordercolor="#999999"
   borderopacity="1"
   inkscape:pageshadow="0"
   inkscape:pageopacity="0"
   inkscape:pagecheckerboard="0"
   showgrid="false"
   inkscape:zoom="1.4707031"
   inkscape:cx="258.71979"
   inkscape:cy="256.67995"
   inkscape:window-width="1920"
   inkscape:window-height="1129"
   inkscape:window-x="1912"
   inkscape:window-y="-8"
   inkscape:window-maximized="1"
   inkscape:current-layer="Layer_1" />
<circle
   style="fill:#71e2ef;fill-opacity:1"
   cx="256"
   cy="256"
   r="256"
   id="circle2" />
<path
   style="fill:#38c6d9;stroke-width:1;fill-opacity:1"
   d="m 512,256 c 0,-8.245 -0.405,-16.394 -1.167,-24.44 L 407.704,128.431 309.69,294.748 340.105,325.165 104.297,393.913 219.83,509.444 C 231.648,511.116 243.721,512 256,512 397.384,512 512,397.384 512,256 Z"
   id="path4" />
<rect
   x="104.296"
   y="128.431"
   style="fill:#d3d3d3"
   width="176.993"
   height="265.481"
   id="rect6" />
<rect
   x="256"
   y="128.431"
   style="fill:#696969"
   width="151.704"
   height="265.481"
   id="rect8" />
<g
   id="g26">
	<path
   style="fill:#B54324;"
   d="M180.148,195.741c-16.203,0-29.384-13.181-29.384-29.384s13.181-29.384,29.384-29.384   s29.384,13.181,29.384,29.384S196.351,195.741,180.148,195.741z M180.148,145.172c-11.681,0-21.185,9.504-21.185,21.185   c0,11.681,9.504,21.185,21.185,21.185s21.185-9.504,21.185-21.185C201.333,154.676,191.829,145.172,180.148,145.172z"
   id="path10" />
	<path
   style="fill:#B54324;"
   d="M331.852,195.741c-16.203,0-29.384-13.181-29.384-29.384s13.181-29.384,29.384-29.384   c16.203,0,29.384,13.181,29.384,29.384S348.055,195.741,331.852,195.741z M331.852,145.172c-11.681,0-21.185,9.504-21.185,21.185   c0,11.681,9.504,21.185,21.185,21.185s21.185-9.504,21.185-21.185C353.037,154.676,343.533,145.172,331.852,145.172z"
   id="path12" />
	<path
   style="fill:#B54324;"
   d="M230.715,285.767c-2.265,0-4.099-1.836-4.099-4.099V223.31c0-7.385-6.01-13.395-13.395-13.395   h-66.146c-7.385,0-13.395,6.01-13.395,13.395v58.358c0,2.265-1.836,4.099-4.099,4.099c-2.263,0-4.099-1.836-4.099-4.099V223.31   c0-11.909,9.687-21.594,21.594-21.594h66.146c11.909,0,21.594,9.687,21.594,21.594v58.358   C234.815,283.932,232.981,285.767,230.715,285.767z"
   id="path14" />
	<path
   style="fill:#B54324;"
   d="M205.433,372.727c-2.265,0-4.099-1.836-4.099-4.099V242.209c0-2.265,1.836-4.099,4.099-4.099   c2.263,0,4.099,1.836,4.099,4.099v126.419C209.532,370.893,207.698,372.727,205.433,372.727z"
   id="path16" />
	<path
   style="fill:#B54324;"
   d="M154.864,372.727c-2.265,0-4.099-1.836-4.099-4.099V242.209c0-2.265,1.836-4.099,4.099-4.099   c2.263,0,4.099,1.836,4.099,4.099v126.419C158.963,370.893,157.129,372.727,154.864,372.727z"
   id="path18" />
	<path
   style="fill:#B54324;"
   d="M347.941,372.727c-2.265,0-4.099-1.836-4.099-4.099v-75.852c0-2.265,1.836-4.099,4.099-4.099   c2.265,0,4.099,1.836,4.099,4.099v75.852C352.042,370.893,350.206,372.727,347.941,372.727z"
   id="path20" />
	<path
   style="fill:#B54324;"
   d="M315.763,372.727c-2.265,0-4.099-1.836-4.099-4.099v-75.852c0-2.265,1.836-4.099,4.099-4.099   c2.265,0,4.099,1.836,4.099,4.099v75.852C319.862,370.893,318.026,372.727,315.763,372.727z"
   id="path22" />
	<path
   style="fill:#B54324;"
   d="M382.423,310.668c-1.503,0-2.951-0.831-3.67-2.269l-25.283-50.567   c-0.283-0.571-0.433-1.198-0.433-1.834v-39.331c0-3.936-3.201-7.137-7.139-7.137h-28.093c-3.937,0-7.139,3.201-7.139,7.137V256   c0,0.636-0.148,1.264-0.433,1.834l-25.283,50.567c-1.015,2.026-3.477,2.846-5.501,1.834c-2.024-1.014-2.846-3.475-1.834-5.501   l24.85-49.7v-38.364c0-8.456,6.88-15.338,15.339-15.338h28.093c8.457,0,15.339,6.88,15.339,15.338v38.364l24.85,49.7   c1.012,2.026,0.191,4.487-1.834,5.501C383.664,310.529,383.04,310.668,382.423,310.668z"
   id="path24" />
</g>
<g
   id="g28">
</g>
<g
   id="g30">
</g>
<g
   id="g32">
</g>
<g
   id="g34">
</g>
<g
   id="g36">
</g>
<g
   id="g38">
</g>
<g
   id="g40">
</g>
<g
   id="g42">
</g>
<g
   id="g44">
</g>
<g
   id="g46">
</g>
<g
   id="g48">
</g>
<g
   id="g50">
</g>
<g
   id="g52">
</g>
<g
   id="g54">
</g>
<g
   id="g56">
</g>
</svg>
