<svg id="line_color" height="512" viewBox="0 0 74 74" width="512" xmlns="http://www.w3.org/2000/svg" data-name="line color"><path d="m6.269 36.584h19.9a0 0 0 0 1 0 0v24.549a0 0 0 0 1 0 0h-17.139a2.761 2.761 0 0 1 -2.761-2.761v-21.788a0 0 0 0 1 0 0z" fill="#e7aa6c"/><path d="m49.285 36.584h19.9a0 0 0 0 1 0 0v21.788a2.761 2.761 0 0 1 -2.761 2.761h-17.139a0 0 0 0 1 0 0v-24.549a0 0 0 0 1 0 0z" fill="#e7aa6c"/><path d="m26.166 36.584h23.119v24.548h-23.119z" fill="#e7aa6c"/><path d="m26.17 58.103h23.111v3.033h-23.111z" fill="#d09865"/><path d="m49.285 61.633a.5.5 0 0 1 -.5-.5v-24.549a.5.5 0 0 1 1 0v24.549a.5.5 0 0 1 -.5.5z" fill="#323c6b"/><path d="m26.17 58.1v3.034h-17.593a2.32 2.32 0 0 1 -2.311-2.321v-1.04a2.36 2.36 0 0 0 1.194.327z" fill="#d09865"/><path d="m69.185 36.58v22.236a2.32 2.32 0 0 1 -2.311 2.321h-17.593v-3.037h13.963a2.311 2.311 0 0 0 2.311-2.311v-19.209z" fill="#d09865"/><path d="m49.285 61.633a.5.5 0 0 1 -.5-.5v-24.549a.5.5 0 0 1 1 0v24.549a.5.5 0 0 1 -.5.5z" fill="#323c6b"/><path d="m71.75 37.084h-68.05a.5.5 0 0 1 0-1h68.05a.5.5 0 0 1 0 1z" fill="#323c6b"/><path d="m10.7 64.271a.5.5 0 0 1 -.5-.5v-2.638a.5.5 0 0 1 1 0v2.638a.5.5 0 0 1 -.5.5z" fill="#323c6b"/><path d="m64.749 64.271a.5.5 0 0 1 -.5-.5v-2.638a.5.5 0 0 1 1 0v2.638a.5.5 0 0 1 -.5.5z" fill="#323c6b"/><path d="m8.383 11.532h58.636v4.852h-58.636z" fill="#e7aa6c"/><path d="m67.019 16.884h-58.637a.5.5 0 0 1 -.5-.5v-4.852a.5.5 0 0 1 .5-.5h58.637a.5.5 0 0 1 .5.5v4.852a.5.5 0 0 1 -.5.5zm-58.137-1h57.637v-3.852h-57.637z" fill="#323c6b"/><path d="m23.965 16.384h27.472v3.866h-27.472z" fill="#bbbbcd"/><path d="m51.437 20.75h-27.472a.5.5 0 0 1 -.5-.5v-3.866a.5.5 0 0 1 .5-.5h27.472a.5.5 0 0 1 .5.5v3.866a.5.5 0 0 1 -.5.5zm-26.972-1h26.472v-2.866h-26.472z" fill="#323c6b"/><path d="m51.437 20.25h-27.472l7.448 12.507h12.575z" fill="#e1e6e9"/><g fill="#323c6b"><path d="m43.988 33.257h-12.575a.5.5 0 0 1 -.43-.244l-7.448-12.507a.5.5 0 0 1 .43-.756h27.472a.5.5 0 0 1 .429.756l-7.448 12.507a.5.5 0 0 1 -.43.244zm-12.291-1h12.003l6.857-11.507h-25.712z"/><path d="m23.2 53a.5.5 0 0 1 -.5-.5v-3.695a.5.5 0 0 1 1 0v3.695a.5.5 0 0 1 -.5.5z"/><path d="m46.392 53a.5.5 0 0 1 -.5-.5v-3.695a.5.5 0 0 1 1 0v3.695a.5.5 0 0 1 -.5.5z"/><path d="m52.451 53a.5.5 0 0 1 -.5-.5v-3.695a.5.5 0 0 1 1 0v3.695a.5.5 0 0 1 -.5.5z"/><path d="m66.421 61.633h-17.136a.5.5 0 0 1 -.5-.5v-24.549a.5.5 0 0 1 .5-.5h19.9a.5.5 0 0 1 .5.5v21.788a3.265 3.265 0 0 1 -3.264 3.261zm-16.636-1h16.636a2.263 2.263 0 0 0 2.261-2.261v-21.288h-18.9z"/><path d="m49.285 61.633h-23.119a.5.5 0 0 1 -.5-.5v-24.549a.5.5 0 0 1 .5-.5h23.119a.5.5 0 0 1 .5.5v24.549a.5.5 0 0 1 -.5.5zm-22.619-1h22.119v-23.549h-22.119z"/><path d="m26.166 61.633h-17.136a3.265 3.265 0 0 1 -3.261-3.261v-21.788a.5.5 0 0 1 .5-.5h19.9a.5.5 0 0 1 .5.5v24.549a.5.5 0 0 1 -.503.5zm-19.397-24.549v21.288a2.263 2.263 0 0 0 2.261 2.261h16.636v-23.549z"/><path d="m62.188 34.614h-8.125a.5.5 0 0 1 0-1h8.125a.5.5 0 0 1 0 1z"/><path d="m65.813 34.614h-.9a.5.5 0 0 1 0-1h.9a.5.5 0 0 1 0 1z"/></g><path d="m29.672 48.286v6.654a.588.588 0 0 1 -1.176 0v-6.654a.588.588 0 1 1 1.176 0z" fill="#fff"/><path d="m29.672 45.467v.441a.588.588 0 0 1 -1.176 0v-.441a.588.588 0 1 1 1.176 0z" fill="#fff"/><path d="m6.012 64.271a.509.509 0 0 1 -.243-.063 5.71 5.71 0 0 1 -2.936-4.982v-2.976a.5.5 0 0 1 1 0v2.976a4.708 4.708 0 0 0 2.422 4.107.5.5 0 0 1 -.243.938z" fill="#323c6b"/><path d="m3.333 54.5a.5.5 0 0 1 -.5-.5v-.6a.5.5 0 0 1 1 0v.6a.5.5 0 0 1 -.5.5z" fill="#323c6b"/></svg>