<?xml version="1.0" encoding="UTF-8" standalone="no"?>
<svg
   xmlns:dc="http://purl.org/dc/elements/1.1/"
   xmlns:cc="http://creativecommons.org/ns#"
   xmlns:rdf="http://www.w3.org/1999/02/22-rdf-syntax-ns#"
   xmlns:svg="http://www.w3.org/2000/svg"
   xmlns="http://www.w3.org/2000/svg"
   xmlns:sodipodi="http://sodipodi.sourceforge.net/DTD/sodipodi-0.dtd"
   xmlns:inkscape="http://www.inkscape.org/namespaces/inkscape"
   version="1.1"
   id="Layer_1"
   x="0px"
   y="0px"
   viewBox="0 0 512 512"
   style="enable-background:new 0 0 512 512;"
   xml:space="preserve"
   sodipodi:docname="Abstellraum.svg"
   inkscape:version="1.0.2 (e86c870879, 2021-01-15, custom)"><metadata
   id="metadata1721"><rdf:RDF><cc:Work
       rdf:about=""><dc:format>image/svg+xml</dc:format><dc:type
         rdf:resource="http://purl.org/dc/dcmitype/StillImage" /><dc:title /></cc:Work></rdf:RDF></metadata><defs
   id="defs1719"><clipPath
     clipPathUnits="userSpaceOnUse"
     id="clipPath94"><rect
       style="fill:#bb90b7"
       id="rect96"
       width="375.89874"
       height="361.31647"
       x="-119.08861"
       y="57.518986" /></clipPath></defs><sodipodi:namedview
   pagecolor="#ffffff"
   bordercolor="#666666"
   borderopacity="1"
   objecttolerance="10"
   gridtolerance="10"
   guidetolerance="10"
   inkscape:pageopacity="0"
   inkscape:pageshadow="2"
   inkscape:window-width="1920"
   inkscape:window-height="1137"
   id="namedview1717"
   showgrid="false"
   inkscape:zoom="1.234375"
   inkscape:cx="-72.052011"
   inkscape:cy="178.77128"
   inkscape:window-x="1912"
   inkscape:window-y="-8"
   inkscape:window-maximized="1"
   inkscape:current-layer="Layer_1"
   inkscape:document-rotation="0" />
<circle
   style="fill:#d38d5f"
   cx="256"
   cy="256"
   r="256"
   id="circle1660" />
<path
   style="fill:#a05a2c"
   d="M512,256c0-1.557-0.031-3.106-0.059-4.656L373.889,114.526l-31.129,47.799l14.041,14.041  l-218.7,221.084l114.507,114.507c1.131,0.016,2.258,0.043,3.393,0.043C397.384,512,512,397.384,512,256z"
   id="path1662" />
<path
   style="fill:#ff8080"
   d="M148.109,401.842h215.781c7.535,0,13.645-6.11,13.645-13.645V123.802  c0-7.535-6.11-13.645-13.645-13.645H148.109c-7.535,0-13.645,6.11-13.645,13.645v264.395  C134.465,395.733,140.574,401.842,148.109,401.842z"
   id="path1664" />








<g
   id="g1686">
</g>
<g
   id="g1688">
</g>
<g
   id="g1690">
</g>
<g
   id="g1692">
</g>
<g
   id="g1694">
</g>
<g
   id="g1696">
</g>
<g
   id="g1698">
</g>
<g
   id="g1700">
</g>
<g
   id="g1702">
</g>
<g
   id="g1704">
</g>
<g
   id="g1706">
</g>
<g
   id="g1708">
</g>
<g
   id="g1710">
</g>
<g
   id="g1712">
</g>
<g
   id="g1714">
</g>
<path
   style="fill:#f7d1c4;stroke-width:1"
   d="M 148.109,401.842 H 363.89 c 7.535,0 13.645,-6.11 13.645,-13.645 V 123.802 c 0,-7.535 -6.11,-13.645 -13.645,-13.645 H 148.109 c -7.535,0 -13.645,6.11 -13.645,13.645 v 264.395 c 0.001,7.536 6.11,13.645 13.645,13.645 z"
   id="path1664-4"
   clip-path="url(#clipPath94)" /><rect
   style="fill:#916f6f"
   id="rect1723"
   width="152.30382"
   height="21.063314"
   x="179.84808"
   y="328.10126"
   ry="10.531657" /><rect
   style="fill:#916f6f;stroke-width:1.07417"
   id="rect1723-3"
   width="20.25317"
   height="210.63293"
   x="245.8893"
   y="121.98081"
   ry="76.151909"
   rx="2.4303796" /><rect
   style="fill:#916f6f"
   id="rect1745"
   width="16.202532"
   height="49.417721"
   x="293.19189"
   y="332.61374"
   ry="7.4469981" /><rect
   style="fill:#916f6f"
   id="rect1745-1"
   width="16.202532"
   height="49.417721"
   x="315.8432"
   y="332.61374"
   ry="7.4469981" /><rect
   style="fill:#916f6f"
   id="rect1745-2"
   width="16.202532"
   height="49.417721"
   x="270.54059"
   y="332.61374"
   ry="7.4469981" /><rect
   style="fill:#916f6f"
   id="rect1745-5"
   width="16.202532"
   height="49.417721"
   x="247.8893"
   y="332.61374"
   ry="7.4469981" /><rect
   style="fill:#916f6f"
   id="rect1745-6"
   width="16.202532"
   height="49.417721"
   x="225.23801"
   y="332.61374"
   ry="7.4469981" /><rect
   style="fill:#916f6f"
   id="rect1745-15"
   width="16.202532"
   height="49.417721"
   x="202.58672"
   y="332.61374"
   ry="7.4469981" /><rect
   style="fill:#916f6f"
   id="rect1745-68"
   width="16.202532"
   height="49.417721"
   x="179.93542"
   y="332.61374"
   ry="7.4469981" /></svg>
