<svg id="color_icon" height="512" viewBox="0 0 74 74" width="512" xmlns="http://www.w3.org/2000/svg" data-name="color icon"><path d="m38.8 44.007-7.873 25.093a2.646 2.646 0 0 1 -4.4 1.1l-22.747-22.746a2.645 2.645 0 0 1 1.066-4.391l25-8.018z" fill="#eeefee"/><path d="m7.772 51.513a.5.5 0 0 1 -.354-.853l3.624-3.635a.5.5 0 1 1 .708.706l-3.624 3.635a.5.5 0 0 1 -.354.147z" fill="#323c6b"/><path d="m11.766 55.958a.5.5 0 0 1 -.354-.853l6.851-6.851a.5.5 0 0 1 .707.707l-6.851 6.851a.5.5 0 0 1 -.353.146z" fill="#323c6b"/><path d="m40.16 39.01 29.666-29.082a4.046 4.046 0 0 0 -5.726-5.715l-29.655 29.087z" fill="#fed19a"/><path d="m32.207 37.873-25 8.018a2.648 2.648 0 0 0 -1.728 3.258l-1.7-1.7a2.644 2.644 0 0 1 1.077-4.391l24.985-8.018 1.743 1.742a2.217 2.217 0 0 0 .6 1.063z" fill="#dbd8dd"/><path d="m70.894 6.184a4.008 4.008 0 0 0 -4.434.864l-29.408 28.852-2.607-2.6 29.649-29.085a4.022 4.022 0 0 1 6.8 1.969z" fill="#f4bb87"/><path d="m40.16 39.51a.5.5 0 0 1 -.353-.146l-5.716-5.716a.5.5 0 0 1 0-.71l29.655-29.082a4.538 4.538 0 0 1 7.754 3.207 4.567 4.567 0 0 1 -1.316 3.215l-29.674 29.089a.494.494 0 0 1 -.35.143zm-5-6.212 5.009 5.009 29.308-28.736a3.567 3.567 0 0 0 -.007-5.008 3.636 3.636 0 0 0 -5.021 0z" fill="#323c6b"/><path d="m28.386 71.477a3.116 3.116 0 0 1 -2.213-.924l-22.746-22.746a3.146 3.146 0 0 1 1.266-5.221l25-8.017a.5.5 0 0 1 .507.123l8.961 8.961a.5.5 0 0 1 .124.5l-7.885 25.099a3.118 3.118 0 0 1 -2.246 2.129 3.194 3.194 0 0 1 -.768.096zm1.319-35.862-24.705 7.924a2.144 2.144 0 0 0 -.866 3.561l22.746 22.746a2.145 2.145 0 0 0 3.569-.89l7.787-24.81z" fill="#323c6b"/><path d="m41.8 40.649-8.811-8.811a2.246 2.246 0 0 0 -3.177 3.176l8.811 8.811a2.246 2.246 0 0 0 3.177-3.176z" fill="#bbbbcd"/><g fill="#323c6b"><path d="m40.21 44.981a2.736 2.736 0 0 1 -1.941-.8l-8.811-8.811a2.746 2.746 0 0 1 3.883-3.884l8.811 8.814a2.744 2.744 0 0 1 -1.942 4.686zm-8.81-13.3a1.745 1.745 0 0 0 -1.234 2.98l8.811 8.811a1.746 1.746 0 1 0 2.468-2.472l-8.811-8.811a1.74 1.74 0 0 0 -1.234-.508z"/><path d="m50.417 13.928a.5.5 0 0 1 -.351-.857l1.966-1.928a.5.5 0 1 1 .7.714l-1.965 1.928a.5.5 0 0 1 -.35.143z"/><path d="m54.667 9.759a.5.5 0 0 1 -.351-.857l6.637-6.509a.5.5 0 1 1 .7.714l-6.636 6.509a.5.5 0 0 1 -.35.143z"/><path d="m2.334 41.523a.5.5 0 0 1 -.294-.9 6.17 6.17 0 0 1 1.74-.89l1.159-.372a.5.5 0 0 1 .306.953l-1.16.371a5.184 5.184 0 0 0 -1.458.747.493.493 0 0 1 -.293.091z"/><path d="m8.833 39.133a.5.5 0 0 1 -.152-.976l9.509-3.05a.5.5 0 0 1 .306.953l-9.51 3.049a.5.5 0 0 1 -.153.024z"/></g><path d="m27.314 64.617a.7.7 0 0 1 -.5-.2l-3.914-3.917a.7.7 0 1 1 .99-.99l3.1 3.1 2.089-6.657a.7.7 0 1 1 1.336.419l-2.436 7.76a.7.7 0 0 1 -.5.47.676.676 0 0 1 -.165.015z" fill="#fff"/><path d="m30.526 54.3a.7.7 0 0 1 -.668-.91l.171-.646a.7.7 0 1 1 1.336.419l-.171.646a.7.7 0 0 1 -.668.491z" fill="#fff"/></svg>