<svg id="line_color" height="512" viewBox="0 0 74 74" width="512" xmlns="http://www.w3.org/2000/svg" data-name="line color"><path d="m22.536 66.815v3.305h3.739l2.533-3.305" fill="#e1e6e9"/><path d="m26.275 70.62h-3.739a.5.5 0 0 1 -.5-.5v-3.305a.5.5 0 0 1 1 0v2.805h2.993l2.382-3.109a.5.5 0 1 1 .794.609l-2.533 3.3a.5.5 0 0 1 -.397.2z" fill="#323c6b"/><path d="m59.692 66.815v3.305h-3.739l-2.533-3.305" fill="#e1e6e9"/><path d="m59.692 70.62h-3.739a.5.5 0 0 1 -.4-.2l-2.534-3.3a.5.5 0 1 1 .794-.609l2.387 3.109h2.993v-2.805a.5.5 0 0 1 1 0v3.305a.5.5 0 0 1 -.501.5z" fill="#323c6b"/><rect fill="#d5d6db" height="5.544" rx="2.772" width="63.877" x="9.176" y="41.443"/><path d="m70.28 47.487h-58.332a3.272 3.272 0 1 1 0-6.544h58.332a3.272 3.272 0 0 1 0 6.544zm-58.332-5.544a2.272 2.272 0 1 0 0 4.544h58.332a2.272 2.272 0 0 0 0-4.544z" fill="#323c6b"/><path d="m58.4 66.815h-34.573a9.074 9.074 0 0 1 -8.871-7.159l-2.737-12.669h57.789l-2.736 12.669a9.075 9.075 0 0 1 -8.872 7.159z" fill="#e1e6e9"/><path d="m66.133 46.987-2.733 12.669a9.075 9.075 0 0 1 -8.871 7.159h3.871a9.075 9.075 0 0 0 8.871-7.159l2.736-12.669z" fill="#d5d6db"/><path d="m66.639 41.446h-3v-31.2a1.116 1.116 0 0 0 -1.11-1.12h-4.064a1.308 1.308 0 0 0 -.912.364l-2.377 2.25-2.276-2.01 2.58-2.411a4.286 4.286 0 0 1 2.982-1.194h4.064a4.12 4.12 0 0 1 4.11 4.12z" fill="#eeefee"/><path d="m66.639 41.945h-3a.5.5 0 0 1 -.5-.5v-31.2a.616.616 0 0 0 -.61-.62h-4.064a.816.816 0 0 0 -.567.225l-2.378 2.25a.5.5 0 0 1 -.675.011l-2.273-2.01a.5.5 0 0 1 -.01-.74l2.579-2.411a4.772 4.772 0 0 1 3.324-1.329h4.064a4.62 4.62 0 0 1 4.61 4.62v31.2a.5.5 0 0 1 -.5.504zm-2.5-1h2v-30.7a3.619 3.619 0 0 0 -3.61-3.62h-4.064a3.785 3.785 0 0 0 -2.636 1.054l-2.183 2.041 1.518 1.343 2.045-1.937a1.808 1.808 0 0 1 1.256-.5h4.064a1.617 1.617 0 0 1 1.61 1.62z" fill="#323c6b"/><path d="m33.566 14.093h-3.175a.5.5 0 0 1 0-1h3.175a.5.5 0 0 1 0 1z" fill="#323c6b"/><path d="m12.324 14.093h-3.442a.5.5 0 0 1 0-1h3.442a.5.5 0 1 1 0 1z" fill="#323c6b"/><path d="m30.391 11.541v15.078h-14.4v-15.089a1.806 1.806 0 0 0 -1.673-1.809l-.018-.021h14.249a1.844 1.844 0 0 1 1.842 1.841z" fill="#fcd462"/><path d="m28.549 9.7h-1.879v.057a1.84 1.84 0 0 1 1.41 1.785v15.077h2.311v-15.078a1.844 1.844 0 0 0 -1.842-1.841z" fill="#f7be56"/><path d="m15.986 11.53v5.458h-3.662v-5.458a1.833 1.833 0 0 1 1.831-1.83.4.4 0 0 1 .158.022 1.806 1.806 0 0 1 1.673 1.808z" fill="#f7be56"/><path d="m15.985 17.488h-3.661a.5.5 0 0 1 -.5-.5v-5.458a2.334 2.334 0 0 1 2.331-2.33.947.947 0 0 1 .255.028 2.31 2.31 0 0 1 2.075 2.3v5.458a.5.5 0 0 1 -.5.502zm-3.161-1h2.661v-4.958a1.306 1.306 0 0 0 -1.206-1.31.488.488 0 0 1 -.156-.037 1.351 1.351 0 0 0 -1.3 1.347z" fill="#323c6b"/><path d="m59.514 41.443c.01-.115.037-.226.037-.343a4.11 4.11 0 0 0 -4.229-3.966 4.776 4.776 0 0 0 -1.167.152 3.7 3.7 0 0 0 .414-1.689 4.1 4.1 0 0 0 -4.228-3.954 4.325 4.325 0 0 0 -3.341 1.525 4.25 4.25 0 0 0 -8.445-.3 4.361 4.361 0 0 0 -3.4-1.6 4.11 4.11 0 0 0 -4.229 3.966 3.659 3.659 0 0 0 .327 1.525 4.324 4.324 0 0 0 -1.355-.211 4.11 4.11 0 0 0 -4.229 3.966 3.675 3.675 0 0 0 .13.93z" fill="#89c5cd"/><path d="m59.514 41.943h-33.714a.5.5 0 0 1 -.484-.375 4.188 4.188 0 0 1 -.146-1.055 4.608 4.608 0 0 1 4.73-4.466 5.178 5.178 0 0 1 .614.037 4.287 4.287 0 0 1 -.085-.851 4.608 4.608 0 0 1 4.729-4.465 4.887 4.887 0 0 1 3.1 1.086 4.814 4.814 0 0 1 9.113.278 4.946 4.946 0 0 1 2.972-.989 4.6 4.6 0 0 1 4.726 4.457 4.15 4.15 0 0 1 -.136 1.053 4.608 4.608 0 0 1 5.118 4.45 1.964 1.964 0 0 1 -.026.288l-.013.1a.5.5 0 0 1 -.498.452zm-33.307-1h32.84a3.717 3.717 0 0 0 -4.766-3.172.5.5 0 0 1 -.571-.711 3.209 3.209 0 0 0 .359-1.463 3.6 3.6 0 0 0 -3.728-3.454 3.849 3.849 0 0 0 -2.953 1.343.5.5 0 0 1 -.885-.315 3.751 3.751 0 0 0 -7.446-.268.5.5 0 0 1 -.887.275 3.845 3.845 0 0 0 -3.012-1.41 3.608 3.608 0 0 0 -3.729 3.465 3.158 3.158 0 0 0 .282 1.318.5.5 0 0 1 -.083.541.505.505 0 0 1 -.528.141 3.841 3.841 0 0 0 -1.2-.186 3.608 3.608 0 0 0 -3.728 3.466 2.849 2.849 0 0 0 .035.43z" fill="#323c6b"/><path d="m42.279 12.184c3.165-3.7 8.465-4.353 11.836-1.467s3.54 8.224.375 11.921z" fill="#eeefee"/><g fill="#323c6b"><path d="m54.49 23.138a.5.5 0 0 1 -.325-.12l-12.211-10.454a.5.5 0 0 1 -.055-.7 9.7 9.7 0 0 1 6.159-3.373 8.128 8.128 0 0 1 6.382 1.851c3.576 3.062 3.769 8.726.43 12.626a.5.5 0 0 1 -.38.17zm-11.5-11 11.43 9.786c2.651-3.458 2.407-8.223-.635-10.827a7.153 7.153 0 0 0 -5.609-1.619 8.649 8.649 0 0 0 -5.176 2.66z"/><path d="m58.4 67.315h-34.573a9.628 9.628 0 0 1 -9.36-7.553l-2.737-12.67a.5.5 0 0 1 .489-.6h57.789a.5.5 0 0 1 .489.6l-2.736 12.67a9.628 9.628 0 0 1 -9.361 7.553zm-45.561-19.828 2.606 12.064a8.622 8.622 0 0 0 8.382 6.764h34.573a8.622 8.622 0 0 0 8.382-6.764l2.606-12.064z"/><path d="m30.391 27.12h-14.406a.5.5 0 0 1 -.5-.5v-15.09a1.306 1.306 0 0 0 -1.206-1.31.5.5 0 0 1 -.418-.284.522.522 0 0 1 .023-.493.5.5 0 0 1 .416-.243h14.249a2.345 2.345 0 0 1 2.342 2.342v15.078a.5.5 0 0 1 -.5.5zm-13.906-1h13.406v-14.579a1.343 1.343 0 0 0 -1.342-1.341h-12.483a2.32 2.32 0 0 1 .419 1.331z"/><path d="m6.428 43.032a.493.493 0 0 1 -.146-.022.5.5 0 0 1 -.332-.624 6.318 6.318 0 0 1 6-4.443h.73a.5.5 0 0 1 0 1h-.73a5.312 5.312 0 0 0 -5.041 3.735.5.5 0 0 1 -.481.354z"/><path d="m15.927 38.943h-1.127a.5.5 0 0 1 0-1h1.125a.5.5 0 0 1 0 1z"/><path d="m70.544 59.219a.483.483 0 0 1 -.106-.011.5.5 0 0 1 -.383-.594l.234-1.085a.5.5 0 0 1 .978.211l-.235 1.085a.5.5 0 0 1 -.488.394z"/><path d="m65.258 68.125a.5.5 0 0 1 -.285-.911 11.583 11.583 0 0 0 4.493-6.082.5.5 0 0 1 .956.294 12.594 12.594 0 0 1 -4.88 6.611.5.5 0 0 1 -.284.088z"/></g><path d="m42.556 63.465h-.792a.65.65 0 0 1 0-1.3h.792a.65.65 0 0 1 0 1.3z" fill="#fff"/><path d="m39.111 63.465h-9.042a.65.65 0 0 1 0-1.3h9.042a.65.65 0 1 1 0 1.3z" fill="#fff"/></svg>