<?xml version="1.0" encoding="UTF-8" standalone="no"?>
<svg
   xmlns:dc="http://purl.org/dc/elements/1.1/"
   xmlns:cc="http://creativecommons.org/ns#"
   xmlns:rdf="http://www.w3.org/1999/02/22-rdf-syntax-ns#"
   xmlns:svg="http://www.w3.org/2000/svg"
   xmlns="http://www.w3.org/2000/svg"
   xmlns:sodipodi="http://sodipodi.sourceforge.net/DTD/sodipodi-0.dtd"
   xmlns:inkscape="http://www.inkscape.org/namespaces/inkscape"
   version="1.1"
   id="Layer_1"
   x="0px"
   y="0px"
   viewBox="0 0 512 512"
   style="enable-background:new 0 0 512 512;"
   xml:space="preserve"
   sodipodi:docname="Räume_BadBL.svg"
   inkscape:version="1.0.2 (e86c870879, 2021-01-15, custom)"
   inkscape:export-filename="C:\Users\kalle\OneDrive - popularc GmbH\70_AML\Bibliotheken\images\Räume_BadBL.png"
   inkscape:export-xdpi="96"
   inkscape:export-ydpi="96"><metadata
   id="metadata57"><rdf:RDF><cc:Work
       rdf:about=""><dc:format>image/svg+xml</dc:format><dc:type
         rdf:resource="http://purl.org/dc/dcmitype/StillImage" /><dc:title></dc:title></cc:Work></rdf:RDF></metadata><defs
   id="defs55" /><sodipodi:namedview
   pagecolor="#2f2f2f"
   bordercolor="#666666"
   borderopacity="1"
   objecttolerance="10"
   gridtolerance="10"
   guidetolerance="10"
   inkscape:pageopacity="0"
   inkscape:pageshadow="2"
   inkscape:window-width="1920"
   inkscape:window-height="1137"
   id="namedview53"
   showgrid="false"
   inkscape:zoom="0.71777344"
   inkscape:cx="58.253724"
   inkscape:cy="304.07395"
   inkscape:window-x="1912"
   inkscape:window-y="-8"
   inkscape:window-maximized="1"
   inkscape:current-layer="Layer_1"
   inkscape:document-rotation="0"
   inkscape:pagecheckerboard="false" />








<g
   id="g22">
</g>
<g
   id="g24">
</g>
<g
   id="g26">
</g>
<g
   id="g28">
</g>
<g
   id="g30">
</g>
<g
   id="g32">
</g>
<g
   id="g34">
</g>
<g
   id="g36">
</g>
<g
   id="g38">
</g>
<g
   id="g40">
</g>
<g
   id="g42">
</g>
<g
   id="g44">
</g>
<g
   id="g46">
</g>
<g
   id="g48">
</g>
<g
   id="g50">
</g>
<path
   style="fill:#000000;stroke-width:1.44952"
   d="m 51.083953,305.16938 c -4.08143,0 -7.38857,-3.40485 -7.38857,-7.60685 v -83.67088 c 0,-27.26081 21.54429,-49.44156 48.02287,-49.44156 26.478577,0 48.022867,22.18075 48.022867,49.44156 0,4.202 -3.30715,7.60684 -7.38858,7.60684 -4.08143,0 -7.38857,-3.40484 -7.38857,-7.60684 0,-18.87445 -14.91429,-34.22934 -33.247147,-34.22934 -18.33286,0 -33.24715,15.35489 -33.24715,34.22934 v 83.67088 c 10e-4,4.202 -3.30572,7.60685 -7.38572,7.60685 z"
   id="path10" /><g
   id="g16"
   transform="matrix(1.4285718,0,0,1.4707744,-111.4561,-78.955709)"
   style="fill:#000000"><circle
     style="fill:#000000"
     cx="170.66701"
     cy="373.22601"
     r="14.222"
     id="circle12" /><circle
     style="fill:#000000"
     cx="341.33301"
     cy="373.22601"
     r="14.222"
     id="circle14" /></g><path
   style="fill:#000000;stroke-width:1.44952"
   d="M 371.03118,464.9043 H 137.48397 c -70.160017,0 -127.034321,-58.55741 -127.034321,-130.78714 V 297.56253 H 498.06836 v 36.55463 c 0,72.22973 -56.87716,130.78714 -127.03718,130.78714 z"
   id="path18" /><path
   style="fill:#2c2c2c;fill-opacity:1;stroke-width:1.44952"
   d="M 253.43829,297.56253 V 464.9043 h 117.59432 c 70.16002,0 127.03432,-58.55741 127.03432,-130.78714 v -36.55463 z"
   id="path20" /></svg>
