<?xml version="1.0" encoding="UTF-8" standalone="no"?>
<svg
   xmlns:dc="http://purl.org/dc/elements/1.1/"
   xmlns:cc="http://creativecommons.org/ns#"
   xmlns:rdf="http://www.w3.org/1999/02/22-rdf-syntax-ns#"
   xmlns:svg="http://www.w3.org/2000/svg"
   xmlns="http://www.w3.org/2000/svg"
   xmlns:sodipodi="http://sodipodi.sourceforge.net/DTD/sodipodi-0.dtd"
   xmlns:inkscape="http://www.inkscape.org/namespaces/inkscape"
   version="1.1"
   id="Layer_1"
   x="0px"
   y="0px"
   viewBox="0 0 512 512"
   style="enable-background:new 0 0 512 512;"
   xml:space="preserve"
   sodipodi:docname="Räume_AnkleideNeu.svg"
   inkscape:version="1.0.2 (e86c870879, 2021-01-15, custom)"><metadata
   id="metadata51"><rdf:RDF><cc:Work
       rdf:about=""><dc:format>image/svg+xml</dc:format><dc:type
         rdf:resource="http://purl.org/dc/dcmitype/StillImage" /><dc:title></dc:title></cc:Work></rdf:RDF></metadata><defs
   id="defs49"><clipPath
     clipPathUnits="userSpaceOnUse"
     id="clipPath970"><rect
       style="fill:#ffdead"
       id="rect972"
       width="341.33334"
       height="476.47348"
       x="-23.21073"
       y="123.79128"
       transform="matrix(0.93605954,0.35184165,0.35184165,-0.93605954,0,0)" /></clipPath></defs><sodipodi:namedview
   pagecolor="#ffffff"
   bordercolor="#666666"
   borderopacity="1"
   objecttolerance="10"
   gridtolerance="10"
   guidetolerance="10"
   inkscape:pageopacity="0"
   inkscape:pageshadow="2"
   inkscape:window-width="1920"
   inkscape:window-height="1001"
   id="namedview47"
   showgrid="false"
   inkscape:zoom="0.71777344"
   inkscape:cx="256"
   inkscape:cy="258.78639"
   inkscape:window-x="-9"
   inkscape:window-y="-9"
   inkscape:window-maximized="1"
   inkscape:current-layer="Layer_1" />
<circle
   style="fill:#90ee90"
   cx="256"
   cy="-256"
   id="circle2"
   transform="scale(1,-1)"
   r="256" />
<path
   style="fill:#66cdaa;stroke-width:0.660474"
   d="m 169.60244,442.15806 h -22.29542 c -2.08011,0 -3.76611,-1.791 -3.76611,-4.00064 v -39.52656 c 0,-2.20964 1.686,-4.00064 3.76611,-4.00064 h 22.29542 c 2.08011,0 3.76611,1.791 3.76611,4.00064 v 39.52656 c 0,2.21032 -1.686,4.00064 -3.76611,4.00064 z"
   id="path10" />
<path
   style="fill:#66cdaa;stroke-width:0.660474"
   d="M 363.62662,442.15806 H 341.3312 c -2.08011,0 -3.76611,-1.791 -3.76611,-4.00064 v -39.52656 c 0,-2.20964 1.686,-4.00064 3.76611,-4.00064 h 22.29542 c 2.08011,0 3.76611,1.791 3.76611,4.00064 v 39.52656 c 0,2.21032 -1.686,4.00064 -3.76611,4.00064 z"
   id="path10-9" /><path
   style="fill:#008b8b;stroke-width:1.22147"
   d="m 147.07967,408.55544 h 211.7653 c 11.83601,0 21.43255,-6.432 21.43255,-14.365 v -284.157 c 0,-7.933 -9.59654,-14.367005 -21.43255,-14.367005 h -211.7653 c -11.83603,0 -21.43257,6.432005 -21.43257,14.367005 v 284.157 c 0,7.933 9.59654,14.365 21.43257,14.365 z"
   id="path6" />


<path
   style="fill:#02b2b2;stroke-width:0.394099"
   d="m 181.40601,261.94377 v -12.034 c 0,-0.68905 1.33062,-1.24733 2.97017,-1.24733 h 11.35708 c 1.64077,0 2.97017,0.55879 2.97017,1.24733 v 12.034 c 0,0.68904 -1.33062,1.24732 -2.97017,1.24732 h -11.35708 c -1.64077,0 -2.97017,-0.55828 -2.97017,-1.24732 z"
   id="path12" />

<g
   id="g16">
</g>
<g
   id="g18">
</g>
<g
   id="g20">
</g>
<g
   id="g22">
</g>
<g
   id="g24">
</g>
<g
   id="g26">
</g>
<g
   id="g28">
</g>
<g
   id="g30">
</g>
<g
   id="g32">
</g>
<g
   id="g34">
</g>
<g
   id="g36">
</g>
<g
   id="g38">
</g>
<g
   id="g40">
</g>
<g
   id="g42">
</g>
<g
   id="g44">
</g>
<path
   style="fill:#02b2b2;stroke-width:0.394099"
   d="m 235.52144,280.4327 v -12.034 c 0,-0.68905 1.33062,-1.24733 2.97017,-1.24733 h 11.35708 c 1.64077,0 2.97017,0.55879 2.97017,1.24733 v 12.034 c 0,0.68904 -1.33062,1.24732 -2.97017,1.24732 h -11.35708 c -1.64077,0 -2.97017,-0.55828 -2.97017,-1.24732 z"
   id="path12-6" /><path
   style="fill:#02b2b2;stroke-width:0.394099"
   d="m 300.38322,262.26673 v -12.034 c 0,-0.68905 1.33062,-1.24733 2.97017,-1.24733 h 11.35708 c 1.64077,0 2.97017,0.55879 2.97017,1.24733 v 12.034 c 0,0.68904 -1.33062,1.24732 -2.97017,1.24732 h -11.35708 c -1.64077,0 -2.97017,-0.55828 -2.97017,-1.24732 z"
   id="path12-6-1" /><path
   style="fill:#2f4f4f;stroke-width:0.734878"
   d="m 212.40786,408.61321 h 76.6514 c 4.2842,0 7.75781,-6.432 7.75781,-14.365 v -284.157 c 0,-7.933 -3.47361,-14.367005 -7.75781,-14.367005 h -76.6514 c -4.28422,0 -7.75782,6.432005 -7.75782,14.367005 v 284.157 c 0,7.933 3.4736,14.365 7.75782,14.365 z"
   id="path6-2" /><path
   style="fill:#02b2b2;stroke-width:0.394099"
   d="m 210.46802,261.95171 v -12.034 c 0,-0.68905 1.33062,-1.24733 2.97017,-1.24733 h 11.35708 c 1.64077,0 2.97017,0.55879 2.97017,1.24733 v 12.034 c 0,0.68904 -1.33062,1.24732 -2.97017,1.24732 h -11.35708 c -1.64077,0 -2.97017,-0.55828 -2.97017,-1.24732 z"
   id="path12-6-1-5" /></svg>
