<svg id="line_color" height="512" viewBox="0 0 74 74" width="512" xmlns="http://www.w3.org/2000/svg" data-name="line color"><path d="m70.917 28.815h-67.834v5.888h67.834z" fill="#e7aa6c"/><path d="m67.973 28.815h2.944v5.888h-2.944z" fill="#d09865"/><path d="m6.855 34.703h4.723v30.148h-4.723z" fill="#e7aa6c"/><path d="m11.578 34.703h24.969v10.181h-24.969z" fill="#d09865"/><path d="m26.817 40.057h-5.51a.5.5 0 0 1 -.5-.5v-.949a.5.5 0 0 1 1 0v.449h4.51v-.449a.5.5 0 0 1 1 0v.949a.5.5 0 0 1 -.5.5z" fill="#323c6b"/><path d="m11.578 44.884h24.969v10.181h-24.969z" fill="#d09865"/><path d="m26.817 50.315h-5.51a.5.5 0 0 1 -.5-.5v-.949a.5.5 0 0 1 1 0v.449h4.51v-.449a.5.5 0 0 1 1 0v.949a.5.5 0 0 1 -.5.5z" fill="#323c6b"/><path d="m40.818 34.703h21.604v24.526h-21.604z" fill="#d09865"/><path d="m40.32 8.43v13.51h-22.97v-13.51a1.276 1.276 0 0 1 1.28-1.28h20.41a1.276 1.276 0 0 1 1.28 1.28z" fill="#89c5cd"/><path d="m40.32 8.43v13.32h-2.26v-13.32a1.285 1.285 0 0 0 -1.29-1.28h2.27a1.276 1.276 0 0 1 1.28 1.28z" fill="#6eaaad"/><path d="m25.969 25.815h5.734l1.709 3h-9.153z" fill="#e1e6e9"/><path d="m33.412 29.315h-9.152a.5.5 0 0 1 -.435-.748l1.709-3a.5.5 0 0 1 .435-.252h5.731a.5.5 0 0 1 .435.252l1.709 3a.5.5 0 0 1 -.435.748zm-8.292-1h7.432l-1.14-2h-5.152z" fill="#323c6b"/><path d="m49.284 19.75v6.984a2.081 2.081 0 0 0 2.081 2.081h3.463a2.081 2.081 0 0 0 2.081-2.081v-6.984z" fill="#eeefee"/><path d="m62.422 34.703h4.723v30.148h-4.723z" fill="#e7aa6c"/><path d="m67.14 34.7v30.15h-4.72v-2.81h2.36v-27.34z" fill="#d09865"/><path d="m6.855 62.541h4.723v2.311h-4.723z" fill="#d09865"/><g fill="#323c6b"><path d="m9.938 26.315h-6.855a.5.5 0 1 1 0-1h6.855a.5.5 0 1 1 0 1z"/><path d="m13.438 26.315h-.75a.5.5 0 0 1 0-1h.75a.5.5 0 1 1 0 1z"/><path d="m32 58.167h-.936a.5.5 0 0 1 0-1h.936a.5.5 0 0 1 0 1z"/><path d="m28.344 58.167h-8.844a.5.5 0 0 1 0-1h8.844a.5.5 0 0 1 0 1z"/><path d="m45.872 50.222h-.949a.5.5 0 0 1 0-1h.449v-4.511h-.449a.5.5 0 0 1 0-1h.949a.5.5 0 0 1 .5.5v5.511a.5.5 0 0 1 -.5.5z"/><path d="m54.828 29.315h-3.463a2.584 2.584 0 0 1 -2.581-2.581v-6.984a.5.5 0 0 1 .5-.5h7.626a.5.5 0 0 1 .5.5v6.984a2.584 2.584 0 0 1 -2.582 2.581zm-5.044-9.065v6.484a1.583 1.583 0 0 0 1.581 1.581h3.463a1.584 1.584 0 0 0 1.582-1.581v-6.484z"/><path d="m36.547 45.384h-24.969a.5.5 0 0 1 -.5-.5v-10.184a.5.5 0 0 1 .5-.5h24.969a.5.5 0 0 1 .5.5v10.184a.5.5 0 0 1 -.5.5zm-24.469-1h23.969v-9.184h-23.969z"/><path d="m36.547 55.564h-24.969a.5.5 0 0 1 -.5-.5v-10.18a.5.5 0 0 1 .5-.5h24.969a.5.5 0 0 1 .5.5v10.18a.5.5 0 0 1 -.5.5zm-24.469-1h23.969v-9.18h-23.969z"/><path d="m62.422 59.729h-21.6a.5.5 0 0 1 -.5-.5v-24.529a.5.5 0 0 1 .5-.5h21.6a.5.5 0 0 1 .5.5v24.529a.5.5 0 0 1 -.5.5zm-21.1-1h20.6v-23.529h-20.6z"/></g><path d="m51.364 37.1h7.914a.65.65 0 1 1 0 1.3h-7.914a.65.65 0 1 1 0-1.3z" fill="#fff"/><path d="m48.372 37.1h.644a.65.65 0 1 1 0 1.3h-.644a.65.65 0 1 1 0-1.3z" fill="#fff"/><path d="m40.32 21.94v2.594a1.276 1.276 0 0 1 -1.28 1.28h-20.41a1.276 1.276 0 0 1 -1.28-1.28v-2.594z" fill="#bbbbcd"/><g opacity=".4"><path d="m29.6 7.15-3.81 14.79h-1.38l3.81-14.79z" fill="#eeefee"/></g><g opacity=".4"><path d="m31.36 7.15-3.81 14.79h-.94l3.81-14.79z" fill="#eeefee"/></g><g opacity=".4"><path d="m34.39 7.15-3.82 14.79h-2.1l3.8-14.79z" fill="#eeefee"/></g><path d="m39.04 26.315h-20.408a1.786 1.786 0 0 1 -1.784-1.784v-16.099a1.786 1.786 0 0 1 1.784-1.784h20.408a1.786 1.786 0 0 1 1.784 1.784v16.1a1.786 1.786 0 0 1 -1.784 1.783zm-20.408-18.667a.785.785 0 0 0 -.784.784v16.1a.785.785 0 0 0 .784.784h20.408a.785.785 0 0 0 .784-.784v-16.1a.785.785 0 0 0 -.784-.784z" fill="#323c6b"/><path d="m40.32 21.94v2.594a1.276 1.276 0 0 1 -1.28 1.28h-20.41a1.276 1.276 0 0 1 -1.28-1.28v-2.594z" fill="#e1e6e9"/><path d="m39.04 26.314h-20.41a1.783 1.783 0 0 1 -1.78-1.78v-2.594a.5.5 0 0 1 .5-.5h22.97a.5.5 0 0 1 .5.5v2.594a1.783 1.783 0 0 1 -1.78 1.78zm-21.19-3.874v2.094a.781.781 0 0 0 .78.78h20.41a.781.781 0 0 0 .78-.78v-2.094z" fill="#323c6b"/><path d="m70.917 35.2h-67.834a.5.5 0 0 1 -.5-.5v-5.885a.5.5 0 0 1 .5-.5h67.834a.5.5 0 0 1 .5.5v5.885a.5.5 0 0 1 -.5.5zm-67.334-1h66.834v-4.885h-66.834z" fill="#323c6b"/><path d="m11.578 65.352h-4.723a.5.5 0 0 1 -.5-.5v-30.152a.5.5 0 0 1 .5-.5h4.723a.5.5 0 0 1 .5.5v30.152a.5.5 0 0 1 -.5.5zm-4.223-1h3.723v-29.152h-3.723z" fill="#323c6b"/><path d="m67.145 65.352h-4.723a.5.5 0 0 1 -.5-.5v-30.152a.5.5 0 0 1 .5-.5h4.723a.5.5 0 0 1 .5.5v30.152a.5.5 0 0 1 -.5.5zm-4.223-1h3.723v-29.152h-3.723z" fill="#323c6b"/></svg>