<svg id="line_color" height="512" viewBox="0 0 74 74" width="512" xmlns="http://www.w3.org/2000/svg" data-name="line color"><path d="m7.86 21.271v18.347h-5.812v-18.347a2.14 2.14 0 0 1 2.14-2.14h1.532a2.14 2.14 0 0 1 2.14 2.14z" fill="#e7aa6c"/><path d="m7.86 40.118h-5.812a.5.5 0 0 1 -.5-.5v-18.347a2.643 2.643 0 0 1 2.64-2.64h1.532a2.643 2.643 0 0 1 2.64 2.64v18.347a.5.5 0 0 1 -.5.5zm-5.312-1h4.812v-17.847a1.642 1.642 0 0 0 -1.64-1.64h-1.532a1.642 1.642 0 0 0 -1.64 1.64z" fill="#323c6b"/><path d="m71.947 41.758v3.883a2.14 2.14 0 0 1 -2.14 2.14h-65.619a2.14 2.14 0 0 1 -2.14-2.14v-6.023h67.759a2.14 2.14 0 0 1 2.14 2.14z" fill="#e7aa6c"/><path d="m71.952 41.762v3.885a2.137 2.137 0 0 1 -2.143 2.131h-3.059a2.137 2.137 0 0 0 2.143-2.131v-3.885a2.14 2.14 0 0 0 -2.143-2.143h3.059a2.14 2.14 0 0 1 2.143 2.143z" fill="#d09865"/><path d="m13.458 31.811h46.964a5.6 5.6 0 0 1 5.6 5.6v2.2a0 0 0 0 1 0 0h-58.168a0 0 0 0 1 0 0v-2.2a5.6 5.6 0 0 1 5.6-5.6z" fill="#e1e6e9"/><path d="m59.6 31.811h-45.325a6.4 6.4 0 0 0 -5.1 2.534 6.415 6.415 0 0 1 1.45-.171h45.327a6.417 6.417 0 0 1 6.339 5.443h3.735v-1.385a6.421 6.421 0 0 0 -6.426-6.421z" fill="#e0e0e0"/><rect fill="#e1e6e9" height="5.653" rx="2.467" width="12.956" x="12.881" y="26.158"/><path d="m23.371 32.311h-8.023a2.97 2.97 0 0 1 -2.967-2.967v-.719a2.97 2.97 0 0 1 2.967-2.967h8.023a2.97 2.97 0 0 1 2.966 2.967v.719a2.97 2.97 0 0 1 -2.966 2.967zm-8.023-5.653a1.969 1.969 0 0 0 -1.967 1.967v.719a1.97 1.97 0 0 0 1.967 1.967h8.023a1.969 1.969 0 0 0 1.966-1.967v-.719a1.969 1.969 0 0 0 -1.966-1.967z" fill="#323c6b"/><path d="m66.026 40.117h-58.172a.5.5 0 0 1 -.5-.5v-2.2a6.111 6.111 0 0 1 6.1-6.1h46.968a6.111 6.111 0 0 1 6.1 6.1v2.2a.5.5 0 0 1 -.496.5zm-57.672-1h57.172v-1.7a5.11 5.11 0 0 0 -5.1-5.1h-46.968a5.11 5.11 0 0 0 -5.1 5.1z" fill="#323c6b"/><path d="m11.785 52.027h-3.403v-4.245h5.598z" fill="#9297ab"/><path d="m11.785 52.526h-3.4a.5.5 0 0 1 -.5-.5v-4.244a.5.5 0 0 1 .5-.5h5.6a.5.5 0 0 1 .444.729l-2.2 4.245a.5.5 0 0 1 -.444.27zm-2.9-1h2.6l1.679-3.244h-4.282z" fill="#323c6b"/><path d="m62.21 52.027h3.403v-4.245h-5.598z" fill="#9297ab"/><g fill="#323c6b"><path d="m65.613 52.526h-3.4a.5.5 0 0 1 -.444-.27l-2.2-4.245a.5.5 0 0 1 .445-.729h5.6a.5.5 0 0 1 .5.5v4.244a.5.5 0 0 1 -.501.5zm-3.1-1h2.6v-3.244h-4.277z"/><path d="m48.858 51.719h-.716a.5.5 0 0 1 0-1h.716a.5.5 0 0 1 0 1z"/><path d="m45.468 51.719h-9.568a.5.5 0 0 1 0-1h9.573a.5.5 0 0 1 0 1z"/></g><path d="m25.492 44.444h-.721a.745.745 0 0 1 0-1.489h.721a.745.745 0 1 1 0 1.489z" fill="#fff"/><path d="m21.429 44.444h-9.494a.745.745 0 1 1 0-1.489h9.494a.745.745 0 1 1 0 1.489z" fill="#fff"/><path d="m54.73 29.125h-.74a.5.5 0 0 1 0-1h.74a.5.5 0 0 1 0 1z" fill="#323c6b"/><path d="m65.556 31.143a.5.5 0 0 1 -.3-.1 9.256 9.256 0 0 0 -5.65-1.916h-2.321a.5.5 0 0 1 0-1h2.315a10.245 10.245 0 0 1 6.255 2.12.5.5 0 0 1 -.3.9z" fill="#323c6b"/><path d="m69.807 48.281h-65.619a2.643 2.643 0 0 1 -2.64-2.64v-6.023a.5.5 0 0 1 .5-.5h67.759a2.643 2.643 0 0 1 2.64 2.64v3.883a2.643 2.643 0 0 1 -2.64 2.64zm-67.259-8.163v5.523a1.642 1.642 0 0 0 1.64 1.64h65.619a1.642 1.642 0 0 0 1.64-1.64v-3.883a1.642 1.642 0 0 0 -1.64-1.64z" fill="#323c6b"/><path d="m27.302 31.811 8.461 11.889 24.911-11.889z" fill="#27ccbc"/><path d="m60.677 31.816-24.912 11.883-1.662-2.338 20.019-9.545z" fill="#21b3a9"/><path d="m35.764 44.2a.5.5 0 0 1 -.408-.21l-8.456-11.89a.5.5 0 0 1 .407-.79l33.232.067a.5.5 0 0 1 .215.951l-24.775 11.823a.5.5 0 0 1 -.215.049zm-7.491-11.887 7.654 10.754 22.408-10.693z" fill="#323c6b"/></svg>