<svg id="color_line" height="512" viewBox="0 0 74 74" width="512" xmlns="http://www.w3.org/2000/svg" data-name="color line"><path d="m61.17 14.13v56.87h-5.31v-56.87a3.52 3.52 0 0 0 -2.48-3.36 55.6 55.6 0 0 0 -32.76 0 3.52 3.52 0 0 0 -2.48 3.36v56.87h-5.31v-56.87a8.873 8.873 0 0 1 6.26-8.44 62.331 62.331 0 0 1 17.91-2.69 62.331 62.331 0 0 1 17.91 2.69 8.873 8.873 0 0 1 6.26 8.44z" fill="#e7aa6c"/><path d="m61.17 14.13v56.87h-3.57v-54.73a8.873 8.873 0 0 0 -6.26-8.44 62.334 62.334 0 0 0 -17.91-2.69 62.333 62.333 0 0 0 -17.91 2.69c-.01 0-.03.01-.04.01a8.666 8.666 0 0 1 3.61-2.15 62.331 62.331 0 0 1 17.91-2.69 62.331 62.331 0 0 1 17.91 2.69 8.873 8.873 0 0 1 6.26 8.44z" fill="#d09865"/><path d="m65.3 71.5h-56.6a.5.5 0 1 1 0-1h56.6a.5.5 0 1 1 0 1z" fill="#323c6b"/><path d="m55.86 14.13v56.87h-37.72v-56.87a3.52 3.52 0 0 1 2.48-3.36 55.6 55.6 0 0 1 32.76 0 3.52 3.52 0 0 1 2.48 3.36z" fill="#e7aa6c"/><path d="m55.86 71.5h-37.72a.5.5 0 0 1 -.5-.5v-56.87a4.04 4.04 0 0 1 2.833-3.838 56.337 56.337 0 0 1 33.05 0 4.04 4.04 0 0 1 2.837 3.838v56.87a.5.5 0 0 1 -.5.5zm-37.22-1h36.72v-56.37a3.033 3.033 0 0 0 -2.126-2.882 55.362 55.362 0 0 0 -32.469 0 3.033 3.033 0 0 0 -2.125 2.882z" fill="#323c6b"/><path d="m47.868 43.814h-3.978a.5.5 0 0 1 0-1h3.978a.5.5 0 0 1 0 1z" fill="#323c6b"/><rect fill="#d09865" height="24.988" rx="1.336" width="9.125" x="24.935" y="14.156"/><path d="m32.723 39.644h-6.452a1.838 1.838 0 0 1 -1.836-1.836v-22.316a1.838 1.838 0 0 1 1.836-1.836h6.452a1.838 1.838 0 0 1 1.836 1.836v22.315a1.838 1.838 0 0 1 -1.836 1.837zm-6.452-24.988a.837.837 0 0 0 -.836.836v22.315a.837.837 0 0 0 .836.836h6.452a.837.837 0 0 0 .836-.836v-22.315a.837.837 0 0 0 -.836-.836z" fill="#323c6b"/><rect fill="#d09865" height="19.276" rx="1.336" width="24.262" x="24.869" y="47.255"/><path d="m47.794 67.031h-21.588a1.838 1.838 0 0 1 -1.836-1.836v-16.6a1.838 1.838 0 0 1 1.836-1.836h21.588a1.838 1.838 0 0 1 1.836 1.836v16.6a1.838 1.838 0 0 1 -1.836 1.836zm-21.588-19.276a.837.837 0 0 0 -.836.836v16.6a.837.837 0 0 0 .836.836h21.588a.837.837 0 0 0 .836-.836v-16.6a.837.837 0 0 0 -.836-.836z" fill="#323c6b"/><rect fill="#d09865" height="24.988" rx="1.336" width="9.125" x="39.941" y="14.156"/><g fill="#323c6b"><path d="m47.729 39.644h-6.452a1.838 1.838 0 0 1 -1.836-1.836v-22.316a1.838 1.838 0 0 1 1.836-1.836h6.452a1.838 1.838 0 0 1 1.836 1.836v22.315a1.838 1.838 0 0 1 -1.836 1.837zm-6.452-24.988a.837.837 0 0 0 -.836.836v22.315a.837.837 0 0 0 .836.836h6.452a.837.837 0 0 0 .836-.836v-22.315a.837.837 0 0 0 -.836-.836z"/><path d="m61.17 71.5h-5.31a.5.5 0 0 1 -.5-.5v-56.87a3.033 3.033 0 0 0 -2.126-2.882 55.362 55.362 0 0 0 -32.469 0 3.033 3.033 0 0 0 -2.125 2.882v56.87a.5.5 0 0 1 -.5.5h-5.31a.5.5 0 0 1 -.5-.5v-56.87a9.373 9.373 0 0 1 6.615-8.918 61.742 61.742 0 0 1 36.108 0 9.374 9.374 0 0 1 6.617 8.918v56.87a.5.5 0 0 1 -.5.5zm-4.81-1h4.31v-56.37a8.366 8.366 0 0 0 -5.9-7.961 60.744 60.744 0 0 0 -35.532 0 8.366 8.366 0 0 0 -5.9 7.961v56.37h4.31v-56.37a4.04 4.04 0 0 1 2.833-3.838 56.337 56.337 0 0 1 33.05 0 4.04 4.04 0 0 1 2.829 3.838z"/><path d="m64.17 42.688a.5.5 0 0 1 -.5-.5v-7.271a.5.5 0 0 1 1 0v7.271a.5.5 0 0 1 -.5.5z"/><path d="m9.83 17.563a.5.5 0 0 1 -.5-.5v-.5a.5.5 0 0 1 1 0v.5a.5.5 0 0 1 -.5.5z"/><path d="m9.83 14.625a.5.5 0 0 1 -.5-.5 12.307 12.307 0 0 1 3.125-8.159.5.5 0 0 1 .748.664 11.307 11.307 0 0 0 -2.874 7.5.5.5 0 0 1 -.499.495z"/><path d="m64.17 33.417a.5.5 0 0 1 -.5-.5v-.583a.5.5 0 1 1 1 0v.583a.5.5 0 0 1 -.5.5z"/></g><path d="m21.386 62a.758.758 0 0 1 -.761-.741v-7.411a.66.66 0 0 1 .063-.279.718.718 0 0 1 .684-.472.669.669 0 0 1 .52.212.745.745 0 0 1 .236.52v7.424a.77.77 0 0 1 -.742.747z" fill="#fff"/><path d="m21.376 65.042a.744.744 0 0 1 -.751-.741v-.475a.7.7 0 0 1 .067-.279.729.729 0 0 1 .674-.472.744.744 0 0 1 .761.732v.475a.773.773 0 0 1 -.751.76z" fill="#fff"/></svg>