<svg id="line_color" height="512" viewBox="0 0 74 74" width="512" xmlns="http://www.w3.org/2000/svg" data-name="line color"><path d="m35.744 31.93c-.9 0-1.633 4.285-1.633 3.383v-21.358a6.843 6.843 0 0 1 6.836-6.836 6.835 6.835 0 0 1 6.834 6.836v.652a1.634 1.634 0 0 1 -3.267 0v-.652a3.57 3.57 0 0 0 -3.568-3.57 3.574 3.574 0 0 0 -3.57 3.57v21.358c.001.902-.73-3.383-1.632-3.383z" fill="#e1e6e9"/><path d="m34.164 35.94a.764.764 0 0 1 -.1-.007c-.136-.019-.451-.117-.451-.62v-21.358a7.336 7.336 0 1 1 14.671 0v.652a2.133 2.133 0 1 1 -4.265 0v-.652a3.07 3.07 0 1 0 -6.139 0v21.358c0 .5-.314.6-.45.62-.471.062-.561-.278-.773-1.024a8.664 8.664 0 0 0 -.91-2.423 8.675 8.675 0 0 0 -.912 2.423c-.197.691-.294 1.031-.671 1.031zm6.784-28.321a6.344 6.344 0 0 0 -6.338 6.336v18.506c.3-.639.659-1.031 1.134-1.031s.828.391 1.132 1.029v-18.5a4.07 4.07 0 0 1 8.139 0v.652a1.133 1.133 0 1 0 2.265 0v-.652a6.333 6.333 0 0 0 -6.333-6.336z" fill="#323c6b"/><path d="m29.179 24.186h13.13v2.465h-13.13z" fill="#e1e6e9"/><path d="m42.31 27.15h-13.131a.5.5 0 0 1 -.5-.5v-2.464a.5.5 0 0 1 .5-.5h13.131a.5.5 0 0 1 .5.5v2.464a.5.5 0 0 1 -.5.5zm-12.631-1h12.131v-1.464h-12.131z" fill="#323c6b"/><circle cx="42.311" cy="25.418" fill="#bbbbcd" r="2.547"/><path d="m42.312 28.465a3.047 3.047 0 1 1 3.046-3.047 3.051 3.051 0 0 1 -3.046 3.047zm0-5.093a2.047 2.047 0 1 0 2.046 2.046 2.049 2.049 0 0 0 -2.046-2.046z" fill="#323c6b"/><circle cx="29.177" cy="25.418" fill="#bbbbcd" r="2.547"/><path d="m29.177 28.465a3.047 3.047 0 1 1 3.047-3.047 3.051 3.051 0 0 1 -3.047 3.047zm0-5.093a2.047 2.047 0 1 0 2.047 2.046 2.049 2.049 0 0 0 -2.047-2.046z" fill="#323c6b"/><path d="m4.193 31.708a25.45 25.45 0 0 0 25.45 25.45h11.876a25.45 25.45 0 0 0 25.451-25.45z" fill="#e1e6e9"/><path d="m61.125 31.708c2.542 8.042-3.271 18.227-8.466 22.886a25.449 25.449 0 0 0 14.311-22.886z" fill="#d5d6db"/><path d="m48.73 70.281h-7.794a7.909 7.909 0 0 1 -7.9-7.9v-5.223h5.09v5.223a2.813 2.813 0 0 0 2.81 2.81h7.794z" fill="#9297ab"/><g fill="#323c6b"><path d="m48.73 70.781h-7.793a8.41 8.41 0 0 1 -8.4-8.4v-5.223a.5.5 0 0 1 .5-.5h5.09a.5.5 0 0 1 .5.5v5.223a2.312 2.312 0 0 0 2.311 2.31h7.792a.5.5 0 0 1 .5.5v5.09a.5.5 0 0 1 -.5.5zm-15.194-13.123v4.723a7.408 7.408 0 0 0 7.4 7.4h7.294v-4.09h-7.293a3.314 3.314 0 0 1 -3.311-3.31v-4.723z"/><path d="m41.52 57.658h-11.877a25.98 25.98 0 0 1 -25.951-25.95.5.5 0 0 1 .5-.5h62.778a.5.5 0 0 1 .5.5 25.98 25.98 0 0 1 -25.95 25.95zm-36.82-25.45a24.98 24.98 0 0 0 24.946 24.45h11.874a24.98 24.98 0 0 0 24.945-24.45z"/><path d="m51.73 73.781h-10.793a.5.5 0 0 1 0-1h10.293v-1.531a.5.5 0 0 1 1 0v2.031a.5.5 0 0 1 -.5.5z"/><path d="m51.73 68.833a.5.5 0 0 1 -.5-.5v-.916a.5.5 0 0 1 1 0v.916a.5.5 0 0 1 -.5.5z"/><path d="m7.654 50.462a.5.5 0 0 1 -.389-.187c-.168-.209-.332-.421-.494-.634a.5.5 0 1 1 .8-.6c.157.206.315.41.477.612a.5.5 0 0 1 -.39.813z"/><path d="m5.834 47.75a.5.5 0 0 1 -.418-.226 28.868 28.868 0 0 1 -3.853-8.783.5.5 0 0 1 .971-.243 27.8 27.8 0 0 0 3.718 8.478.5.5 0 0 1 -.145.692.487.487 0 0 1 -.273.082z"/></g><path d="m52.333 35.708h-11.022a.745.745 0 1 1 0-1.489h11.022a.745.745 0 1 1 0 1.489z" fill="#fff"/><path d="m57.249 35.708h-1.431a.745.745 0 1 1 0-1.489h1.431a.745.745 0 1 1 0 1.489z" fill="#fff"/></svg>