<svg id="Layer_1" height="512" viewBox="0 0 75 75" width="512" xmlns="http://www.w3.org/2000/svg" data-name="Layer 1"><rect fill="#ededed" height="48" rx="2.721" width="48" x="13.499" y="13.502"/><path d="m61.5 16.218v42.56a2.716 2.716 0 0 1 -2.72 2.72h-.86v-41.96a2.727 2.727 0 0 0 -2.73-2.73h-41.69v-.59a2.723 2.723 0 0 1 2.72-2.72h42.56a2.723 2.723 0 0 1 2.72 2.72z" fill="#dbd8dd"/><circle cx="37.499" cy="37.502" fill="#ededed" r="19.704"/><g fill="#556065"><path d="m37.5 57.956a20.455 20.455 0 1 1 20.453-20.456 20.478 20.478 0 0 1 -20.453 20.456zm0-39.409a18.955 18.955 0 1 0 18.953 18.953 18.976 18.976 0 0 0 -18.953-18.953z"/><circle cx="18.621" cy="19.095" r="1.659"/><circle cx="56.377" cy="19.095" r="1.659"/><circle cx="18.621" cy="55.908" r="1.659"/><circle cx="56.377" cy="55.908" r="1.659"/></g><path d="m38.972 33.115a4.675 4.675 0 0 0 -1.474-.239 4.455 4.455 0 0 0 -2.049.488c-1.649-3.638-2.518-7.264-1.838-10.864 2.326-1.149 6.95-1.225 9.736-.124-3.284 2.449-4.471 7.224-4.375 10.739z" fill="#dbd8dd"/><path d="m35.449 34.114a.744.744 0 0 1 -.683-.441c-1.913-4.226-2.532-7.927-1.892-11.314a.744.744 0 0 1 .405-.533c2.537-1.255 7.371-1.324 10.344-.15a.75.75 0 0 1 .173 1.3c-2.945 2.2-4.169 6.667-4.075 10.12a.751.751 0 0 1 -.986.732 3.864 3.864 0 0 0 -2.943.2.751.751 0 0 1 -.343.086zm-1.167-11.095a17.128 17.128 0 0 0 1.558 9.371 5.4 5.4 0 0 1 2.386-.215c.107-3.07 1.105-6.928 3.616-9.479a14.35 14.35 0 0 0 -7.56.323z" fill="#556065"/><path d="m33.783 34.746a4.65 4.65 0 0 0 -.684 1.328 4.457 4.457 0 0 0 -.168 2.1c-3.969.442-7.689.149-10.9-1.609-.373-2.568.983-6.989 2.891-9.3 1.313 3.881 5.489 6.486 8.861 7.481z" fill="#dbd8dd"/><path d="m29.855 39.1a16.723 16.723 0 0 1 -8.187-1.882.748.748 0 0 1 -.382-.55c-.408-2.8 1.019-7.42 3.054-9.883a.75.75 0 0 1 1.289.236c1.181 3.48 5.052 6.025 8.366 7a.75.75 0 0 1 .391 1.165 3.906 3.906 0 0 0 -.574 1.115 3.732 3.732 0 0 0 -.141 1.746.752.752 0 0 1 -.657.867 28.537 28.537 0 0 1 -3.159.186zm-7.124-3.017a17.111 17.111 0 0 0 9.394 1.417 5.3 5.3 0 0 1 .261-1.658 5.388 5.388 0 0 1 .272-.678c-2.887-1.05-6.248-3.191-7.9-6.368a14.348 14.348 0 0 0 -2.027 7.29z" fill="#556065"/><path d="m33.729 40.185a4.677 4.677 0 0 0 1.052 1.06 4.464 4.464 0 0 0 1.945.809c-.806 3.911-2.234 7.359-4.9 9.871-2.557-.438-6.343-3.094-7.95-5.622 4.097-.052 7.866-3.22 9.853-6.118z" fill="#dbd8dd"/><path d="m31.826 52.675a.764.764 0 0 1 -.126-.01c-2.791-.478-6.743-3.263-8.457-5.959a.75.75 0 0 1 .623-1.153c3.675-.047 7.291-2.943 9.245-5.793a.752.752 0 0 1 .611-.325.671.671 0 0 1 .617.314 3.929 3.929 0 0 0 .884.89 3.741 3.741 0 0 0 1.617.674.749.749 0 0 1 .62.893c-.936 4.542-2.61 7.9-5.119 10.265a.748.748 0 0 1 -.515.204zm-6.543-5.748a14.342 14.342 0 0 0 6.306 4.182 17.116 17.116 0 0 0 4.247-8.5 5.3 5.3 0 0 1 -1.495-.76 5.36 5.36 0 0 1 -.561-.469c-1.89 2.425-4.966 4.96-8.497 5.547z" fill="#556065"/><path d="m38.886 41.916a4.649 4.649 0 0 0 1.333-.673 4.45 4.45 0 0 0 1.371-1.6c3.47 1.975 6.308 4.4 7.874 7.71-1.207 2.3-4.9 5.077-7.8 5.824 1.212-3.912-.635-8.477-2.778-11.261z" fill="#dbd8dd"/><path d="m41.66 53.928a.75.75 0 0 1 -.716-.973c1.09-3.509-.547-7.843-2.653-10.582a.749.749 0 0 1 .369-1.173 3.885 3.885 0 0 0 1.118-.565 3.718 3.718 0 0 0 1.142-1.329.75.75 0 0 1 1.041-.315c4.031 2.3 6.707 4.925 8.181 8.042a.752.752 0 0 1 -.014.67c-1.318 2.506-5.188 5.4-8.281 6.2a.744.744 0 0 1 -.187.025zm-1.618-11.69c1.718 2.547 3.179 6.255 2.646 9.794a14.353 14.353 0 0 0 5.927-4.7 17.128 17.128 0 0 0 -6.769-6.666 5.325 5.325 0 0 1 -1.186 1.184 5.24 5.24 0 0 1 -.618.388z" fill="#556065"/><path d="m42.126 37.547a4.647 4.647 0 0 0 -.228-1.476 4.463 4.463 0 0 0 -1.1-1.8c2.952-2.69 6.133-4.64 9.767-5.106 1.811 1.858 3.313 6.232 3.127 9.222-3.344-2.364-8.254-2.017-11.566-.84z" fill="#dbd8dd"/><path d="m53.694 39.139a.752.752 0 0 1 -.433-.139c-3-2.121-7.627-1.9-10.884-.748a.744.744 0 0 1 -.686-.095.753.753 0 0 1 -.315-.616 3.951 3.951 0 0 0 -.191-1.24 3.735 3.735 0 0 0 -.913-1.5.749.749 0 0 1 .023-1.087c3.428-3.125 6.757-4.857 10.176-5.3a.746.746 0 0 1 .633.221c1.977 2.027 3.537 6.6 3.338 9.791a.75.75 0 0 1 -.748.7zm-6.223-3.258a12.2 12.2 0 0 1 5.451 1.176 14.361 14.361 0 0 0 -2.643-7.091 17.137 17.137 0 0 0 -8.431 4.378 5.319 5.319 0 0 1 .763 1.495 5.436 5.436 0 0 1 .179.708 17.242 17.242 0 0 1 4.681-.666z" fill="#556065"/><circle cx="37.499" cy="37.502" fill="#dbd8dd" r="4.626"/><path d="m37.5 42.877a5.376 5.376 0 1 1 5.375-5.377 5.381 5.381 0 0 1 -5.375 5.377zm0-9.251a3.876 3.876 0 1 0 3.875 3.874 3.88 3.88 0 0 0 -3.875-3.874z" fill="#556065"/><path d="m58.778 62.252h-42.557a3.477 3.477 0 0 1 -3.472-3.472v-42.557a3.476 3.476 0 0 1 3.472-3.471h42.557a3.475 3.475 0 0 1 3.471 3.471v42.557a3.476 3.476 0 0 1 -3.471 3.472zm-42.557-48a1.973 1.973 0 0 0 -1.972 1.971v42.557a1.973 1.973 0 0 0 1.972 1.972h42.557a1.973 1.973 0 0 0 1.971-1.972v-42.557a1.973 1.973 0 0 0 -1.971-1.971z" fill="#556065"/></svg>