<?xml version="1.0" encoding="UTF-8" standalone="no"?>
<svg
   xmlns:dc="http://purl.org/dc/elements/1.1/"
   xmlns:cc="http://creativecommons.org/ns#"
   xmlns:rdf="http://www.w3.org/1999/02/22-rdf-syntax-ns#"
   xmlns:svg="http://www.w3.org/2000/svg"
   xmlns="http://www.w3.org/2000/svg"
   xmlns:sodipodi="http://sodipodi.sourceforge.net/DTD/sodipodi-0.dtd"
   xmlns:inkscape="http://www.inkscape.org/namespaces/inkscape"
   version="1.1"
   id="Layer_1"
   x="0px"
   y="0px"
   viewBox="0 0 512 512"
   style="enable-background:new 0 0 512 512;"
   xml:space="preserve"
   sodipodi:docname="Räume_ElternBL.svg"
   inkscape:version="1.0.2 (e86c870879, 2021-01-15, custom)"
   inkscape:export-filename="C:\Users\kalle\OneDrive - popularc GmbH\70_AML\Bibliotheken\images\Räume_ElternBL.png"
   inkscape:export-xdpi="96"
   inkscape:export-ydpi="96"><metadata
   id="metadata57"><rdf:RDF><cc:Work
       rdf:about=""><dc:format>image/svg+xml</dc:format><dc:type
         rdf:resource="http://purl.org/dc/dcmitype/StillImage" /><dc:title /></cc:Work></rdf:RDF></metadata><defs
   id="defs55" /><sodipodi:namedview
   pagecolor="#ffffff"
   bordercolor="#666666"
   borderopacity="1"
   objecttolerance="10"
   gridtolerance="10"
   guidetolerance="10"
   inkscape:pageopacity="0"
   inkscape:pageshadow="2"
   inkscape:window-width="1920"
   inkscape:window-height="1137"
   id="namedview53"
   showgrid="false"
   inkscape:zoom="0.71777344"
   inkscape:cx="58.253727"
   inkscape:cy="304.07395"
   inkscape:window-x="1912"
   inkscape:window-y="-8"
   inkscape:window-maximized="1"
   inkscape:current-layer="Layer_1"
   inkscape:document-rotation="0"
   inkscape:pagecheckerboard="false" />








<g
   id="g22">
</g>
<g
   id="g24">
</g>
<g
   id="g26">
</g>
<g
   id="g28">
</g>
<g
   id="g30">
</g>
<g
   id="g32">
</g>
<g
   id="g34">
</g>
<g
   id="g36">
</g>
<g
   id="g38">
</g>
<g
   id="g40">
</g>
<g
   id="g42">
</g>
<g
   id="g44">
</g>
<g
   id="g46">
</g>
<g
   id="g48">
</g>
<g
   id="g50">
</g>
<g
   id="g10"
   transform="matrix(1.6511519,0,0,1.4988558,-167.0432,-0.40264532)"
   style="fill:#000000"><rect
     x="118.191"
     y="293.58099"
     style="fill:#000000"
     width="12.798"
     height="23.768999"
     id="rect6" /><rect
     x="381.01801"
     y="293.58099"
     style="fill:#000000"
     width="12.798"
     height="23.768999"
     id="rect8" /></g><path
   style="fill:#333333;stroke-width:1.57316;fill-opacity:1"
   d="M 477.41626,373.87361 H 33.883831 c -5.072339,0 -9.182056,-3.73065 -9.182056,-8.33513 V 249.18081 c 0,-4.60449 4.109717,-8.33514 9.182056,-8.33514 H 477.41791 c 5.07234,0 9.18206,3.73065 9.18206,8.33514 v 116.35767 c 0,4.60148 -4.10972,8.33513 -9.18371,8.33513 z"
   id="path12" /><path
   style="fill:#000000;stroke-width:1.57316"
   d="M 477.41626,240.84417 H 255.6517 v 133.02645 h 221.76456 c 5.07234,0 9.18206,-3.73066 9.18206,-8.33514 V 249.18081 c 0.002,-4.60299 -4.10807,-8.33664 -9.18206,-8.33664 z"
   id="path14" /><g
   id="g20"
   transform="matrix(1.6511519,0,0,1.4988558,-167.0432,-0.40264532)"
   style="fill:#ffffff"><path
     style="fill:#ffffff"
     d="M 370.095,254.973 H 268.062 c -2.119,0 -3.836,-1.717 -3.836,-3.836 v -33.942 c 0,-2.119 1.717,-3.836 3.836,-3.836 h 102.033 c 2.119,0 3.836,1.717 3.836,3.836 v 33.942 c 0,2.119 -1.717,3.836 -3.836,3.836 z"
     id="path16" /><path
     style="fill:#ffffff"
     d="M 243.936,254.973 H 141.905 c -2.119,0 -3.836,-1.717 -3.836,-3.836 v -33.942 c 0,-2.119 1.717,-3.836 3.836,-3.836 h 102.033 c 2.119,0 3.836,1.717 3.836,3.836 v 33.942 c -0.002,2.119 -1.719,3.836 -3.838,3.836 z"
     id="path18" /></g><path
   style="fill:#000000;stroke-width:1.57316"
   d="M 495.53105,447.86463 H 15.772345 c -5.072339,0 -9.1820564,-3.73065 -9.1820564,-8.33514 v -73.76468 c 0,-4.60449 4.1097174,-8.33514 9.1820564,-8.33514 H 495.53105 c 5.07234,0 9.18206,3.73065 9.18206,8.33514 v 73.76468 c 0.002,4.60449 -4.10972,8.33514 -9.18206,8.33514 z"
   id="path22" /><path
   style="fill:#333333;stroke-width:1.57316;fill-opacity:1"
   d="M 495.53105,357.42967 H 255.6517 v 90.43646 h 239.87935 c 5.07234,0 9.18206,-3.73065 9.18206,-8.33514 V 365.7663 c 0.002,-4.60598 -4.10972,-8.33663 -9.18206,-8.33663 z"
   id="path24" /></svg>
