<svg id="line_color" height="512" viewBox="0 0 74 74" width="512" xmlns="http://www.w3.org/2000/svg" data-name="line color"><rect fill="#e7aa6c" height="63.955" rx="3.095" width="46.209" x="13.895" y="4.915"/><path d="m57.01 4.915h-40.02a3.094 3.094 0 0 0 -3.09 3.095v.427h40.035a3.1 3.1 0 0 1 3.095 3.1v57.332h-.02a3.094 3.094 0 0 0 3.09-3.095v-57.764a3.094 3.094 0 0 0 -3.09-3.095z" fill="#d09865"/><path d="m60.1 16.049h-46.2a.5.5 0 0 1 0-1h46.2a.5.5 0 0 1 0 1z" fill="#323c6b"/><path d="m60.1 26.459h-46.2a.5.5 0 0 1 0-1h46.2a.5.5 0 0 1 0 1z" fill="#323c6b"/><path d="m57.01 69.369h-40.02a3.6 3.6 0 0 1 -3.59-3.595v-28.874a.5.5 0 0 1 .5-.5h46.2a.5.5 0 0 1 .5.5v28.874a3.6 3.6 0 0 1 -3.59 3.595zm-42.61-31.969v28.374a2.6 2.6 0 0 0 2.594 2.595h40.016a2.6 2.6 0 0 0 2.59-2.595v-28.374z" fill="#323c6b"/><path d="m37 69.369a.5.5 0 0 1 -.5-.5v-31.969a.5.5 0 0 1 1 0v31.969a.5.5 0 0 1 -.5.5z" fill="#323c6b"/><path d="m19.957 72.458h-3.514v-3.589h7.028z" fill="#707583"/><path d="m19.957 72.958h-3.514a.5.5 0 0 1 -.5-.5v-3.589a.5.5 0 0 1 .5-.5h7.028a.5.5 0 0 1 .358.85l-3.515 3.589a.5.5 0 0 1 -.357.15zm-3.014-1h2.8l2.535-2.589h-5.335z" fill="#323c6b"/><path d="m53.516 72.458h3.514v-3.589h-7.028z" fill="#707583"/><g fill="#323c6b"><path d="m57.03 72.958h-3.514a.5.5 0 0 1 -.358-.15l-3.513-3.589a.5.5 0 0 1 .357-.85h7.028a.5.5 0 0 1 .5.5v3.589a.5.5 0 0 1 -.5.5zm-3.3-1h2.8v-2.589h-5.339z"/><path d="m32.313 53.383a.5.5 0 0 1 -.5-.5v-4.383a.5.5 0 1 1 1 0v4.387a.5.5 0 0 1 -.5.496z"/><path d="m41.688 53.383a.5.5 0 0 1 -.5-.5v-4.383a.5.5 0 1 1 1 0v4.387a.5.5 0 0 1 -.5.496z"/><path d="m57.01 69.369h-40.02a3.6 3.6 0 0 1 -3.59-3.595v-57.764a3.6 3.6 0 0 1 3.59-3.595h40.02a3.6 3.6 0 0 1 3.59 3.595v57.764a3.6 3.6 0 0 1 -3.59 3.595zm-40.02-63.954a2.6 2.6 0 0 0 -2.59 2.595v57.764a2.6 2.6 0 0 0 2.594 2.595h40.016a2.6 2.6 0 0 0 2.59-2.595v-57.764a2.6 2.6 0 0 0 -2.59-2.595z"/><path d="m63.1 12a.5.5 0 0 1 -.5-.5v-.812a.5.5 0 0 1 1 0v.812a.5.5 0 0 1 -.5.5z"/><path d="m10.9 48.125a.5.5 0 0 1 -.5-.5v-8.417a.5.5 0 0 1 1 0v8.417a.5.5 0 0 1 -.5.5z"/><path d="m10.9 37.333a.5.5 0 0 1 -.5-.5v-.791a.5.5 0 0 1 1 0v.791a.5.5 0 0 1 -.5.5z"/></g><path d="m48.958 66.35h-7.541a.6.6 0 1 1 0-1.2h7.541a.6.6 0 0 1 0 1.2z" fill="#fff"/><path d="m51.931 66.35h-.594a.6.6 0 1 1 0-1.2h.594a.6.6 0 0 1 0 1.2z" fill="#fff"/><path d="m63.1 8.938a.5.5 0 0 1 -.5-.5v-.428a5.6 5.6 0 0 0 -5.59-5.595.5.5 0 0 1 0-1 6.6 6.6 0 0 1 6.59 6.595v.428a.5.5 0 0 1 -.5.5z" fill="#323c6b"/></svg>