<svg id="line_color" height="512" viewBox="0 0 74 74" width="512" xmlns="http://www.w3.org/2000/svg" data-name="line color"><path d="m58.914 33.5a4.308 4.308 0 0 0 1.865 3.577v10.711h-49.507v-10.711a4.31 4.31 0 0 0 1.865-3.577 4.372 4.372 0 0 0 -4.369-4.379v-4.282a7.072 7.072 0 0 1 7.068-7.079h40.379a7.075 7.075 0 0 1 7.079 7.079v4.282a4.381 4.381 0 0 0 -4.38 4.379z" fill="#89c5cd"/><path d="m63.294 24.839v4.282a4.274 4.274 0 0 0 -2.124.553v-2.038a7.075 7.075 0 0 0 -7.079-7.079h-40.379a7.049 7.049 0 0 0 -4.39 1.529 7.065 7.065 0 0 1 6.515-4.326h40.379a7.074 7.074 0 0 1 7.078 7.079z" fill="#6eaaad"/><g fill="#323c6b"><path d="m21.179 27.149h-1.354a.5.5 0 0 1 0-1h1.354a.5.5 0 1 1 0 1z"/><path d="m28.942 27.149h-1.352a.5.5 0 0 1 0-1h1.352a.5.5 0 0 1 0 1z"/><path d="m36.707 27.149h-1.353a.5.5 0 0 1 0-1h1.353a.5.5 0 0 1 0 1z"/><path d="m44.472 27.149h-1.353a.5.5 0 0 1 0-1h1.353a.5.5 0 1 1 0 1z"/><path d="m52.236 27.149h-1.353a.5.5 0 0 1 0-1h1.353a.5.5 0 0 1 0 1z"/><path d="m24.432 34.285h-1.17a.5.5 0 0 1 0-1h1.17a.5.5 0 1 1 0 1z"/><path d="m32.555 34.285h-1.17a.5.5 0 0 1 0-1h1.17a.5.5 0 1 1 0 1z"/><path d="m40.678 34.285h-1.171a.5.5 0 0 1 0-1h1.171a.5.5 0 0 1 0 1z"/><path d="m48.8 34.285h-1.17a.5.5 0 1 1 0-1h1.17a.5.5 0 0 1 0 1z"/><path d="m60.779 48.288h-49.507a.5.5 0 0 1 -.5-.5v-10.71a.5.5 0 0 1 .218-.413 3.821 3.821 0 0 0 1.647-3.165 3.892 3.892 0 0 0 -3.871-3.879.5.5 0 0 1 -.5-.5v-4.282a7.582 7.582 0 0 1 7.568-7.579h40.381a7.588 7.588 0 0 1 7.579 7.579v4.282a.5.5 0 0 1 -.5.5 3.883 3.883 0 0 0 -3.88 3.879 3.818 3.818 0 0 0 1.648 3.165.5.5 0 0 1 .217.413v10.71a.5.5 0 0 1 -.5.5zm-49.007-1h48.507v-9.955a4.825 4.825 0 0 1 -1.865-3.833 4.887 4.887 0 0 1 4.38-4.854v-3.807a6.586 6.586 0 0 0 -6.579-6.579h-40.379a6.58 6.58 0 0 0 -6.568 6.579v3.809a4.9 4.9 0 0 1 4.369 4.852 4.827 4.827 0 0 1 -1.865 3.832z"/><path d="m60.779 42.293h-49.507a.5.5 0 1 1 0-1h49.507a.5.5 0 0 1 0 1z"/><path d="m66.2 22.723a.5.5 0 0 1 -.483-.373 9.876 9.876 0 0 0 -5.969-6.685.5.5 0 0 1 .361-.933 10.877 10.877 0 0 1 6.572 7.368.5.5 0 0 1 -.357.611.508.508 0 0 1 -.124.012z"/><path d="m66.546 26.336a.5.5 0 0 1 -.5-.5v-.722a.5.5 0 0 1 1 0v.722a.5.5 0 0 1 -.5.5z"/></g><path d="m58.686 33.5v14.288h6.894v-10.711a4.31 4.31 0 0 0 1.865-3.577 4.38 4.38 0 0 0 -8.759 0z" fill="#89c5cd"/><path d="m13.679 33.5v14.288h-6.894v-10.711a4.31 4.31 0 0 1 -1.864-3.577 4.379 4.379 0 1 1 8.758 0z" fill="#89c5cd"/><path d="m13.68 48.288h-6.895a.5.5 0 0 1 -.5-.5v-10.456a4.825 4.825 0 0 1 -1.864-3.832 4.88 4.88 0 0 1 9.759 0v14.288a.5.5 0 0 1 -.5.5zm-6.395-1h5.9v-13.788a3.88 3.88 0 0 0 -7.759 0 3.82 3.82 0 0 0 1.646 3.165.5.5 0 0 1 .218.413z" fill="#323c6b"/><path d="m12.973 57.087h-4.522v-4.564h6.75z" fill="#d5d6db"/><path d="m12.973 57.587h-4.522a.5.5 0 0 1 -.5-.5v-4.564a.5.5 0 0 1 .5-.5h6.749a.5.5 0 0 1 .449.719l-2.228 4.565a.5.5 0 0 1 -.448.28zm-4.022-1h3.709l1.74-3.564h-5.449z" fill="#323c6b"/><path d="m59.392 57.087h4.522v-4.564h-6.75z" fill="#d5d6db"/><path d="m63.914 57.587h-4.521a.5.5 0 0 1 -.45-.28l-2.228-4.565a.5.5 0 0 1 .449-.719h6.75a.5.5 0 0 1 .5.5v4.564a.5.5 0 0 1 -.5.5zm-4.209-1h3.709v-3.564h-5.449z" fill="#323c6b"/><path d="m50.152 56.729h-.587a.5.5 0 0 1 0-1h.587a.5.5 0 0 1 0 1z" fill="#323c6b"/><path d="m46.991 56.729h-9.666a.5.5 0 0 1 0-1h9.666a.5.5 0 0 1 0 1z" fill="#323c6b"/><path d="m67.446 33.5a4.313 4.313 0 0 1 -1.864 3.578v9.622h-2.682v-9.622a4.311 4.311 0 0 0 1.869-3.578 4.4 4.4 0 0 0 -3.036-4.173 4.522 4.522 0 0 1 1.334-.206 4.381 4.381 0 0 1 4.379 4.379z" fill="#6eaaad"/><path d="m65.58 48.288h-6.894a.5.5 0 0 1 -.5-.5v-14.288a4.879 4.879 0 0 1 9.758 0 4.826 4.826 0 0 1 -1.864 3.832v10.456a.5.5 0 0 1 -.5.5zm-6.394-1h5.894v-10.21a.5.5 0 0 1 .218-.413 3.82 3.82 0 0 0 1.646-3.165 3.879 3.879 0 0 0 -7.758 0z" fill="#323c6b"/><rect fill="#89c5cd" height="6.274" rx="1.762" width="65.375" x="3.495" y="46.704"/><path d="m68.866 48.47v2.743a1.758 1.758 0 0 1 -1.756 1.767h-2.677a1.767 1.767 0 0 0 1.767-1.767v-2.743a1.767 1.767 0 0 0 -1.767-1.77h2.677a1.757 1.757 0 0 1 1.756 1.77z" fill="#6eaaad"/><path d="m67.108 53.478h-61.851a2.265 2.265 0 0 1 -2.257-2.262v-2.751a2.264 2.264 0 0 1 2.257-2.265h61.851a2.264 2.264 0 0 1 2.262 2.261v2.751a2.265 2.265 0 0 1 -2.262 2.266zm-61.851-6.278a1.264 1.264 0 0 0 -1.257 1.265v2.751a1.264 1.264 0 0 0 1.262 1.262h61.846a1.263 1.263 0 0 0 1.262-1.262v-2.751a1.263 1.263 0 0 0 -1.262-1.265z" fill="#323c6b"/><path d="m17.888 37.6.876.016a.657.657 0 1 1 0 1.314l-.876-.016a.657.657 0 1 1 0-1.314z" fill="#fff"/><path d="m21.558 37.621h8.383a.657.657 0 1 1 0 1.314h-8.383a.657.657 0 1 1 0-1.314z" fill="#fff"/></svg>