<svg id="line_color" height="512" viewBox="0 0 74 74" width="512" xmlns="http://www.w3.org/2000/svg" data-name="line color"><path d="m66.086 26.643h-14.646a.5.5 0 0 1 0-1h14.646a.5.5 0 0 1 0 1z" fill="#323c6b"/><path d="m53.88 35.676h-14.647a.5.5 0 1 1 0-1h14.647a.5.5 0 1 1 0 1z" fill="#323c6b"/><path d="m41.674 44.708h-14.647a.5.5 0 0 1 0-1h14.647a.5.5 0 1 1 0 1z" fill="#323c6b"/><path d="m29.468 53.741h-14.647a.5.5 0 1 1 0-1h14.647a.5.5 0 1 1 0 1z" fill="#323c6b"/><path d="m5.055 71.326v-9.033h12.206v-.019-9.033h12.206v-9.032h12.206v-9.033h12.207v-9.033h12.206v45.183z" fill="#bbbbcd"/><path d="m62.917 26.143h3.169v45.183h-3.169z" fill="#9297ab"/><g fill="#323c6b"><path d="m17.261 62.793h-14.646a.5.5 0 0 1 0-1h14.646a.5.5 0 1 1 0 1z"/><path d="m8.046 62.791a.5.5 0 0 1 -.5-.5v-20.314a.5.5 0 0 1 1 0v20.314a.5.5 0 0 1 -.5.5z"/><path d="m56.251 26.646a.5.5 0 0 1 -.5-.5v-20.063a.5.5 0 1 1 1 0v20.063a.5.5 0 0 1 -.5.5z"/><path d="m5.055 44.708a.5.5 0 0 1 -.3-.9l54.9-40.883a.5.5 0 1 1 .6.8l-54.901 40.884a.5.5 0 0 1 -.299.099z"/><path d="m66.086 71.826h-61.031a.5.5 0 0 1 -.5-.5v-9.033a.5.5 0 0 1 .5-.5h11.706v-8.552a.5.5 0 0 1 .5-.5h11.707v-8.533a.5.5 0 0 1 .5-.5h11.706v-8.532a.5.5 0 0 1 .5-.5h11.706v-8.533a.5.5 0 0 1 .5-.5h12.206a.5.5 0 0 1 .5.5v45.183a.5.5 0 0 1 -.5.5zm-60.531-1h60.031v-44.183h-11.206v8.533a.5.5 0 0 1 -.5.5h-11.706v8.532a.5.5 0 0 1 -.5.5h-11.706v8.533a.5.5 0 0 1 -.5.5h-11.707v8.533a.517.517 0 0 1 -.5.519h-11.706z"/><path d="m69.086 39.417a.5.5 0 0 1 -.5-.5v-.917a.5.5 0 0 1 1 0v.917a.5.5 0 0 1 -.5.5z"/><path d="m69.086 52a.5.5 0 0 1 -.5-.5v-10.25a.5.5 0 0 1 1 0v10.25a.5.5 0 0 1 -.5.5z"/><path d="m25.417 74.826h-.517a.5.5 0 0 1 0-1h.521a.5.5 0 0 1 0 1z"/><path d="m22.6 74.826h-10.246a.5.5 0 0 1 0-1h10.246a.5.5 0 0 1 0 1z"/></g><path d="m57.208 68.275h-.643a.65.65 0 0 1 0-1.3h.643a.65.65 0 1 1 0 1.3z" fill="#fff"/><path d="m54.091 68.275h-10.901a.65.65 0 0 1 0-1.3h10.9a.65.65 0 1 1 0 1.3z" fill="#fff"/></svg>