<?xml version="1.0" encoding="UTF-8" standalone="no"?>
<svg
   xmlns:dc="http://purl.org/dc/elements/1.1/"
   xmlns:cc="http://creativecommons.org/ns#"
   xmlns:rdf="http://www.w3.org/1999/02/22-rdf-syntax-ns#"
   xmlns:svg="http://www.w3.org/2000/svg"
   xmlns="http://www.w3.org/2000/svg"
   xmlns:sodipodi="http://sodipodi.sourceforge.net/DTD/sodipodi-0.dtd"
   xmlns:inkscape="http://www.inkscape.org/namespaces/inkscape"
   width="210mm"
   height="297mm"
   viewBox="0 0 210 297"
   version="1.1"
   id="svg8043"
   sodipodi:docname="Sonnenaufgang.svg"
   inkscape:version="1.0.2 (e86c870879, 2021-01-15, custom)">
  <defs
     id="defs8037" />
  <sodipodi:namedview
     id="base"
     pagecolor="#ffffff"
     bordercolor="#666666"
     borderopacity="1.0"
     inkscape:pageopacity="0.0"
     inkscape:pageshadow="2"
     inkscape:zoom="0.49497475"
     inkscape:cx="74.899853"
     inkscape:cy="573.14241"
     inkscape:document-units="mm"
     inkscape:current-layer="layer1"
     inkscape:document-rotation="0"
     showgrid="false"
     inkscape:window-width="1920"
     inkscape:window-height="1137"
     inkscape:window-x="1912"
     inkscape:window-y="-8"
     inkscape:window-maximized="1" />
  <metadata
     id="metadata8040">
    <rdf:RDF>
      <cc:Work
         rdf:about="">
        <dc:format>image/svg+xml</dc:format>
        <dc:type
           rdf:resource="http://purl.org/dc/dcmitype/StillImage" />
        <dc:title></dc:title>
      </cc:Work>
    </rdf:RDF>
  </metadata>
  <g
     inkscape:label="Ebene 1"
     inkscape:groupmode="layer"
     id="layer1">
    <circle
       style="fill:#ffd700;stroke-width:1.65262"
       id="path8112"
       cx="97.793533"
       cy="170.923"
       r="27.594913" />
    <g
       id="g8091"
       transform="translate(-64.438186,-22.142656)">
      <path
         id="path8093-7"
         style="fill:#333333;fill-opacity:1;stroke-width:0.264583"
         d="m 162.2044,173.18768 c -0.22056,0.01 -0.48071,0.22757 -0.78083,0.75034 -0.2,2.63683 -0.21363,5.31388 0.0434,7.94577 l 0.30438,0.12454 0.23254,0.0377 c 2.05922,-0.4804 0.73002,-3.77221 1.07022,-5.40329 0.20133,-0.87049 -0.082,-3.4901 -0.86971,-3.45509 z m 10.81175,2.72645 c -0.78002,-0.0709 -1.8548,1.77548 -2.21485,2.52801 -0.65277,1.66748 -2.73229,3.55186 -2.03658,5.29787 0.51905,0.27996 1.00942,-0.14419 1.30432,-0.53898 1.35622,-2.04715 2.75689,-4.14781 3.59151,-6.46524 -0.15716,-0.56127 -0.3844,-0.79803 -0.6444,-0.82166 z m -21.42764,0.44855 c -0.25827,0.0116 -0.53473,0.1531 -0.8325,0.47284 0.72842,2.28141 2.12588,4.30092 3.3202,6.36551 0.23575,0.35131 0.46934,0.778 0.90279,0.91312 2.16032,-0.49834 -0.39109,-3.2886 -0.85731,-4.55631 -0.64115,-0.86004 -1.41402,-3.24544 -2.53318,-3.19516 z m 29.24525,7.36648 c -0.82965,0.0218 -2.16247,0.60035 -2.61224,1.08675 -1.43642,1.14106 -4.34595,1.65418 -4.39405,3.74189 0.12801,0.46443 0.71272,0.34099 1.02939,0.20567 2.22613,-1.03919 4.40145,-2.26199 6.34639,-3.76876 0.61648,-0.9626 0.27579,-1.28252 -0.36949,-1.26555 z m -37.07319,0.36277 c -1.95876,1.26692 1.68108,2.67857 2.71301,3.43441 0.71649,0.41733 1.43689,0.82809 2.16421,1.22628 1.0599,1.42096 3.45623,-0.0162 1.56321,-1.1498 -2.05881,-1.30194 -4.14445,-2.68574 -6.44043,-3.51089 z m 18.59628,1.2361 c -1.10714,0.007 -2.21103,0.17479 -3.24115,0.52555 -4.15164,1.48595 -7.06,5.83277 -6.64507,10.2495 0.0516,0.25792 0.10293,0.51568 0.15451,0.7736 h 18.99471 c 1.36382,0.33796 0.79311,-1.74307 0.83251,-2.51199 -0.33987,-3.915 -3.14627,-7.32728 -6.83473,-8.60258 -1.04323,-0.28865 -2.15365,-0.44143 -3.26078,-0.43408 z m 14.98668,8.85682 c -1.1048,0.01 -1.9096,0.272 -1.36529,1.46709 0.60404,0.46821 1.43033,0.34797 2.14406,0.41187 2.07158,-0.0814 4.26034,0.25826 6.2544,-0.33487 1.24746,-2.2105 -2.62425,-1.28619 -3.86695,-1.49758 -0.65671,0.18635 -2.06142,-0.0564 -3.16622,-0.0465 z m -35.11879,0.54932 c -1.16675,0.0119 -2.14202,0.24881 -1.68465,1.46296 l 0.18862,0.10749 0.32401,0.093 c 2.54859,0.34805 5.19901,0.4221 7.72666,-0.0935 1.70545,-2.04859 -2.88585,-1.42356 -4.069,-1.54409 -0.5548,0.0916 -1.57816,-0.0351 -2.48564,-0.0258 z" />
      <path
         style="fill:#ffffff;fill-opacity:1;stroke-width:0.264583"
         d="m 165.4471,190.5712 c 1.56186,1.56673 2.83975,3.0312 2.83975,3.25438 0,0.52504 -0.52139,1.04078 -1.0522,1.04078 -0.22946,0 -1.24744,-0.83698 -2.26218,-1.85996 l -1.84499,-1.85995 -0.13229,4.83652 -0.13229,4.83652 h -0.79375 -0.79375 l -0.1323,-4.83652 -0.13229,-4.83652 -1.84499,1.85995 c -1.01474,1.02298 -2.03273,1.85996 -2.26219,1.85996 -0.53417,0 -1.0522,-0.51676 -1.0522,-1.04962 0,-0.61804 5.59507,-6.09413 6.22655,-6.09413 0.3208,0 1.64817,1.12229 3.36912,2.84859 z"
         id="path8101" />
    </g>
  </g>
</svg>
