<?xml version="1.0" encoding="UTF-8" standalone="no"?>
<svg
   xmlns:dc="http://purl.org/dc/elements/1.1/"
   xmlns:cc="http://creativecommons.org/ns#"
   xmlns:rdf="http://www.w3.org/1999/02/22-rdf-syntax-ns#"
   xmlns:svg="http://www.w3.org/2000/svg"
   xmlns="http://www.w3.org/2000/svg"
   xmlns:sodipodi="http://sodipodi.sourceforge.net/DTD/sodipodi-0.dtd"
   xmlns:inkscape="http://www.inkscape.org/namespaces/inkscape"
   width="210mm"
   height="297mm"
   viewBox="0 0 210 297"
   version="1.1"
   id="svg8043"
   inkscape:version="1.0.2 (e86c870879, 2021-01-15, custom)"
   sodipodi:docname="Sonnenuntergang.svg">
  <defs
     id="defs8037" />
  <sodipodi:namedview
     id="base"
     pagecolor="#ffffff"
     bordercolor="#666666"
     borderopacity="1.0"
     inkscape:pageopacity="0.0"
     inkscape:pageshadow="2"
     inkscape:zoom="1.4"
     inkscape:cx="346.56706"
     inkscape:cy="564.21329"
     inkscape:document-units="mm"
     inkscape:current-layer="layer1"
     inkscape:document-rotation="0"
     showgrid="false"
     inkscape:window-width="1920"
     inkscape:window-height="1137"
     inkscape:window-x="1912"
     inkscape:window-y="-8"
     inkscape:window-maximized="1" />
  <metadata
     id="metadata8040">
    <rdf:RDF>
      <cc:Work
         rdf:about="">
        <dc:format>image/svg+xml</dc:format>
        <dc:type
           rdf:resource="http://purl.org/dc/dcmitype/StillImage" />
        <dc:title></dc:title>
      </cc:Work>
    </rdf:RDF>
  </metadata>
  <g
     inkscape:label="Ebene 1"
     inkscape:groupmode="layer"
     id="layer1">
    <circle
       style="fill:#ffd700;stroke-width:1.65262"
       id="path8112"
       cx="97.793533"
       cy="170.923"
       r="27.594913" />
    <g
       id="g8091"
       transform="translate(-0.56020984,28.88413)">
      <path
         style="fill:#d0d0d0;fill-opacity:1;stroke-width:0.264583"
         d="m 94.952809,159.54224 c -2.626773,-2.7719 -2.982741,-3.37851 -2.352429,-4.00882 0.588996,-0.589 1.117796,-0.32408 2.917006,1.46134 l 1.792577,1.77884 v -4.30977 c 0,-2.46487 0.117248,-4.52886 0.273892,-4.82155 0.155416,-0.2904 0.551966,-0.51178 0.916733,-0.51178 0.364768,0 0.761318,0.22138 0.916734,0.51178 0.156644,0.29269 0.273891,2.35668 0.273891,4.82155 v 4.30977 l 1.792577,-1.77884 c 0.98592,-0.97836 1.98337,-1.77884 2.21656,-1.77884 0.54029,0 1.08809,0.65131 0.97365,1.15763 -0.0484,0.21411 -1.25956,1.64858 -2.69147,3.18771 -3.500627,3.76273 -3.445815,3.76288 -7.029721,-0.019 z m -6.057627,-15.9221 c 0.152544,-2.6351 1.180583,-4.94535 2.994935,-6.73032 6.260436,-6.15908 16.764983,-2.06634 17.274213,6.73032 l 0.11987,2.07078 H 99.029755 88.775306 Z m -11.898948,1.49497 c -0.178074,-0.17808 -0.323771,-0.51427 -0.323771,-0.74711 0,-0.93301 0.550698,-1.05833 4.650728,-1.05833 4.321501,0 4.740802,0.12628 4.563854,1.3745 -0.08567,0.60429 -0.125262,0.61054 -4.326749,0.68229 -3.074352,0.0525 -4.329318,-0.0166 -4.564062,-0.25135 z m 35.454316,-0.52902 c -0.17816,-0.17816 -0.32392,-0.52365 -0.32392,-0.76777 0,-0.92725 0.61777,-1.05401 4.76966,-0.97873 3.50794,0.0636 4.07521,0.13388 4.32866,0.53623 0.21252,0.33736 0.21252,0.58868 -2e-5,0.92604 -0.25375,0.40279 -0.82229,0.47246 -4.37108,0.53558 -2.94879,0.0525 -4.16916,-0.0172 -4.4033,-0.25135 z m -29.691854,-8.24026 c -3.278289,-1.91242 -3.811157,-2.45708 -3.165267,-3.23533 0.543009,-0.65428 1.164742,-0.44696 4.60047,1.53407 3.304248,1.90521 3.927576,2.51687 3.315944,3.25384 -0.564669,0.68038 -1.3802,0.41388 -4.751147,-1.55258 z m 27.667044,1.2564 c -0.9511,-0.9511 -0.62603,-1.30437 3.24814,-3.52985 3.37874,-1.9409 3.98781,-2.14148 4.52763,-1.49103 0.64779,0.78054 -0.0123,1.42481 -3.51473,3.43042 -1.92691,1.10343 -3.58038,2.00623 -3.67437,2.00623 -0.094,0 -0.358,-0.18709 -0.58667,-0.41577 z m -19.294232,-4.70544 c -0.480429,-0.38054 -4.140295,-6.6936 -4.140295,-7.14177 0,-0.51403 0.57448,-0.96618 1.227584,-0.96618 0.484057,0 0.963019,0.65155 2.615262,3.55764 2.074452,3.64871 2.272681,4.43647 1.187772,4.72018 -0.279459,0.0731 -0.680104,-0.003 -0.890323,-0.16987 z m 13.915662,-0.47658 c -0.18088,-0.18088 -0.32887,-0.44821 -0.32887,-0.59407 0,-0.14586 0.90015,-1.84846 2.00033,-3.78354 1.63288,-2.87204 2.10919,-3.51835 2.59292,-3.51835 0.6478,0 1.22758,0.4512 1.22758,0.95533 0,0.17617 -0.87786,1.849 -1.9508,3.71739 -1.55465,2.70723 -2.07888,3.41282 -2.58154,3.47459 -0.34692,0.0426 -0.77874,-0.0705 -0.95962,-0.25135 z m -7.063604,-1.7039 c -0.356526,-0.35653 -0.411139,-1.0438 -0.349626,-4.3999 0.06874,-3.75041 0.105762,-3.99917 0.648817,-4.35937 0.518303,-0.34378 0.630796,-0.32711 1.124479,0.16657 0.501938,0.50194 0.548561,0.85838 0.548561,4.19386 0,2.87105 -0.08748,3.77019 -0.411877,4.23333 -0.486601,0.69472 -0.978924,0.74694 -1.560354,0.16551 z"
         id="path8107" />
      <path
         style="fill:#b9b9b9;fill-opacity:1;stroke-width:0.264583"
         d="m 94.983442,159.46961 c -1.485309,-1.58954 -2.700562,-3.05401 -2.700562,-3.25438 0,-0.48338 0.536148,-0.99931 1.038464,-0.99931 0.221905,0 1.210124,0.80048 2.196042,1.77884 l 1.792577,1.77884 v -4.3741 c 0,-4.76493 0.160989,-5.39408 1.337742,-5.22798 l 0.646633,0.0913 0.07225,4.69636 c 0.03974,2.58299 0.162243,4.69635 0.272227,4.69635 0.109988,0 0.967005,-0.7739 1.904485,-1.71979 0.93747,-0.94588 1.90172,-1.71979 2.14277,-1.71979 0.556,0 1.1028,0.64633 0.98793,1.16776 -0.0484,0.21968 -1.32617,1.65415 -2.83949,3.18771 -2.116105,2.14439 -2.913033,2.78828 -3.451002,2.78828 -0.548767,0 -1.281452,-0.62278 -3.400066,-2.89006 z m -6.07167,-15.88091 c 0.254513,-3.71327 2.304054,-6.8427 5.615766,-8.57467 1.504186,-0.78666 1.75199,-0.83249 4.502217,-0.83249 2.750225,0 2.998035,0.0458 4.502215,0.83249 3.31171,1.73197 5.36126,4.8614 5.61577,8.57467 l 0.14409,2.10222 H 99.029755 88.767682 Z m -11.915391,1.52655 c -0.178155,-0.17815 -0.323918,-0.52365 -0.323918,-0.76777 0,-0.92724 0.61777,-1.05401 4.769664,-0.97872 3.507939,0.0636 4.075205,0.13388 4.328659,0.53622 0.212519,0.33736 0.212513,0.58868 -1.9e-5,0.92604 -0.253757,0.4028 -0.822293,0.47246 -4.371083,0.53559 -2.94879,0.0524 -4.169159,-0.0172 -4.403303,-0.25136 z m 35.454169,-0.52916 c -0.17816,-0.17816 -0.32392,-0.52365 -0.32392,-0.76777 0,-0.92725 0.61777,-1.05401 4.76966,-0.97873 3.50794,0.0636 4.07521,0.13388 4.32866,0.53623 0.21252,0.33736 0.21252,0.58868 -2e-5,0.92604 -0.25375,0.40279 -0.82229,0.47246 -4.37108,0.53558 -2.94879,0.0525 -4.16916,-0.0172 -4.4033,-0.25135 z m -29.624578,-8.21147 c -3.211299,-1.87995 -3.847851,-2.52272 -3.232555,-3.26411 0.533068,-0.6423 1.122355,-0.4544 4.254665,1.35663 3.602,2.08259 4.179766,2.5761 3.774231,3.22381 -0.550299,0.87893 -1.48431,0.62259 -4.796341,-1.31633 z m 27.459118,0.99462 c -0.17537,-0.2113 -0.24833,-0.59825 -0.16215,-0.85989 0.17695,-0.53721 6.59278,-4.31218 7.32886,-4.31218 0.55251,0 1.08887,0.84817 0.88021,1.39192 -0.18794,0.48977 -6.55512,4.16433 -7.21585,4.16433 -0.28173,0 -0.65571,-0.17288 -0.83107,-0.38418 z m -21.294065,-7.91479 c -1.750797,-3.05741 -1.999331,-3.64297 -1.74664,-4.11512 0.359513,-0.67176 1.111536,-0.71145 1.657287,-0.0875 0.222735,0.25466 1.212785,1.87795 2.200111,3.60731 1.909489,3.34459 1.992147,3.9111 0.595256,4.07969 -0.599829,0.0724 -0.864143,-0.26795 -2.706014,-3.48441 z m 16.044775,2.95439 c -0.17463,-0.17463 -0.3175,-0.42836 -0.3175,-0.56384 0,-0.38305 3.66181,-6.69164 4.09081,-7.04767 0.48467,-0.40224 1.19672,-0.26736 1.54995,0.29359 0.21515,0.34169 -0.16329,1.20266 -1.77354,4.03489 -1.67336,2.94325 -2.15523,3.60053 -2.63964,3.60053 -0.32592,0 -0.73546,-0.14288 -0.91008,-0.3175 z m -7.023371,-1.75386 c -0.3635,-0.40166 -0.437882,-1.11218 -0.437882,-4.18276 0,-4.05015 0.19508,-4.71407 1.337741,-4.55278 l 0.646634,0.0913 0.07302,4.19794 c 0.07273,4.18147 -0.05759,4.93019 -0.85816,4.93019 -0.177908,0 -0.520517,-0.21774 -0.761352,-0.48386 z"
         id="path8105" />
      <path
         style="fill:#a3a3a3;fill-opacity:1;stroke-width:0.264583"
         d="m 95.122639,159.51108 c -1.561868,-1.56673 -2.839759,-3.0312 -2.839759,-3.25438 0,-0.52504 0.521396,-1.04078 1.0522,-1.04078 0.22946,0 1.247445,0.83698 2.262188,1.85996 l 1.844987,1.85995 0.132292,-4.83652 0.132291,-4.83652 h 0.79375 0.79375 l 0.132292,4.83652 0.132292,4.83652 1.844988,-1.85995 c 1.01474,-1.02298 2.03273,-1.85996 2.26219,-1.85996 0.53417,0 1.0522,0.51676 1.0522,1.04962 0,0.61804 -5.59507,6.09413 -6.226543,6.09413 -0.320802,0 -1.648169,-1.12229 -3.369118,-2.84859 z m -6.215081,-15.73839 c 0.275999,-3.95536 2.297959,-7.0473 5.705581,-8.72487 1.633797,-0.80432 1.949691,-0.86628 4.416616,-0.86628 2.466925,0 2.782815,0.062 4.416615,0.86628 3.40762,1.67757 5.42958,4.76951 5.70558,8.72487 l 0.13385,1.91823 H 99.029755 88.773708 Z m -11.917595,1.33615 c -0.476742,-0.47675 -0.382509,-1.21659 0.194273,-1.52528 0.281475,-0.15064 2.134771,-0.27389 4.118436,-0.27389 1.983665,0 3.83696,0.12325 4.118435,0.27389 0.576782,0.30869 0.671016,1.04853 0.194273,1.52528 -0.443841,0.44384 -8.181576,0.44384 -8.625417,0 z m 35.460587,-0.52275 c -0.17816,-0.17816 -0.32392,-0.52365 -0.32392,-0.76777 0,-0.92725 0.61777,-1.05401 4.76966,-0.97873 3.50794,0.0636 4.07521,0.13388 4.32866,0.53623 0.21252,0.33736 0.21252,0.58868 -2e-5,0.92604 -0.25375,0.40279 -0.82229,0.47246 -4.37108,0.53558 -2.94879,0.0525 -4.16916,-0.0172 -4.4033,-0.25135 z M 82.833307,136.3566 c -1.777526,-1.03254 -3.295146,-2.04225 -3.372489,-2.2438 -0.202044,-0.52652 0.327128,-1.38646 0.85317,-1.38646 0.592445,0 6.416274,3.34103 7.004114,4.01814 0.581001,0.66923 0.193191,1.54948 -0.666927,1.51379 -0.322302,-0.0134 -2.040343,-0.86912 -3.817868,-1.90167 z m 27.422833,0.97777 c -0.2497,-0.30087 -0.27071,-0.54339 -0.0745,-0.8599 0.34746,-0.56052 6.67769,-4.2773 7.28487,-4.2773 0.54469,0 0.98564,0.69793 0.82618,1.30768 -0.13396,0.51228 -6.45873,4.24857 -7.19196,4.24857 -0.27324,0 -0.65331,-0.18857 -0.84459,-0.41905 z M 89.014364,129.4443 c -1.74975,-3.03969 -2.012494,-3.65183 -1.76552,-4.11331 0.355504,-0.66426 1.113334,-0.70082 1.640415,-0.0791 0.215908,0.25466 1.205691,1.87837 2.199518,3.60825 1.915712,3.33454 2.004196,3.90975 0.627141,4.07693 -0.575204,0.0698 -0.870824,-0.31237 -2.701554,-3.49274 z m 15.963046,2.74265 c -0.24407,-0.45605 -0.0137,-1.01818 1.49122,-3.63802 0.97894,-1.70425 1.95655,-3.30699 2.17245,-3.56166 0.52667,-0.62119 1.28483,-0.58528 1.63963,0.0777 0.24483,0.45746 0.0172,1.01745 -1.47881,3.63802 -0.97249,1.70353 -1.95041,3.30569 -2.17314,3.56036 -0.54257,0.62033 -1.29716,0.58543 -1.65135,-0.0764 z m -6.990986,-1.63615 c -0.323716,-0.46217 -0.411877,-1.35748 -0.411877,-4.18277 0,-3.9401 0.201152,-4.60902 1.337741,-4.44859 l 0.646634,0.0913 0.07319,4.23173 c 0.06481,3.74698 0.02114,4.2698 -0.381299,4.56406 -0.623863,0.45619 -0.78918,0.42275 -1.26439,-0.2557 z"
         id="path8103" />
      <path
         style="fill:#8c8c8c;fill-opacity:1;stroke-width:0.264583"
         d="m 95.122639,159.51108 c -1.561868,-1.56673 -2.839759,-3.0312 -2.839759,-3.25438 0,-0.52504 0.521396,-1.04078 1.0522,-1.04078 0.22946,0 1.247445,0.83698 2.262188,1.85996 l 1.844987,1.85995 0.132292,-4.83652 0.132291,-4.83652 h 0.79375 0.79375 l 0.132292,4.83652 0.132292,4.83652 1.844988,-1.85995 c 1.01474,-1.02298 2.03273,-1.85996 2.26219,-1.85996 0.53417,0 1.0522,0.51676 1.0522,1.04962 0,0.61804 -5.59507,6.09413 -6.226543,6.09413 -0.320802,0 -1.648169,-1.12229 -3.369118,-2.84859 z m -6.279342,-15.08434 c 0,-4.0739 2.377962,-7.82448 6.053663,-9.54797 1.295885,-0.60763 1.826957,-0.69723 4.132795,-0.69723 2.305835,0 2.836915,0.0896 4.132795,0.69723 3.68086,1.72591 6.27089,5.84869 6.00274,9.5551 l -0.0814,1.12476 -10.120311,0.0693 -10.120312,0.0693 z m -11.853334,0.6821 c -0.431206,-0.43121 -0.398882,-0.88624 0.09827,-1.3834 0.338363,-0.33836 1.105157,-0.41577 4.118436,-0.41577 2.046364,0 3.931591,0.12252 4.214434,0.27389 0.576782,0.30869 0.671016,1.04853 0.194273,1.52528 -0.443841,0.44384 -8.181576,0.44384 -8.625417,0 z m 35.460587,-0.52275 c -0.17816,-0.17816 -0.32392,-0.52365 -0.32392,-0.76777 0,-0.92725 0.61777,-1.05401 4.76966,-0.97873 3.50794,0.0636 4.07521,0.13388 4.32866,0.53623 0.21252,0.33736 0.21252,0.58868 -2e-5,0.92604 -0.25375,0.40279 -0.82229,0.47246 -4.37108,0.53558 -2.94879,0.0525 -4.16916,-0.0172 -4.4033,-0.25135 z m -29.619067,-8.24466 c -1.77853,-1.04241 -3.296149,-2.05275 -3.372489,-2.2452 -0.198389,-0.50011 0.330303,-1.36989 0.832685,-1.36989 0.59428,0 6.926669,3.68423 7.213583,4.19692 0.335189,0.59895 -0.153624,1.3638 -0.854087,1.3364 -0.322302,-0.0126 -2.041164,-0.87581 -3.819692,-1.91823 z m 27.434017,0.86591 c -0.41499,-0.7754 -0.18666,-0.97599 3.58698,-3.15115 3.54716,-2.04461 4.36403,-2.20388 4.35465,-0.849 -0.004,0.62908 -0.38304,0.92785 -3.331,2.628 -1.82935,1.05503 -3.54935,1.91823 -3.82223,1.91823 -0.27289,0 -0.62767,-0.24574 -0.7884,-0.54608 z M 90.915516,132.5279 c -0.45356,-0.53704 -3.490201,-5.79967 -3.735995,-6.47464 -0.181571,-0.4986 0.426032,-1.26442 1.003199,-1.26442 0.450495,0 0.959553,0.72676 3.012348,4.30061 1.362055,2.3713 1.587295,2.93339 1.351788,3.37344 -0.348751,0.65165 -1.110266,0.68199 -1.63134,0.065 z m 14.067974,-0.32959 c -0.23551,-0.44005 -0.0103,-1.00215 1.35178,-3.37344 2.15475,-3.75134 2.55761,-4.30062 3.15423,-4.30062 0.27602,0 0.63297,0.24501 0.79323,0.54446 0.24764,0.46272 0.0243,1.00889 -1.48797,3.63802 -0.97864,1.70146 -1.95746,3.30192 -2.17516,3.55659 -0.5273,0.61683 -1.28736,0.58663 -1.63611,-0.065 z m -6.717981,-1.40206 c -0.384734,-0.28132 -0.43121,-0.85756 -0.367279,-4.55381 l 0.07319,-4.23173 h 0.79375 0.79375 l 0.07264,4.2867 c 0.06729,3.97134 0.03592,4.30634 -0.426471,4.55381 -0.350988,0.18784 -0.629827,0.17153 -0.93958,-0.055 z"
         id="path8101" />
      <path
         style="fill:#767676;fill-opacity:1;stroke-width:0.264583"
         d="m 95.122639,159.51108 c -1.561868,-1.56673 -2.839759,-3.0312 -2.839759,-3.25438 0,-0.50753 0.516027,-1.04078 1.007158,-1.04078 0.204686,0 1.252436,0.85356 2.328333,1.8968 l 1.956176,1.8968 v -4.78939 c 0,-4.59442 0.02207,-4.79638 0.541864,-4.96136 1.176932,-0.37355 1.310219,0.1461 1.310219,5.10822 v 4.64253 l 1.95618,-1.8968 c 1.07589,-1.04324 2.12364,-1.8968 2.32833,-1.8968 0.48264,0 1.00716,0.53042 1.00716,1.0185 0,0.61951 -5.579201,6.12525 -6.20698,6.12525 -0.345676,0 -1.600388,-1.05474 -3.388681,-2.84859 z m -6.176975,-14.50665 c -0.244175,-0.97287 0.264784,-3.7371 0.960669,-5.21754 0.9192,-1.95551 2.703743,-3.75296 4.703333,-4.73736 1.637731,-0.80625 1.952098,-0.86799 4.420089,-0.86799 2.467995,0 2.782355,0.0617 4.420085,0.86799 1.99951,0.98435 3.77934,2.77711 4.71223,4.74646 0.6487,1.36942 1.25131,4.7349 0.97619,5.45186 -0.15483,0.40348 -1.05698,0.44307 -10.095159,0.44307 h -9.925139 z m -11.955701,0.10441 c -0.431206,-0.43121 -0.398882,-0.88624 0.09827,-1.3834 0.612175,-0.61217 7.816694,-0.61217 8.428869,0 0.497156,0.49716 0.529481,0.95219 0.09827,1.3834 -0.443841,0.44384 -8.181576,0.44384 -8.625417,0 z m 35.599687,-0.49745 c -0.61585,-0.3587 -0.58902,-1.21567 0.0487,-1.557 0.28285,-0.15137 2.16807,-0.27389 4.21444,-0.27389 3.01328,0 3.78007,0.0774 4.11843,0.41578 0.22868,0.22867 0.41578,0.51782 0.41578,0.64256 0,0.12473 -0.1871,0.41388 -0.41578,0.64256 -0.33971,0.33971 -1.10202,0.4143 -4.16719,0.40772 -2.06327,-0.004 -3.95977,-0.1294 -4.21443,-0.27773 z m -29.302603,-8.06212 c -3.459463,-1.98721 -4.096775,-2.56017 -3.691018,-3.31834 0.148529,-0.27752 0.474223,-0.49838 0.723764,-0.49079 0.249542,0.008 1.941993,0.87672 3.761004,1.93139 3.052661,1.76996 3.307291,1.9777 3.307291,2.69818 0,1.24668 -0.770993,1.09243 -4.101041,-0.82044 z m 26.990743,0.68105 c -0.3921,-0.73265 0.085,-1.14429 3.7955,-3.27482 2.13001,-1.22302 3.27089,-1.73354 3.62375,-1.62154 0.77423,0.24573 0.65564,1.31694 -0.2126,1.92034 -1.46754,1.01991 -6.06575,3.49912 -6.48983,3.49912 -0.24027,0 -0.56284,-0.2354 -0.71682,-0.5231 z m -19.526182,-4.967 c -1.266619,-1.81071 -3.495811,-5.98848 -3.495811,-6.55156 0,-0.75773 0.942054,-1.15403 1.472346,-0.61939 0.195255,0.19686 1.18878,1.83404 2.207835,3.63818 1.479646,2.61957 1.800003,3.37896 1.590556,3.77031 -0.379787,0.70964 -1.188022,0.60147 -1.774926,-0.23754 z m 14.255302,-0.0212 c -0.17823,-0.33304 -0.15488,-0.6842 0.0748,-1.12448 0.88437,-1.69538 3.41921,-5.97259 3.72757,-6.2898 0.52131,-0.53627 1.46528,-0.13724 1.46528,0.61939 0,0.56308 -2.22919,4.74085 -3.49582,6.55155 -0.58513,0.83648 -1.39486,0.94769 -1.77182,0.24334 z m -6.979243,-1.53206 c -0.310819,-0.31082 -0.225028,-8.51323 0.09109,-8.70859 0.153789,-0.0951 0.573445,-0.0991 0.932564,-0.009 l 0.652941,0.16388 -0.07267,4.2928 -0.07267,4.2928 -0.671359,0.0783 c -0.36925,0.0431 -0.756203,-0.007 -0.859896,-0.11024 z"
         id="path8099" />
      <path
         style="fill:#606060;fill-opacity:1;stroke-width:0.264583"
         d="m 95.111908,159.48879 c -1.555966,-1.57898 -2.829028,-2.99922 -2.829028,-3.1561 0,-0.38111 0.752937,-1.11677 1.143003,-1.11677 0.171301,0 1.093658,0.83344 2.049683,1.85208 0.956026,1.01865 1.819398,1.85209 1.918604,1.85209 0.09921,0 0.180377,-2.06902 0.180377,-4.59782 0,-3.87231 0.06612,-4.65268 0.419052,-4.94559 0.303898,-0.25221 0.540197,-0.27145 0.859896,-0.07 0.379484,0.23911 0.4509,0.92746 0.513093,4.9456 0.03974,2.5673 0.108508,4.66782 0.152821,4.66782 0.04431,0 0.914001,-0.83344 1.932651,-1.85209 1.01865,-1.01864 1.98317,-1.85208 2.14339,-1.85208 0.37379,0 1.12285,0.745 1.12285,1.11677 0,0.55942 -5.640589,6.02698 -6.217712,6.02698 -0.361611,0 -1.560742,-1.0159 -3.38868,-2.87088 z m -6.169794,-14.49851 c -0.275442,-1.09744 0.385543,-4.03602 1.2892,-5.73145 3.746829,-7.02977 14.151906,-6.8412 17.781896,0.32225 0.76117,1.50209 1.35486,4.41046 1.10419,5.4092 l -0.17585,0.70064 h -9.911795 -9.911793 z m -11.994809,-0.0739 c -0.150119,-0.2805 -0.201101,-0.69722 -0.113294,-0.92605 0.136159,-0.35482 0.795226,-0.41604 4.479138,-0.41604 4.120853,0 4.327397,0.0249 4.491469,0.54187 0.365318,1.15101 -0.184522,1.31022 -4.525034,1.31022 -3.737693,0 -4.080963,-0.0404 -4.332279,-0.51 z M 112.5424,144.4814 c -0.22867,-0.22868 -0.41577,-0.51783 -0.41577,-0.64256 0,-0.12474 0.1871,-0.41389 0.41577,-0.64256 0.61218,-0.61218 7.8167,-0.61218 8.42887,0 0.22868,0.22867 0.41578,0.51782 0.41578,0.64256 0,0.12473 -0.1871,0.41388 -0.41578,0.64256 -0.61217,0.61217 -7.81669,0.61217 -8.42887,0 z m -29.519937,-8.11768 c -2.792959,-1.62199 -3.31997,-2.03006 -3.38882,-2.62403 -0.159277,-1.37409 0.722684,-1.18542 4.364689,0.93366 3.086087,1.79563 3.389756,2.03971 3.389756,2.72463 0,1.22753 -0.795441,1.03908 -4.365625,-1.03426 z m 27.353697,1.00828 c -0.33068,-0.86174 0.18677,-1.34834 3.45494,-3.24893 3.59182,-2.0888 4.24865,-2.21897 4.24865,-0.84202 0,0.52693 -0.53819,0.94128 -3.30729,2.54628 -3.36848,1.95241 -4.13631,2.22219 -4.3963,1.54467 z m -19.346439,-4.69904 c -0.704748,-0.86207 -3.773924,-6.41473 -3.773924,-6.82767 0,-0.67451 0.67195,-1.15091 1.203646,-0.85336 0.726566,0.40661 4.109212,6.45777 4.027785,7.20524 -0.08135,0.74675 -0.992766,1.04427 -1.457507,0.47579 z m 14.129549,-0.12301 c -0.43113,-0.43113 -0.0543,-1.42939 1.69256,-4.4833 1.02791,-1.79708 1.98148,-3.33698 2.11903,-3.42199 0.50171,-0.31008 1.30369,0.1754 1.30369,0.78919 0,0.51658 -2.93805,5.95165 -3.76333,6.96176 -0.29,0.35494 -1.06309,0.44319 -1.35195,0.15434 z m -7.131603,-1.83994 c -0.103696,-0.10369 -0.188537,-2.07743 -0.188537,-4.38607 0,-3.64208 0.05728,-4.21952 0.432837,-4.36364 0.238062,-0.0914 0.625015,-0.0449 0.859896,0.10329 0.363805,0.22948 0.427059,0.89212 0.427059,4.47387 v 4.2045 l -0.671359,0.0783 c -0.36925,0.0431 -0.756203,-0.007 -0.859896,-0.11024 z"
         id="path8097" />
      <path
         style="fill:#494949;fill-opacity:1;stroke-width:0.264583"
         d="m 95.111908,159.48879 c -1.555966,-1.57898 -2.829028,-2.99922 -2.829028,-3.1561 0,-0.34802 0.739493,-1.11677 1.074272,-1.11677 0.133499,0 1.035893,0.83344 2.005321,1.85208 0.969426,1.01865 1.863729,1.85209 1.987334,1.85209 0.123608,0 0.22474,-2.06902 0.22474,-4.59782 0,-3.87231 0.06612,-4.65268 0.419052,-4.94559 0.303898,-0.25221 0.540197,-0.27145 0.859896,-0.07 0.379484,0.23911 0.4509,0.92746 0.513093,4.9456 0.03974,2.5673 0.156972,4.66782 0.260517,4.66782 0.103544,0 0.965835,-0.83344 1.916195,-1.85209 0.95036,-1.01864 1.86642,-1.85208 2.03569,-1.85208 0.38708,0 1.13931,0.73735 1.13931,1.11677 0,0.55942 -5.640589,6.02698 -6.217712,6.02698 -0.361611,0 -1.560742,-1.0159 -3.38868,-2.87088 z m -6.132186,-14.5728 c -0.456438,-2.07815 0.991635,-5.94142 2.95607,-7.88641 3.956028,-3.91688 10.231898,-3.91688 14.187928,0 1.96443,1.94499 3.41251,5.80826 2.95607,7.88641 l -0.1702,0.77493 h -9.879835 -9.87983 z m -12.051727,-0.0357 c -0.608435,-1.13687 -0.02424,-1.30601 4.511058,-1.30601 3.550364,0 4.196437,0.062 4.332279,0.41604 0.08781,0.22883 0.03683,0.64555 -0.113293,0.92605 -0.25142,0.46978 -0.594875,0.51 -4.355367,0.51 -3.85378,0 -4.098792,-0.0306 -4.374677,-0.54608 z M 112.5424,144.4814 c -0.52589,-0.5259 -0.52253,-0.76259 0.0185,-1.30361 0.37199,-0.37198 0.99946,-0.42212 4.37578,-0.34962 3.14978,0.0676 3.99182,0.16435 4.1919,0.4815 0.34281,0.5434 0.32293,0.6915 -0.1573,1.17173 -0.61217,0.61217 -7.81669,0.61217 -8.42887,0 z m -29.519937,-8.14049 c -2.757191,-1.607 -3.320852,-2.04213 -3.38882,-2.61609 -0.159329,-1.34547 0.718642,-1.14707 4.416693,0.99808 2.872116,1.66605 3.470044,2.11849 3.470044,2.62569 0,0.53397 -0.454163,0.94922 -1.013827,0.92697 -0.09724,-0.004 -1.665079,-0.87446 -3.48409,-1.93465 z m 27.428477,1.23612 c -0.097,-0.097 -0.17639,-0.44325 -0.17639,-0.76942 0,-0.47314 0.54831,-0.91204 2.71198,-2.17083 4.1477,-2.41307 4.40485,-2.52674 4.86042,-2.14866 0.87986,0.73022 0.29149,1.36739 -3.07449,3.3295 -3.15809,1.84092 -3.92698,2.15396 -4.32152,1.75941 z m -19.826284,-5.5617 c -1.646655,-2.64729 -3.368859,-5.83427 -3.368859,-6.23416 0,-0.64083 0.881601,-1.05374 1.390684,-0.65135 0.749079,0.59209 3.943117,6.49982 3.853924,7.12827 -0.149053,1.05021 -1.152259,0.92037 -1.875749,-0.24276 z m 14.688954,0.53882 c -0.64683,-0.26695 -0.30696,-1.26163 1.52602,-4.46618 1.86491,-3.26037 2.39916,-3.82936 3.07158,-3.2713 0.61828,0.51313 0.42577,1.06521 -1.55941,4.47211 -1.81867,3.12116 -2.25399,3.58903 -3.03819,3.26537 z m -7.29809,-1.85629 c -0.09701,-0.097 -0.17639,-2.05352 -0.17639,-4.34779 0,-3.97162 0.02596,-4.17964 0.541864,-4.34339 1.136624,-0.36075 1.310219,0.2021 1.310219,4.24812 0,2.08033 -0.07227,3.97076 -0.160599,4.20094 -0.1597,0.41617 -1.178269,0.57895 -1.515094,0.24212 z"
         id="path8095" />
      <path
         id="path8093"
         style="fill:#333333;fill-opacity:1;stroke-width:0.264583"
         d="m 95.111908,159.48879 c -0.927746,-1.07495 -4.306259,-3.61121 -1.593358,-4.12673 1.287945,0.77172 2.896548,3.51404 3.930268,3.19523 0.287814,-2.93473 -0.08847,-5.91034 0.330411,-8.82883 1.811297,-1.74683 1.547042,2.34191 1.569378,3.47914 0.197796,1.71501 -0.273496,4.55835 0.532839,5.56636 1.526614,-0.75444 2.688934,-4.04964 4.425254,-3.13015 0.82464,1.96197 -2.53292,3.4078 -3.58517,4.9564 -1.15655,1.52738 -2.867992,2.28189 -4.08652,0.37641 -0.519896,-0.48326 -1.024708,-0.98251 -1.523102,-1.48783 z m -6.092631,-14.57162 c -0.414929,-4.41673 2.493415,-8.7637 6.645057,-10.24966 2.060244,-0.70151 4.415426,-0.66879 6.501886,-0.0915 3.68846,1.2753 6.49524,4.68772 6.83511,8.60271 -0.0394,0.76893 0.53105,2.85012 -0.83277,2.51216 -6.33151,0 -12.663027,0 -18.994539,0 -0.05158,-0.25792 -0.103163,-0.51583 -0.154744,-0.77375 z m -11.930515,0.0939 c -0.813109,-2.15849 2.902186,-1.22755 4.170302,-1.43684 1.18315,0.12053 5.77475,-0.50474 4.069296,1.54385 -2.527646,0.51564 -5.178326,0.44176 -7.726909,0.0937 l -0.323948,-0.0932 -0.188737,-0.10752 z m 35.438428,-0.54491 c -1.08862,-2.39019 3.21818,-1.04818 4.53159,-1.42089 1.2427,0.21139 5.11395,-0.7126 3.86649,1.4979 -1.99405,0.59313 -4.18279,0.25335 -6.25437,0.33479 -0.71373,-0.0639 -1.53967,0.0564 -2.14371,-0.4118 z m -29.504727,-8.1257 c -1.031932,-0.75584 -4.671846,-2.1676 -2.713086,-3.43452 2.295984,0.82515 4.38145,2.20897 6.440258,3.51091 1.893018,1.13356 -0.503017,2.57073 -1.562921,1.14977 -0.727318,-0.39819 -1.447765,-0.80883 -2.164251,-1.22616 z m 27.353697,1.03152 c 0.0481,-2.08771 2.95757,-2.60072 4.39399,-3.74178 0.79961,-0.86472 4.39118,-2.02167 2.98208,0.17857 -1.94493,1.50677 -4.12055,2.72964 -6.34668,3.76884 -0.31667,0.13531 -0.90138,0.2588 -1.02939,-0.20563 z m -19.750939,-5.35667 c -1.194331,-2.06458 -2.592118,-4.08456 -3.320538,-6.36597 1.588115,-1.70528 2.576929,1.66425 3.366039,2.72275 0.466214,1.26771 3.017556,4.05767 0.857233,4.55601 -0.43345,-0.13512 -0.666989,-0.56147 -0.902734,-0.91279 z m 14.688389,0.53882 c -0.69571,-1.74601 1.38392,-3.63032 2.03669,-5.2978 0.48007,-1.00337 2.23051,-3.95173 2.85914,-1.70664 -0.83462,2.31743 -2.2352,4.41852 -3.59142,6.46566 -0.2949,0.39479 -0.78536,0.81874 -1.30441,0.53878 z m -7.29809,-1.85629 c -0.257043,-2.63189 -0.243181,-5.30892 -0.04318,-7.94574 1.371993,-2.38981 1.908088,1.59061 1.650386,2.70484 -0.340194,1.63108 0.989058,4.92294 -1.070165,5.40334 l -0.232595,-0.0379 -0.304442,-0.12457 z" />
    </g>
  </g>
</svg>
