<?xml version="1.0" encoding="UTF-8" standalone="no"?>
<svg
   xmlns:dc="http://purl.org/dc/elements/1.1/"
   xmlns:cc="http://creativecommons.org/ns#"
   xmlns:rdf="http://www.w3.org/1999/02/22-rdf-syntax-ns#"
   xmlns:svg="http://www.w3.org/2000/svg"
   xmlns="http://www.w3.org/2000/svg"
   xmlns:sodipodi="http://sodipodi.sourceforge.net/DTD/sodipodi-0.dtd"
   xmlns:inkscape="http://www.inkscape.org/namespaces/inkscape"
   width="210mm"
   height="200mm"
   viewBox="0 0 210 200"
   version="1.1"
   id="svg104"
   inkscape:version="1.0.2 (e86c870879, 2021-01-15, custom)"
   sodipodi:docname="Türen_HaustürSeitenteil_kl_white.svg">
  <defs
     id="defs98">
    <clipPath
       clipPathUnits="userSpaceOnUse"
       id="clipPath126">
      <rect
         style="fill:#008080;stroke-width:0.264583"
         id="rect128"
         width="225.57547"
         height="212.74654"
         x="-8.5526247"
         y="-5.3453903" />
    </clipPath>
  </defs>
  <sodipodi:namedview
     id="base"
     pagecolor="#ffffff"
     bordercolor="#666666"
     borderopacity="1.0"
     inkscape:pageopacity="0.0"
     inkscape:pageshadow="2"
     inkscape:zoom="0.49497475"
     inkscape:cx="364.80645"
     inkscape:cy="581.39489"
     inkscape:document-units="mm"
     inkscape:current-layer="layer1"
     inkscape:document-rotation="0"
     showgrid="false"
     inkscape:window-width="1920"
     inkscape:window-height="1137"
     inkscape:window-x="1912"
     inkscape:window-y="-8"
     inkscape:window-maximized="1" />
  <metadata
     id="metadata101">
    <rdf:RDF>
      <cc:Work
         rdf:about="">
        <dc:format>image/svg+xml</dc:format>
        <dc:type
           rdf:resource="http://purl.org/dc/dcmitype/StillImage" />
        <dc:title></dc:title>
      </cc:Work>
    </rdf:RDF>
  </metadata>
  <g
     inkscape:label="Ebene 1"
     inkscape:groupmode="layer"
     id="layer1">
    <g
       id="g160"
       transform="translate(-2.0263964,-0.94159757)"
       style="fill:#ffffff">
      <path
         style="fill:#ffffff;fill-opacity:1;stroke-width:2.18091"
         d="m 97.478574,279.78066 c 2.099122,-0.54854 5.534046,-0.54854 7.633166,0 2.09913,0.54856 0.38166,0.9974 -3.81658,0.9974 -4.198245,0 -5.915708,-0.44884 -3.816586,-0.9974 z m -7.633171,-15.20735 c 1.499373,-0.605 3.952892,-0.605 5.452265,0 1.499373,0.60501 0.272613,1.10003 -2.726133,1.10003 -2.998745,0 -4.225505,-0.49502 -2.726132,-1.10003 z m 17.447247,0 c 1.49937,-0.605 3.95289,-0.605 5.45227,0 1.49937,0.60501 0.27261,1.10003 -2.72614,1.10003 -2.99874,0 -4.2255,-0.49502 -2.72613,-1.10003 z M -17.666828,215.31162 c -8.621008,-9.26885 -8.621008,-9.26885 0.647842,-0.64784 8.6199389,8.01745 10.2710308,9.91669 8.6210076,9.91669 -0.3563142,0 -4.5272966,-4.17098 -9.2688496,-9.26885 z m 230.188188,6.40552 c 0,-0.37533 3.18957,-3.56491 7.08794,-7.08795 7.08795,-6.40551 7.08795,-6.40551 0.68243,0.68243 -5.97084,6.60697 -7.77037,8.0904 -7.77037,6.40552 z M -66.290241,108.99246 c 0,-2.99875 0.495007,-4.22551 1.100018,-2.72613 0.60501,1.49937 0.60501,3.95289 0,5.45226 -0.605011,1.49937 -1.100018,0.27262 -1.100018,-2.72613 z M 267.74205,98.08793 c 0,-7.796739 0.39583,-10.986313 0.87962,-7.087944 0.48377,3.898369 0.48377,10.277514 0,14.175884 -0.48379,3.89837 -0.87962,0.7088 -0.87962,-7.08794 z m -349.048986,0 c 0,-5.397742 0.425311,-7.605909 0.945137,-4.907038 0.519825,2.698871 0.519825,7.115208 0,9.814078 -0.519826,2.69887 -0.945137,0.4907 -0.945137,-4.90704 z m 14.844517,-9.995818 c 0.10464,-2.540631 0.621429,-3.057412 1.317631,-1.317631 0.630001,1.574341 0.55252,3.455372 -0.172182,4.18007 -0.724698,0.724695 -1.240153,-0.563402 -1.145456,-2.862439 z m 48.898207,-107.773101 c 4.685115,-4.797993 9.009095,-8.723623 9.6088441,-8.723623 0.5997491,0 -2.7428231,3.92563 -7.4279391,8.723623 -4.685115,4.797993 -9.009095,8.723624 -9.608844,8.723624 -0.599749,0 2.742823,-3.925631 7.427939,-8.723624 z m 235.400632,-0.545226 c -6.40551,-7.087944 -6.40551,-7.087944 0.68243,-0.682425 6.60697,5.970843 8.0904,7.770369 6.40552,7.770369 -0.37534,0 -3.56491,-3.189575 -7.08795,-7.087944 z M 89.845403,-69.105291 c 1.499373,-0.605009 3.952892,-0.605009 5.452265,0 1.499373,0.605012 0.272613,1.100018 -2.726133,1.100018 -2.998745,0 -4.225505,-0.495006 -2.726132,-1.100018 z m 17.447247,0 c 1.49937,-0.605009 3.95289,-0.605009 5.45227,0 1.49937,0.605012 0.27261,1.100018 -2.72614,1.100018 -2.99874,0 -4.2255,-0.495006 -2.72613,-1.100018 z m -9.814076,-15.325324 c 2.099122,-0.548557 5.534046,-0.548557 7.633166,0 2.09913,0.548559 0.38166,0.997379 -3.81658,0.997379 -4.198245,0 -5.915708,-0.44882 -3.816586,-0.997379 z"
         id="path168" />
      <path
         style="fill:#ffffff;fill-opacity:1;stroke-width:2.18091"
         d="m -28.605941,226.21615 c -6.405519,-7.08794 -6.405519,-7.08794 0.682425,-0.68243 6.606957,5.97084 8.090402,7.77038 6.40552,7.77038 -0.375334,0 -3.564909,-3.18958 -7.087945,-7.08795 z m 257.484091,0.54523 c 2.17107,-2.399 4.4381,-4.36181 5.03785,-4.36181 0.59975,0 -0.68587,1.96281 -2.85694,4.36181 -2.17107,2.39899 -4.4381,4.36181 -5.03785,4.36181 -0.59975,0 0.68587,-1.96282 2.85694,-4.36181 z M 23.779912,191.32028 C 23.204258,189.82015 22.989707,147.86497 23.303133,98.086547 L 23.873,7.5803351 h 77.42216 77.42216 V 100.26884 c 0,92.6885 0,92.6885 -7.63317,92.97315 -7.63317,0.28465 -7.63317,0.28465 -0.54523,-0.68341 7.08795,-0.96806 7.08795,-0.96806 7.08795,-92.42793 V 8.6707881 H 101.29516 24.963453 v 91.5242719 91.52426 l 23.444738,0.70106 23.444738,0.70105 -23.513186,0.46318 c -17.159223,0.33802 -23.796019,-0.27388 -24.559831,-2.26433 z m 18.124619,-86.08929 c 3.919851,-0.48539 9.808297,-0.47538 13.085436,0.0222 3.277138,0.49764 0.06999,0.89476 -7.127002,0.88253 -7.19699,-0.0131 -9.878285,-0.41939 -5.958434,-0.90477 z m 0,-87.236243 c 3.919851,-0.485386 9.808297,-0.475369 13.085436,0.02225 3.277138,0.497626 0.06999,0.89476 -7.127002,0.882519 -7.19699,-0.01221 -9.878285,-0.419391 -5.958434,-0.904775 z m 53.511671,-0.04805 c 12.959788,-0.386238 33.569348,-0.384784 45.799018,0.0033 12.22967,0.387979 1.6262,0.703993 -23.56327,0.702213 C 92.46249,18.65041 82.456402,18.332958 95.416202,17.946717 Z M -33.921007,-24.725225 c 0,-0.375334 3.189575,-3.564909 7.087944,-7.087945 7.087945,-6.405519 7.087945,-6.405519 0.682426,0.682425 -5.970843,6.606957 -7.77037,8.090402 -7.77037,6.40552 z m 262.591957,-6.40552 c -4.15461,-4.907038 -4.15461,-4.907038 0.75243,-0.752438 4.6114,3.904297 5.89987,5.659477 4.1546,5.659477 -0.41384,0 -2.62201,-2.208168 -4.90703,-4.907039 z"
         id="path166" />
      <path
         style="fill:#ffffff;fill-opacity:1;stroke-width:2.18091"
         d="M 62.479472,275.79074 C -2.9815329,260.8188 -57.445944,208.49396 -74.817875,143.88695 c -5.33256,-19.83202 -5.33256,-71.76602 0,-91.598044 16.569375,-61.6222572 68.8249233,-113.885713 130.31401,-130.333735 22.045238,-5.896988 72.038485,-5.277521 94.431435,1.170102 80.55582,23.194506 131.2611,90.781414 131.2611,174.962657 0,72.8293 -35.51586,130.41682 -100.66419,163.22284 -31.12743,15.67449 -84.303092,22.19728 -118.045008,14.47997 z M 125.95782,263.5885 C 233.30094,246.96293 297.28096,133.50456 255.56474,33.751206 197.08124,-106.09674 -3.8103425,-101.23369 -55.824728,41.289119 -98.934897,159.41378 1.9576716,282.79393 125.95782,263.5885 Z"
         id="path164" />
      <path
         style="fill:#ffffff;fill-opacity:1;stroke-width:2.18091"
         d="M 24.963453,100.26884 V 8.6707881 h 76.331707 76.33171 V 100.26884 c 0,91.59804 0,91.59804 -6.54272,91.59804 -6.54272,0 -6.54272,0 -6.54272,-87.23623 V 17.394412 H 117.65195 70.762476 v 87.236238 87.23623 H 47.862965 24.963453 Z m 34.894494,44.70857 c 0,-40.34676 0,-40.34676 -11.994982,-40.34676 -11.994983,0 -11.994983,0 -11.994983,40.34676 0,40.34676 0,40.34676 11.994983,40.34676 11.994982,0 11.994982,0 11.994982,-40.34676 z m 0,-87.236239 c 0,-40.346759 0,-40.346759 -11.994982,-40.346759 -11.994983,0 -11.994983,0 -11.994983,40.346759 0,40.346759 0,40.346759 11.994983,40.346759 11.994982,0 11.994982,0 11.994982,-40.346759 z M 122.55899,183.65451 90.39063,175.8265 v -68.26997 c 0,-68.269958 0,-68.269958 4.907038,-69.438518 2.698871,-0.642709 18.401392,-4.451371 34.894492,-8.463697 l 29.98746,-7.295134 v 84.753859 c 0,66.45164 -0.58869,84.71234 -2.72613,84.56166 -1.49938,-0.10577 -17.2019,-3.7148 -34.8945,-8.02019 z m -12.9985,-70.57876 C 110.248,94.9842 109.15909,93.2446 98.430799,95.295441 c -7.921456,1.514284 -7.446099,4.973399 0.683454,4.973399 6.542717,0 6.542717,0 6.542717,13.2324 0,12.2201 -0.33219,13.12696 -4.34229,11.85421 -5.073378,-1.61023 -9.401076,0.43622 -7.483591,3.53878 0.731886,1.18421 4.428175,1.85246 8.213971,1.48498 6.88327,-0.66814 6.88327,-0.66814 7.51543,-17.30346 z m -10.446237,0.27852 c 0,-1.1995 -0.981408,-2.1809 -2.180906,-2.1809 -1.199498,0 -2.180906,0.9814 -2.180906,2.1809 0,1.1995 0.981408,2.18091 2.180906,2.18091 1.199498,0 2.180906,-0.98141 2.180906,-2.18091 z"
         id="path162" />
    </g>
  </g>
</svg>
