<svg viewBox="0 0 96 96" xmlns="http://www.w3.org/2000/svg" xmlns:xlink="http://www.w3.org/1999/xlink" id="Icons_CommentImportant" overflow="hidden"><path d="M78.565 16.991 17.4 16.991C15.5299 17.0094 14.0184 18.5209 14 20.391L14 61.666C13.9834 63.5271 15.4786 65.0494 17.3397 65.066 17.3598 65.0662 17.3799 65.0662 17.4 65.066L54.78 65.066 68.37 78.957 68.37 65.164 78.565 65.164C80.4351 65.1456 81.9466 63.6341 81.965 61.764L81.965 20.489C81.9884 18.5856 80.4683 17.0217 78.565 16.991ZM45.8 25 50.208 25 50.208 45.712 45.8 45.712ZM48 56C45.9709 56.0006 44.3256 54.3561 44.325 52.327 44.3244 50.2979 45.9689 48.6526 47.998 48.652 50.0271 48.6514 51.6724 50.2959 51.673 52.325 51.673 52.3253 51.673 52.3257 51.673 52.326 51.6924 54.3357 50.0789 55.9805 48.0693 55.9999 48.0488 56.0001 48.0284 56.0001 48.008 56Z"/></svg>